<?xml version="1.0" encoding="UTF-8" standalone="no"?>
<svg
   xmlns:dc="http://purl.org/dc/elements/1.1/"
   xmlns:cc="http://creativecommons.org/ns#"
   xmlns:rdf="http://www.w3.org/1999/02/22-rdf-syntax-ns#"
   xmlns:svg="http://www.w3.org/2000/svg"
   xmlns="http://www.w3.org/2000/svg"
   width="210mm"
   height="297mm"
   viewBox="0 0 210 297"
   version="1.1"
   id="svg8">
  <defs
     id="defs2">
    <clipPath
       clipPathUnits="userSpaceOnUse"
       id="clipPath1031">
      <path
         id="path1033"
         style="fill:#ff0000;fill-opacity:1;fill-rule:nonzero;stroke:none;stroke-width:0.264583"
         d="m 115.99033,194.3654 v 54.21426 h 27.91613 c -0.0563,-0.28573 -0.0793,-0.68441 -0.078,-0.74311 0.002,-0.13201 0.0168,-0.26353 0.031,-0.39481 0.007,-0.0666 0.0221,-0.13234 0.0331,-0.19844 0.0122,-0.0749 -0.003,-0.1619 0.0155,-0.23409 -0.25528,-0.60541 -0.23901,-0.60035 -0.39894,-1.16014 l -0.002,-0.002 c -0.97059,-3.39705 2.46124,-4.37787 3.43183,-0.98082 0.0526,0.1841 0.0721,0.25969 0.0961,0.34313 0.18312,-0.01 0.3662,-0.0215 0.54932,-0.0258 0.1126,-0.003 0.0641,0.21599 0.0961,0.32401 0.0177,0.21504 0.0385,0.36326 0.0424,0.50695 0.005,0.0213 0.008,0.0441 0.009,0.0703 0.0259,-0.002 0.0516,-0.007 0.0775,-0.009 0.19918,-0.0154 0.39962,0.002 0.59944,0.001 8e-4,-3e-5 0.002,3e-5 0.003,0 7.9e-4,-8e-5 0.001,8e-5 0.002,0 0.146,-0.0177 0.29232,-0.0328 0.43925,-0.0367 0.008,-2e-4 0.0716,0.01 0.11782,0.016 0.20426,-0.0153 -0.23843,-0.018 0.27233,-0.0625 0.55561,-0.048 0.61499,-0.041 1.10071,-0.045 0.032,10e-4 0.0641,0.002 0.0961,0.003 0.004,-0.72906 0.0113,-1.45812 0.0212,-2.18695 5e-5,-0.0422 0.001,-0.0642 0.002,-0.1018 -0.002,-0.0105 -0.004,-0.0211 -0.006,-0.0315 -0.006,-0.0261 -0.0509,-0.0705 -0.0248,-0.0765 0.0118,-0.003 0.0214,-0.005 0.0331,-0.008 0.012,-0.79641 0.16765,-0.39424 2.31924,-0.71934 0.51171,-0.21387 0.79944,-0.36961 0.94413,-0.36018 0.0751,0.005 0.11853,0.0578 0.15245,0.1602 0.1019,-0.0191 0.0551,0.20648 0.0775,0.31005 0.02,0.0926 0.0267,0.14051 0.0424,0.21756 0.90041,-0.10013 1.16775,-0.1275 1.2299,0.23771 0.005,1.9e-4 0.009,2.6e-4 0.0139,5.3e-4 -8e-4,0.0564 -5.3e-4,0.0864 -10e-4,0.12919 0.0128,0.20019 5.3e-4,0.47929 5.3e-4,0.8754 -2e-5,0.0139 1e-5,0.0279 0,0.0419 0.0362,0.26563 0.21516,0.63416 5.3e-4,0.71727 1.2e-4,0.12553 7.9e-4,0.25119 0,0.37672 -5.3e-4,0.11838 -0.006,0.23171 -0.0139,0.3421 l 0.0486,0.006 c -0.0362,0.89924 -0.1177,1.7972 -0.15606,2.69648 h 72.18474 v -1.16117 h 5.3e-4 c 0,-1.7665 0.89217,-2.64945 1.78439,-2.64945 0.65948,0 1.31778,0.48387 1.61695,1.449 0.11679,0.13924 0.2223,0.28053 0.31936,0.416 0.34713,-0.004 0.69618,0.0339 1.04904,0.0393 -0.0275,6e-5 -0.0558,-0.004 -0.0827,0.001 -0.16686,0.0337 -0.66673,0.13046 -0.49713,0.11576 0.21475,-0.0186 0.42157,-0.0916 0.63408,-0.12764 0.13585,-0.023 0.29279,3e-5 0.43046,0.001 0.47793,-0.006 0.67,0.0126 0.96583,0.16692 0.12246,-0.0296 0.48111,-0.035 0.60203,-0.0388 1.75805,-0.0567 0.891,0.86611 0.0129,1.78801 H 323.7996 V 194.3654 Z m 28.27838,51.00515 c -0.002,0.004 -0.005,0.007 -0.006,0.0114 -0.0302,0.0761 -0.049,0.13883 -0.0641,0.19844 0.017,-0.004 0.0342,-0.006 0.0512,-0.01 0.004,-0.0668 0.0109,-0.13361 0.0191,-0.19999 z m 84.04448,0.83509 c -0.14047,0.12899 -0.28897,0.28241 -0.39532,0.44649 -0.0531,0.0819 -0.11449,0.24213 -0.16072,0.39015 0.11584,-0.15734 0.29242,-0.37865 0.55604,-0.83664 z m -84.29098,0.24185 -0.001,5.3e-4 c -0.003,0.037 -5.3e-4,0.0744 -0.001,0.11162 5.3e-4,0.002 0.001,0.006 0.002,0.007 0.001,-0.0278 0.004,-0.0554 0.006,-0.0832 0.001,-0.012 -0.005,-0.0482 -0.006,-0.0362 z m 89.55681,0.40669 c 0.008,0.004 0.0165,0.009 0.0243,0.0134 -0.005,-0.004 -0.0101,-0.008 -0.015,-0.0119 -0.002,-5.3e-4 -0.007,-0.001 -0.009,-0.002 z" />
    </clipPath>
  </defs>
  <metadata
     id="metadata5">
    <rdf:RDF>
      <cc:Work
         rdf:about="">
        <dc:format>image/svg+xml</dc:format>
        <dc:type
           rdf:resource="http://purl.org/dc/dcmitype/StillImage" />
        <dc:title></dc:title>
      </cc:Work>
    </rdf:RDF>
  </metadata>
  <g
     id="layer1">
    <g
       id="g1144"
       transform="matrix(0.88723823,0,0,1,-81.11277,-34.165121)">
      <path
         style="fill:#c8b7b7;stroke:#000000;stroke-width:1.465;stroke-linecap:butt;stroke-linejoin:miter;stroke-miterlimit:4;stroke-dasharray:none;stroke-opacity:1"
         d="M 107.61464,161.42196 H 310.4902 c 0,0 2.47074,0.82358 2.74527,2.19622 0.27453,1.37263 0.27453,2.74527 0.27453,3.84337 0,1.09811 0.27453,2.19622 0,3.84338 -0.27453,1.64717 -0.54906,6.58866 -0.54906,6.58866 l -205.8067,1.08505 -2.71768,-3.78534 c 0,0 0.0971,-2.81474 -0.0971,-3.97946 -0.19412,-1.16472 -0.4853,-2.23238 -0.29118,-2.9118 0.19412,-0.67942 0.38824,-1.4559 0.9706,-2.23238 0.58236,-0.77648 2.59572,-4.6477 2.59572,-4.6477 z"
         id="path851" />
      <path
         id="path847"
         style="fill:#ffe680;stroke:#000000;stroke-width:1.465;stroke-linecap:butt;stroke-linejoin:miter;stroke-miterlimit:4;stroke-dasharray:none;stroke-opacity:1"
         d="m 138.6362,145.49938 c 55.45448,0.0915 110.90897,0.18302 166.36345,0.27453 -4.64361,11.10783 -9.52198,23.50741 -6.03957,35.63061 0.48008,4.24299 7.30113,10.68584 5.27605,12.6926 -55.56601,0.27239 -111.13202,0.54476 -166.69803,0.81715 -2.20539,-8.3123 -10.0867,-16.16129 -8.64948,-24.65207 2.13722,-6.81468 3.05081,-14.10243 7.18318,-20.10027 0.8548,-1.55418 1.7096,-3.10837 2.5644,-4.66255 z" />
      <path
         style="fill:none;stroke:#000000;stroke-width:1.865;stroke-linecap:butt;stroke-linejoin:miter;stroke-miterlimit:4;stroke-dasharray:none;stroke-opacity:1"
         d="m 157.57858,196.2869 -1.09811,21.96217 -40.35549,-0.54905 0.54905,29.92346 37.08541,0.0319 169.90805,0.7917 v -31.29609 l -38.4338,0.27452 v -23.06028"
         id="path853"
         clip-path="url(#clipPath1031)" />
      <path
         style="fill:none;stroke:#000000;stroke-width:0.865;stroke-linecap:butt;stroke-linejoin:miter;stroke-miterlimit:4;stroke-dasharray:none;stroke-opacity:1"
         d="m 160.8729,146.87202 -1.64716,-3.43159 c 0,0 -3.70612,-0.54905 -3.84338,0 -0.13726,0.54905 -1.92169,4.25517 -1.92169,4.25517 l -3.43159,16.1971 v 16.1971 l 2.05896,7.41224 5.49054,8.78486"
         id="path855" />
      <path
         style="fill:none;stroke:#000000;stroke-width:0.865;stroke-linecap:butt;stroke-linejoin:miter;stroke-miterlimit:4;stroke-dasharray:none;stroke-opacity:1"
         d="m 175.28558,146.32296 -1.92169,-2.19621 c 0,0 -1.78443,-2.19622 -2.88254,-0.54906 -1.09811,1.64717 -1.5099,1.64717 -2.60801,4.39244 -1.0981,2.74527 -2.33347,12.21645 -2.47074,14.00088 -0.13726,1.78443 -0.96084,14.13815 -0.96084,16.05984 0,1.92169 1.37263,5.76507 1.78442,8.09855 0.41179,2.33348 3.84338,8.64761 3.84338,8.64761"
         id="path857" />
      <path
         style="fill:none;stroke:#000000;stroke-width:0.865;stroke-linecap:butt;stroke-linejoin:miter;stroke-miterlimit:4;stroke-dasharray:none;stroke-opacity:1"
         d="m 189.1492,145.49938 c 0,0 -0.96085,-1.78442 -2.33348,-1.5099 -1.37264,0.27453 -1.78443,0.82359 -2.88254,2.60801 -1.09811,1.78443 -2.88253,4.66696 -3.43159,6.45139 -0.54905,1.78442 -1.64716,19.2169 -1.64716,19.2169 l 1.37264,12.62825 5.21601,10.1575"
         id="path859" />
      <path
         style="fill:none;stroke:#000000;stroke-width:0.865;stroke-linecap:butt;stroke-linejoin:miter;stroke-miterlimit:4;stroke-dasharray:none;stroke-opacity:1"
         d="m 203.36411,145.00062 c 0,0 -0.96085,-1.78442 -2.33348,-1.5099 -1.37264,0.27453 -1.78443,0.82359 -2.88254,2.60801 -1.09811,1.78443 -2.88253,4.66696 -3.43159,6.45139 -0.54905,1.78442 -1.64716,19.2169 -1.64716,19.2169 l 1.37264,12.62825 5.21601,10.1575"
         id="path859-2" />
      <path
         style="fill:none;stroke:#000000;stroke-width:0.865;stroke-linecap:butt;stroke-linejoin:miter;stroke-miterlimit:4;stroke-dasharray:none;stroke-opacity:1"
         d="m 218.32584,144.45158 c 0,0 -0.96085,-1.78443 -2.33348,-1.5099 -1.37264,0.27453 -1.78443,0.82359 -2.88254,2.60801 -1.09811,1.78443 -2.88253,4.66696 -3.43159,6.45139 -0.54905,1.78442 -1.64716,19.2169 -1.64716,19.2169 l 1.37264,12.62825 5.21601,10.1575"
         id="path859-9" />
      <path
         style="fill:none;stroke:#000000;stroke-width:0.865;stroke-linecap:butt;stroke-linejoin:miter;stroke-miterlimit:4;stroke-dasharray:none;stroke-opacity:1"
         d="m 232.87578,145.00063 c 0,0 -0.96085,-1.78442 -2.33348,-1.5099 -1.37264,0.27453 -1.78443,0.82359 -2.88254,2.60801 -1.09811,1.78443 -2.88253,4.66696 -3.43159,6.45139 -0.54905,1.78442 -1.64716,19.2169 -1.64716,19.2169 l 1.37264,12.62825 5.21601,10.1575"
         id="path859-92" />
      <path
         style="fill:none;stroke:#000000;stroke-width:0.865;stroke-linecap:butt;stroke-linejoin:miter;stroke-miterlimit:4;stroke-dasharray:none;stroke-opacity:1"
         d="m 246.32761,144.86336 c 0,0 -0.96085,-1.78442 -2.33348,-1.5099 -1.37264,0.27453 -1.78443,0.82359 -2.88254,2.60801 -1.09811,1.78443 -2.88253,4.66696 -3.43159,6.45139 -0.54905,1.78442 -1.64716,19.2169 -1.64716,19.2169 l 1.37264,12.62825 5.21601,10.1575"
         id="path859-3" />
      <path
         style="fill:none;stroke:#000000;stroke-width:0.865;stroke-linecap:butt;stroke-linejoin:miter;stroke-miterlimit:4;stroke-dasharray:none;stroke-opacity:1"
         d="m 262.11292,145.00062 c 0,0 -0.96085,-1.78442 -2.33348,-1.5099 -1.37264,0.27453 -1.78443,0.82359 -2.88254,2.60801 -1.09811,1.78443 -2.88253,4.66696 -3.43159,6.45139 -0.54905,1.78442 -1.64716,19.2169 -1.64716,19.2169 l 1.37264,12.62825 5.21601,10.1575"
         id="path859-21" />
      <path
         style="fill:none;stroke:#000000;stroke-width:0.865;stroke-linecap:butt;stroke-linejoin:miter;stroke-miterlimit:4;stroke-dasharray:none;stroke-opacity:1"
         d="m 276.38833,145.13789 c 0,0 -0.96084,-1.78442 -2.33348,-1.5099 -1.37264,0.27453 -1.78442,0.82359 -2.88254,2.60801 -1.09811,1.78443 -2.88252,4.66696 -3.43159,6.45139 -0.54905,1.78442 -1.64716,19.2169 -1.64716,19.2169 l 1.37264,12.62825 5.21601,10.1575"
         id="path859-8" />
      <path
         style="fill:none;stroke:#000000;stroke-width:1.065;stroke-linecap:butt;stroke-linejoin:miter;stroke-miterlimit:4;stroke-dasharray:none;stroke-opacity:1"
         d="m 147.55834,164.30449 2.67664,4.18654 2.67663,-3.50022"
         id="path926" />
      <path
         style="fill:none;stroke:#000000;stroke-width:1.065;stroke-linecap:butt;stroke-linejoin:miter;stroke-miterlimit:4;stroke-dasharray:none;stroke-opacity:1"
         d="m 161.9742,165.01417 2.67664,4.18654 2.67663,-3.50022"
         id="path926-0" />
      <path
         style="fill:none;stroke:#000000;stroke-width:1.065;stroke-linecap:butt;stroke-linejoin:miter;stroke-miterlimit:4;stroke-dasharray:none;stroke-opacity:1"
         d="m 176.24961,165.01417 2.67664,4.18654 2.67663,-3.50022"
         id="path926-3" />
      <path
         style="fill:none;stroke:#000000;stroke-width:1.065;stroke-linecap:butt;stroke-linejoin:miter;stroke-miterlimit:4;stroke-dasharray:none;stroke-opacity:1"
         d="m 190.73092,164.80827 2.67664,4.18654 2.67663,-3.50022"
         id="path926-09" />
      <path
         style="fill:none;stroke:#000000;stroke-width:1.065;stroke-linecap:butt;stroke-linejoin:miter;stroke-miterlimit:4;stroke-dasharray:none;stroke-opacity:1"
         d="m 205.48675,164.19058 2.67664,4.18654 2.67663,-3.50022"
         id="path926-7" />
      <path
         style="fill:none;stroke:#000000;stroke-width:1.065;stroke-linecap:butt;stroke-linejoin:miter;stroke-miterlimit:4;stroke-dasharray:none;stroke-opacity:1"
         d="m 220.10532,164.53375 2.67664,4.18654 2.67663,-3.50022"
         id="path926-2" />
      <path
         style="fill:none;stroke:#000000;stroke-width:1.065;stroke-linecap:butt;stroke-linejoin:miter;stroke-miterlimit:4;stroke-dasharray:none;stroke-opacity:1"
         d="m 233.55715,165.0828 2.67664,4.18654 2.67663,-3.50022"
         id="path926-71" />
      <path
         style="fill:none;stroke:#000000;stroke-width:1.065;stroke-linecap:butt;stroke-linejoin:miter;stroke-miterlimit:4;stroke-dasharray:none;stroke-opacity:1"
         d="m 249.34247,166.31817 2.67664,4.18654 2.67663,-3.50022"
         id="path926-8" />
      <path
         style="fill:none;stroke:#000000;stroke-width:1.065;stroke-linecap:butt;stroke-linejoin:miter;stroke-miterlimit:4;stroke-dasharray:none;stroke-opacity:1"
         d="m 263.54925,166.3868 2.67664,4.18654 2.67663,-3.50022"
         id="path926-1" />
      <path
         style="fill:none;stroke:#000000;stroke-width:1.065;stroke-linecap:butt;stroke-linejoin:miter;stroke-miterlimit:4;stroke-dasharray:none;stroke-opacity:1"
         d="m 143.85222,243.7801 c -0.2059,8.30445 -0.2059,8.37308 -0.2059,8.37308"
         id="path1035" />
      <path
         style="fill:none;stroke:#000000;stroke-width:1.065;stroke-linecap:butt;stroke-linejoin:miter;stroke-miterlimit:4;stroke-dasharray:none;stroke-opacity:1"
         d="m 145.97981,240.27988 -0.27453,15.03036"
         id="path1037" />
      <path
         style="fill:none;stroke:#000000;stroke-width:1.065;stroke-linecap:butt;stroke-linejoin:miter;stroke-miterlimit:4;stroke-dasharray:none;stroke-opacity:1"
         d="m 148.06503,244.05737 -0.14559,7.71627"
         id="path1039" />
      <path
         style="fill:none;stroke:#000000;stroke-width:1.065;stroke-linecap:butt;stroke-linejoin:miter;stroke-miterlimit:4;stroke-dasharray:none;stroke-opacity:1"
         d="m 150.59676,240.48478 -0.179,14.9512"
         id="path1041" />
      <path
         style="fill:none;stroke:#000000;stroke-width:1.065;stroke-linecap:butt;stroke-linejoin:miter;stroke-miterlimit:4;stroke-dasharray:none;stroke-opacity:1"
         d="m 153.21371,242.79323 -0.14559,7.71627"
         id="path1039-6" />
      <path
         style="fill:none;stroke:#000000;stroke-width:1.065;stroke-linecap:butt;stroke-linejoin:miter;stroke-miterlimit:4;stroke-dasharray:none;stroke-opacity:1"
         d="m 155.39607,239.88194 -0.20012,14.95094"
         id="path1041-2" />
      <path
         style="fill:none;stroke:#000000;stroke-width:0.965;stroke-linecap:butt;stroke-linejoin:miter;stroke-miterlimit:4;stroke-dasharray:none;stroke-opacity:1"
         d="m 233.69122,244.70663 c 1.50026,3.07769 1.03273,5.50889 -0.20589,7.68676"
         id="path1069" />
      <path
         style="fill:none;stroke:#000000;stroke-width:0.965;stroke-linecap:butt;stroke-linejoin:miter;stroke-miterlimit:4;stroke-dasharray:none;stroke-opacity:1"
         d="m 228.13794,252.13803 c -1.31373,-3.16181 -0.70181,-5.56074 0.66469,-7.66073"
         id="path1069-9" />
      <ellipse
         style="opacity:1;fill:#1a1a1a;stroke:none;stroke-width:0.21;stroke-linecap:square;paint-order:markers fill stroke"
         id="path1091"
         cx="231.08321"
         cy="248.24117"
         rx="1.0981085"
         ry="1.1324244" />
      <text
         xml:space="preserve"
         style="font-size:10.5833px;line-height:1.25;font-family:sans-serif;letter-spacing:0px;word-spacing:0px;stroke-width:0.264583"
         x="134.52516"
         y="243.03825"
         id="text1095"><tspan
           id="tspan1093"
           x="134.52516"
           y="243.03825"
           style="stroke-width:0.264583">-</tspan></text>
      <text
         xml:space="preserve"
         style="font-size:10.5833px;line-height:1.25;font-family:sans-serif;letter-spacing:0px;word-spacing:0px;stroke-width:0.264583"
         x="158.49898"
         y="243.23236"
         id="text1099"><tspan
           id="tspan1097"
           x="158.49898"
           y="243.23236"
           style="stroke-width:0.264583">+</tspan></text>
      <path
         style="fill:none;stroke:#000000;stroke-width:1.065;stroke-linecap:butt;stroke-linejoin:miter;stroke-miterlimit:4;stroke-dasharray:none;stroke-opacity:1"
         d="m 184.99636,243.42648 4.07652,4.46476 -4.46476,4.853"
         id="path1101" />
      <path
         style="fill:none;stroke:#000000;stroke-width:0.965;stroke-linecap:butt;stroke-linejoin:miter;stroke-miterlimit:4;stroke-dasharray:none;stroke-opacity:1"
         d="m 281.95931,208.97018 2.91179,-5.24124 3.49417,5.04712"
         id="path1103" />
      <path
         style="fill:none;stroke:#000000;stroke-width:1.065;stroke-linecap:butt;stroke-linejoin:miter;stroke-miterlimit:4;stroke-dasharray:none;stroke-opacity:1"
         d="m 153.74304,203.24364 3.20298,5.3383 3.20298,-5.3383"
         id="path1105" />
    </g>
  </g>
</svg>
