<?xml version="1.0" encoding="UTF-8" standalone="no"?>
<svg
   xmlns:dc="http://purl.org/dc/elements/1.1/"
   xmlns:cc="http://creativecommons.org/ns#"
   xmlns:rdf="http://www.w3.org/1999/02/22-rdf-syntax-ns#"
   xmlns:svg="http://www.w3.org/2000/svg"
   xmlns="http://www.w3.org/2000/svg"
   xmlns:sodipodi="http://sodipodi.sourceforge.net/DTD/sodipodi-0.dtd"
   xmlns:inkscape="http://www.inkscape.org/namespaces/inkscape"
   width="400mm"
   height="400mm"
   viewBox="0 0 400 400"
   version="1.1"
   id="svg1907"
   sodipodi:docname="eyedetails.svg"
   inkscape:version="1.0.2 (e86c870879, 2021-01-15, custom)">
  <sodipodi:namedview
     pagecolor="#ffffff"
     bordercolor="#666666"
     borderopacity="1"
     objecttolerance="10"
     gridtolerance="10"
     guidetolerance="10"
     inkscape:pageopacity="0"
     inkscape:pageshadow="2"
     inkscape:window-width="1920"
     inkscape:window-height="1017"
     id="namedview84"
     showgrid="false"
     inkscape:zoom="0.23415355"
     inkscape:cx="-314.19475"
     inkscape:cy="219.29378"
     inkscape:window-x="-8"
     inkscape:window-y="-8"
     inkscape:window-maximized="1"
     inkscape:current-layer="svg1907"
     inkscape:document-rotation="0" />
  <defs
     id="defs1901">
    <rect
       x="-338.66666"
       y="2056.9463"
       width="81.64286"
       height="30.238094"
       id="rect2391" />
    <rect
       x="-338.66666"
       y="2056.9463"
       width="81.64286"
       height="30.238094"
       id="rect2479" />
    <rect
       x="-328.83929"
       y="1893.6606"
       width="55.940475"
       height="31.75"
       id="rect2397" />
    <rect
       x="-328.83929"
       y="1893.6606"
       width="55.940475"
       height="31.75"
       id="rect2482" />
    <rect
       x="-298.6012"
       y="1722.0594"
       width="95.25"
       height="44.601189"
       id="rect2403" />
    <rect
       x="-298.6012"
       y="1722.0594"
       width="95.25"
       height="44.601189"
       id="rect2485" />
    <rect
       x="173.86905"
       y="1726.5952"
       width="175.38097"
       height="46.113094"
       id="rect2409" />
    <rect
       x="173.86905"
       y="1726.5952"
       width="175.38097"
       height="46.113094"
       id="rect2488" />
    <rect
       x="245.68452"
       y="1806.7262"
       width="134.55952"
       height="40.065475"
       id="rect2419" />
    <rect
       x="245.68452"
       y="1806.7262"
       width="134.55952"
       height="40.065475"
       id="rect2491" />
    <rect
       x="229.05357"
       y="2051.6548"
       width="139.09525"
       height="56.69643"
       id="rect2425" />
    <rect
       x="229.05357"
       y="2051.6548"
       width="139.09525"
       height="56.69643"
       id="rect2494" />
  </defs>
  <metadata
     id="metadata1904">
    <rdf:RDF>
      <cc:Work
         rdf:about="">
        <dc:format>image/svg+xml</dc:format>
        <dc:type
           rdf:resource="http://purl.org/dc/dcmitype/StillImage" />
        <dc:title />
      </cc:Work>
    </rdf:RDF>
  </metadata>
  <g
     id="g1013">
    <rect
       style="fill:#cbdfbd;fill-opacity:1;fill-rule:evenodd;stroke-width:0.117807"
       id="rect2344"
       width="392.6857"
       height="225.15189"
       x="4.2000837"
       y="83.461502" />
    <g
       id="g2342"
       transform="matrix(0.43931827,0,0,0.4512708,157.10691,-609.05118)"
       style="stroke:#070c0b;stroke-width:0.6;stroke-miterlimit:4;stroke-dasharray:none;stroke-opacity:1">
      <path
         style="fill:#3771c8;stroke:#070c0b;stroke-width:0.6;stroke-linecap:butt;stroke-linejoin:miter;stroke-miterlimit:4;stroke-dasharray:none;stroke-opacity:1"
         d="m 248.70833,1774.9762 -1.51191,-43.8453 -21.92261,-73.3273 -24.19048,-33.262 -33.2619,-25.7023 -55.18453,-21.1667 -35.529758,-3.7798 -27.970237,6.0477 -25.702381,9.8273 -26.4583334,21.1667 -17.3869046,18.8988 -11.339286,14.3631 -6.803572,12.0952 -13.229167,13.2292 -8.693451,11.7173 -10.961309,18.8988 -8.693452,18.5208 -4.535715,15.875 -1.889881,15.497 2.645833,16.631 4.157739,17.7649 5.669643,15.497 12.076803,18.5792 13.898014,16.5708 7.216278,11.7598 12.561667,17.1053 6.1472,13.6307 20.0452138,25.1234 10.9580505,9.6217 11.2253197,8.5526 12.02713,6.949 16.83798,7.7508 24.321526,5.6126 25.123336,2.1382 26.192414,-4.009 21.11429,-8.5527 20.31248,-13.3634 22.18337,-15.5017 10.42352,-9.8889 13.0962,-13.8981 9.08717,-13.6307 5.07812,-9.3544 1.33634,-3.2073 21.38157,-1.3363 h 16.83798 l 20.84703,0.8018 8.55263,0.5345 28.59783,-4.5435 21.11428,-6.4145 26.45968,-10.6908 23.51974,-10.958 19.51066,-9.3545 22.18339,-6.1472 17.10523,-3.7418 h 47.03945 l 43.29766,0.2673 h 2.13815 l 0.80182,-72.6973 -28.59786,0.5346 h -31.27052 -32.07234 l -22.18338,1.8708 -26.72694,7.2163 -22.9852,8.0181 -22.18336,11.4926 -14.16529,7.4835 -22.45063,9.3545 -19.77795,5.6126 -24.58879,1.8709 -27.2615,0.2673 -2.67269,0.2673 z"
         id="path2130" />
      <path
         id="rect2172"
         style="fill:#c83737;fill-rule:evenodd;stroke:#070c0b;stroke-width:2.26772;stroke-miterlimit:4;stroke-dasharray:none;stroke-opacity:1"
         d="m -39.957031,6167.123 c -0.150955,0.2478 -0.306283,0.4921 -0.46875,0.7305 0.09687,0.6303 0.195418,1.2567 0.27539,1.8887 0.398527,-0.8997 0.811572,-1.7878 1.451172,-2.5137 0.07093,-0.081 0.127187,-0.1119 0.171875,-0.1055 z m 1.435547,0 c 0.312253,0.068 4.46e-4,2.1533 -0.351563,3.6758 0.349251,-0.4165 0.62071,-0.7852 0.697266,-0.8789 -0.487023,0.7331 -0.639212,0.9757 -0.751953,1.1153 -0.288122,1.182 -0.582198,1.9085 -0.572266,0.7363 -0.531424,0.6925 -0.97897,1.1475 -1.5,1.5586 -0.70829,0.7972 -1.470414,1.5365 -2.451172,2.0429 -0.231661,0.1192 -0.486861,0.1853 -0.746094,0.2442 -0.22609,0.2386 -0.336179,0.3531 -0.310546,0.3516 0.04208,0.018 0.07019,0.048 0.08008,0.092 0.09125,0.4014 -0.580562,0.584 -0.871094,0.875 -0.175624,0.2603 -0.359194,0.4915 -0.53711,0.7403 -0.378066,1.3292 -0.891705,2.2359 -1.46875,1.8203 -1.092,1.1276 -2.37651,1.9791 -4.146484,2.3418 -0.07688,0.013 -0.156642,0.011 -0.234375,0.019 -0.32942,0.2282 -0.661068,0.4519 -0.986328,0.6856 -0.0029,0 -0.465149,0.1668 -0.796875,0.2871 -0.132971,0.2554 -0.26742,0.5101 -0.400391,0.7656 0.486953,-0.029 0.973986,-0.058 1.460938,-0.088 -0.01715,0.1007 -0.139085,0.1581 -0.173828,0.2481 0.0701,-0.057 0.02435,-0.024 0.101562,-0.086 -0.04059,0.038 -0.126259,0.1739 -0.123047,0.1172 7.21e-4,-0.013 0.01709,-0.02 0.02148,-0.031 -1.694951,1.38 -1.497966,1.3475 -1.958985,1.5293 -0.542663,0.6527 -1.181032,1.2176 -1.78125,1.8164 -0.481642,0.3795 -0.991077,0.6971 -1.509765,0.9961 0.06897,0.2028 0.150058,0.4011 0.207031,0.6074 0.182404,0.6606 -0.357771,1.3229 -0.537109,1.9844 -0.774197,1.1655 -1.276491,2.5348 -2.199219,3.6035 -0.06429,0.3225 -0.24622,0.6113 -0.369141,0.916 -0.338063,0.5568 -0.659114,1.1254 -1.013672,1.6719 -0.502702,0.7748 -1.36315,1.8488 -2.230468,2.3359 3.395612,0.8101 0.358398,2.557 -2.769532,3.6953 -0.631209,0.9856 -1.384099,1.8106 -2.316406,2.541 -0.03714,0.1209 -0.103868,0.3483 -0.113281,0.3789 -0.348919,0.6225 -0.628406,1.2874 -1.046875,1.8653 -0.501298,0.692 -1.172992,1.2346 -1.921875,1.6445 -0.07134,0.103 -0.145567,0.202 -0.220703,0.3008 0.01004,-0.065 0.01781,-0.1285 0.02734,-0.1934 -0.112453,0.057 -0.228382,0.1071 -0.34375,0.1582 -0.0246,0.1896 -0.07254,0.3742 -0.111328,0.5606 0.1501,-0.1671 0.291519,-0.3442 0.427735,-0.5235 -0.324302,2.0859 -0.917772,4.0932 -1.658203,2.3321 0.552914,-0.4221 1.001548,-0.8961 1.148437,-1.3985 0.03913,-0.1339 0.05364,-0.2738 0.08203,-0.4101 -0.415488,0.4624 -0.878063,0.8894 -1.425781,1.2929 0.06642,0.2138 0.130896,0.3603 0.195313,0.5137 -0.834235,0.6368 -1.910852,1.1532 -2.59375,1.4414 0.484074,-0.2782 1.010361,-0.4957 1.453125,-0.8359 0.630084,-0.4836 0.934158,-1.8907 0.921875,-2.4688 -0.202395,0.043 -0.403814,0.082 -0.605469,0.1094 -0.341826,0.045 -0.686128,-0.01 -1.029297,-0.074 -1.069655,2.5507 -0.926701,3.6097 -0.748047,4.1074 0.04264,-0.047 0.06503,-0.071 0.111328,-0.1211 0.07499,-0.083 0.210739,-0.3893 0.158203,-0.291 -0.167654,0.309 -0.129404,0.244 -0.248046,0.4668 0.144154,0.3655 0.204353,0.4367 -0.365235,0.6836 -0.450873,0.8646 -0.533302,1.03 -1.527344,2.4355 -0.04186,0.036 -0.08326,0.073 -0.125,0.1094 -0.354826,1.8892 -0.964766,4.0322 -0.992187,4.0156 -0.720072,-0.4319 -1.418114,-0.896 -2.107422,-1.375 0.0662,-0.048 0.138673,-0.088 0.203125,-0.1386 1.003268,-0.7886 1.934116,-1.6658 2.896484,-2.5039 0.459897,-2.4525 0.477185,-4.4577 -1.898437,-0.6153 -0.730837,1.1821 -1.220955,2.1394 -1.595703,2.9824 0.130503,0.093 0.259362,0.188 0.390625,0.2793 -0.235451,0.1726 -0.475859,0.3392 -0.722656,0.4961 -0.103386,0.2756 -0.179167,0.5228 -0.246094,0.7598 0.632531,0.5427 1.269346,1.0801 1.923828,1.5898 0.09475,-0.087 0.359424,-0.3754 0.285156,-0.2695 -0.09411,0.1362 -0.641509,0.7189 -1.085937,1.1914 -0.03703,0.087 -0.08821,0.161 -0.128907,0.2442 0.30041,0.055 0.179805,0.166 -0.08398,0.164 0.02849,-0.053 0.05706,-0.107 0.08398,-0.1621 -0.02237,0 -0.05873,6e-4 -0.08594,-0.01 -0.07787,0.082 -0.08357,0.088 -0.146485,0.1543 0.05072,0.01 0.102142,0.017 0.146485,0.018 -0.500643,0.9425 -1.221869,1.6894 -2.033203,2.416 0.04268,-0.055 0.120069,-0.1494 0.08594,-0.1152 -0.126352,0.1246 -0.101187,0.1045 -0.21875,0.2207 0.04354,-0.033 0.08854,-0.065 0.128907,-0.1016 -0.04654,0.06 -0.05958,0.083 -0.08984,0.1231 -0.08388,0.065 -0.242885,0.206 -0.345703,0.2891 0.13665,-0.136 0.142053,-0.1459 0.30664,-0.3086 -0.139528,0.1062 -0.284658,0.2046 -0.386719,0.3457 -0.03922,0.054 0.0017,0.025 0.0625,-0.021 -1.171164,1.1625 -2.08831,2.0827 -2.439453,2.4531 0.04916,-0.1266 -0.251148,0.01 -1.6875,1.1191 -0.153845,0.1852 -0.30711,0.3676 -0.460937,0.5528 0.05235,-0.023 0.192597,-0.1052 0.158203,-0.063 -0.439608,0.5768 -0.924653,1.1168 -1.386719,1.6758 -0.32925,0.3742 -0.626694,0.779 -0.988281,1.123 -0.200418,0.19 -0.409148,0.3726 -0.617187,0.5547 -0.04943,1.8135 -0.115168,2.0584 -0.498047,3.3086 0.01766,0.082 -0.0022,-0.01 0.01758,0.084 0.510788,3.0251 -1.717909,3.9869 -2.445313,6.0664 -0.0023,0.01 -0.0036,0.045 -0.0059,0.045 -0.350449,0.5609 -0.640146,1.165 -1.052735,1.6816 -0.293297,0.3674 -0.693271,0.6354 -1.046874,0.9454 -0.09515,0.081 -0.299917,0.2687 -0.398438,0.3398 0.10825,-0.1002 0.22154,-0.1964 0.3125,-0.3125 0.09722,-0.1241 0.19133,-0.3669 0.273438,-0.6152 -0.211265,0.3102 -0.43075,0.6154 -0.632813,0.9316 -0.02897,0.046 -0.0078,0.037 0.0293,0.012 -0.05082,0.048 -0.09483,0.1029 -0.148438,0.1485 0.117285,-0.2527 0.220249,-0.5119 0.320313,-0.7735 -0.133215,0.2756 -0.263867,0.5539 -0.388672,0.834 0.02193,-0.018 0.04291,-0.036 0.06445,-0.055 -0.0902,0.1937 -0.189502,0.3826 -0.294922,0.5684 -0.179787,0.4094 -0.355933,0.8209 -0.546875,1.2246 -0.04787,0.033 -0.09343,0.071 -0.140625,0.1055 -0.388468,0.912 -0.468709,0.264 -0.427734,0.6406 -0.68194,1.1414 -1.32349,2.38 -2.25976,3.3457 -0.0356,0.037 -0.11192,0.1118 -0.16016,0.1621 -0.0681,0.2006 -0.15153,0.4411 -0.1875,0.5723 -0.32834,1.1966 -1.26889,2.4586 -2.26367,3.1308 -0.35436,0.5019 -0.77758,0.9254 -1.21875,1.336 -0.002,0.01 1e-4,0.01 -0.002,0.014 -0.097,0.2366 -0.20601,0.4669 -0.30859,0.7012 -0.44229,1.0099 -0.11857,0.3403 -1.20312,1.9629 -0.40501,0.3511 -0.91538,0.6094 -1.2168,1.0527 -0.20736,0.305 0.55259,-0.655 0.91992,-0.6172 0.24863,0.023 -0.16712,0.4867 -0.33398,0.6719 -0.76064,0.8462 -1.50951,1.728 -2.42774,2.4004 -0.0107,0.01 -0.077,0.034 -0.0957,0.045 -0.46322,0.5755 -1.03743,1.0538 -1.73828,1.6192 -0.007,0.013 -0.015,0.026 -0.0215,0.039 -0.011,0.038 -0.0683,3e-4 -0.0703,0.037 0.0339,-0.027 0.0585,-0.049 0.0918,-0.076 0.18456,-0.3759 0.39658,-0.7413 0.59765,-1.1114 -0.035,0.015 -0.0693,0.029 -0.10351,0.043 -1.1e-4,0.01 1.1e-4,0.018 0,0.023 -1.20939,0.4716 -0.70801,0.2687 0,-0.023 0.0199,-0.8882 0.0484,-1.6833 0.084,-2.3926 -0.60974,0.8121 -1.05342,1.4969 -1.39062,2.086 -0.15156,0.4547 -0.36359,0.8754 -0.60742,1.2812 0.32816,-0.031 0.22252,0.047 -0.0918,0.168 -0.6082,1.5981 -0.27352,1.8736 -1.35156,1.9082 -0.0168,0.024 -0.0302,0.05 -0.0508,0.072 -0.0106,0.045 -0.0183,0.079 -0.0293,0.125 -1.03172,4.2688 -3.88363,12.8993 -5.93359,8.0097 -0.28148,0.3047 -0.6503,0.6414 -1.00977,0.9571 -0.009,0.015 -0.021,0.053 -0.0293,0.062 -0.24308,0.4065 -0.59775,0.7207 -0.97851,1.0137 -0.0719,0.2608 -0.1407,0.5238 -0.23633,0.7754 -0.20237,0.5325 -0.60022,0.9671 -0.90039,1.4512 -0.10805,0.046 -0.22069,0.084 -0.33008,0.1269 -0.0246,0.1352 -0.0352,0.2728 -0.0684,0.4063 -0.3133,1.2632 -1.37741,2.5194 -2.44336,3.418 -0.11078,0.6094 -0.6643,1.2416 -0.93555,1.8261 -0.17136,0.3692 -0.47718,0.6615 -0.71484,0.9903 -1.77253,2.1419 -3.65338,4.1666 -5.50195,6.2421 -0.0249,0.055 -0.0581,0.1076 -0.084,0.1622 -0.008,0.4011 -0.11777,0.8655 -0.18164,1.2031 -0.24456,1.293 -0.86556,2.4838 -1.29883,3.7265 -0.008,0.015 -0.0113,0.019 -0.0195,0.033 -0.01,0.042 -0.0178,0.084 -0.0273,0.125 -0.0541,0.234 -0.18737,0.4411 -0.28125,0.6641 -0.38255,0.7772 -0.63429,1.2205 -0.91992,1.6348 -0.0444,0.2556 -0.11811,0.5261 -0.23633,0.8242 -0.18974,0.4784 -0.47263,0.909 -0.76563,1.3359 0.0247,-0.068 0.0392,-0.119 0.0625,-0.1855 -0.0202,0.058 -0.042,0.1145 -0.0625,0.1719 -6.6e-4,0.01 -6.5e-4,0.012 -0.002,0.017 h -0.002 c -1.7e-4,0 1.6e-4,0 0,0.01 h -0.002 c -0.002,0 -0.004,0.01 -0.006,0.01 -0.086,0.2403 -0.16487,0.4834 -0.26368,0.7187 -0.13173,0.3136 0.0708,-0.1899 0.26758,-0.7207 -0.19826,1.5047 -0.52556,3.1042 -2.19726,3.6875 0.0156,-0.043 0.0266,-0.088 0.041,-0.1308 -1.4549,1.2227 -3.23436,2.013 -4.7539,3.1562 -0.18936,0.1436 1.90565,-0.336 0.18554,0.049 -0.11498,0.024 -0.21836,0.044 -0.33008,0.068 -0.54603,0.5552 -1.09266,1.1104 -1.63867,1.666 -0.58901,2.5686 -1.45282,3.6533 -3.77929,5.377 -0.49844,0.3704 -0.44574,0.3632 -0.7461,0.3027 -1.96862,1.3599 -4.15439,2.5671 -5.51172,4.6016 -0.48776,0.5771 -0.9585,1.1696 -1.46289,1.7324 -0.58697,0.655 -1.25971,1.2267 -1.88086,1.8496 -1.32867,1.3319 -2.63174,2.6901 -3.9082,4.0723 -0.62577,0.6395 -2.51649,2.3932 -3.17578,3.2734 -0.37527,0.501 -0.59472,1.1329 -0.99805,1.6016 -0.0505,0.3126 -0.10093,0.6258 -0.15625,0.9375 -0.0798,0.1839 -0.15915,0.3673 -0.24023,0.5507 -0.0813,0.2068 -0.18323,0.4412 -0.21289,0.586 -0.008,0 -0.028,-6e-4 -0.0234,-0.039 0.0741,-0.1844 0.15594,-0.3651 0.23633,-0.5469 0.1117,-0.2845 0.18622,-0.5218 -0.002,-0.4453 -1.39863,0.5752 -2.66314,1.4453 -3.95117,2.2578 -0.14853,0.2687 -0.32433,0.5436 -0.79883,1.2618 -0.0187,0.2101 -0.0401,0.4208 -0.0508,0.6308 -0.032,0.1029 -0.0629,0.2059 -0.0957,0.3086 0.10956,-0.1123 -0.32634,1.0586 -0.27539,0.8809 0.0848,-0.2959 0.18176,-0.5876 0.27539,-0.8809 -0.0142,0.015 -0.0354,0.045 -0.0703,0.1094 -0.48469,0.8865 -0.82397,1.8505 -1.31446,2.7324 0.17213,-0.7604 0.36769,-2.0017 0.36133,-2.5098 -0.22264,0.5193 -0.36779,1.0125 -0.5,1.7266 -0.004,0.022 0.007,0.056 0.008,0.082 -0.0134,-0.068 -0.0389,-0.121 -0.0801,-0.1582 -0.0276,0.2118 -0.0595,0.4223 -0.084,0.6348 -0.90369,0.023 -1.66326,0.072 -2.41211,0.1211 v 556.1016 c 0.14346,-0.1821 0.30715,-0.3393 0.52539,-0.4219 0.0783,-0.03 0.1593,-0.047 0.24024,-0.055 0.56657,-0.054 1.18218,0.3903 1.65039,0.7441 0.24949,0.1885 0.24225,0.5631 0.3164,0.8789 0.0305,0.05 0.1169,0.1723 0.10157,0.1622 0.0804,0.088 0.25092,0.2635 0.12695,0.1367 0.29415,0.4205 0.38739,0.8878 0.44141,1.3672 0.12034,0.181 0.24098,0.3633 0.36133,0.5429 -0.28895,-0.3328 -0.36426,-0.4074 -0.3418,-0.3613 1.8e-4,0 -1.8e-4,-4e-4 0,0.01 0.12285,0.2074 1.25608,1.6507 1.01172,1.4492 -0.15224,-0.1236 -0.18876,-0.3817 -0.36719,-0.4649 -0.11389,-0.054 -0.32498,-0.1266 -0.51367,-0.1992 0.18626,0.355 0.28961,0.7687 0.37304,1.127 1.74528,1.7413 0.4773,-1.0581 1.16602,0.5683 0.32988,0.4917 0.64005,0.9678 0.87695,1.5157 0.07,0.1611 0.10492,0.3394 0.16993,0.5019 0.0373,0.094 0.23849,0.5216 0.35546,0.7715 0.63882,0.1177 0.7388,0.09 0.9336,0.2129 0.012,0 0.0292,-0.01 0.041,-0.01 0.27604,-0.039 0.3765,0.4093 0.56446,0.6172 0.0327,0.061 0.0603,0.1254 0.0918,0.1875 0.11593,0.1568 0.23598,0.3103 0.34375,0.4727 0.12741,0.192 0.21031,0.4109 0.33008,0.6074 0.82084,1.3501 1.72998,2.6458 2.56055,3.9902 0.56491,0.3874 0.32595,0.094 1.0664,1.0098 0.13743,0.1697 0.23061,0.3711 0.35938,0.5488 0.0321,0.044 0.11174,0.139 0.15625,0.1973 0.0562,0.053 0.12349,0.1178 0.26758,0.2519 0.22359,0.2419 0.44893,0.481 0.66992,0.7266 0.16002,0.1754 0.30193,0.371 0.47266,0.5371 0.49522,0.4826 0.55586,0.4919 0.70898,0.5879 0.66092,-1.1417 1.08344,-1.5987 0.70703,0.5977 0.12321,0.127 0.22712,0.2521 0.43945,0.5117 0.45594,0.621 0.88864,1.2487 1.42383,1.8047 0.16787,0.1739 0.37686,0.325 0.51953,0.5253 0.0912,0.1272 0.16583,0.2648 0.24414,0.4004 -0.0297,-0.049 -0.0451,-0.096 -0.008,-0.1269 0.0734,-0.06 0.14036,0.1295 0.20117,0.2051 0.17816,0.2147 0.34768,0.4371 0.51368,0.6601 0.10499,0.1432 0.17187,0.3165 0.29882,0.4375 0.0986,0.098 0.24199,0.1294 0.35938,0.2012 0.15144,0.091 0.29877,0.1927 0.44726,0.2871 0.44246,0.3546 0.55864,0.3973 0.89063,0.8652 0.091,0.13 0.15297,0.2722 0.22656,0.4121 0.16973,0.3207 0.29896,0.6594 0.42774,0.9981 0.21063,0.2751 0.4308,0.5457 0.59961,0.8476 0.0745,0.1335 0.10233,0.2854 0.13671,0.4356 0.004,0 0.008,0.01 0.0117,0.014 0.0155,0.023 0.0175,0.068 0.0371,0.068 0.0511,0.042 0.12094,0.056 0.16992,0.1016 0.86986,0.7869 0.68362,0.4931 0.98829,1.1035 0.17377,0.3555 0.29812,0.6049 0.44921,0.8809 0.29846,0.3209 0.30854,0.343 0.54883,0.6679 -0.0129,-0.034 -0.0376,-0.064 -0.0371,-0.1015 5e-5,-0.01 0.005,0 0.008,-0.012 -0.22422,-0.524 -0.52011,-0.917 0.0566,-0.088 0.11095,0.191 0.155,0.2341 0.20507,0.2695 0.083,0.011 0.10282,0.033 0.0606,0.059 0.0491,0.029 0.0967,0.048 0.2207,0.1738 0.30392,0.309 0.43053,0.4572 0.58008,0.6406 0.36915,-1.7391 3.41335,4.6471 3.23047,1.5235 -0.0206,-0.3526 -0.019,-0.7052 -0.0625,-1.0567 -0.006,-0.049 -0.10891,-0.1627 -0.084,-0.1211 0.14456,0.2532 0.21737,0.1708 0.11914,0.2539 0.11433,0.1361 0.24315,0.2628 0.34179,0.4102 0.0968,0.1466 0.16529,0.3101 0.24024,0.4688 0.012,0.026 -0.0338,-0.031 -0.0508,-0.068 0.088,0.1606 0.17767,0.3199 0.26562,0.4824 0.17518,0.2815 0.37281,0.5484 0.55078,0.8281 0.24719,0.3889 0.48122,0.7855 0.72266,1.1778 0.20918,0.4313 0.34171,0.6968 0.55469,1.1523 0.0525,0.1134 0.10166,0.2265 0.15234,0.3399 0.0436,0.095 0.10094,0.189 0.12891,0.291 0.007,0.026 -0.0429,-0.053 -0.0645,-0.053 0.009,0.026 0.0187,0.038 0.0274,0.076 0.46058,0.3345 0.40514,0.2826 0.94726,0.7637 0.10557,0.095 0.17642,0.2186 0.26172,0.332 0.56913,0.7502 0.31201,0.3849 0.89453,1.4492 -2.9e-4,0 -0.002,0.01 -0.002,0.01 0.17222,0.1672 0.32308,0.359 0.46484,0.5527 0.15811,0.2161 0.23504,0.4776 0.28321,0.7481 0.0425,0.083 0.0872,0.1656 0.10156,0.2558 0.006,0 0.0146,0.01 0.0195,0.01 0.089,0.049 0.16697,0.1171 0.25,0.1738 0.84741,0.9749 0.534,0.519 0.42969,0.7325 0.0651,0.048 0.12733,0.089 0.19922,0.1523 0.1604,0.1413 0.30052,0.3364 0.42578,0.543 0.0743,0.057 0.1508,0.1114 0.22265,0.1718 0.24115,0.2018 0.47114,0.4845 0.69141,0.7149 0.18318,0.2924 0.45501,0.6613 0.5332,1.0508 0.71577,1.2432 -0.44521,-0.9966 0.50977,0.8613 0.008,0.01 0.0157,0.018 0.0234,0.027 0.12023,-0.2068 0.44843,0.5264 0.24218,0.2989 -0.0861,-0.097 -0.16261,-0.1985 -0.24218,-0.2989 -0.0131,0.022 -0.0221,0.056 -0.0293,0.1016 0.24175,0.3018 0.29832,0.367 0.43164,0.5332 0.1781,0.1523 0.3203,0.3421 0.44531,0.5469 0.0682,0.078 0.25002,0.2674 0.32422,0.3437 -0.0185,-0.035 -0.0454,-0.087 -0.0332,-0.066 0.0406,0.069 0.0396,0.068 0.0449,0.076 0.15679,0.1608 0.27088,0.2774 0.66797,0.6699 0.36457,0.412 0.74909,0.8074 1.09375,1.2363 0.67072,0.8346 0.62067,1.1453 0.20703,1.6504 0.0378,0.029 0.0781,0.056 0.10938,0.092 0.13643,-0.2006 0.27483,-0.3763 0.41796,-0.4863 0.36026,-0.277 0.41423,1.1474 0.58008,2.0391 0.006,0.013 0.0116,0.028 0.0176,0.041 0.0376,0.083 0.12021,0.1742 0.17188,0.2422 0.10784,0.1381 0.17802,0.243 0.23437,0.3359 0.10807,-0.088 0.23673,-0.2829 0.40039,-0.6562 0.46493,0.6485 0.9354,1.291 1.39453,1.9433 1.19834,1.7023 2.29909,3.4925 3.19336,5.375 0.0733,0.1527 0.1075,0.3238 0.16211,0.4864 -0.10279,0.5238 -0.0337,1.1324 -0.16015,1.6445 0.0935,0.119 0.12127,0.2274 0.19921,0.6074 0.0567,0.043 0.10956,0.095 0.15821,0.1445 0.56827,0.579 0.76662,0.8729 1.2207,1.4746 0.93209,1.3232 1.82021,2.6748 2.77149,3.9844 0.35859,0.4939 0.72579,0.9757 1.06054,1.4863 0.15937,0.2464 0.31925,0.4947 0.47852,0.7403 0.4299,0.6652 0.3666,0.5814 0.83789,1.2519 0.229,0.3254 0.45471,0.6426 0.65234,0.9903 0.15504,0.261 0.31754,0.5216 0.38867,0.8164 0.0971,0.1604 0.26844,0.5148 0.66407,1.3867 0.0469,0.1059 0.0209,0.2398 -0.0273,0.3418 -0.0915,0.1931 -0.15688,0.4935 -0.26172,0.7051 1.1269,0.8981 2.2678,1.7795 3.2461,2.8476 0.4551,0.531 0.9264,1.0471 1.36523,1.5918 0.89681,1.1123 1.72402,2.0064 2.26953,3.2832 0.22667,0.5302 0.44235,1.0686 0.59375,1.625 0.19685,0.2104 0.30509,0.3504 0.59375,0.8926 0.0862,0.1637 0.10971,0.3566 0.21289,0.5078 0.0448,0.064 0.14401,0.072 0.21094,0.1133 0.18346,0.1195 0.35253,0.2582 0.5293,0.3867 0.2862,0.1489 0.37312,0.3624 0.5957,0.627 0.0172,0.019 -0.0521,-0.1088 -0.0352,-0.07 0.0271,0.033 0.29335,0.4026 0.33984,0.4668 0.10704,0.1266 0.1776,0.2733 0.25195,0.4179 0.13388,0.067 0.26617,0.1412 0.37891,0.211 0.34446,0.2131 1.11018,1.372 1.42773,1.7461 0.38456,0.4532 0.51156,0.544 0.89453,0.8691 0.88444,1.1017 1.02149,1.2245 1.75586,2.293 0.14262,0.2075 0.28855,0.4137 0.40821,0.6367 0.015,0.028 0.0223,0.059 0.0352,0.088 0.45683,0.4217 0.796,0.9512 1.16992,1.4472 0.0479,0.056 0.64649,0.761 0.74219,0.8555 0.0497,0.049 0.10222,0.1211 0.17188,0.1211 0.0269,0 -0.0202,-0.035 -0.0625,-0.065 0.22361,0.1182 0.4229,0.2497 0.63476,0.3907 0.18018,0.2181 0.38371,0.4179 0.54102,0.6523 0.11828,0.1769 0.27612,0.5902 0.29687,0.8926 0.2853,0.4398 0.61685,1.03 0.47852,1.4531 -0.001,0 -0.003,0.01 -0.004,0.01 0.15186,0.1212 0.30045,0.2683 0.43555,0.4707 0.22534,0.045 0.43766,0.1558 0.67969,0.3594 0.0147,0 0.0304,8e-4 0.0449,0.012 0.33002,0.096 0.616498,0.8338 0.654294,0.9472 0.04969,0.1462 0.08515,0.3383 0,0.4668 -0.113503,0.1739 -0.259434,0.323 -0.408204,0.4688 h 218.06881 v -834.311 z m -47.267578,0.6504 c -0.002,0 -0.0038,0 -0.0059,0.01 h 0.0039 c 6.74e-4,0 0.0013,-0.01 0.002,-0.01 z m 46.115234,3.1934 c -0.08608,0 -0.19199,0.015 -0.310547,0.037 0.02426,0.1802 0.04442,0.3642 0.07031,0.543 0.29028,-0.1468 0.559138,-0.2686 0.464843,-0.1172 0.09142,-0.093 0.181038,-0.1858 0.267578,-0.2813 -0.06827,-0.075 -0.170962,-0.1866 -0.492187,-0.1816 z m -1.208984,0.3242 c -0.229169,0.092 -0.491274,0.2094 -0.789063,0.3555 0.07029,0.128 0.128711,0.2615 0.205078,0.3867 0.03072,0.05 0.06707,0.083 0.101563,0.1211 0.177996,-0.2754 0.33318,-0.5668 0.482422,-0.8633 z m -30.16211,0.4473 c -0.221336,-0.033 -0.435712,0.1592 -0.642578,0.5254 0.28968,-0.1482 0.5845,-0.2856 0.884766,-0.4121 -0.0816,-0.057 -0.161999,-0.1015 -0.242188,-0.1133 z m -90.861328,0.6465 c -0.57811,0.2013 -1.15655,0.4023 -1.73242,0.6113 0.41028,-0.07 0.725,-0.123 1.28711,-0.2168 0.15222,-0.1264 0.30178,-0.2562 0.44531,-0.3945 z m -0.56836,0.5 c -1.46833,0.4553 -2.97943,0.8022 -4.41992,1.33 -0.0876,0.1384 -0.18362,0.277 -0.27344,0.4161 1.17624,-0.2449 3.18759,-0.8078 4.05078,-1.3047 0.22625,-0.1302 0.43875,-0.2805 0.64258,-0.4414 z m 112.634766,7.3613 c -0.251186,0.2445 -0.440902,0.5489 -0.71289,0.7715 -0.242709,0.1974 -0.501147,0.3768 -0.75586,0.5586 0.335194,-0.086 0.670665,-0.1712 1.00586,-0.2578 0.04461,-0.028 0.0955,-0.098 0.142578,-0.1387 0.131585,-0.4055 0.225541,-0.6707 0.320312,-0.9336 z m -5.013672,5.1719 c -0.176755,0.072 -0.322874,0.1289 -0.685546,0.2968 -0.193002,0.091 0.403576,-0.1361 0.591796,-0.2343 0.0296,-0.016 0.06286,-0.037 0.09375,-0.063 z m -19.142578,3.1191 c -0.08942,0.07 -0.179462,0.1831 -0.261718,0.3106 0.02448,-0.012 0.04937,-0.024 0.07422,-0.035 0.06991,-0.1059 0.127162,-0.1868 0.1875,-0.2754 z m -0.199218,0.293 c -0.02231,0.01 -0.04413,0.016 -0.06641,0.021 -0.141592,0.2203 -0.237075,0.4288 -0.15039,0.2949 0.09744,-0.1502 0.135522,-0.1931 0.216797,-0.3164 z m -0.08398,0.027 c -0.703658,0.2545 -1.370265,0.5443 -1.787109,0.8457 0.0054,0.2075 0.01824,0.4015 0.0332,0.5918 0.486594,-0.6285 1.045632,-1.0897 1.753906,-1.4375 z m 14.271485,2.3438 c -0.0119,0 -0.02376,0.036 -0.03711,0.1015 -0.126958,0.6248 -0.14852,1.2648 -0.191406,1.9024 0.05221,-0.099 0.115402,-0.192 0.160156,-0.2949 0.18728,-0.4303 0.151641,-1.7401 0.06836,-1.709 z m -1.105469,0.1074 c -0.452326,0.044 -1.292096,0.3775 -2.822266,1.3887 0.305677,0.078 0.634688,0.1025 0.996094,0.051 0.306823,-0.045 0.639255,-0.073 0.931641,-0.1757 0.294443,-0.2789 0.597248,-0.5462 0.947265,-0.7364 0.134864,-0.1436 0.265747,-0.291 0.392578,-0.4433 -0.08766,-0.058 -0.210835,-0.1066 -0.445312,-0.084 z m -13.519531,5.7852 c -0.291517,0.238 -0.489638,0.3884 -0.806641,0.6503 -0.06427,0.053 -0.09192,0.084 -0.119141,0.1133 0.01643,0.013 0.03226,0.026 0.04883,0.039 0.124983,-0.04 0.420607,-0.2017 0.798828,-0.4238 0.02452,-0.1275 0.04548,-0.2571 0.07813,-0.3789 z m 11.849609,0.25 c -0.415467,0.5142 -0.818603,1.0398 -1.228516,1.5585 0.350532,-0.126 0.548256,-0.5026 1.228516,-1.5585 z m -6.017578,1.75 c -0.0025,0.017 -0.0053,0.035 -0.0078,0.053 0.01116,0 0.02014,-6e-4 0.03125,0 -0.01173,-0.027 -0.01151,-0.025 -0.02344,-0.053 z m -0.105469,0.7343 c -0.149011,1.043 -0.298256,2.0859 -0.447266,3.1289 0.368491,-0.073 0.73861,-0.1438 1.107422,-0.2168 0.665716,-0.9139 0.640604,-1.056 -0.203125,-2.8789 -0.170493,0 -0.31974,-0.016 -0.457031,-0.033 z m 2.794922,1.1973 c -0.03367,0.028 -0.07081,0.053 -0.103516,0.082 -0.03712,0.033 0.01903,0.011 0.08789,-0.021 h 0.002 c 0.0047,-0.021 0.0093,-0.039 0.01367,-0.06 z m -7.876953,2.4199 c -0.05656,0.039 -0.260567,0.192 -0.369141,0.2715 -0.07845,0.091 -0.06039,0.072 -0.162109,0.1914 0.599335,-0.4866 0.702672,-0.5817 0.53125,-0.4629 z m 5.240234,0.09 c -0.238855,0.066 -0.502663,0.1503 -0.716797,0.2011 -0.08242,0.5769 -0.165631,1.1536 -0.248047,1.7305 0.369161,-0.8366 0.692019,-1.4724 0.964844,-1.9316 z m -0.691406,2.2265 c -0.108969,0.088 -0.235773,0.1963 -0.355469,0.291 -0.01163,0.081 -0.02353,0.1628 -0.03516,0.2442 0.05821,-0.048 0.125769,-0.088 0.171875,-0.1485 0.09067,-0.1185 0.15451,-0.2523 0.21875,-0.3867 z m -2.720703,0.7071 c -0.02287,0.01 -0.05101,0.059 -0.08594,0.1621 -0.233623,0.6878 -0.290304,1.4184 -0.351562,2.1484 0.125614,-0.042 0.251761,-0.082 0.376953,-0.125 0.1404,-1.2149 0.172746,-2.2275 0.06055,-2.1855 z m -2.578125,1.3945 c -0.03907,0.01 -0.07927,0.045 -0.121094,0.125 -0.348072,0.6668 -0.616825,1.2414 -0.853516,1.7773 0.470266,-0.1435 0.939697,-0.2886 1.410157,-0.4316 -0.08522,-0.6941 -0.241301,-1.4973 -0.435547,-1.4707 z m 3.302734,0.2949 c 0.03308,-0.067 -0.01279,0.029 -0.07617,0.1348 0.02419,-0.047 0.05239,-0.087 0.07617,-0.1348 z m -6.240234,7.1309 c -0.209862,0.084 -0.359971,0.1423 -0.650391,0.2617 0.268315,-0.055 0.469164,-0.1484 0.650391,-0.2617 z m -46.111334,5.1504 c -1.15717,0.9031 -1.05571,0.8435 -0.44141,0.3945 0.14847,-0.1304 0.29233,-0.2647 0.44141,-0.3945 z m 41.761724,3.1093 v 0 c -0.04796,0.068 -0.07791,0.1461 -0.121093,0.2168 0.09157,-0.052 0.183968,-0.1035 0.27539,-0.1562 0.02521,-0.01 -0.0552,0.037 -0.08203,0.037 -0.03678,-0.019 -0.04921,-0.1365 -0.07227,-0.1016 z m -13.615234,0.4942 c -0.0059,0.01 -0.02496,0.092 -0.03906,0.1445 0.01543,-0.023 0.01081,-0.019 0.02539,-0.041 -7.09e-4,-0.01 0.01708,-0.1079 0.01367,-0.1035 z m 13.464844,0.1211 c -0.04758,8e-4 -0.129989,0.011 -0.183594,0.014 0.14325,0.095 0.287933,0.1362 0.421875,0.1582 0.04019,-0.043 0.08085,-0.087 0.142578,-0.1523 -0.100251,-0.012 -0.210045,-0.02 -0.380859,-0.02 z m -13.546875,0.1933 c -0.03261,0.1463 -0.05504,0.2953 -0.08203,0.4434 0.02655,-0.033 0.053,-0.065 0.08008,-0.098 0.03334,-0.1981 0.02604,-0.2024 0.04102,-0.3164 -0.01295,-0.01 -0.02608,-0.019 -0.03906,-0.029 z m 3.341797,14.211 c -0.07844,0.2619 -0.07543,0.253 -0.179688,0.6152 0.05979,0.2106 0.09519,0.1484 0.179688,-0.6152 z m -2.955079,4.1308 c -0.02142,5e-4 -0.0513,0.029 -0.0918,0.092 -0.724302,1.1173 -1.06504,2.4361 -1.542969,3.6856 0.165086,-0.3416 0.336599,-0.6799 0.527344,-1.0078 0.147829,-0.2542 0.05747,0.2262 -0.0957,0.6894 0.358497,-0.5263 0.71479,-1.055 1.072265,-1.582 0.01167,-0.5209 0.28079,-1.8802 0.130859,-1.877 z m -5.025397,7.709 c -0.0187,0 -0.0428,0.01 -0.0723,0.043 -1.15405,1.2799 -1.87246,2.9472 -2.88086,4.3398 0.49191,-0.081 0.97985,-0.1693 1.45312,-0.293 0.0856,-0.2139 0.15437,-0.4391 0.21875,-0.666 -0.26241,0.2565 -0.46146,0.4253 -0.35351,0.211 0.10367,-0.2058 0.26503,-0.3674 0.4414,-0.5196 0.15082,-0.5369 0.31388,-1.0663 0.67383,-1.4746 0.29285,-0.3322 0.0551,0.3774 -0.17773,1.0586 0.0635,-0.053 0.13304,-0.1013 0.1914,-0.1582 0.0504,-0.083 0.11903,-0.1555 0.15039,-0.25 0.13241,-0.3919 0.28624,-0.7833 0.33789,-1.1933 0.0385,-0.3053 0.14828,-1.0828 0.0176,-1.0977 z m -66.25586,9.592 c 1.98745,0.9376 3.3004,1.6527 4.30274,2.1562 0.0402,-0.035 0.25127,-0.2175 0.27734,-0.2402 0.0875,-0.1297 0.1863,-0.2534 0.28125,-0.3789 -1.61639,-0.5697 -3.23278,-1.1505 -4.86133,-1.5371 z m 53.9961,6.1074 c -0.007,6e-4 -0.0261,0.01 -0.0332,0.01 -0.0179,0.044 -0.0306,0.079 -0.0469,0.1211 0.0272,-0.042 0.0545,-0.084 0.0801,-0.127 z m -1.53907,2.2813 c -0.0885,0.047 -0.17372,0.077 -0.26367,0.1191 -0.008,0.02 -0.0131,0.038 -0.0215,0.059 0.14357,-0.092 0.17335,-0.1073 0.28515,-0.1777 z m -10.80859,5.4199 c -0.0354,0.078 -0.1014,0.1983 -0.125,0.2578 -0.0493,0.1242 0.0293,-0.058 0.125,-0.2578 z m 5.97461,0.8086 c -0.2124,0.1867 -0.39782,0.333 -0.26563,0.2226 0.11713,-0.098 0.16633,-0.1397 0.26563,-0.2226 z m -1.82422,0.4726 c -0.34546,0.1345 -0.69066,0.2688 -1.02734,0.4141 0.0315,0.3387 0.0313,0.7073 0.0254,1.0508 0.12997,-0.2247 0.26551,-0.4458 0.42969,-0.6485 0.29673,-0.3659 -0.0322,0.5295 -0.25977,1.2188 0.0815,-0.027 0.14183,-0.049 0.21875,-0.076 0.17685,-0.6732 0.31699,-1.3719 0.61328,-1.959 z m -1.3457,0.5606 c -0.60614,0.2781 -1.17949,0.597 -1.6836,1 0.0802,0.2925 0.16304,0.6255 0.25,1.0137 0.41622,-0.083 0.89105,-0.2136 1.36133,-0.3555 0.009,-0.5568 -0.0131,-1.119 0.0723,-1.6582 z m 1.82617,0.037 c -0.15989,0.4168 -0.3207,0.791 -0.49609,1.1504 0.0329,-0.013 0.0929,-0.031 0.12304,-0.043 0.25163,-0.1011 0.41793,-0.3162 0.57227,-0.5508 -0.0674,-0.171 -0.13382,-0.3544 -0.19922,-0.5566 z m -3.83008,1.248 c -0.14182,0.1335 -0.28557,0.2639 -0.41211,0.4161 -0.31427,0.3781 -0.0116,0.4603 0.55078,0.3906 -0.065,-0.269 -0.12357,-0.5375 -0.13867,-0.8067 z m 2.47656,0.9336 c -0.17306,0.1449 -0.24831,0.2058 -0.31836,0.2637 -9e-4,0 -5.5e-4,0.01 -0.002,0.012 0.0436,-0.032 0.0715,-0.055 0.3086,-0.2363 0.005,-0.012 0.007,-0.027 0.0117,-0.039 z m -0.80859,0.8516 c -0.14361,0.1056 -0.27958,0.2179 -0.41797,0.3281 -0.16579,0.2182 -0.33509,0.4344 -0.48437,0.6641 -0.004,0.038 -0.01,0.077 -0.0137,0.1152 0.18682,-0.1399 0.68988,-0.6986 0.91602,-1.1074 z m -1.80273,2.334 c -0.36976,0.1326 -0.74008,0.2649 -1.10938,0.3984 -0.13972,0.2998 -0.28287,0.5976 -0.43359,0.8907 0.0636,-0.027 0.16236,-0.053 0.21093,-0.08 0.52591,-0.2941 0.93709,-0.7411 1.33204,-1.209 z m -9.69922,14.625 c -0.002,-0.01 -0.008,8e-4 -0.0215,0.039 -0.0436,0.1139 -0.0717,0.2347 -0.10937,0.3515 h 0.0664 c 0.0302,-0.1848 0.0693,-0.3692 0.0645,-0.3906 z m -2.7461,6.0234 c -0.0155,0.017 -0.0387,0.041 -0.0547,0.059 -0.0376,0.1729 -0.0674,0.3552 -0.0957,0.5449 0.009,-0.011 0.0202,-0.026 0.0293,-0.037 0.0173,-0.055 0.0326,-0.1097 0.0508,-0.164 0.0279,-0.1188 0.0481,-0.2284 0.0723,-0.3438 -0.001,-0.018 -1.3e-4,-0.045 -0.002,-0.059 z m -0.12109,0.5664 c -0.0103,0.032 -0.0193,0.065 -0.0293,0.098 0.0102,-0.022 0.0361,-0.051 0.041,-0.07 0.005,-0.019 0.007,-0.035 0.0117,-0.055 -0.007,0.01 -0.0165,0.019 -0.0234,0.027 z m -0.0293,0.098 c -0.004,0.01 -0.011,0.019 -0.0156,0.027 -0.002,0.014 -0.004,0.03 -0.006,0.045 0.007,-0.024 0.0141,-0.048 0.0215,-0.072 z m -0.0156,0.027 c 0.004,-0.031 0.0111,-0.057 0.0156,-0.088 -0.17361,0.2058 -0.34003,0.4013 -0.57422,0.6797 -0.18005,0.214 0.39302,-0.2753 0.5586,-0.5918 z m -0.44141,1.4493 c -0.0865,0.1307 -0.1813,0.2589 -0.25976,0.3945 -0.0598,0.1021 0.18254,-0.1717 0.22461,-0.2813 0.0139,-0.037 0.0219,-0.076 0.0352,-0.1132 z m -29.71875,30.4707 c -0.0268,0.046 -0.0734,0.1176 -0.0938,0.1562 -0.006,0.035 -0.0119,0.07 -0.0176,0.1055 0.0327,-0.01 0.0696,-0.02 0.0742,-0.041 0.0101,-0.049 0.0254,-0.1589 0.0371,-0.2207 z m -6.93359,8.1171 c 0.0218,0.1614 0.0465,0.3215 -0.0371,0.3633 0.0266,-0.1463 0.0414,-0.2696 0.0371,-0.3633 z m -0.0371,0.3653 c -0.031,0.1696 -0.0955,0.4343 -0.16016,0.6875 -0.0334,0.029 -0.0373,0.03 -0.0762,0.064 l -0.006,0.043 c -0.18653,0.1552 -0.40623,0.2823 -0.57617,0.4551 -0.17934,0.1823 0.28282,-0.2349 0.58203,-0.5 0.0369,-0.2403 0.0735,-0.4817 0.10156,-0.7246 h 0.10547 c 0.017,0 0.0178,-0.018 0.0293,-0.025 z m 0.1543,0.2676 c -0.11614,0.5082 -0.21952,0.82 -0.24024,0.3828 0.031,-0.036 0.0666,-0.068 0.0918,-0.1094 0.0542,-0.089 0.0983,-0.1828 0.14844,-0.2734 z m -0.24219,0.3593 c 1.5e-4,0.01 6.5e-4,0.01 0.002,0.01 -0.0298,0.035 -0.056,0.072 -0.0898,0.1035 0.004,-0.015 0.0115,-0.033 0.0156,-0.049 0.032,-0.028 0.0481,-0.042 0.0723,-0.065 z m -0.0879,0.1153 c -0.0659,0.2562 -0.12219,0.4791 -0.21289,0.832 -0.005,0.01 -0.0109,0.01 -0.0156,0.016 -0.0437,0.1549 -0.0922,0.3088 -0.15234,0.459 -0.23933,0.5971 -1.59318,1.9597 -1.37696,1.3535 0.26565,-0.7449 1.01444,-1.211 1.5293,-1.8125 0.073,-0.259 0.11973,-0.5259 0.16211,-0.7929 0.022,-0.018 0.0455,-0.035 0.0664,-0.055 z m 0.23047,556.5293 c 0.0457,0.3282 0.0401,0.6686 0.0898,0.9941 0.0559,0.06 0.11298,0.1195 0.17969,0.1699 0.0155,-0.2115 0.0116,-0.5031 -0.0215,-0.6465 -0.0361,-0.1574 -0.11296,-0.2986 -0.19922,-0.4375 -0.001,0 -0.003,6e-4 -0.004,-0.01 h -0.002 c -0.0146,-0.023 -0.028,-0.047 -0.043,-0.07 z m 3.82421,7.3496 c -0.0431,0 0.0473,0.1308 0.14649,0.2695 0.23695,-0.054 0.46462,-0.098 0.67578,-0.1309 -0.23029,-0.049 -0.48257,-0.063 -0.70117,-0.1328 0.008,0.016 0.0308,0.067 0.0351,0.076 -0.0841,-0.058 -0.13395,-0.083 -0.15625,-0.082 z m -4.60156,9.6425 c -2e-4,0.032 0.002,0.064 0.002,0.096 0.006,0 0.0115,-0.01 0.0176,-0.01 -0.005,-0.032 -0.0129,-0.055 -0.0195,-0.086 z m -1.82422,4.7891 v 0.3789 c 0.033,0.017 0.0635,0.048 0.0957,0.07 -0.0324,-0.1496 -0.0593,-0.3003 -0.0957,-0.4492 z m 21.83789,3.3848 c 0.008,0.019 0.0153,0.038 0.0234,0.057 0.005,0.01 -0.005,-0.037 -0.0117,-0.037 -0.004,-0.01 -0.008,-0.014 -0.0117,-0.019 z m 2.74414,3.9726 c 0.035,0.053 0.07,0.1057 0.10547,0.1582 0.0297,-0.01 0.0497,-0.014 0.0801,-0.02 -0.0139,-0.046 -0.0297,-0.092 -0.0469,-0.1387 -0.0482,8e-4 -0.0917,0 -0.13868,0 z m 12.52344,13.4004 c 0.19468,0.3515 0.20797,0.3673 0.32617,0.5762 -0.007,-0.05 -0.01,-0.113 -0.0215,-0.1484 -0.054,-0.166 -0.3895,-0.579 -0.30469,-0.4278 z m 3.81641,5.6856 c -0.0704,0.01 -0.14776,0.05 -0.22852,0.1015 0.14862,0.2889 0.30143,0.5754 0.4375,0.8711 0.18151,-0.2282 0.26174,-0.4727 0.12305,-0.7519 -0.0882,-0.1775 -0.2002,-0.2395 -0.33203,-0.2207 z m -34.25,2.041 c -0.0538,0.032 -0.1053,0.065 -0.16016,0.096 0.0351,0.1841 0.0706,0.3586 0.10352,0.5156 0.0423,0.014 0.0771,0.036 0.0918,0.076 0.0474,0.1306 0.0665,0.3062 0.0664,0.498 0.069,0.075 0.14229,0.1542 0.20508,0.2227 0.0353,-0.086 0.0694,-0.3445 0.10156,-0.5879 -0.12652,-0.2683 -0.27175,-0.546 -0.4082,-0.8203 z m 0.10156,1.1855 c -0.0116,-0.013 -0.0233,-0.024 -0.0352,-0.037 0.0113,0.04 0.0241,0.095 0.0352,0.1289 0.001,-0.032 -1e-5,-0.061 0,-0.092 z m -0.0352,-0.037 c -0.0389,-0.1392 -0.0807,-0.3352 -0.12304,-0.5371 -0.10381,-0.035 -0.25926,-0.02 -0.39649,-0.025 0.22457,0.2421 0.34229,0.3696 0.51953,0.5625 z m 19.21094,1.3535 c 0.0214,0.3784 0.0211,-0.057 0.0254,0.012 -0.009,0 -0.0168,-0.01 -0.0254,-0.012 z m 3.07227,9.8399 c -0.10362,0.1048 -0.16461,0.2377 -0.17578,0.4043 0.0158,-0.01 0.0311,-0.017 0.0469,-0.025 1.2e-4,-0.016 0.002,-0.029 0.002,-0.045 0.0513,-0.014 0.11169,-0.03 0.16407,-0.045 0.0377,-0.02 0.072,-0.044 0.10937,-0.064 -0.0476,-0.076 -0.0988,-0.149 -0.14648,-0.2246 z m 10.11328,4.1191 c -0.10484,0.1353 -0.23542,0.265 -0.41797,0.3867 -0.0369,0.025 -0.0678,0.035 -0.10352,0.057 0.54935,0.5501 0.69,0.7696 1.23829,1.5937 -0.14836,-0.4209 -0.28778,-0.8208 -0.50782,-1.4433 -0.0699,-0.1977 -0.13958,-0.3959 -0.20898,-0.5938 z m 12.39258,6.6074 c 0.001,0.06 0.001,0.1178 -0.002,0.1739 0.0543,0.021 0.10605,0.047 0.16016,0.068 -0.053,-0.08 -0.10572,-0.1605 -0.1582,-0.2422 z m -50.60547,3.0313 c -0.27848,0.1197 -0.59663,0.2798 -0.92188,0.4473 v 0.8379 c 0.3032,-0.4313 0.60706,-0.8619 0.92188,-1.2852 z m 55.05078,1.123 c 0.0251,0.031 0.0509,0.062 0.0762,0.092 0.0201,0.023 -0.0304,-0.036 -0.0527,-0.074 -0.0158,-0.015 -0.0159,-0.012 -0.0234,-0.018 z m 10.41602,10.3164 c 0.0363,0.038 0.0768,0.088 0.11523,0.1348 0.009,-0.021 0.0187,-0.041 0.0273,-0.063 -0.046,-0.029 -0.0919,-0.046 -0.14257,-0.072 z m -2.78321,0.1504 v 0 c 0.004,0.01 0.009,0.016 0.0137,0.024 0.009,0 0.0425,0.041 0.0293,0.041 -0.11575,0.097 -0.23601,0.2521 -0.35742,0.4023 0.0941,0.2752 0.17421,0.515 0.35547,1.0586 h -0.002 c 0.46034,1.3811 -0.21652,2.1947 -0.98242,2.1035 0.0428,0.074 0.045,0.08 0.0938,0.1641 0.0823,0.142 0.14327,0.2375 0.21485,0.3535 0.29642,0.2126 0.58335,0.4377 0.86328,0.6719 -0.0505,-0.087 -0.0994,-0.1755 -0.1543,-0.2598 -0.0573,-0.1611 -0.37868,-0.869 -0.20312,-1.0957 0.33121,-0.4263 0.91821,-1.1661 1.55273,-1.0254 -0.0165,-0.053 -0.0369,-0.1027 -0.0527,-0.1562 -0.0249,-0.084 -0.06,-0.3097 -0.125,-0.5098 -0.20012,-0.1091 -0.35053,-0.2364 -0.25782,-0.3867 0.15676,-0.254 0.24414,-0.356 0.3711,-0.5469 -0.0911,0.096 -0.18461,0.1906 -0.27344,0.2891 -0.0796,-0.068 -0.165,-0.1295 -0.23828,-0.2051 -0.0949,-0.097 -0.1768,-0.2184 -0.25586,-0.3379 -0.16178,-0.1613 -0.32436,-0.3222 -0.48633,-0.4843 -0.0349,-0.035 -0.0709,-0.069 -0.10547,-0.1036 z m 3.14649,0.168 c 9e-4,0.016 -0.006,0.033 -0.0117,0.049 0.003,-0.016 0.008,-0.033 0.0117,-0.049 z m -1.80469,1.6621 c 0.0653,0.061 0.13696,0.098 0.21289,0.096 -0.0718,-0.029 -0.13819,-0.06 -0.21289,-0.096 z m 2.5957,2.334 c -0.0456,0.186 -0.0911,0.4194 -0.13672,0.7246 -0.0287,0.1923 0.25768,-0.085 0.40821,-0.3555 -0.0877,-0.1169 -0.17958,-0.2477 -0.27149,-0.3691 z m -4.01367,0.8281 v 0.01 c -0.009,-0.01 0.0253,0 0.0273,0 -0.009,-0.01 -0.0179,-0.01 -0.0273,-0.01 z m 7.54492,0.1074 c 0.0211,0.061 0.0448,0.1199 0.0703,0.1778 0.0218,0.049 -0.0198,-0.109 -0.0508,-0.1543 -0.006,-0.01 -0.0136,-0.015 -0.0195,-0.024 z m -3.72265,0.4864 v 0 c 0.0116,0.022 0.0232,0.044 0.0352,0.066 0.009,0.01 0.0191,0.011 0.0293,0.016 -0.004,-0.02 -0.0429,-0.06 -0.0508,-0.076 -0.005,0 -0.009,0 -0.0137,-0.01 z m 0.23828,0.4648 c 0.005,0.014 0.0532,0.059 0.0762,0.086 0.0211,0.013 0.044,0.021 0.0645,0.035 0.0583,0.039 0.10993,0.086 0.16602,0.127 -0.0577,-0.06 -0.1119,-0.1238 -0.16797,-0.1856 -0.0594,-0.032 -0.14661,-0.083 -0.13867,-0.063 z m 1.09765,0.2403 c 0.031,0.024 0.0602,0.052 0.0918,0.076 0.0203,0 0.0469,0.01 0.0664,0.01 -0.0457,-0.038 -0.0943,-0.086 -0.15235,-0.086 -0.002,-6e-4 -0.004,-1e-4 -0.006,0 z m 4.02344,1.9511 c -0.0435,0.011 -0.1257,0.1199 -0.21094,0.2364 0.0234,0.077 0.0483,0.1681 0.0703,0.246 0.0344,0.024 0.0692,0.048 0.10351,0.072 0.0248,-0.1528 0.0522,-0.2762 0.0723,-0.4805 0.006,-0.059 -0.007,-0.081 -0.0352,-0.074 z m 2.20313,2.2969 c -0.0134,-3e-4 -0.0336,0.01 -0.0606,0.031 -0.007,0.01 -0.0105,0.015 -0.0176,0.021 0.0268,0.017 0.0535,0.033 0.0801,0.053 0.0116,-0.054 0.0213,-0.105 -0.002,-0.1055 z m 0.6289,0.8145 v 0 h 0.002 c 0.0234,0.024 0.0229,0.026 0.0449,0.049 0.13306,0.015 0.26324,0.043 0.39453,0.066 -0.0165,-0.018 -0.0316,-0.038 -0.0488,-0.055 -0.0879,-0.01 -0.24832,-0.039 -0.39258,-0.064 z m -23.07617,0.2421 c 0.37185,0.5622 0.83154,1.1792 1.30664,1.8047 h 0.43555 c -0.0933,-0.1187 -0.17701,-0.2424 -0.19922,-0.4062 -0.14423,-0.1892 -0.25364,-0.3707 -0.31445,-0.5899 -0.0628,-0.061 -0.1258,-0.1212 -0.1875,-0.1836 -0.088,-0.091 -0.19335,-0.1637 -0.26172,-0.2695 -0.0618,-0.094 -0.0703,-0.13 -0.12305,-0.2187 h -0.002 c -0.0376,-0.01 -0.0657,-0.041 -0.0957,-0.065 -0.18375,-0.023 -0.37776,-0.052 -0.55859,-0.072 z m 0.59961,0.078 c 0.0127,0.013 0.0585,0.048 0.0488,0.047 -0.0111,-0.019 -0.0143,-0.028 -0.0254,-0.047 z m 14.22851,0.8593 c -0.0532,0.023 -0.0996,0.036 -0.15039,0.057 0.0476,0.2618 0.0856,0.5275 0.0957,0.8066 h 0.99804 c -0.0188,-0.02 -0.0379,-0.042 -0.0566,-0.06 -0.0647,-0.1021 -0.0762,-0.1194 -0.18554,-0.2442 -0.0449,-0.049 -0.20139,-0.1106 -0.13868,-0.1484 0.023,-0.01 0.0933,0 0.13868,-0.01 -0.0952,-0.068 -0.15607,-0.157 -0.20313,-0.2539 -0.16528,-0.051 -0.3298,-0.104 -0.49805,-0.1465 z m 6.16797,0.2246 v 0 c 0.0337,0.039 0.0704,0.076 0.10352,0.1152 0.0274,0.01 0.068,0.031 0.0977,0.043 -0.0288,-0.051 -0.0621,-0.099 -0.0879,-0.1524 -0.0253,0 -0.0731,0 -0.11329,-0.01 z m -5.38086,0.1485 c -0.007,-0.01 -3.2e-4,0.017 -0.004,0.02 0.006,-4e-4 0.01,4e-4 0.0156,0 -0.005,-0.01 -0.007,-0.014 -0.0117,-0.02 z m -0.01,0.063 v 0.01 c 0.0114,0.052 0.0316,0.118 0.0488,0.1485 0.0548,0.098 0.12692,0.1834 0.19531,0.2715 h 0.0703 c -0.0792,-0.1359 -0.1565,-0.2745 -0.24804,-0.4004 -0.0222,-0.01 -0.0433,-0.015 -0.0664,-0.025 z"
         transform="scale(0.26458333)" />
      <path
         style="fill:none;stroke:#070c0b;stroke-width:0.6;stroke-linecap:butt;stroke-linejoin:miter;stroke-miterlimit:4;stroke-dasharray:none;stroke-opacity:1"
         d="m 43.46726,1593.9256 -18.520832,9.4494 -12.095238,8.3155 -17.3869042,16.2529 -12.8511908,12.8512 -7.181547,10.9613 -7.559523,10.5834 -4.535715,7.1815 -7.559524,7.5595 -11.339285,15.4971 -6.425594,12.0952 -7.9375,16.631 -4.157739,10.5833 -3.401785,13.2292 1.511903,12.4732 2.267857,11.3393 2.267858,13.2291 5.291667,12.8512 4.91369,10.2054 14.74107,19.6547 10.583333,12.8512 4.535715,7.1816 9.449405,13.2291 12.4732143,19.2768 7.9375,10.5834 14.7410707,12.4732 17.008928,12.0952 18.520833,9.4494 24.190478,7.1816 30.616065,1.1339 25.32441,-6.8036 24.94643,-11.7172 25.3244,-16.631 20.41071,-22.3006 15.11905,-22.6786 4.91369,-7.9375 18.14286,-0.3779 28.7262,3.0238 21.16667,-1.134 11.71726,-1.1339 24.94642,-4.9137 35.15178,-12.8512 23.05655,-9.4494 16.63094,-9.4494 27.59226,-9.4494 18.14288,-4.1577 h 33.63986 l 65.76788,-0.378 1.13392,-55.5625 -21.16666,-0.756 -21.16667,-0.3779 -41.19941,0.7559 -25.32441,2.6459 -37.41965,7.5595 -16.63094,10.2053 -20.78868,9.8274 -20.78871,9.0714 -26.83629,8.6935 -18.52083,3.7798 -25.32441,2.2678 -27.59227,-1.5119 -5.66964,-0.378 1.5119,-23.0565 0.75595,-26.8363 -4.91368,-24.1905 -7.18155,-23.8125 -6.04762,-19.2768 L 207.8869,1651 l -20.03274,-23.0566 -14.74107,-11.7172 -27.21428,-15.875 -23.43453,-9.0715 -17.3869,-4.5357 -25.324405,-2.2678 -22.67857,4.5357 z"
         id="path2132" />
      <path
         style="fill:#37abc8;stroke:#070c0b;stroke-width:0.6;stroke-linecap:butt;stroke-linejoin:miter;stroke-miterlimit:4;stroke-dasharray:none;stroke-opacity:1"
         d="m 2.2678571,1689.5536 9.4494049,10.2053 10.583333,13.2292 6.425595,14.3631 4.535715,16.6309 3.02381,15.875 -0.755955,15.497 -8.315475,15.875 -11.717261,16.253 -9.449405,12.4732 -12.8511904,4.5358 -12.0952376,-7.9375 -9.449406,-28.7262 -1.133927,-22.6786 -0.755952,-25.3244 1.889879,-14.3631 5.291668,-19.2768 7.559523,-13.2292 7.9375002,-4.9137 6.4255952,0.378 1.88988098,0.756"
         id="path2134" />
      <path
         style="fill:#ff8080;stroke:#070c0b;stroke-width:0.6;stroke-linecap:butt;stroke-linejoin:miter;stroke-miterlimit:4;stroke-dasharray:none;stroke-opacity:1"
         d="m -14.552083,1673.3006 -0.755953,2.9293 -0.188988,4.2522 1.133929,3.5908 1.322917,3.9687 0.188988,1.9844 2.267857,-1.0394 -0.850447,-6.2366 1.133929,-6.8036 1.6063987,-7.1815 1.6063989,6.9925 0.1889879,3.4963 v 2.9293 l 0.2834823,3.8743 2.078869,0.8504 0.283482,-5.5751 -0.283482,-4.8192 -0.2834822,-5.2917 0.3779763,-0.6614 c 0,0 0.5669642,1.6063 1.2284226,3.1183 0.6614582,1.5119 1.5119047,5.6696 1.5119047,5.6696 l 0.3779761,4.0632 1.03943455,2.4569 1.22842262,1.2284 1.22842263,-2.4568 -1.41741072,-4.6302 c 0,0 -0.66145833,-3.2128 -1.32291665,-4.9137 -0.66145833,-1.7009 -1.51190473,-2.5514 -1.51190473,-3.8743 0,-1.3229 -0.094494,-5.9531 -0.094494,-5.9531 l -0.2834821,-7.843 -0.3779763,-6.6146 -0.4724701,-7.465 1.6063988,-6.7091 0.4724702,-1.2284 3.1183035,-12.7567 -15.024553,14.4576 -4.252233,3.6852 2.645834,1.0395 3.307291,-1.134 1.9843754,2.7404 1.0394346,8.0319 -0.7559524,4.6303 -1.3229166,5.9531 -1.700893,5.2916 z"
         id="path2136" />
      <path
         style="fill:#ff8080;stroke:#070c0b;stroke-width:0.6;stroke-linecap:butt;stroke-linejoin:miter;stroke-miterlimit:4;stroke-dasharray:none;stroke-opacity:1"
         d="m -1.2284225,1635.4085 2.5513392,0.094 1.0394345,6.3311 0.7559523,3.6852 c 0,0 0.1889881,4.7247 0.1889881,5.1027 0,0.378 -0.5669642,6.2366 -0.5669642,6.2366 l -2.45684525,3.4963 -1.03943453,5.4806 v 2.5514 l -0.47247022,4.6302 3.4017857,11.6228 -1.22842265,2.4568 1.32291665,2.4569 1.0394345,-8.3155 c 0,0 -0.4724701,-5.4807 -0.6614583,-6.9926 -0.1889881,-1.5119 -0.6614583,-4.1577 -0.3779762,-5.2916 0.2834822,-1.134 1.2284227,-5.9532 1.2284227,-5.9532 l 1.2284226,-3.1183 h 0.6614583 c 0,0 0.283482,1.9844 -0.094494,3.6853 -0.3779761,1.7009 -1.4174107,4.4412 -1.4174107,5.5751 0,1.134 -0.4724702,5.3862 -0.4724702,5.3862 l 0.7559524,5.4807 0.3779761,8.2209 1.6063989,3.3073 0.283482,-1.2284 c 0,0 0.6614583,-1.7009 0.6614583,-2.5513 0,-0.8505 -0.3779761,-3.8743 -0.4724701,-4.4412 -0.094494,-0.567 -0.4724702,-4.7248 -0.4724702,-7.1816 0,-2.4568 0.094494,-6.4256 0.094494,-6.9926 0,-0.5669 1.7953868,-6.709 1.7953868,-6.709 0,0 0,-2.7404 0.094494,-3.2128 0.094494,-0.4725 1.1339285,-6.3311 1.1339285,-6.3311 0,0 0.5669642,0.6614 0.5669642,-3.6853 0,-4.3467 -0.7559524,-9.8274 -0.7559524,-9.8274 l -0.3779761,-3.0238 -0.1889882,-3.0238 1.1339285,-6.4256 2.3623515,-3.2128 7.843006,-10.9613 c 0,0 2.551339,-1.7009 2.929315,-1.8899 0.377976,-0.189 5.858632,-3.0238 5.858632,-3.0238 l 3.496278,-2.4568 8.976934,-6.2366 2.362351,-5.1972 -5.102677,3.3073 -5.008184,2.5513 -8.409971,3.5908 -3.685268,2.6458 -3.685267,2.9293 -4.724703,2.7404 -6.709077,6.6145 -4.2522321,4.3468 z"
         id="path2138" />
      <path
         style="fill:none;stroke:#070c0b;stroke-width:0.6;stroke-linecap:butt;stroke-linejoin:miter;stroke-miterlimit:4;stroke-dasharray:none;stroke-opacity:1"
         d="M -1.2284225,1635.4085 Z"
         id="path2140" />
      <path
         style="fill:#ff8080;stroke:#070c0b;stroke-width:0.6;stroke-linecap:butt;stroke-linejoin:miter;stroke-miterlimit:4;stroke-dasharray:none;stroke-opacity:1"
         d="m -14.741071,1641.8341 -3.212798,4.4412 -3.779762,5.0082 -2.078869,5.7641 -1.41741,3.5908 -0.755953,6.5201 -0.47247,12.7567 -1.984375,5.1026 -1.606399,25.041 1.13393,10.8668 -1.228423,6.0476 -2.173365,2.2679 -0.566962,-16.82 0.28348,-28.4427 0.377978,-8.41 0.850445,-14.0796 8.315477,-11.3393 5.669642,-9.3549 z"
         id="path2142" />
      <path
         style="fill:#ff8080;stroke:#070c0b;stroke-width:0.6;stroke-linecap:butt;stroke-linejoin:miter;stroke-miterlimit:4;stroke-dasharray:none;stroke-opacity:1"
         d="m -27.970239,1792.93 -0.566962,30.2381 1.133927,18.8989 2.645834,10.3943 8.88244,15.119 6.4255955,9.8274 1.1339285,-9.0714 c 0,0 -6.425595,-11.7173 -7.748512,-15.686 -1.322917,-3.9688 -4.724702,-15.875 -4.724702,-15.875 l -2.834822,-18.7098 -2.078869,-17.9539 z"
         id="path2144" />
      <path
         style="fill:#ff8080;stroke:#070c0b;stroke-width:0.6;stroke-linecap:butt;stroke-linejoin:miter;stroke-miterlimit:4;stroke-dasharray:none;stroke-opacity:1"
         d="m -6.8035714,1824.4911 0.6614583,5.6696 -0.1889879,4.1577 1.6063986,3.9688 1.7953868,4.3467 c 0,0 0.1889882,-2.6458 0.1889882,-3.0238 0,-0.378 -0.3779761,-5.0082 -0.3779761,-5.0082 0,0 -0.3779763,-3.5907 -0.3779763,-4.1577 0,-0.567 0,-4.5357 0,-4.5357 l 0.2834823,-1.4174 0.7559523,-0.378 0.5669643,2.0789 c 0,0 0.094494,2.4568 0.094494,2.9293 0,0.4724 0.5669643,3.5907 0.5669643,3.5907 0,0 0.28348213,2.0789 0.37797619,2.7404 0.094494,0.6614 0.37797617,2.0788 0.56696426,2.9293 0.1889881,0.8504 1.32291665,1.9844 1.32291665,1.9844 0,0 0.7559524,1.7009 1.5119048,-0.567 0.7559523,-2.2679 0.9449405,-2.1734 0.9449405,-3.4018 0,-1.2284 0,-3.5908 0,-4.7247 0,-1.1339 -0.094494,-3.7798 -0.094494,-3.7798 v -3.1183 l 0.3779761,-3.0238 2.2678572,-1.7954 c 0,0 -0.6614583,0.8505 -0.5669642,1.8899 0.094494,1.0395 0.1889879,4.0633 0.1889879,4.0633 0,0 0,0.9449 0,3.1183 0,2.1733 0.1889881,4.0632 0.1889881,4.0632 0,0 0.1889882,3.0238 0,3.4018 -0.1889881,0.378 -0.377976,1.9844 -1.2284225,3.5908 -0.8504465,1.6064 -1.6063989,3.6852 -1.7008927,4.4412 -0.094494,0.7559 -0.5669644,1.8899 0,3.0238 0.5669642,1.1339 1.0394344,1.7954 1.7008927,2.5513 0.6614583,0.756 1.5119048,1.4175 1.5119048,1.4175 0,0 1.2284226,0.4724 1.7008927,0.9449 0.4724702,0.4725 3.0238091,1.7954 3.2127971,2.1734 0.188989,0.3779 1.133929,1.6064 1.133929,1.6064 l 3.023809,7.7485 c 0,0 -0.188988,3.2128 -0.188988,3.5907 0,0.378 0.944941,4.0633 0.944941,4.0633 l 0.47247,1.1339 2.740327,9.1659 0.661459,3.7798 c 0,0 1.889881,1.9844 2.362351,2.7403 0.47247,0.756 1.889881,3.0238 1.889881,3.0238 l 0.850446,2.0789 12.85119,12.9457 1.13393,1.9844 -0.283483,3.2128 0.472469,3.4017 0.18899,1.4174 -9.07143,-3.9687 -7.370535,-5.0082 -8.031994,-5.6696 -16.3474696,-13.8906 -7.9374998,-10.5834 1.1339285,-9.0714 1.7953868,-4.7247 c 0,0 0.8504465,-6.3311 0.8504465,-6.8036 0,-0.4725 0.094494,-1.6064 0.094494,-3.2128 0,-1.6064 0.2834823,-3.1183 -0.094494,-3.5907 -0.3779763,-0.4725 -0.9449405,-1.323 -1.4174107,-2.0789 -0.4724704,-0.756 -1.1339288,-3.4963 -1.1339288,-3.4963 l -1.0394344,-8.1265 -0.6614583,-2.7403 0.094494,-3.0238 0.7559524,-2.6459 0.094494,-1.5119 z"
         id="path2146" />
      <path
         style="fill:#ffdd55;stroke:#070c0b;stroke-width:0.6;stroke-linecap:butt;stroke-linejoin:miter;stroke-miterlimit:4;stroke-dasharray:none;stroke-opacity:1"
         d="m 44.790177,1908.4018 -3.685268,-0.945 -2.173361,1.0395 v 0 l -0.283483,3.2128 5.38616,1.3229 9.732889,3.4018 3.874254,1.5119 10.110864,2.1733 11.622767,1.4174 10.205357,0.567 8.409969,0.094 c 0,0 6.709075,-1.5119 7.937505,-1.6064 1.22842,-0.094 8.03199,-1.2284 8.03199,-1.2284 0,0 3.77976,-1.7954 4.15774,-1.8899 0.37797,-0.094 4.44122,-1.6064 4.44122,-1.6064 l 2.64583,-1.3229 14.83557,-4.6302 19.46577,-8.5045 11.71726,-7.9375 14.3631,-12.8512 8.69345,-11.7173 11.90625,-13.7961 11.1503,-18.1428 25.3244,0.1889 19.27679,1.134 7.9375,-0.189 c 0,0 9.26041,0.567 10.01635,0.567 0.75597,0 13.22917,-0.378 13.22917,-0.378 l 13.60715,-2.2679 c 0,0 6.2366,-1.7009 7.18156,-1.8898 0.94493,-0.189 19.08778,-6.2367 19.08778,-6.2367 l 19.65476,-6.0476 22.48958,-8.3155 13.60715,-7.5595 19.08781,-9.0714 14.1741,-3.4018 12.47323,-3.4018 c 0,0 11.90625,-1.1339 12.66219,-1.1339 0.75594,0 10.77232,-1.3229 10.77232,-1.3229 h 10.96132 l 61.61011,-0.189 13.79614,0.189 -0.37798,-6.4256 -22.67858,0.5669 -19.08781,-0.189 -14.36309,-0.1889 h -22.30059 -13.98511 -15.30805 c 0,0 -7.37052,1.3229 -8.12649,1.8898 -0.75594,0.567 -12.28421,3.9688 -12.28421,3.9688 0,0 -7.37055,1.7009 -8.12649,2.0789 -0.75597,0.3779 -8.88243,2.8348 -8.88243,2.8348 l -7.18156,3.4018 -6.04761,3.2128 -8.88246,3.9687 -18.52083,9.6384 -12.4732,4.3467 -10.39434,5.2917 -10.77233,2.6458 -15.11906,1.512 -10.01635,0.9449 -18.70983,1.7009 -14.55208,-0.189 -15.49703,-0.189 h -11.90625 l -24.75744,-0.7559 -7.55952,13.9851 -7.37054,10.9613 -5.29166,6.9925 -18.14286,18.5209 -11.1503,8.5044 -15.49702,11.3393 c 0,0 -17.5759,7.5596 -18.52084,8.1265 -0.94494,0.567 -12.09523,2.6458 -12.09523,2.6458 l -17.00893,3.2128 -13.985121,0.378 -16.252976,-0.378 -14.174107,-0.5669 z"
         id="path2148" />
      <path
         style="fill:#ffdd55;stroke:#070c0b;stroke-width:0.6;stroke-linecap:butt;stroke-linejoin:miter;stroke-miterlimit:4;stroke-dasharray:none;stroke-opacity:1"
         d="m 41.104909,1599.1223 -5.386159,4.2527 -1.889882,1.3229 9.449406,0.9449 c 0,0 5.102677,-2.0788 6.425594,-2.2678 1.322916,-0.189 9.827381,-1.5119 10.772322,-1.8899 0.944941,-0.378 5.669642,-1.7009 8.126487,-2.0789 2.456846,-0.378 7.748513,-1.5119 13.796131,-1.5119 6.047618,0 8.126489,0 8.126489,0 0,0 4.724702,-1.5119 11.717263,0 6.99256,1.5119 14.36309,3.0238 15.49702,3.7798 1.13393,0.7559 8.88244,1.8899 9.63839,2.6458 0.75596,0.756 9.26042,4.7247 9.26042,4.7247 l 9.82738,4.3467 13.98512,8.6935 11.90625,8.1265 c 0,0 5.48066,7.1815 6.23661,7.5595 0.75595,0.378 14.74107,16.631 14.74107,16.631 0,0 8.12649,11.5282 9.07143,12.6622 0.94494,1.1339 14.55208,31.75 14.55208,31.75 l 6.61458,16.6309 0.94494,13.6072 1.7009,5.6696 0.37797,5.2917 0.37798,35.3407 -0.18899,8.1265 -2.26786,19.0878 45.73513,1.8899 26.64733,-3.0238 c 0,0 14.55208,-2.6458 15.49701,-2.6458 0.94493,0 11.15028,-2.2679 16.44195,-3.4018 5.29167,-1.1339 17.19792,-7.1816 17.19792,-7.1816 l 8.88246,-4.3467 5.48065,-4.3467 26.08035,-10.7723 12.28424,-5.2917 16.63094,-4.3467 13.04017,-3.4018 19.46577,-4.1578 9.82739,-0.3779 h 4.15774 l 74.83928,-1.323 7.37055,0.378 0.18899,-7.5595 -15.11906,-0.189 h -26.83632 -20.2217 l -18.33187,0.378 -23.05653,0.7559 -12.28424,1.512 -14.93006,2.6458 -7.37053,1.3229 c 0,0 -5.85864,3.9688 -6.99257,4.7247 -1.13392,0.756 -8.88243,3.5908 -8.88243,3.5908 0,0 -3.21281,2.2678 -5.66965,3.5908 -2.45684,1.3229 -5.10267,1.7009 -5.10267,1.7009 l -5.85862,3.0237 -21.16667,11.3393 -17.5759,5.1027 c 0,0 -12.66221,6.2366 -13.98513,6.6146 -1.32292,0.378 -10.20535,1.8899 -10.20535,1.8899 l -14.1741,2.2678 -8.88243,1.134 -8.50448,0.5669 h -7.37052 l -40.25448,-1.1339 1.32292,-18.7098 v -16.631 l -1.70089,-18.7098 v -6.2366 l -3.02381,-25.3244 -0.94494,-4.7247 -2.64584,-7.3705 -0.56696,-1.8899 -7.18155,-17.9539 -6.61458,-9.4494 -3.02381,-4.3467 -17.76488,-26.4583 -5.66964,-4.5358 -9.07143,-5.6696 -7.37054,-6.8036 -6.80357,-3.2128 -25.70238,-13.9851 -11.1503,-3.9688 -19.46577,-5.4806 -16.630952,-0.567 H 73.705357 l -16.063989,3.7798 -6.614584,1.5119 -9.921875,2.3619"
         id="path2150" />
      <path
         style="fill:#ff8080;stroke:#070c0b;stroke-width:0.6;stroke-linecap:butt;stroke-linejoin:miter;stroke-miterlimit:4;stroke-dasharray:none;stroke-opacity:1"
         d="m 38.648065,1911.7091 0.661459,4.8191 9.449403,5.4807 24.190478,7.1816 30.616065,1.1339 25.32441,-6.8036 24.94643,-11.7172 25.3244,-16.631 20.41071,-22.3006 12.90785,-19.6251 7.12489,-10.991 18.14286,-0.3779 28.7262,3.0238 32.88393,-2.2679 24.94642,-4.9137 29.56129,-10.6657 28.64704,-11.6349 16.63094,-9.4494 15.25855,-5.2418 30.47659,-8.3653 34.20263,0.4809 32.20598,-0.5346 32.99913,-0.3243 v -4.3472 h -86.36757 l -9.03898,1.197 -14.39553,1.2598 -26.64733,6.8036 -19.08781,9.0714 -13.60715,7.5595 -26.35461,9.6499 -17.50616,5.6126 -24.55291,7.2271 -13.60715,2.2679 -13.42297,0.1267 -9.82255,-0.3157 -52.53869,-1.1339 -11.1503,18.1428 -11.90625,13.7961 -8.69345,11.7173 -14.3631,12.8512 -11.71726,7.9375 -19.46577,8.5045 -11.61717,3.3357 -5.86423,2.6174 -8.59896,3.4963 -15.969497,2.8348 -22.085779,-1.0641 -15.635266,-2.4054 -2.62791,-0.7822 -18.993303,-6.2366"
         id="path2152" />
      <path
         style="fill:#ff8080;stroke:#070c0b;stroke-width:0.6;stroke-linecap:butt;stroke-linejoin:miter;stroke-miterlimit:4;stroke-dasharray:none;stroke-opacity:1"
         d="m 57.074405,1589.0119 -13.607145,4.9137 -2.362351,5.1967 32.600448,-7.6536 30.427083,0.567 9.59074,2.8952 21.02533,6.5542 22.80688,12.021 9.69907,5.1769 7.37054,6.8036 14.74107,10.2054 7.47793,10.9555 14.29892,21.3816 5.62642,7.9173 10.39435,27.2143 3.96875,30.0491 0.85751,17.4056 0.66817,15.368 -1.14771,27.5136 22.262,0.8169 25.363,0.317 41.98893,-5.5287 13.76256,-6.9445 17.5759,-5.1027 27.02529,-14.363 4.04368,-0.584 6.72864,-4.7077 8.63936,-3.3104 7.23564,-5.0051 34.58483,-5.4807 27.13505,-0.6059 19.77795,-0.5345 56.65248,0.1955 1.13392,-6.2366 -38.67663,-0.9079 -10.15624,0.1336 -34.69987,0.3963 -7.26143,1.0737 -55.48263,9.1317 -16.63094,10.2053 -21.83167,10.3299 -13.89803,6.4145 -5.84769,2.1544 -15.40023,5.1955 -29.95689,7.2778 -25.32441,2.2678 -33.26191,-1.8899 1.81425,-26.6319 0.4536,-23.2609 -4.91368,-24.1905 -8.63613,-28.9876 -4.59304,-14.1017 L 207.8869,1651 l -20.03274,-23.0566 -14.74107,-11.7172 -27.21428,-15.875 -23.43453,-9.0715 -17.3869,-4.5357 -25.324405,-2.2678 -22.67857,4.5357"
         id="path2154" />
      <path
         style="fill:#aaeeff;stroke:#070c0b;stroke-width:0.6;stroke-linecap:butt;stroke-linejoin:miter;stroke-miterlimit:4;stroke-dasharray:none;stroke-opacity:1"
         d="m -36.66369,1669.5208 -1.511904,7.5595 -0.377978,10.0164 0.566965,26.8363 2.834822,18.8988 2.83482,-3.5907 1.511906,6.6145 1.322917,39.3096 h -4.913691 l -1.700892,7.9375 -0.566965,7.5595 2.834822,25.3244 2.267858,13.6071 4.157736,12.4733 2.645834,10.3943 -11.150299,-14.7411 -10.77232,-13.9851 -14.552083,-18.5208 -10.205357,-23.0566 -6.047618,-37.0416 3.401787,-13.2292 16.252973,-35.3408 11.150298,-15.875 z"
         id="path2156" />
      <path
         style="fill:#ffdd55;fill-opacity:1;stroke:#070c0b;stroke-width:0.6;stroke-linecap:butt;stroke-linejoin:miter;stroke-miterlimit:4;stroke-dasharray:none;stroke-opacity:1"
         d="m 224.51785,1802.5684 7.18155,0.378 -6.99256,17.9539 -3.59077,6.8036 h -7.18155 l 8.88244,-21.5442 z"
         id="path2158" />
      <path
         style="fill:#ff8080;fill-opacity:1;stroke:#070c0b;stroke-width:0.6;stroke-linecap:butt;stroke-linejoin:miter;stroke-miterlimit:4;stroke-dasharray:none;stroke-opacity:1"
         d="m 236.80208,1803.7024 -3.96875,12.0952 -3.2128,8.3155 -2.64583,3.5908 h -5.85863 l 3.59077,-6.8036 6.99256,-17.9539 z"
         id="path2160" />
      <path
         style="fill:none;stroke:#070c0b;stroke-width:0.6;stroke-linecap:butt;stroke-linejoin:miter;stroke-miterlimit:4;stroke-dasharray:none;stroke-opacity:1"
         d="m 236.80208,1803.7024 h 6.4256 l 0.37797,5.6696 -3.59077,8.3155 -2.07887,7.9375 -1.51191,2.8348 -9.4494,-0.7559 2.64583,-3.5908 z"
         id="path2162" />
      <path
         style="fill:#c83737;fill-opacity:1;stroke:#070c0b;stroke-width:0.6;stroke-linecap:butt;stroke-linejoin:miter;stroke-miterlimit:4;stroke-dasharray:none;stroke-opacity:1"
         d="m 6.1421131,1691.5374 1.1339285,-4.5352 -1.0394344,-10.1108 0.1889879,-7.5596 2.8348212,-16.4424 0.3779763,-7.937 -1.1339287,-11.6233 1.1339285,-6.4256 10.2053576,-14.1741 13.985118,-8.0315 9.449406,0.9449 5.480653,-1.8898 11.055805,-1.7009 12.662201,-3.0239 9.921875,-0.9449 8.126487,-0.189 5.575151,-0.7559 5.102674,0.8504 8.69346,1.5119 7.27604,1.8899 2.83482,1.1339 7.18155,1.4175 6.99256,4.0632 12.28422,5.3861 9.73289,6.0477 11.90625,7.843 4.25223,2.9293 15.11905,17.3869 5.85863,6.8036 9.26042,12.8512 4.15773,9.3549 6.52009,13.7016 5.10268,12.1897 5.19717,12.9457 0.94494,13.6072 1.7009,5.6696 0.56696,14.4576 0.28348,23.151 -1.5119,23.718 -1.03944,6.5201 -10.58333,25.1355 -11.81176,20.7886 -8.40996,11.1498 -18.14286,18.5209 -10.29985,7.6545 -16.34747,12.1892 -17.95387,8.127 -29.67113,5.8581 -44.412204,-0.5669 -15.780507,-3.9683 -2.173361,1.0395 -13.98512,-14.9301 -2.456845,-5.1972 -2.645833,-2.6458 -4.630209,-17.2924 v -4.4412 l -2.267856,-5.9532 -2.456846,-4.1577 -2.2678568,-1.6064 -2.0788691,-0.7559 v 0 l -3.4017857,-4.7248 0.8504465,-3.5907 2.2678569,-5.3862 -0.094494,-9.8274 0.2834822,-5.3861 -0.1889882,-1.4174 0.7087055,-0.2363 4.3467257,-5.7169 10.252604,-13.8433 6.945313,-9.5912 2.598586,-4.8664 5.953125,-11.3866 0.897695,-15.497 -2.456847,-11.9062 -2.315104,-11.1031 -0.425223,-0.2835 -2.740326,-9.8746 -6.331103,-14.4104 -8.551711,-10.7722 -7.3705353,-8.1265 -0.8504465,-1.134 z"
         id="path2164" />
      <path
         style="fill:#c83737;fill-opacity:1;stroke:#070c0b;stroke-width:0.6;stroke-linecap:butt;stroke-linejoin:miter;stroke-miterlimit:4;stroke-dasharray:none;stroke-opacity:1"
         d="m 243.22768,1803.7024 0.37797,5.6696 -3.59077,8.3155 -3.59078,10.7723 27.0253,0.567 38.1756,-2.6459 33.63989,-4.3472 32.88392,-14.5516 17.38691,-8.6939 32.12796,-12.4727 18.52083,-4.9142 h 38.17559 l 50.27083,0.378 19.27681,-0.5675 0.18899,-30.9936 -36.85268,-0.1889 -59.34228,1.5118 -32.88393,7.5596 -16.25295,4.3467 -38.36459,16.064 -27.0253,15.497 -36.47469,6.4256 -18.70983,0.756 -7.9375,2.2678 z"
         id="path2166" />
      <path
         style="fill:#c83737;fill-opacity:1;stroke:#070c0b;stroke-width:0.6;stroke-linecap:butt;stroke-linejoin:miter;stroke-miterlimit:4;stroke-dasharray:none;stroke-opacity:1"
         d="m -29.482142,1775.1652 h -4.913691 l -1.700892,7.9375 -0.566965,7.5595 1.651383,16.4807 1.469983,9.6217 1.981314,12.8291 4.157736,12.4733 -0.566965,-49.137 -1.464656,-4.7247 -0.04725,-13.0401"
         id="path2168" />
      <path
         style="fill:#c83737;fill-opacity:1;stroke:#070c0b;stroke-width:0.6;stroke-linecap:butt;stroke-linejoin:miter;stroke-miterlimit:4;stroke-dasharray:none;stroke-opacity:1"
         d="m -25.702381,1800.1116 6.000372,17.1507 11.811756,7.9847 -1.0866813,1.1339 -0.094494,1.5119 -0.7559524,2.6459 -0.094494,3.0238 0.6614583,2.7403 0.5197171,4.205 0.7087052,5.6224 0.8031993,2.0789 1.4174108,1.8426 -0.141741,8.5989 -0.566964,4.961 -1.7953868,4.7247 -7.4177832,-14.7883 -3.638021,-12.2842 -1.41741,-4.4885 -2.22061,-15.2608 -1.181176,-10.4416 -1.511905,-10.9613"
         id="path2170" />
      <path
         style="fill:#000000;stroke:#070c0b;stroke-width:0.6;stroke-linecap:butt;stroke-linejoin:miter;stroke-miterlimit:4;stroke-dasharray:none;stroke-opacity:1"
         d="m -31.372024,1661.4888 -5.291666,8.032 c -2.915067,9.4265 -2.421837,19.8268 -1.889882,30.2381 l 0.566965,14.1741 2.834822,18.8988 2.83482,-3.5907 c -0.653072,-22.4458 -1.791419,-44.8223 0.944941,-67.7523"
         id="path2314" />
      <path
         style="fill:#000000;stroke:#070c0b;stroke-width:0.6;stroke-linecap:butt;stroke-linejoin:miter;stroke-miterlimit:4;stroke-dasharray:none;stroke-opacity:1"
         d="m -29.482145,1775.1652 c 0,0 -4.913688,0 -4.913688,0 l -2.267857,15.497 1.13393,14.3631 3.96875,24.5684 4.157736,12.4733 -0.566965,-49.137 -0.377976,-5.1026 -1.13393,-12.6622"
         id="path2316" />
    </g>
    <path
       style="fill:#ffffff;fill-opacity:1;fill-rule:nonzero;stroke:none;stroke-width:0.117807"
       id="path2346"
       d="m 143.47243,173.00605 c -0.32706,0.96848 -0.48015,1.98284 -0.68155,2.98327 -0.057,0.42797 -0.24752,0.80348 -0.28916,1.2339 -0.17199,0.42999 -0.19992,0.89772 -0.22133,1.35635 -0.012,0.44843 0.0802,0.88196 -0.0781,1.30738 -0.1883,0.47947 -0.15957,0.99645 -0.15857,1.50228 0.0249,0.74834 0.0519,1.49628 0.0639,2.24497 -0.005,0.55177 -0.01,1.10355 -0.01,1.65535 -0.009,0.58769 -0.007,1.17553 -0.007,1.76331 0.005,0.61421 8.8e-4,1.22844 0.005,1.84267 -0.0522,0.61382 0.0859,1.14107 0.38988,1.66451 0.41964,0.46381 0.8186,0.98089 1.32893,1.33928 0.24957,-0.0317 0.53646,0.0442 0.74874,-0.0942 0.41853,-0.27298 0.0719,-1.81488 -0.001,-2.22558 -0.0988,-0.65105 -0.23371,-1.2955 -0.32008,-1.94858 -0.013,-0.55876 -0.12401,-1.10477 -0.20626,-1.6555 -0.0638,-0.56544 -0.0295,-1.12492 -0.11617,-1.68851 -0.13102,-0.65945 -0.15917,-1.33657 -0.16025,-2.00811 0.0261,-0.55962 0.0475,-1.11925 0.0626,-1.67928 0.009,-0.67577 -0.001,-1.3516 -0.008,-2.02737 -0.018,-0.58937 0.0256,-1.18383 -0.0227,-1.772 -0.32788,0.0755 -0.69118,0.0565 -0.98365,0.22639 -0.1,0.0582 -0.011,0.23565 -0.0146,0.35353 -0.023,0.78661 -0.0335,1.57386 -0.0504,2.36059 -0.0192,1.48916 0.0434,2.97366 -0.0867,4.45844 -0.0533,0.66791 -0.18336,1.33643 -0.13494,2.00855 0.0798,0.47008 0.0522,0.94867 0.0519,1.42361 -4.4e-4,0.60444 -0.002,1.20883 -0.003,1.81323 0.0831,0.68849 0.52498,0.72883 1.07238,0.81603 0.0646,0.0293 0.46836,-0.90883 0.40378,-0.93815 v 0 c -0.0431,-0.009 -0.40264,-0.11778 -0.4893,-0.0648 -0.0319,0.0193 0.0106,0.0756 0.0146,0.11356 0.0174,0.16453 0.0289,0.17613 -0.0102,0.0878 0.0197,-0.61233 0.0531,-1.22452 0.045,-1.83744 -0.0106,-0.48911 -0.0274,-0.97843 -0.11494,-1.46057 -0.0134,-0.62695 0.24498,-1.24096 0.25446,-1.8675 0.16209,-1.51216 0.13586,-3.03263 0.1214,-4.55219 -0.016,-0.78752 -0.0244,-1.57575 -0.0495,-2.36303 -0.004,-0.11871 0.0845,-0.29734 -0.016,-0.35611 -0.2929,-0.17116 -0.6573,-0.15294 -0.98596,-0.22943 -0.0578,0.59248 -0.0156,1.19318 -0.0264,1.78736 0.004,0.66878 0.0206,1.33744 0.0285,2.00616 -10e-4,0.5613 -0.0577,1.1198 -0.0733,1.68073 -0.0192,0.72545 0.0154,1.45122 0.17226,2.16158 0.0932,0.55857 0.0537,1.11667 0.11926,1.67872 0.0811,0.54551 0.20884,1.08009 0.19506,1.63599 0.0799,0.66906 0.23886,1.32286 0.30477,1.99395 0.0189,0.1119 0.2228,1.40169 0.23753,1.41663 0.16099,0.16288 0.54976,-1.31623 0.67737,-0.0311 -0.14057,-0.0311 -0.83274,-0.87002 -1.0725,-1.02001 -0.2783,-0.44848 -0.3105,-0.65231 -0.27449,-1.20588 0.006,-0.61578 0.004,-1.23148 0.005,-1.84729 -0.004,-0.58399 -0.0116,-1.16802 -0.0171,-1.75201 0.01,-0.55511 0.0333,-1.1099 0.0342,-1.66514 0.009,-0.75909 -0.0118,-1.51834 -0.0616,-2.27585 -0.0284,-0.3931 -0.0745,-0.79763 0.0753,-1.17218 0.18392,-0.51549 0.18113,-1.02489 0.15368,-1.56866 0.0148,-0.45119 0.0482,-0.89518 0.18334,-1.32715 0.009,-0.38321 0.32158,-0.70306 0.33566,-1.09289 0.25837,-1.00609 0.43747,-2.03093 0.65092,-3.04761 0.01,-0.072 -0.98064,-0.21398 -0.99042,-0.14208 z" />
    <path
       style="fill:none;stroke:#000000;stroke-width:0.563246;stroke-linecap:butt;stroke-linejoin:miter;stroke-miterlimit:4;stroke-dasharray:none;stroke-opacity:1"
       d="M 143.74512,184.29338 80.723064,183.75641"
       id="path2377" />
    <path
       style="fill:#000000;stroke:#000000;stroke-width:0.652297;stroke-linecap:butt;stroke-linejoin:miter;stroke-miterlimit:4;stroke-dasharray:none;stroke-opacity:1"
       d="m 159.09954,186.48551 c -71.734401,66.8633 -71.734401,66.8633 -71.734401,66.8633"
       id="path2379" />
    <path
       style="fill:none;stroke:#000000;stroke-width:0.563246;stroke-linecap:butt;stroke-linejoin:miter;stroke-miterlimit:4;stroke-dasharray:none;stroke-opacity:1"
       d="m 140.33568,147.76621 c -34.6054,-37.65565 -34.6054,-37.65565 -34.6054,-37.65565"
       id="path2381" />
    <path
       style="fill:none;stroke:#000000;stroke-width:0.741348;stroke-linecap:butt;stroke-linejoin:miter;stroke-miterlimit:4;stroke-dasharray:none;stroke-opacity:1"
       d="m 246.11071,143.33144 c 53.13659,0.5117 53.13659,0.5117 53.13659,0.5117"
       id="path2383" />
    <path
       style="fill:none;stroke:#000000;stroke-width:0.563246;stroke-linecap:butt;stroke-linejoin:miter;stroke-miterlimit:4;stroke-dasharray:none;stroke-opacity:1"
       d="M 157.6881,129.00336 268.70422,110.8342"
       id="path2385" />
    <path
       style="fill:none;stroke:#000000;stroke-width:0.652297;stroke-linecap:butt;stroke-linejoin:miter;stroke-miterlimit:4;stroke-dasharray:none;stroke-opacity:1"
       d="m 314.44102,208.82988 -0.17924,37.08859"
       id="path2387" />
    <text
       xml:space="preserve"
       id="text2389"
       style="font-size:14.1111px;line-height:1.25;font-family:sans-serif;letter-spacing:0px;word-spacing:0px;white-space:pre;shape-inside:url(#rect2391);"
       transform="matrix(0.43931827,0,0,0.4512708,212.23613,-673.52649)"><tspan
         x="-338.66602"
         y="2074.9689"><tspan
           style="font-size:19.7556px">Lens</tspan></tspan></text>
    <text
       xml:space="preserve"
       id="text2395"
       style="font-size:19.7556px;line-height:1.25;font-family:sans-serif;letter-spacing:0px;word-spacing:0px;white-space:pre;shape-inside:url(#rect2397);"
       transform="matrix(0.43931827,0,0,0.4512708,194.96673,-677.9613)"><tspan
         x="-328.83984"
         y="1911.6838"><tspan
           style="font-size:19.7556px">Pupil</tspan></tspan></text>
    <text
       xml:space="preserve"
       id="text2401"
       style="font-size:19.7556px;line-height:1.25;font-family:sans-serif;letter-spacing:0px;word-spacing:0px;white-space:pre;shape-inside:url(#rect2403);"
       transform="matrix(0.43931827,0,0,0.4512708,221.86713,-676.59674)"><tspan
         x="-298.60156"
         y="1740.0822"><tspan
           style="font-size:19.7556px">Iris</tspan></tspan></text>
    <text
       xml:space="preserve"
       id="text2407"
       style="font-size:19.7556px;line-height:1.25;font-family:sans-serif;letter-spacing:0px;word-spacing:0px;white-space:pre;shape-inside:url(#rect2409);"
       transform="matrix(0.43931827,0,0,0.4512708,194.96673,-677.9613)"><tspan
         x="173.86914"
         y="1744.6193"><tspan
           style="font-size:19.7556px">Ciliary muscle</tspan></tspan></text>
    <text
       xml:space="preserve"
       style="font-size:4.71226px;line-height:1.25;font-family:sans-serif;letter-spacing:0px;word-spacing:0px;stroke-width:0.117807"
       x="298.9151"
       y="106.58331"
       id="text2415"
       transform="scale(0.98666794,1.0135122)"><tspan
         id="tspan2413"
         x="298.9151"
         y="106.58331"
         style="stroke-width:0.117807">i</tspan></text>
    <text
       xml:space="preserve"
       id="text2417"
       style="font-size:19.7556px;line-height:1.25;font-family:sans-serif;letter-spacing:0px;word-spacing:0px;white-space:pre;shape-inside:url(#rect2419);"
       transform="matrix(0.43931827,0,0,0.4512708,194.96673,-677.9613)"><tspan
         x="245.68359"
         y="1824.7502"><tspan
           style="font-size:19.7556px">Retina</tspan></tspan></text>
    <text
       xml:space="preserve"
       id="text2423"
       style="font-size:19.7556px;line-height:1.25;font-family:sans-serif;letter-spacing:0px;word-spacing:0px;white-space:pre;shape-inside:url(#rect2425);"
       transform="matrix(0.43931827,0,0,0.4512708,194.96673,-677.9613)"><tspan
         x="229.05273"
         y="2069.6779"><tspan
           style="font-size:19.7556px">Optic nerve</tspan></tspan></text>
  </g>
</svg>
