<?xml version="1.0" encoding="UTF-8" standalone="no"?>
<svg
   xmlns:dc="http://purl.org/dc/elements/1.1/"
   xmlns:cc="http://creativecommons.org/ns#"
   xmlns:rdf="http://www.w3.org/1999/02/22-rdf-syntax-ns#"
   xmlns:svg="http://www.w3.org/2000/svg"
   xmlns="http://www.w3.org/2000/svg"
   xmlns:sodipodi="http://sodipodi.sourceforge.net/DTD/sodipodi-0.dtd"
   xmlns:inkscape="http://www.inkscape.org/namespaces/inkscape"
   width="400mm"
   height="297mm"
   viewBox="0 0 400 297"
   version="1.1"
   id="svg8"
   sodipodi:docname="parallelresistors.svg"
   inkscape:version="1.0.2 (e86c870879, 2021-01-15, custom)">
  <sodipodi:namedview
     pagecolor="#ffffff"
     bordercolor="#666666"
     borderopacity="1"
     objecttolerance="10"
     gridtolerance="10"
     guidetolerance="10"
     inkscape:pageopacity="0"
     inkscape:pageshadow="2"
     inkscape:window-width="1920"
     inkscape:window-height="1017"
     id="namedview16"
     showgrid="false"
     inkscape:zoom="0.13032092"
     inkscape:cx="-1944.5362"
     inkscape:cy="-1280.2863"
     inkscape:window-x="-8"
     inkscape:window-y="-8"
     inkscape:window-maximized="1"
     inkscape:current-layer="svg8" />
  <defs
     id="defs2">
    <clipPath
       clipPathUnits="userSpaceOnUse"
       id="clipPath1087">
      <path
         id="path1089"
         style="fill:#ff0000;fill-opacity:1;fill-rule:nonzero;stroke:none;stroke-width:0.264583"
         d="M -570.45148,-4.9356161 V 161.01808 h 29.60388 c -0.12234,-0.63956 -0.25299,-1.27752 -0.37002,-1.91823 -0.0271,-0.009 -0.0383,-0.0453 -0.0419,-0.0956 -0.081,-0.18818 -0.17094,-0.66037 -0.18396,-0.77515 0.0246,-0.0201 0.0476,-0.0425 0.0718,-0.063 -0.005,-0.0344 -0.0116,-0.0684 -0.0164,-0.10283 v -10e-4 c -0.0625,-0.44837 0.007,-0.80059 0.1478,-1.04903 0.0101,-0.16538 0.0238,-0.34228 0.045,-0.55139 0.0148,-0.14785 -0.058,-0.40848 0.0878,-0.43718 0.0393,-0.008 0.072,-0.011 0.10956,-0.0176 0.006,-0.88074 -0.0432,-1.10931 1.25521,0.009 0.55155,0.15858 0.41148,0.44001 0.38913,-0.52451 0.26019,0.61068 0.22624,1.22068 0.23669,1.87069 0.13648,0.004 0.27274,0.006 0.40929,0.01 0.89154,0.0268 1.78149,0.0367 2.67321,0.0181 1.29974,0.15339 2.59041,0.36147 3.88192,0.56379 2.03972,-0.0285 4.21288,-0.0305 5.47306,0.008 1.80774,0.0527 3.61387,0.15402 5.41931,0.25942 1.96836,0.11491 2.395,0.10573 2.8825,0.17983 0.51059,-0.0763 1.03116,-0.13545 1.57149,-0.20205 1.60957,-0.11097 3.22144,-0.18393 4.83484,-0.16433 -0.003,-1.15974 -0.003,-1.5312 -0.003,-2.86133 0,-0.23803 -0.22381,-0.63987 0.003,-0.71417 0.30758,-0.1011 0.6333,-0.0791 0.96118,-0.0264 0.11874,-0.0178 0.23693,-0.0297 0.35398,-0.0315 0.0297,0.0374 0.0595,0.0747 0.0899,0.11162 0.10589,0.0207 0.2108,0.0397 0.31523,0.0558 -0.0273,-0.0465 -0.0549,-0.0926 -0.0806,-0.14004 -0.10679,-0.0199 -0.21463,-0.0291 -0.32401,-0.0274 -0.13724,-0.17326 -0.26694,-0.35055 -0.3607,-0.54932 -0.0156,-0.033 -0.006,-0.0457 0.0201,-0.0455 0.0781,5.3e-4 0.30036,0.11598 0.4072,0.13953 0.0877,0.15986 0.17087,0.32235 0.25789,0.48266 0.0517,0.01 0.10361,0.0187 0.15449,0.0346 0.18177,0.0569 0.0702,0.3285 0.0196,0.55604 0.1075,0.14145 0.2073,0.28752 0.28524,0.44648 0.13502,0.27535 0.0716,0.60942 0.0951,0.91519 0.018,0.23331 0.0185,0.45434 0.0119,0.67438 0.042,0.0328 0.0821,0.0673 0.11885,0.10594 0.007,0.007 0.0148,0.019 0.0222,0.0274 0.0562,-0.75688 0.43137,-1.14221 0.82888,-1.14154 0.43067,8e-4 0.87903,0.44483 0.95084,1.33015 0.0324,0.39906 0.0271,0.79364 -0.014,1.18288 0.0297,0.042 0.058,0.0852 0.0765,0.13281 0.20969,0.53702 0.17421,0.49778 0.2067,0.9958 -0.0582,0.3453 -0.0428,0.26137 -0.0444,0.27647 0.1328,0.10243 0.17373,0.24359 0.185,0.62994 0,0.014 -0.0401,0.30199 -0.0589,0.42219 h 1.4242 c -0.10367,-0.0568 -0.21873,-0.21182 -0.26715,-0.26975 -0.0347,-0.0443 -0.13587,-0.16471 -0.21757,-0.2868 -0.0198,0.003 -0.028,0.005 -0.0496,0.009 -0.0726,0.0117 -0.11459,-0.092 -0.17208,-0.13797 -0.18923,-0.30343 -0.33581,-0.62843 -0.46146,-0.96222 -0.0196,-0.0522 -0.0401,-0.10445 -0.0532,-0.15865 -0.0418,-0.17478 -0.0368,-0.19514 -0.0408,-0.35088 0.005,-0.12542 0.0188,-0.25026 0.03,-0.37517 0.0101,0.0489 0.0416,0.19513 0.0336,0.14573 -0.008,-0.052 -0.0212,-0.10318 -0.0331,-0.15451 -0.003,-0.0113 -0.005,-0.0228 -0.007,-0.0341 -0.007,-0.0854 0.003,-0.1704 0,-0.2558 -0.006,-0.27059 -0.0143,-0.14446 0.28991,-0.47594 0.22412,-0.006 0.38184,0.0684 0.55657,0.20464 0.10607,0.095 0.12907,0.23511 0.12867,0.37672 0.0592,-0.21694 0.21677,-0.30472 0.35708,-0.26613 -5e-5,-0.13745 0.003,-0.27493 0,-0.41238 0,-0.0141 -0.0127,-0.043 0.003,-0.0424 0.21,0.01 0.42426,0.0141 0.62735,0.0677 0,-0.0124 0.003,-0.009 0.004,-0.0284 8e-5,0.01 -5e-5,0.0193 0,0.0289 0.007,0.002 0.0154,0.003 0.0228,0.005 0.0412,0.0118 0.022,0.0823 0.032,0.12403 0.005,0.0224 0.01,0.0448 0.0151,0.0672 -0.003,-0.0481 0.004,-0.0896 0.0439,-0.10336 0.20437,-0.0695 0.45469,-0.0535 0.64596,0.0465 0.0854,0.0447 0.0209,0.187 0.0196,0.28732 0.0353,-1.9e-4 0.0468,-0.001 0.0873,-0.002 0.056,-2.5e-4 0.054,0.0995 0.0687,0.15348 0.0122,0.044 0.0185,0.0892 0.0279,0.13384 0.0714,-0.12718 0.18611,-0.25986 0.33176,-0.18449 -0.0238,-0.12355 -0.0442,-0.24215 0.0164,-0.22737 0.0463,0.0111 0.0915,0.026 0.13592,0.0434 -0.0109,-0.0326 -0.027,-0.0713 -0.0424,-0.10955 -0.019,-0.008 -0.0393,-0.0149 -0.0579,-0.0243 -0.0156,-0.008 0.0267,-0.0558 0.0336,-0.0398 0.0106,0.0244 0.0153,0.0417 0.0243,0.0641 0.0943,0.0402 0.19317,0.0712 0.29043,0.1049 -0.007,-0.043 -0.009,-0.079 -0.008,-0.10748 -0.0288,-0.0459 -0.0593,-0.0909 -0.0868,-0.13746 0.15557,0.0118 0.0917,0.002 0.0868,0.13746 0.0284,0.0451 0.0564,0.0905 0.0853,0.13539 0.0546,0.022 0.10772,0.0471 0.15658,0.0801 0.0361,0.0243 -0.0138,0.0819 -0.0279,0.12609 0.0119,0.0193 0.0233,0.039 0.0351,0.0584 0.0473,-0.27798 0.10694,-0.55209 0.22016,-0.81235 0.0206,-0.0478 0.0285,-0.11148 0.0734,-0.13798 0.0915,-0.054 0.19314,-0.12458 0.29662,-0.14314 0.0345,-0.006 0.0693,-0.007 0.10388,0.001 0.12279,0.0281 0.16227,0.19299 0.24339,0.28939 0.0183,0.18825 0.0399,0.37433 0.0656,0.56017 0.0303,0.009 0.0607,0.02 0.0909,0.0253 l 0.007,0.007 c 0.0169,-0.0315 0.0299,-0.065 0.0496,-0.0951 0.023,-0.0351 0.0386,-0.0885 0.0796,-0.0971 0.14536,-0.0306 0.29696,-0.009 0.44545,-0.0134 0.0414,0.0592 0.0951,0.11125 0.12454,0.17725 0.004,0.008 0.006,0.0296 0.01,0.0413 0.0649,-0.0348 0.13531,-0.0464 0.20672,-0.0104 0.10641,-0.47425 0.63489,-0.40872 0.61494,0.16589 0,0.0184 -0.003,0.0364 -0.003,0.0548 0,0.0203 0,0.0407 -0.003,0.061 0,0.0112 -0.0127,-0.0419 -0.0108,-0.031 0.0243,0.10842 0.0483,0.192 0.006,0.3054 -0.0183,0.0272 -0.0362,0.0539 -0.0543,0.0811 v 0.27388 c 0,0.12184 -6e-5,0.24404 0,0.36587 0.0116,0.0546 0.0254,0.11767 0.0357,0.16381 0.004,0.10287 0.0159,0.20559 0.013,0.30851 -0.003,0.0624 -0.0199,0.12342 -0.0265,0.18552 -0.0111,0.10924 -0.0172,0.21924 -0.0233,0.32918 -8e-5,0.0572 5e-5,0.11436 0,0.17156 5e-5,0.11733 0,0.23461 0,0.35192 2e-5,0.0157 0.0161,0.045 0,0.047 -0.003,2.6e-4 -0.006,-2.7e-4 -0.008,0 0.005,0.008 0.008,0.0194 0.009,0.0325 0,0.007 -0.003,0.0123 -0.003,0.0186 8e-5,2.7e-4 0.003,5.3e-4 0.003,0.001 0,0.006 -0.004,0.009 -0.005,0.0139 0,0.003 -0.003,0.005 -0.003,0.008 -0.005,0.019 -0.0145,0.0341 -0.0274,0.0455 h 234.40946 V -4.9356161 Z m 64.09581,163.5486661 c 0,0.009 -0.003,0.0186 -0.004,0.0279 -0.0101,0.0598 -0.0288,0.0738 -0.003,0.0512 0.008,0.0762 0.007,0.15201 0.006,0.22841 -8e-5,0.007 1.3e-4,0.0157 0,0.0227 -2.1e-4,0.0141 -0.003,0.0263 -0.003,0.0398 0,7.9e-4 0.003,0.002 0.004,0.003 z m -1.70376,0.99633 c -0.0106,0.0373 -0.0222,0.0744 -0.0336,0.11162 0.0529,0.0255 0.10319,0.0505 0.1478,0.0708 -0.0347,-0.0635 -0.0705,-0.12611 -0.1142,-0.18241 z m 0.34883,0.64389 c -0.0127,0.0424 -0.013,0.0315 -0.0315,0.10076 -0.007,0.0279 0.0259,-0.0488 0.047,-0.0718 -0.005,-0.009 -0.0103,-0.0195 -0.0154,-0.0289 z m 5.0927,0.14831 c -0.0347,0.0252 -0.0718,0.049 -0.11213,0.0661 -0.003,0.002 -0.003,0.003 -0.005,0.005 0.0382,-0.0142 0.13517,-0.0854 0.11731,-0.0708 z m 1.13273,0.0718 v 0.001 c -0.18732,0.0124 -0.29329,0.0329 -0.36327,0.047 0,0.14606 1.1e-4,0.29222 0.003,0.43822 0.003,0.0279 0.003,0.038 0.003,0.0584 h 0.40566 c -0.0257,-0.0265 -0.043,-0.0579 -0.0393,-0.0987 -0.003,-0.006 -0.003,-0.0162 0,-0.0274 v -0.03 c 0.003,1.5e-4 0.003,2e-4 0.005,5.3e-4 v -10e-4 -0.0104 c 0,-1e-5 -0.003,-5.3e-4 -0.005,-5.3e-4 -0.004,-0.12496 -0.003,-0.25011 0,-0.37517 -0.003,-5.3e-4 -0.007,-0.001 -0.009,-0.002 z m -3.40651,0.10542 c -0.003,0.0522 -0.003,0.10443 -0.004,0.15658 -3e-5,0.003 0,0.006 0,0.009 0,0.0338 0.0308,0.0933 -0.003,0.10129 0,0.20046 0,0.18351 -0.30179,0.0847 -0.33221,0.0998 -0.33356,0.11919 -0.33332,-0.10077 v -5.3e-4 c -0.0251,-0.0111 0,-0.0607 0.003,-0.092 2.4e-4,-0.009 2.4e-4,-0.0179 0,-0.0269 v -0.12247 c -0.009,2.7e-4 -0.0257,5.3e-4 -0.0398,0.002 0.007,0.19192 -0.0567,0.34834 -0.34311,0.4284 h 1.17562 c -0.0106,-0.14619 -0.0228,-0.29227 -0.0305,-0.43874 -0.041,-0.001 -0.082,5.3e-4 -0.123,-5.3e-4 z m 1.26246,0.0558 c 0,0.003 0,0.007 -0.003,0.0103 -0.004,-0.002 -0.007,-0.003 -0.0114,-0.006 -0.0911,0.0809 -0.18264,0.16156 -0.25786,0.2558 -0.0285,-0.0139 -0.0648,-0.0394 -0.0997,-0.063 -0.003,0.0621 -0.005,0.12402 -0.007,0.18603 h 0.49766 c -0.007,-0.0471 -0.0124,-0.0935 0.0114,-0.12144 v -0.24546 c -0.0434,-0.006 -0.0868,-0.0106 -0.13022,-0.016 z m -0.003,0.0103 c 0,2.1e-4 0.003,5.3e-4 0.003,0.001 0.04,0.0236 0.0222,0.0648 -0.0114,0.10904 -0.0175,0.10456 -0.062,0.18397 -0.17365,0.16588 0.004,-0.003 0.0122,-0.004 0.0151,-0.006 0.043,-0.041 0.11515,-0.10304 0.15812,-0.15968 0.006,-0.0362 0.007,-0.0728 0.009,-0.11007 z m 1.05987,0 v 5.3e-4 c -0.006,2.7e-4 -0.0119,8e-4 -0.018,0.001 -0.005,0.17647 -0.0122,0.12321 -0.0196,5.3e-4 -0.0488,0.002 -0.0974,0.005 -0.14623,0.007 -0.0444,10e-4 -0.0515,-5.3e-4 -0.0853,5.3e-4 0.0185,0.0554 0.0539,0.12214 0.008,0.13487 -0.0111,0.003 -0.0228,0.003 -0.0341,0.005 v 0.15555 c 0.003,0.001 0.004,5.3e-4 0.007,0.003 0.0228,0.0131 0.0241,0.0371 0.019,0.0651 h 0.34417 c -0.003,-0.0145 -0.004,-0.0289 -0.006,-0.0434 -0.0116,-0.10793 -0.0217,-0.21625 -0.0305,-0.32453 -0.0124,-0.001 -0.0278,-0.005 -0.0383,-0.005 z m -36.13785,0.12558 v 5.3e-4 c 0,0.11067 -0.0302,0.19269 -0.0734,0.24701 h 3.69747 c -0.38907,-0.009 -0.7462,-0.0203 -1.11106,-0.0346 -0.45519,0.003 -0.9094,-0.003 -1.36062,-0.0263 -0.0359,0.003 -0.0629,0.004 -0.0615,-0.003 -0.0175,-10e-4 -0.0348,-10e-4 -0.0522,-0.002 v 0.007 c -0.0196,-0.003 -0.0782,-0.0116 -0.0584,-0.009 0.019,0.001 0.0388,0.001 0.0579,0.002 -0.007,-0.0512 -0.0143,-0.10231 -0.0217,-0.15348 -0.22003,-0.007 -0.44,-0.0124 -0.65992,-0.0176 -0.0388,0.004 -0.0246,0.003 -0.0651,0.007 -0.0898,0.01 -0.2463,0.0802 -0.26974,-0.006 0,-0.003 5e-5,-0.007 -0.003,-0.0108 -0.006,-1.1e-4 -0.0119,-2.6e-4 -0.018,-5.3e-4 z m 37.23028,0.0801 v 5.3e-4 c 1.6e-4,0.004 -5e-5,0.007 0,0.0103 -0.0944,-0.009 -0.0991,-0.0121 0,-0.0108 z m 0.0641,0.002 c -0.008,0.003 -0.0151,0.008 -0.0217,0.0129 0.10692,0.009 0.2518,0.0215 0.37568,0.0362 0.018,-0.006 0.0342,-0.009 0.0506,-0.0129 -0.0544,-0.009 -0.10956,-0.019 -0.16433,-0.0289 -0.081,-0.002 -0.19666,-0.006 -0.24029,-0.007 z m 0.56948,0.016 c 2.2e-4,0.005 -2.3e-4,0.01 0,0.0145 2.4e-4,-0.004 0.006,-0.0143 0,-0.0145 z m -3.05667,0.0269 c 0.0339,0.0163 0.0604,0.0211 0.0863,0.0253 -0.0439,0.0278 -0.14364,0.0499 -0.11988,0.0155 0.01,-0.0146 0.0225,-0.027 0.0336,-0.0408 z m 2.43448,0.0305 c 0,0.004 -0.003,0.006 -0.003,0.0103 0.003,0.0776 0.0869,0.0688 0.19325,0.0372 -0.0701,-0.0208 -0.13603,-0.0395 -0.19016,-0.0475 z" />
    </clipPath>
  </defs>
  <metadata
     id="metadata5">
    <rdf:RDF>
      <cc:Work
         rdf:about="">
        <dc:format>image/svg+xml</dc:format>
        <dc:type
           rdf:resource="http://purl.org/dc/dcmitype/StillImage" />
        <dc:title></dc:title>
      </cc:Work>
    </rdf:RDF>
  </metadata>
  <g
     id="g1331"
     transform="matrix(1.2264249,0,0,1.2715296,712.96228,49.628163)">
    <path
       style="fill:none;stroke:#000000;stroke-width:1.8;stroke-linecap:butt;stroke-linejoin:miter;stroke-miterlimit:4;stroke-dasharray:none;stroke-opacity:1"
       d="m -434.82711,3.41669 h -134.71652 l 1.4033,155.76598 232.94732,0.93551 66.42271,-0.46775 1.4033,-155.76598 -138.45863,-0.46776 -2.8066,2.80659 -3.74212,-6.89954 -2.68966,6.7826 -3.85906,-8.77061 -3.85907,9.12143 -3.04048,-8.7706 -3.85906,6.89954 -2.57272,-5.3793 z"
       id="path847"
       clip-path="url(#clipPath1087)" />
    <path
       style="fill:none;stroke:#000000;stroke-width:1.8;stroke-linecap:butt;stroke-linejoin:miter;stroke-miterlimit:4;stroke-dasharray:none;stroke-opacity:1"
       d="m -326.30547,2.94892 -47.24433,27.13041 -27.13041,-0.46776 -2.75853,4.06579 -1.90187,-8.18631 -3.30761,7.02865 -3.3076,-8.18632 -3.3076,7.60749 -3.63837,-8.269 -3.05953,8.269 -2.64608,-8.10363 -5.20948,8.26901 -3.80374,-7.60748 -3.88643,5.04409 -16.7034,0.49614 -12.4862,-0.16538 -44.48726,-26.37813"
       id="path849" />
    <path
       style="fill:none;stroke:#000000;stroke-width:1.8;stroke-linecap:butt;stroke-linejoin:miter;stroke-miterlimit:4;stroke-dasharray:none;stroke-opacity:1"
       d="m -510.13774,2.28213 25.63397,-12.662565 11.8905,-6.964743 6.21184,-4.07652 28.43858,-0.485302 3.10592,-5.241239 3.97946,7.95892 5.3383,-8.92952 2.81474,8.347159 3.10592,-7.861861 3.59122,7.764801 3.30004,-6.308899 3.49416,7.473619 3.68828,-6.503019 2.9118,6.697139 2.71768,-3.688279 27.6621,0.291179 40.08578,22.51792 3.30004,1.84414"
       id="path851" />
    <path
       style="fill:none;stroke:#000000;stroke-width:1.8;stroke-linecap:butt;stroke-linejoin:miter;stroke-miterlimit:4;stroke-dasharray:none;stroke-opacity:1"
       d="m -326.30547,2.94892 0.34986,61.33336 -81.5304,0.58236 -104.72774,-0.29118 1.02984,-61.07797"
       id="path853" />
    <ellipse
       style="fill:#ffffff;stroke:#000800;stroke-width:1.8;stroke-linecap:round;stroke-linejoin:round;stroke-miterlimit:4;stroke-dasharray:none;paint-order:markers fill stroke"
       id="path855"
       cx="-421.3656"
       cy="64.864639"
       rx="11.874957"
       ry="12.166137" />
    <ellipse
       style="fill:#ffffff;stroke:#000800;stroke-width:1.8;stroke-linecap:round;stroke-linejoin:round;stroke-miterlimit:4;stroke-dasharray:none;paint-order:markers fill stroke"
       id="path888"
       cx="-341.58228"
       cy="161.34229"
       rx="10.385421"
       ry="11.06484" />
    <path
       style="fill:none;stroke:#000000;stroke-width:1.8;stroke-linecap:butt;stroke-linejoin:miter;stroke-miterlimit:4;stroke-dasharray:none;stroke-opacity:1"
       d="m -426.40696,155.02217 c 0,0 -0.20589,0.61768 -0.96085,1.64716 -0.75494,1.02948 -0.89221,1.37264 -0.89221,2.88254 0,1.5099 -0.20589,1.23536 0.2059,2.608 0.41179,1.37263 1.5099,2.95116 1.5099,2.95116"
       id="path890" />
    <path
       style="fill:none;stroke:#000000;stroke-width:1.8;stroke-linecap:butt;stroke-linejoin:miter;stroke-miterlimit:4;stroke-dasharray:none;stroke-opacity:1"
       d="m -419.61241,154.81627 c 0.27452,0.27453 0.82358,0.82358 1.0981,1.64716 0.27453,0.82359 0.48043,0.96085 0.61769,1.99032 0.13726,1.02949 0.27453,2.19622 0.27453,2.60802 0,0.41179 -0.27453,1.78443 -0.54906,2.60799 -0.27452,0.8236 -0.96084,1.64717 -0.96084,1.64717"
       id="path892" />
    <ellipse
       style="fill:#020804;fill-opacity:1;stroke:#000800;stroke-width:1.8;stroke-linecap:round;stroke-linejoin:round;stroke-miterlimit:4;stroke-dasharray:none;paint-order:markers fill stroke"
       id="path894"
       cx="-422.70084"
       cy="159.89502"
       rx="1.6471628"
       ry="1.7157947" />
    <text
       xml:space="preserve"
       style="font-size:10.5833px;line-height:1.25;font-family:sans-serif;letter-spacing:0px;word-spacing:0px;stroke-width:0.264583"
       x="-423.84961"
       y="67.777451"
       id="text853"><tspan
         sodipodi:role="line"
         id="tspan851"
         x="-423.84961"
         y="67.777451"
         style="stroke-width:0.264583">V</tspan></text>
    <text
       xml:space="preserve"
       style="font-size:10.5833px;line-height:1.25;font-family:sans-serif;letter-spacing:0px;word-spacing:0px;stroke-width:0.264583"
       x="-344.9028"
       y="164.01727"
       id="text857"><tspan
         sodipodi:role="line"
         id="tspan855"
         x="-344.9028"
         y="164.01727"
         style="stroke-width:0.264583">A</tspan></text>
    <text
       xml:space="preserve"
       style="font-size:10.5833px;line-height:1.25;font-family:sans-serif;letter-spacing:0px;word-spacing:0px;stroke-width:0.264583"
       x="-441.62634"
       y="78.06073"
       id="text861"><tspan
         sodipodi:role="line"
         id="tspan859"
         x="-441.62634"
         y="78.06073"
         style="stroke-width:0.264583">+</tspan></text>
    <text
       xml:space="preserve"
       style="font-size:10.5833px;line-height:1.25;font-family:sans-serif;letter-spacing:0px;word-spacing:0px;stroke-width:0.264583"
       x="-407.35138"
       y="78.240189"
       id="text865"><tspan
         sodipodi:role="line"
         id="tspan863"
         x="-407.35138"
         y="78.240189"
         style="stroke-width:0.264583">-</tspan></text>
    <path
       style="fill:none;stroke:#000000;stroke-width:1.69333;stroke-linecap:butt;stroke-linejoin:miter;stroke-miterlimit:4;stroke-dasharray:none;stroke-opacity:1"
       d="m -540.4167,142.62468 c -0.25378,33.49903 -0.25378,33.49903 -0.25378,33.49903"
       id="path891" />
    <path
       style="fill:none;stroke:#000000;stroke-width:1.29403;stroke-linecap:butt;stroke-linejoin:miter;stroke-miterlimit:4;stroke-dasharray:none;stroke-opacity:1"
       d="m -534.45455,150.2571 c -0.25378,19.56323 -0.25378,19.56323 -0.25378,19.56323"
       id="path891-0" />
    <path
       style="fill:none;stroke:#000000;stroke-width:1.03188;stroke-linecap:butt;stroke-linejoin:miter;stroke-miterlimit:4;stroke-dasharray:none;stroke-opacity:1"
       d="m -534.39895,159.33079 c 6.85313,-0.0401 6.85313,-0.0401 6.85313,-0.0401"
       id="path913" />
    <path
       style="fill:none;stroke:#000000;stroke-width:1.69333;stroke-linecap:butt;stroke-linejoin:miter;stroke-miterlimit:4;stroke-dasharray:none;stroke-opacity:1"
       d="m -526.93811,142.05368 c -0.25378,33.49903 -0.25378,33.49903 -0.25378,33.49903"
       id="path891-1" />
    <path
       style="fill:none;stroke:#000000;stroke-width:1.29403;stroke-linecap:butt;stroke-linejoin:miter;stroke-miterlimit:4;stroke-dasharray:none;stroke-opacity:1"
       d="m -520.43761,148.78885 c -0.25378,19.56323 -0.25378,19.56323 -0.25378,19.56323"
       id="path891-0-9" />
    <path
       style="fill:none;stroke:#090500;stroke-width:1.79917;stroke-linecap:butt;stroke-linejoin:miter;stroke-miterlimit:4;stroke-dasharray:none;stroke-opacity:1"
       d="m -507.33127,159.45878 c 6.85321,-0.0218 6.85321,-0.0218 6.85321,-0.0218"
       id="path913-4" />
    <path
       style="fill:none;stroke:#000000;stroke-width:1.69333;stroke-linecap:butt;stroke-linejoin:miter;stroke-miterlimit:4;stroke-dasharray:none;stroke-opacity:1"
       d="m -512.63675,140.53099 c -0.25378,33.49903 -0.25378,33.49903 -0.25378,33.49903"
       id="path891-1-0" />
    <path
       style="fill:none;stroke:#000000;stroke-width:1.29403;stroke-linecap:butt;stroke-linejoin:miter;stroke-miterlimit:4;stroke-dasharray:none;stroke-opacity:1"
       d="m -507.30736,149.21191 c -0.25378,19.56323 -0.25378,19.56323 -0.25378,19.56323"
       id="path891-0-9-3" />
    <path
       style="fill:none;stroke:#000000;stroke-width:1.03188;stroke-linecap:butt;stroke-linejoin:miter;stroke-miterlimit:4;stroke-dasharray:none;stroke-opacity:1"
       d="m -520.01814,159.19217 c 6.85313,-0.0401 6.85313,-0.0401 6.85313,-0.0401"
       id="path913-3" />
    <text
       xml:space="preserve"
       style="font-size:10.5833px;line-height:1.25;font-family:sans-serif;letter-spacing:0px;word-spacing:0px;stroke-width:0.264583"
       x="-550.97382"
       y="143.96373"
       id="text861-1"><tspan
         sodipodi:role="line"
         id="tspan859-4"
         x="-550.97382"
         y="143.96373"
         style="stroke-width:0.264583">+</tspan></text>
    <text
       xml:space="preserve"
       style="font-size:10.5833px;line-height:1.25;font-family:sans-serif;letter-spacing:0px;word-spacing:0px;stroke-width:0.264583"
       x="-505.52295"
       y="143.58047"
       id="text865-0"><tspan
         sodipodi:role="line"
         id="tspan863-3"
         x="-505.52295"
         y="143.58047"
         style="stroke-width:0.264583">-</tspan></text>
    <text
       xml:space="preserve"
       style="font-size:10.5833px;line-height:1.25;font-family:sans-serif;letter-spacing:0px;word-spacing:0px;stroke-width:0.264583"
       x="-357.69574"
       y="154.61993"
       id="text865-8"><tspan
         sodipodi:role="line"
         id="tspan863-6"
         x="-357.69574"
         y="154.61993"
         style="stroke-width:0.264583">-</tspan></text>
    <text
       xml:space="preserve"
       style="font-size:10.5833px;line-height:1.25;font-family:sans-serif;letter-spacing:0px;word-spacing:0px;stroke-width:0.264583"
       x="-324.60156"
       y="155.13008"
       id="text861-5"><tspan
         sodipodi:role="line"
         id="tspan859-2"
         x="-324.60156"
         y="155.13008"
         style="stroke-width:0.264583">+</tspan></text>
    <text
       xml:space="preserve"
       style="font-size:10.5833px;line-height:1.25;font-family:sans-serif;letter-spacing:0px;word-spacing:0px;stroke-width:0.264583"
       x="-405.03381"
       y="-32.991474"
       id="text1177"><tspan
         sodipodi:role="line"
         id="tspan1175"
         x="-405.03381"
         y="-32.991474"
         style="stroke-width:0.264583">R1</tspan></text>
    <text
       xml:space="preserve"
       style="font-size:10.5833px;line-height:1.25;font-family:sans-serif;letter-spacing:0px;word-spacing:0px;stroke-width:0.264583"
       x="-406.95514"
       y="-1.7229556"
       id="text1177-7"><tspan
         sodipodi:role="line"
         id="tspan1175-7"
         x="-406.95514"
         y="-1.7229556"
         style="stroke-width:0.264583">R2</tspan></text>
    <text
       xml:space="preserve"
       style="font-size:10.5833px;line-height:1.25;font-family:sans-serif;letter-spacing:0px;word-spacing:0px;stroke-width:0.264583"
       x="-401.59158"
       y="23.722281"
       id="text1177-7-4"><tspan
         sodipodi:role="line"
         id="tspan1175-7-9"
         x="-401.59158"
         y="23.722281"
         style="stroke-width:0.264583">R3</tspan></text>
    <path
       style="fill:none;stroke:#000000;stroke-width:1.46341;stroke-linecap:butt;stroke-linejoin:miter;stroke-miterlimit:4;stroke-dasharray:none;stroke-opacity:1"
       d="m -273.48174,88.740927 5.20406,9.059301 6.10129,-9.356327"
       id="path1227" />
    <path
       style="fill:none;stroke:#000000;stroke-width:1.46341;stroke-linecap:butt;stroke-linejoin:miter;stroke-miterlimit:4;stroke-dasharray:none;stroke-opacity:1"
       d="m -447.97197,153.73496 -8.81724,5.60441 9.62009,5.6763"
       id="path1227-5" />
    <path
       style="fill:none;stroke:#000000;stroke-width:1.46341;stroke-linecap:butt;stroke-linejoin:miter;stroke-miterlimit:4;stroke-dasharray:none;stroke-opacity:1"
       d="m -563.46578,113.23166 -5.40508,-8.94081 -5.89082,9.49025"
       id="path1227-2" />
    <path
       style="fill:none;stroke:#000000;stroke-width:1.46341;stroke-linecap:butt;stroke-linejoin:miter;stroke-miterlimit:4;stroke-dasharray:none;stroke-opacity:1"
       d="m -553.76857,7.8603223 9.17725,-4.9931218 -9.21269,-6.3160738"
       id="path1227-7" />
    <path
       style="fill:none;stroke:#000000;stroke-width:1.46341;stroke-linecap:butt;stroke-linejoin:miter;stroke-miterlimit:4;stroke-dasharray:none;stroke-opacity:1"
       d="m -517.25373,28.137409 5.20406,9.059301 6.10129,-9.356327"
       id="path1227-1" />
    <path
       style="fill:none;stroke:#000000;stroke-width:1.46341;stroke-linecap:butt;stroke-linejoin:miter;stroke-miterlimit:4;stroke-dasharray:none;stroke-opacity:1"
       d="m -320.81772,39.299867 -5.80784,-8.68459 -5.45117,9.749431"
       id="path1227-29" />
  </g>
</svg>
