<?xml version="1.0" encoding="UTF-8" standalone="no"?>
<svg
   xmlns:dc="http://purl.org/dc/elements/1.1/"
   xmlns:cc="http://creativecommons.org/ns#"
   xmlns:rdf="http://www.w3.org/1999/02/22-rdf-syntax-ns#"
   xmlns:svg="http://www.w3.org/2000/svg"
   xmlns="http://www.w3.org/2000/svg"
   xmlns:sodipodi="http://sodipodi.sourceforge.net/DTD/sodipodi-0.dtd"
   xmlns:inkscape="http://www.inkscape.org/namespaces/inkscape"
   width="400mm"
   height="297mm"
   viewBox="0 0 400 297"
   version="1.1"
   id="svg8"
   inkscape:version="1.0.2 (e86c870879, 2021-01-15, custom)"
   sodipodi:docname="righthandrule.svg">
  <defs
     id="defs2">
    <clipPath
       clipPathUnits="userSpaceOnUse"
       id="clipPath1717">
      <path
         id="path1719"
         style="fill:#ff0000;fill-opacity:1;fill-rule:nonzero;stroke:none;stroke-width:0.264583"
         d="m 180.1603,161.87383 v 69.11567 c 0.0572,-0.0946 0.15002,-0.18424 0.2775,-0.25993 -0.0405,-0.0104 -0.0786,-0.0203 -0.12609,-0.0362 l -0.001,-0.002 c -0.16492,-0.055 -0.16634,-0.18947 -0.0729,-0.23151 0.009,-0.0329 0.0184,-0.065 0.0377,-0.0925 0.007,-0.0102 0.0195,-0.01 0.0331,-0.009 0.0135,0.002 0.0281,0.006 0.0403,0.006 0.0768,-2e-4 0.15063,0.0128 0.22325,0.0372 0.0661,-0.002 0.13978,-0.0234 0.19998,0.0191 0.0163,-0.002 0.0258,-0.004 0.0548,-0.004 0.0195,2.3e-4 0.0385,2.7e-4 0.0579,0.001 0.0528,8e-4 0.0633,-0.002 0.12144,0.0186 0.01,0.003 0.018,0.01 0.0269,0.0155 0.0137,0.003 0.0222,0.005 0.0553,0.0103 0.009,0.002 0.0171,0.008 0.0253,0.0124 0.003,-0.002 0.009,-0.002 0.0139,-0.003 0.0723,-0.008 0.14547,-0.005 0.21807,-0.003 0.0514,-5.3e-4 0.1026,-5.3e-4 0.154,-5.3e-4 0.0305,1.2e-4 0.061,0 0.0915,0 h 0.16692 0.0186 c 0.0616,0 0.11405,-0.003 0.17415,0.017 0.005,0.002 0.01,0.004 0.0134,0.007 0.0126,0.001 0.0252,0.002 0.0377,0.004 0.0108,-0.002 0.0211,-0.004 0.0336,-0.004 0.0448,0.001 0.0757,0.004 0.11731,0.0238 0.005,7.9e-4 0.0105,0.002 0.015,0.003 h 5.2e-4 c 0.001,2e-4 0.003,8e-4 0.004,0.001 0.0474,0.007 0.0947,0.0165 0.14211,0.0248 0.0413,-0.002 0.0932,-0.004 0.10904,-0.004 0.0223,-0.01 0.10323,0.0289 0.12557,0.0305 l 5.3e-4,5.2e-4 c -0.01,0.003 -0.0299,0.0121 -0.0289,0.0124 0.0104,-0.003 0.0208,-0.007 0.031,-0.0124 h 5.3e-4 c 2.3e-4,0 10e-4,0.001 0.002,0.001 0.006,-0.002 0.0116,-0.004 0.0176,-0.006 0.0333,-0.007 0.076,-2.6e-4 0.11007,5.3e-4 0.0605,-8e-5 0.12141,-5.3e-4 0.1819,-5.3e-4 0.0618,1.3e-4 0.12322,0 0.18501,0 h 0.13125 0.10387 c 0.0457,-0.002 0.0754,0.005 0.12299,0.0186 0.0126,0.004 0.0239,0.0118 0.0367,0.0135 0.01,0.002 0.0204,-5.3e-4 0.0305,-0.001 0.0114,-1.9e-4 0.0227,-0.002 0.0341,-5.3e-4 0.0224,0.002 0.045,0.006 0.0667,0.0124 0.007,0.002 0.0124,0.005 0.0186,0.008 0.004,-5.3e-4 -10e-4,-2.7e-4 0.008,-0.002 0.009,-0.001 0.0182,1.2e-4 0.0274,0 0.0479,-0.002 0.0957,-0.006 0.14366,-0.007 0.10844,0.004 0.21657,0.01 0.32505,0.008 0.13662,-0.004 0.21612,0.004 0.29042,0.046 0.0221,-4e-5 0.0443,-5e-5 0.0661,0 0.0366,8e-5 0.0734,0 0.11008,0 h 0.18396 0.0589 0.0982 0.1018 0.0196 c 0.24021,0 0.24021,0.24238 0,0.24236 h -0.0196 -0.0739 c 0.0118,0.003 0.0239,0.005 0.0357,0.008 0.0339,-0.006 0.0555,-0.008 0.13539,-0.0119 0.41039,-0.0187 0.30748,0.21663 0.12816,0.46716 0.0335,2.5e-4 0.0523,0.002 0.11834,-0.004 0.006,-5.3e-4 0.006,0.0105 0.007,0.0165 0.002,0.006 0.002,0.0124 0.004,0.0186 0.0935,-2.6e-4 0.18708,-8e-4 0.28061,-0.001 v -69.52429 z m 0.24133,68.53742 c 0.008,0.0145 -0.0458,-0.005 -0.032,0.001 0.0225,0.0103 0.0177,0.006 0.0295,0.0104 7.9e-4,-0.004 0.002,-0.007 0.003,-0.0114 z m 0.13798,0.0558 -5.3e-4,5.3e-4 v 5.3e-4 l -5.3e-4,5.3e-4 c -10e-4,7.9e-4 -2.7e-4,0.0103 -10e-4,0.0129 0.0121,0.009 0.0244,0.0179 0.0362,0.0274 0.002,0.002 0.004,0.005 0.006,0.007 h 5.3e-4 c -0.0111,-0.0113 -0.0308,-0.054 -0.0408,-0.0491 z m 0.57826,0.007 v 5.3e-4 c 5.2e-4,0 5.2e-4,5.3e-4 0.002,5.3e-4 z m 0.003,5.3e-4 v 5.3e-4 c 2.6e-4,0 7.9e-4,-1.1e-4 0.001,0 z m 0.001,5.3e-4 v 5.2e-4 h 0.001 z m 0.002,5.2e-4 0.002,0.002 c 0.001,7e-5 0.004,5e-5 0.003,-5.3e-4 -0.002,-5.3e-4 -0.003,-0.001 -0.004,-0.001 z m -0.73795,0.18501 c 0.006,0.011 0.008,0.01 -0.005,0.008 0.0154,0.007 0.0161,0.008 0.0186,0.007 -0.004,-0.004 -0.01,-0.0115 -0.0129,-0.015 z m -0.22789,0.80563 v 5.3e-4 5.3e-4 5.3e-4 5.3e-4 0.53743 c 0.008,-0.0215 0.018,-0.0424 0.0238,-0.0646 0.007,-0.023 0.007,-0.0473 0.0114,-0.0708 0.004,-0.0233 0.008,-0.0474 0.0108,-0.0708 0.001,-0.01 0,-0.0204 0,-0.0305 v -0.0946 l -10e-4,5.3e-4 c 0,-0.0573 0.0146,-0.0999 0.0341,-0.13436 -0.03,-0.0221 -0.0576,-0.0461 -0.0791,-0.0744 z m 4.3279,0.25167 c 5.3e-4,7.9e-4 -0.001,0.002 0.002,0.003 0.005,0.003 0.004,0.005 0.009,0.007 1.8e-4,-7.9e-4 -1.8e-4,-0.002 0,-0.003 -0.003,-0.002 -0.007,-0.005 -0.0104,-0.007 z m -4.08398,0.45836 c -0.004,0.0112 -0.0111,0.0242 -0.0176,0.0429 0.006,0.007 0.0116,0.0135 0.0176,0.0207 -2.1e-4,-0.0226 6e-5,-0.0425 0,-0.0636 z m -0.12713,0.55243 c -0.0241,0.002 -0.0335,0.005 -0.0419,0.0114 0.0244,0.008 0.0594,0.0258 0.0987,0.0512 -0.006,-0.0371 -0.003,-0.0575 -0.0568,-0.0625 z m -0.11679,0.1695 v 0.0217 c 0.008,0.005 0.016,0.0104 0.0238,0.015 -0.007,-0.0138 -0.0166,-0.0233 -0.0238,-0.0367 z m 0.22376,0.0646 c -3e-5,0.001 3e-5,0.003 0,0.004 2.6e-4,-5.3e-4 8e-4,-5.3e-4 0.001,-10e-4 l 5.3e-4,-0.003 z m 0,0.004 c -0.0183,0.0298 -0.034,0.0426 -0.0811,0.0501 -0.0139,0.001 -0.0677,0.005 -0.0754,-0.004 -0.003,-0.003 -0.004,-0.008 -0.006,-0.0124 -0.0214,-0.005 -0.0429,-0.008 -0.0599,-0.0217 -5.3e-4,-2.4e-4 -5.3e-4,-2.6e-4 -0.001,-10e-4 v 3.50056 c 0.002,-0.002 0.003,-0.004 0.005,-0.005 -8e-4,-0.0101 -8e-4,-0.0205 -0.002,-0.0305 0.0191,-0.005 0.0387,-0.01 0.0579,-0.015 -0.002,-0.0375 -0.005,-0.0751 -0.005,-0.11265 -9e-5,-0.007 -0.002,-0.0137 5.3e-4,-0.0196 0.0121,-0.0351 0.0243,-0.0714 0.0434,-0.10335 0.003,-0.005 0.009,-0.008 0.0129,-0.0124 1.9e-4,-2.1e-4 -2.7e-4,-7.9e-4 5.3e-4,-0.001 h 5.3e-4 c 0.009,-0.008 0.0187,-0.017 0.0279,-0.0253 0.008,-0.0142 0.009,-0.0186 0.008,-0.0186 -0.006,0.003 -0.0261,0.0311 -0.031,0.0382 0.01,-0.0146 0.0177,-0.031 0.03,-0.0418 -0.0136,-0.0318 -0.0278,-0.0634 -0.0403,-0.0956 0.004,-0.003 0.008,-0.005 0.0119,-0.007 0.0265,-0.0184 0.0666,-0.0473 0.0879,-0.0584 0.002,-7.9e-4 0.003,-5.3e-4 0.005,-0.002 -5.3e-4,-0.009 -0.002,-0.0167 -0.002,-0.0253 0,-0.0114 0.002,-0.0227 0.002,-0.0341 -0.009,-0.0376 -0.019,-0.075 -0.0222,-0.11317 -0.006,-0.0657 -0.008,-0.10924 -0.0114,-0.17312 -2.5e-4,-0.0426 -5.3e-4,-0.085 -5.3e-4,-0.12764 0,-0.13615 0.002,-0.27209 0.003,-0.40825 2.5e-4,-0.0576 -2.7e-4,-0.0637 5.3e-4,-0.0527 6e-5,0.002 -1.4e-4,-0.0109 0,-0.0103 7.9e-4,4e-5 0.002,-7e-5 0.003,0 0.006,-0.0382 0.0197,-0.0777 0.0398,-0.10852 -0.003,-0.0298 -0.005,-0.0596 -0.008,-0.0894 -0.007,-0.0996 -0.0154,-0.1993 -0.009,-0.29921 -0.004,-0.25264 -0.018,-0.50536 -0.015,-0.75809 l -0.001,-5.3e-4 c 8e-4,-0.0684 0.018,-0.11953 0.0434,-0.15555 -0.007,-5.3e-4 -0.0132,5.3e-4 -0.0196,0 -0.01,-7.9e-4 -2.2e-4,-0.0189 5.3e-4,-0.0279 0.001,-0.0276 0.002,-0.0556 0.003,-0.0832 0.005,-0.12968 0.0168,-0.25937 0.006,-0.38913 7.9e-4,-0.0474 0.001,-0.0948 0.002,-0.14211 z m 3.55017,0.0382 c -0.0102,0.004 -0.0202,0.007 -0.0305,0.0103 0.001,0.003 0.002,0.006 0.002,0.0103 0.0101,-0.007 0.0191,-0.0127 0.0289,-0.0191 z m -2.19211,0.31936 c -0.0115,0.0289 -0.0229,0.0646 -0.0331,0.0904 0.004,-7.9e-4 0.008,-5.3e-4 0.0119,-0.002 0.007,-0.0294 0.0141,-0.0589 0.0212,-0.0884 z m -0.5116,0.0108 c 1e-5,2.6e-4 1e-5,2.7e-4 0,10e-4 8e-4,-2.6e-4 -0.001,2e-4 0.002,-5.3e-4 -7.9e-4,-1.7e-4 10e-4,2.7e-4 -0.002,-5.3e-4 z m 0.77928,0.15296 c -1.2e-4,8e-4 2.7e-4,0.002 -5.3e-4,0.003 2.6e-4,-7.9e-4 8e-4,-0.002 0.001,-0.003 z m -5.3e-4,0.005 c -0.006,0.0175 -0.0109,0.0354 -0.016,0.0532 -5.3e-4,0.002 -0.001,0.005 -0.002,0.007 0.003,1e-4 0.006,5.3e-4 0.0103,5.3e-4 0.003,-0.0206 0.005,-0.0402 0.008,-0.0605 z m 1.05834,0.77825 c -0.003,0.0134 -0.008,0.0261 -0.0119,0.0398 0.003,-0.002 0.004,-0.003 0.007,-0.005 0.001,-0.009 0.004,-0.0249 0.005,-0.0346 z m 0.91105,0.50953 c -0.002,10e-4 -0.004,0.003 -0.007,0.005 -0.001,0.004 -0.002,0.008 -0.003,0.0124 0.005,-0.001 0.0107,-0.002 0.016,-0.003 5.3e-4,-0.004 5.3e-4,-0.009 0.002,-0.0129 -0.003,-7e-5 -0.005,-4e-5 -0.008,0 z m -0.6103,0.62684 c -0.0258,2.6e-4 -0.0517,-2.7e-4 -0.0775,5.3e-4 -0.001,0.004 -0.002,0.008 -0.004,0.0124 0.0215,-0.003 0.0431,-0.006 0.0646,-0.009 0.006,-0.001 0.0116,-0.002 0.0171,-0.003 z m -2.03915,0.25786 v 5.3e-4 c -7.9e-4,0.007 -0.002,0.014 -0.003,0.0212 0.002,0.005 0.004,0.0105 0.007,0.015 0.005,-7.9e-4 0.0113,-2.6e-4 0.0165,-0.002 -0.003,-0.0152 -0.008,-0.0291 -0.0191,-0.0341 -1.4e-4,-8e-5 -5.3e-4,-5.3e-4 -0.001,-5.3e-4 z m -0.97617,0.64337 c -0.002,-0.003 -0.0103,-0.002 -0.0139,5.3e-4 -0.0225,0.0169 -0.0225,0.0159 -0.0367,0.0253 0.006,0.008 0.012,0.0163 0.0212,0.0181 0.008,0.002 0.008,0.002 0.0155,0.003 0.005,-0.0145 0.008,-0.0207 0.0124,-0.0377 -0.009,-9e-5 -0.0173,-0.001 -0.0124,-0.001 0.004,-5e-5 0.008,-0.002 0.0124,-0.002 8e-4,-0.003 -10e-4,-0.003 0.002,-0.006 z m 0.0191,0.003 c -0.005,7.9e-4 -0.0114,0.002 -0.0165,0.003 -2.7e-4,0.001 -8e-4,0.002 -0.001,0.003 0.009,9e-5 0.0177,10e-4 0.0176,-0.006 z m -0.0775,0.0284 c -0.0529,0.0344 -0.066,0.0387 -0.0739,0.0915 0.0341,-0.009 0.0666,-0.018 0.10077,-0.0269 l 5.3e-4,-5.3e-4 c -0.0112,-0.0273 -0.0208,-0.0479 -0.0274,-0.0641 z m -0.13695,0.31213 v 0.0393 l 0.006,-0.006 c 0.005,-0.003 0.0101,-0.006 0.015,-0.009 -0.01,-0.008 -0.0133,-0.0161 -0.0207,-0.0243 z m 1.98283,0.33486 c -0.003,0.002 -0.009,0.003 -0.01,0.007 -0.001,0.003 0.008,8e-4 0.009,-0.003 7.9e-4,-0.001 0.002,-0.003 0.003,-0.004 0,1e-5 -7.9e-4,0 -0.002,0 z m -1.97921,0.13126 -5.3e-4,0.001 v 3.44991 c 0.0425,0.006 0.0842,0.0152 0.12558,0.031 0.0116,-0.0136 0.0289,-0.0222 0.0434,-0.0341 -0.18964,-0.004 -0.22004,-0.22136 0.0181,-0.29352 0.0739,-0.0224 0.14941,-0.0436 0.22583,-0.0553 0.19163,-0.0294 -8e-4,0.003 0.13177,-0.0119 0.0164,-0.001 0.0328,-0.005 0.0491,-0.008 0.0359,-0.009 0.0718,-0.0133 0.10801,-0.0119 0.005,-0.0153 0.002,-0.002 0.0522,-0.0155 0.0301,-0.007 0.062,-0.0115 0.092,-0.0124 l 5.3e-4,0.001 c 0.0305,-8e-4 0.0613,2.6e-4 0.092,0.004 0.11011,0.0195 -0.027,0.003 0.0129,5.2e-4 0.005,-2.3e-4 0.0105,1.7e-4 0.0155,-5.2e-4 0.0308,5.2e-4 0.0617,6e-5 0.0925,0 0.0137,-8e-5 0.0261,-3e-5 0.0398,0 0.0266,-2.6e-4 0.0425,0.004 0.062,0.0119 0.0115,0.003 0.0238,0.008 0.0341,0.009 0.0122,0.002 0.025,0.004 0.0372,0.005 0.0231,0.004 0.0477,-2.7e-4 0.0708,5.3e-4 0.0204,0.001 0.0407,0.004 0.061,0.006 0.0563,0.012 0.11396,0.004 0.17105,0.003 0.0662,8e-4 0.13274,10e-4 0.19896,10e-4 0.0426,0 0.045,0.001 0.0956,0.008 0.0133,0.003 0.0241,0.009 0.0372,0.0114 0.002,0 0.004,-0.003 0.006,-0.003 0.005,-8e-4 0.011,2.6e-4 0.016,-5.3e-4 0.0157,-3e-5 0.0301,-2.7e-4 0.046,-0.001 0.0504,0 0.10206,-0.007 0.15245,-0.002 0.0203,0.002 0.0412,0.005 0.0615,0.008 0.0133,0.003 0.0269,0.006 0.0403,0.007 0.0163,0.002 0.0647,5.3e-4 0.0832,5.3e-4 0.0458,-0.001 0.0916,-0.003 0.13746,-0.004 0.0631,9e-5 0.12537,0.01 0.1881,0.016 0.0106,-2.6e-4 0.0204,2.2e-4 0.031,-5.3e-4 0.0808,-0.005 0.16158,-0.003 0.24236,-0.002 0.0298,0 0.0163,10e-4 0.0708,0.008 0.0119,0.002 0.0221,0.006 0.0341,0.007 0.0361,0.004 0.0794,2.3e-4 0.11472,-5.3e-4 0.0669,-0.003 0.13403,-5.3e-4 0.20102,-5.3e-4 0.0783,-7e-5 0.15632,-7e-5 0.23461,0 0.0588,9e-5 0.11795,0 0.17674,0 0.0325,0 0.0281,-8e-4 0.077,0.0103 0.0109,0.002 0.02,0.008 0.031,0.0103 0.002,0.001 -0.001,-0.004 0,-0.004 0.004,-0.002 0.009,2.7e-4 0.0129,-5.3e-4 0.009,-6e-5 0.0176,-5.2e-4 0.0269,-10e-4 0.0573,-0.004 0.11466,-5.3e-4 0.17208,-5.3e-4 0.0344,0 0.0461,-0.002 0.0863,0.0103 0.0168,0.005 0.0318,0.0162 0.0486,0.0212 0.0105,0.003 -0.0185,-0.008 -0.0274,-0.0155 -0.003,-0.002 0.005,1.4e-4 0.008,-5.3e-4 0.006,-2.2e-4 0.0126,-5.3e-4 0.0186,-0.001 0.065,-0.006 0.13014,8e-4 0.19482,0.006 0.0452,0.008 0.0398,0.007 0.0863,0.0186 0.009,0.002 0.0184,0.006 0.0274,0.007 l -0.003,-0.003 c -0.002,-7.9e-4 -0.006,0.002 -0.006,-5.3e-4 0,-10e-4 0.002,-5.3e-4 0.003,-5.3e-4 0.0362,-0.003 0.0694,-0.004 0.10541,-0.003 0.006,9e-5 0.0116,2.6e-4 0.0176,0.001 0.0196,0.003 0.0389,0.007 0.0584,0.0119 0.011,0.004 0.0221,0.01 0.0336,0.0124 0.007,0.002 -0.0136,-0.005 -0.0186,-0.009 -0.001,-7.9e-4 0.003,-5.3e-4 0.004,-5.3e-4 0.0185,0.002 0.0369,0.004 0.0553,0.006 0.0574,0.007 0.0126,0.005 0.0522,0.006 0.0308,-0.002 0.0616,-0.003 0.0925,-0.003 0.0294,-2.3e-4 0.0553,0.006 0.0832,0.0124 v 5.3e-4 c -0.009,-0.001 -0.018,-2.6e-4 -0.0434,0.005 -0.003,0.001 -0.01,0.004 -0.009,0.003 0.0266,-0.006 0.0401,-0.006 0.0558,-0.008 0.005,0.001 0.01,-0.001 0.015,0.002 0.004,-5e-5 0.006,-0.002 0.0119,-0.002 0.0187,0.001 0.0375,4e-5 0.0563,0 h 0.0176 c 0.28826,0 0.28826,0.29146 0,0.29146 h -0.016 c -0.0143,4e-5 -0.0286,-5.3e-4 -0.0429,-5.3e-4 0.0171,0.0173 0.0308,0.0377 0.0398,0.0646 0.0222,0.003 0.0455,0.003 0.0677,0.006 0.097,0.0203 0.17046,0.0319 0.2067,0.14521 5.3e-4,4e-5 0.002,5.3e-4 0.003,5.3e-4 0.0149,0.002 0.0374,-0.007 0.0434,0.006 0.0247,0.0524 0.0513,0.10546 0.0749,0.15916 0.0202,0.001 0.0403,0.001 0.0605,0.003 l -0.003,-3.47524 c -0.10311,0.0285 -0.21014,0.0214 -0.31161,-0.017 0.003,0.005 0.007,0.007 0.009,0.0124 0.003,-2.6e-4 0.005,-0.002 0.008,-0.002 0.0175,7.9e-4 0.0199,0.0129 0.0155,0.0279 0.0149,0.0164 0.028,0.0277 0.0434,0.0491 0.007,0.01 -0.009,0.0223 -0.0129,0.0336 -0.002,0.007 0.006,-0.0139 0.009,-0.0212 0.001,-0.003 0.006,-0.0149 0.003,-0.0119 -0.0229,0.0239 -0.0441,0.0485 -0.0656,0.0739 -0.0159,0.0456 -0.0575,0.0916 -0.0992,0.10594 -0.009,0.003 -0.0183,0.002 -0.0274,0.004 h 0.0233 0.0584 c 0.24021,0 0.24021,0.24288 0,0.24288 h -0.0584 -0.0703 -0.10025 -0.0739 -0.0186 c -0.0116,0.002 -0.0208,0.002 -0.0424,0.002 h -0.0367 -0.0713 -0.0992 -0.21085 -0.12815 -0.12041 -0.11265 -0.005 -0.22118 -0.11265 -0.077 c -0.0621,3e-5 -0.12394,1.2e-4 -0.18603,0 -0.0821,0 -0.1644,7.9e-4 -0.2465,0 -0.0422,-0.001 -8e-4,2.6e-4 -0.0522,-5.3e-4 -0.003,-9e-5 -0.0104,0.002 -0.0104,-5.3e-4 0.0158,-0.011 0.0675,-0.0329 0.0491,-0.0279 -0.18471,0.0528 0.0318,0.0176 -0.0987,0.0362 -0.0437,-0.002 -0.0914,-0.003 -0.13126,-0.0227 -0.002,-0.001 -2.6e-4,-0.006 -0.003,-0.007 -0.007,-0.003 -0.0157,0.005 -0.0217,0 h -0.093 c -0.0503,-3e-5 -0.10059,1e-5 -0.15089,0 -0.0558,0 -0.11165,-2.1e-4 -0.16743,0 -0.031,0 -0.0621,0.001 -0.093,-0.002 -0.055,2.2e-4 -0.10417,0.0192 -0.15606,-0.0176 0.004,-0.001 0.0155,-0.005 0.0124,-0.006 -0.0338,-0.007 -0.0858,0.005 -0.12196,0 h -0.11937 -0.12816 -0.0739 c -0.0183,0 -0.0383,2e-5 -0.0548,0 -0.0776,3e-5 -0.15499,1.8e-4 -0.23255,0 -0.04,-2.5e-4 -0.08,5.3e-4 -0.11989,5.3e-4 -0.0453,-0.001 -0.0906,-0.005 -0.13591,-0.002 -0.0922,0.0149 -0.17677,-0.01 -0.26768,-0.0217 -0.0127,-0.004 -0.0249,-0.007 -0.0372,-0.0124 -0.001,-0.001 -0.004,-0.002 -0.003,-0.003 0.002,-0.002 0.0135,-0.003 0.009,-0.003 -0.037,-0.006 -0.0844,0.004 -0.1142,-0.0274 0.0226,-0.011 0.002,-0.001 -0.006,-0.005 -0.002,-0.002 0.0184,-0.006 0.008,-0.006 -0.006,0 -0.0126,0.005 -0.0186,0.006 -0.0535,0.012 -0.0392,0.008 -0.0987,-0.003 -0.0108,-0.007 -0.0201,-0.0126 -0.0305,-0.0186 0.008,0.003 0.0457,0.0204 0.0248,-5.3e-4 -0.007,-0.005 -0.0168,0 -0.0248,0 h -0.003 c -5.3e-4,-2.6e-4 -5.3e-4,9e-5 -0.002,-5.3e-4 -5.3e-4,-2.6e-4 -2.7e-4,2.6e-4 -0.002,-5.3e-4 h -0.14676 l -5.3e-4,0.002 c -0.11282,0 -0.17092,-0.0538 -0.17777,-0.11059 -0.15909,0.0125 -0.20054,-0.12849 -0.0982,-0.20257 -0.001,-5.3e-4 -0.006,-0.002 -0.006,-0.002 -0.005,-0.005 -0.008,-0.0105 -0.0124,-0.0155 h 0.001 c 1.2e-4,-1.1e-4 -0.001,-2.7e-4 0.002,-0.002 -0.002,5.3e-4 -0.003,8e-4 -0.005,0.001 v 5.3e-4 c -8e-4,-1e-5 -0.002,0 -0.003,0 -5.3e-4,-7.9e-4 0.001,-0.002 -0.002,-0.003 0.001,9e-5 0.002,5.3e-4 0.004,5.3e-4 -0.003,-0.003 -0.006,-0.007 -0.008,-0.0103 l -5.3e-4,0.001 v 5.3e-4 c 0.001,0.003 0.002,0.005 0.004,0.008 -0.0151,-0.001 -0.0301,-0.002 -0.0408,-0.0119 -0.0317,-0.0285 -0.10612,-0.12712 -0.0698,-0.10749 0.0451,0.0233 0.0724,0.0695 0.10542,0.10904 -0.035,-0.0812 -0.0886,-0.1578 -0.0966,-0.24546 -0.001,-0.0152 0.0231,-0.0229 0.0517,-0.0284 0.001,0.0191 0.003,0.0339 0.007,0.0222 0.002,-0.008 5.3e-4,-0.0161 0.001,-0.0243 0.0187,-0.003 0.0299,-0.002 0.046,-0.003 -0.002,-0.0255 -0.005,-0.051 -0.006,-0.0765 -0.008,-0.005 -0.0161,-0.008 -0.0238,-0.0129 -0.005,0.006 -0.01,0.0113 -0.0134,0.0176 5.3e-4,-0.008 0.002,-0.0151 0.005,-0.0222 -0.0136,-0.008 -0.0265,-0.0136 -0.0403,-0.0212 0.003,-0.0125 0.006,-0.0245 0.008,-0.0372 -0.0552,-5.3e-4 -0.1044,5.2e-4 -0.15658,-0.002 z m 0.18139,0.0873 h 5.2e-4 c -7.9e-4,0.0234 -1.6e-4,0.0474 -0.002,0.0713 -0.003,5.2e-4 -0.005,0.002 -0.008,0.002 -0.001,-0.0148 -0.002,-0.0316 -0.002,-0.0408 -2.3e-4,-0.011 0.006,-0.0208 0.0114,-0.031 z m 3.67471,0.003 c -0.002,0.001 -0.008,0.005 -0.0114,0.007 -1.4e-4,0.002 -0.003,0.01 -0.003,0.0119 0.007,-0.002 0.0145,-0.004 0.0217,-0.006 v -5.3e-4 c -7.9e-4,-0.007 -0.003,-0.0105 -0.007,-0.0119 z m -0.0362,0.11266 v 0.001 c 0.0171,1e-5 0.0351,5.3e-4 0.0522,5.3e-4 v -5.3e-4 c -0.0171,1e-4 -0.0351,-0.001 -0.0522,-0.001 z m -3.58944,0.0403 c -0.005,0.0113 -0.008,0.0205 -0.0124,0.031 0.007,-0.008 0.01,-0.0117 0.0155,-0.0186 -5.2e-4,-0.004 -5.2e-4,-0.008 -10e-4,-0.0124 z m -0.005,0.1943 v 5.3e-4 c 0.002,0.002 0.005,0.003 0.006,0.005 2.6e-4,5.3e-4 0.002,5.3e-4 0.002,0.001 -2.4e-4,1e-4 -7.9e-4,-6e-5 -0.001,0 v 5.3e-4 h 5.3e-4 5.2e-4 c 0.002,-5.3e-4 0.005,-10e-4 0.007,-0.002 -0.01,-0.004 -0.0135,-0.005 -0.015,-0.005 z m 1.86707,0.0548 c -0.004,0.007 -0.008,0.0127 -0.0124,0.0191 h 0.0124 c -5.3e-4,-0.007 2.5e-4,-0.0125 0,-0.0191 z m -0.90589,2.57556 c 0.001,5.2e-4 0.002,-10e-4 0.004,0.002 l -0.002,-0.002 c -2.6e-4,-6e-5 -2.6e-4,9e-5 -0.002,0 z m -0.16846,0.23306 v 5.3e-4 c 0.002,0.003 0.004,0.006 0.007,0.008 0.002,2.6e-4 0.004,-3e-5 0.006,5.3e-4 -0.005,-0.004 -0.009,-0.006 -0.0129,-0.009 z m 0.91984,0.0899 v 5.3e-4 5.3e-4 c 0.006,-2.3e-4 0.0126,-5e-5 0.0186,-5.3e-4 -0.006,2.3e-4 -0.0126,-5.3e-4 -0.0186,-5.3e-4 z m 2.10271,0.5333 c -0.0173,-0.001 -0.0291,0.005 -0.0367,0.0119 0.0166,5e-5 0.0331,-0.001 0.0496,-0.001 5.3e-4,-0.002 2.6e-4,-0.003 0.002,-0.005 -0.005,-7.9e-4 -0.0107,-0.005 -0.015,-0.005 z m -3.33468,0.41548 c -5.3e-4,2.5e-4 -0.001,8e-4 -0.002,10e-4 5.3e-4,-10e-6 0.001,0 0.002,0 z m 0,10e-4 h 0.002 v -10e-4 c -5.3e-4,2.5e-4 -2.7e-4,8e-4 -0.002,10e-4 z m 0.002,0 c 7.9e-4,-10e-6 1.4e-4,0 0.002,0 v -10e-4 c -7.9e-4,2.5e-4 -1e-4,8e-4 -0.002,10e-4 z m 0.002,0 c 8e-4,-2e-5 0.002,4e-5 0.003,0 v -10e-4 c -7.9e-4,1.4e-4 -0.002,8e-4 -0.003,10e-4 z m 0.003,0 c 7.9e-4,-5e-5 0.002,8e-5 0.003,0 v -10e-4 c -8e-4,1.2e-4 -0.002,8e-4 -0.003,10e-4 z m -0.0114,0 c -0.003,9e-5 -0.004,-10e-6 -0.007,5.3e-4 2.6e-4,10e-4 -1.4e-4,0.002 5.3e-4,0.003 0.003,-8e-4 0.004,-0.002 0.006,-0.003 z m 4.63383,0.98185 c 0.002,0.006 0.003,0.008 0.006,0.0134 0.004,5.3e-4 0.007,0.001 0.0108,0.002 -0.005,-0.005 -0.0119,-0.01 -0.0165,-0.0155 z m 0.0832,0.0775 c -0.0106,0.005 -0.0206,0.0108 -0.0315,0.016 -0.003,0.001 -0.006,0.002 -0.009,0.004 0.01,0.0229 0.0184,0.0421 0.0274,0.0625 0.0109,0.008 0.0159,0.0219 0.0176,0.0403 0.0205,0.0458 0.0425,0.0973 0.0589,0.13126 v -0.18965 c -0.0194,-0.0222 -0.0394,-0.0442 -0.063,-0.0646 z m -5.39192,1.84174 v 5.3e-4 c -5.3e-4,0.001 -2.7e-4,0.003 -0.002,0.005 -5.3e-4,8e-4 -7e-5,-0.002 0,-0.004 -0.0179,0.004 -0.0213,0.005 -0.0367,0.009 v 0.0543 c 0.0111,2.6e-4 0.0218,0.001 0.0336,0.002 1e-5,-0.0203 -7.9e-4,-0.0412 0.001,-0.0491 0.002,-0.006 0.004,-0.0121 0.005,-0.0181 -2.3e-4,6e-5 -5.3e-4,-1.3e-4 -0.001,0 z m 0.0248,0.007 c -2.5e-4,0.008 -0.002,0.0122 -0.002,0.0217 0.002,0.006 0.006,0.0105 0.0129,0.0124 0.0111,0.003 0.0225,0.006 0.0336,0.009 z m 0.74518,0.19379 c -0.001,0.003 -0.003,0.005 -0.004,0.007 0.003,3e-5 0.0101,7e-5 0.0124,0 0.0154,-8e-4 0.0312,-0.002 0.0465,-0.003 -1.8e-4,-7.9e-4 -7.9e-4,-2.6e-4 -0.001,-0.002 -0.0179,-7.9e-4 -0.0343,5.3e-4 -0.0522,-0.002 z m 2.56418,0.36328 c -0.008,0.007 -0.0161,0.0122 -0.0238,0.0186 0.002,0.0103 0.005,0.0202 0.007,0.0305 0.009,-5.3e-4 0.0183,-2.7e-4 0.0274,-0.002 -0.003,-0.0162 -0.008,-0.0306 -0.0103,-0.0465 z m 2.08979,0.77515 v 5.3e-4 c 0.0144,0.0149 0.0182,0.0175 0.031,0.0305 v -0.009 c -0.0103,-0.007 -0.0215,-0.0137 -0.031,-0.0217 z m -4.5005,0.68471 v 5.3e-4 c 5.3e-4,-2e-4 2.7e-4,5e-5 0.002,-5.3e-4 -2.6e-4,-3e-5 -2.6e-4,6e-5 -0.002,0 z m -0.95911,0.23254 -0.002,5.3e-4 v 1.55236 c 0.0432,-0.0389 0.10605,-0.063 0.18759,-0.0584 0.0439,0.002 0.0925,0.0136 0.14573,0.0341 0.0201,0.008 0.0412,0.0109 0.062,0.0155 0.0358,-0.043 0.0924,-0.077 0.1726,-0.0889 0.0441,-0.006 0.0944,-0.007 0.15089,0.002 0.0572,0.008 0.0591,0.007 0.12816,0.031 0.0188,0.007 0.0363,0.0173 0.0548,0.0243 0.0125,0.005 0.025,0.008 0.0377,0.0124 0.054,0.0179 0.0273,0.012 0.0713,0.0202 0.007,-0.007 0.0861,0.0192 0.10387,0.0222 0.001,0.001 -0.002,-0.003 -0.004,-0.003 -0.005,-0.002 -0.0174,-0.002 -0.0124,-0.002 l 0.0677,0.006 c 0.0129,0.002 0.0278,0.004 0.0403,0.008 0.0188,0.006 0.0373,0.0132 0.0553,0.0217 0.0394,0.006 0.0649,0.0145 0.11524,0.0491 0.0135,0.009 0.0158,0.0141 0.0212,0.0186 0.01,0.003 0.0183,0.005 0.0279,0.008 0.0271,0.008 0.0434,0.0207 0.0589,0.03 0.008,5.3e-4 0.0142,-5.3e-4 0.0217,0.003 0.01,0.002 0.018,0.005 0.0217,0.008 1.8e-4,0.002 1e-4,0.003 -0.005,0.005 0.003,0.001 0.002,-1.9e-4 0.005,0.002 5.3e-4,5.3e-4 0.002,0.002 0.002,0.003 0.005,-10e-4 0.0103,-0.003 0.0155,-0.004 h 5.3e-4 c -5.3e-4,-0.003 -0.002,-0.007 0.0956,0.031 0.002,7.9e-4 0.003,0.002 0.005,0.003 0.0112,0.002 0.0224,0.002 0.0336,0.004 0.0134,0.002 0.0327,0.006 0.0522,0.009 0.0505,0.004 0.10055,0.008 0.14987,0.0186 0.0514,-0.001 0.10317,10e-4 0.15347,0.0124 0.0361,0.002 0.0455,0.004 0.0651,0.008 -0.006,5.3e-4 -0.0174,5.3e-4 -0.0129,5.3e-4 0.0157,2.5e-4 0.0135,1e-4 0.0186,0 0.004,7.9e-4 0.006,-2.7e-4 0.0103,5.3e-4 h 0.003 c 0.001,1e-5 0.003,5.3e-4 0.005,0.001 5.3e-4,-4e-5 0.002,5e-5 0.003,0 v 5.3e-4 h 5.3e-4 10e-4 c 0.006,-5.3e-4 0.0357,0.003 0.0434,0.006 0.029,1.8e-4 0.0584,0.004 0.0863,0.0124 0.004,1.8e-4 0.008,5.3e-4 0.0119,0.001 0.007,0.002 0.0142,0.003 0.0212,0.006 0.005,0.001 -0.008,-0.004 -0.0124,-0.005 -0.001,-2e-4 -0.002,-3e-5 -0.003,-5.3e-4 0.0168,8e-4 0.0331,0.002 0.0501,0.003 0.021,0.002 0.0422,0.004 0.0636,0.005 0.0154,10e-4 0.0311,0.002 0.0465,0.002 0.0571,0.001 -0.11506,0.005 0.0305,-0.003 0.0133,-7.9e-4 0.027,-2e-5 0.0403,-5.3e-4 0.0234,-0.001 0.0474,-2.6e-4 0.0708,5.3e-4 0.001,3e-5 0.002,0 0.004,0 0.0437,-5.3e-4 0.0881,-7.9e-4 0.13177,-5.3e-4 -0.002,-1e-5 -0.0175,-2.6e-4 -0.0155,5.3e-4 0.0244,0.005 0.0494,0.008 0.0739,0.0124 0.0738,3e-5 0.14783,8e-5 0.2217,0 v -5.3e-4 c 7e-5,-7.9e-4 0.003,-2.6e-4 0.003,-0.002 h 5.3e-4 5.3e-4 0.007 c 0.008,-0.003 0.0194,-0.005 0.0207,0.003 0.004,0 0.008,2e-5 0.0124,0 0.005,0 0.009,2e-5 0.015,0 0.005,0 0.0152,-0.005 0.0155,0 5e-5,7.9e-4 5.3e-4,2.6e-4 5.3e-4,0.002 0.0516,10e-4 0.0453,0.0326 0.0279,0.1235 0.0162,1.4e-4 0.0329,-7e-5 0.0491,0 0.083,-2e-4 0.16505,-5.3e-4 0.24805,-5.3e-4 0.002,0 0.005,0.001 0.007,0 0.002,-0.002 0.002,-0.006 0.004,-0.007 0.0276,-0.01 0.12062,-0.0254 0.13591,-0.0274 0.12433,-0.0195 -0.0121,0.006 0.108,-0.0176 0.0565,-0.0127 0.048,-0.0115 0.12971,-0.0155 0.0195,-0.001 0.0394,5.3e-4 0.0589,5.3e-4 0.0371,-0.001 0.0742,-0.006 0.11111,-0.009 0.027,-0.002 0.0539,-0.007 0.0801,-0.015 0.005,-0.001 0.008,-0.003 0.0124,-0.004 l 0.0739,-0.009 c 0.0215,5.3e-4 0.0302,0.002 0.0408,0.003 0.002,-0.001 0.003,-0.002 0.0119,-0.004 0.0259,-0.005 0.0515,-0.009 0.0775,-0.0134 0.0359,-0.005 0.0726,-0.005 0.10904,-0.006 h 5.3e-4 c 0.0179,-2.5e-4 0.0362,-0.005 0.0543,-0.003 0.0127,0.002 -0.0255,-0.002 -0.0382,-5.3e-4 0.008,-0.002 0.0151,-0.004 0.0227,-0.006 0.0436,-0.005 0.0346,-0.006 0.0796,-0.003 0.007,0 0.0214,0.009 0.0212,0.002 -2.6e-4,-0.007 -0.0251,-0.001 -0.0212,-0.005 0.005,-0.008 0.0175,-0.004 0.0264,-0.005 0.023,-0.003 0.0477,-0.007 0.0708,-0.01 0.0744,-0.0103 0.14846,-0.0216 0.22376,-0.0217 0.007,0 0.0296,-7.9e-4 0.0491,0.003 0.004,-0.001 0.0116,-0.005 0.0114,-0.005 -0.002,0.002 -0.005,0.003 -0.007,0.005 0.009,5.3e-4 0.0173,7.9e-4 0.0217,0.001 0.0476,0.003 -0.005,-7.9e-4 -0.0279,0.003 -0.0323,0.0241 -0.0676,0.0448 -0.10129,0.0672 -10e-4,0.002 -0.006,0.007 -0.004,0.006 0.0618,-0.0325 0.12015,-0.0717 0.18397,-0.10025 0.0204,-0.01 0.0767,0.004 0.1018,0.001 0.005,-0.001 0.009,-0.003 0.015,-0.005 0.0122,-0.002 0.024,-0.004 0.0362,-0.005 0.002,-1.4e-4 0.0185,5.2e-4 0.0269,-0.002 -10e-4,-0.0554 0.002,-0.0744 0.006,-0.0734 l 5.3e-4,-5.3e-4 c 0.005,0.006 0.011,0.031 0.0181,0.0708 -0.009,5.3e-4 -0.0149,-5.3e-4 -0.0212,0.002 1.2e-4,0.005 -7.9e-4,0.004 -5.3e-4,0.009 0.002,0.0914 0.002,0.18301 0.005,0.2744 0.0196,-0.002 0.0392,-0.007 0.0589,-0.007 0.002,0 0.003,5.3e-4 0.005,5.3e-4 -0.0162,-0.10136 -0.0331,-0.21044 -0.046,-0.27854 v -5.3e-4 c 0.0468,-0.004 0.1054,-0.007 0.10749,0.008 0.0148,0.0923 0.0128,0.18582 0.008,0.27957 0.0889,0.0141 0.17505,0.0521 0.2527,0.11627 v -1.14515 c -0.0861,0.0717 -0.18319,0.11122 -0.28216,0.12299 0.004,0.0455 -0.0454,0.0993 -0.0951,0.12299 -0.001,0.0117 -0.005,0.0254 -0.005,0.0372 -0.0355,0.0297 -0.0684,0.0631 -0.10645,0.0894 0.0504,0.0407 0.055,0.10104 0.009,0.14572 5.3e-4,0.0162 -0.001,0.0328 0.002,0.0491 -0.10958,0.0959 -0.0819,0.10997 -0.17208,0.10593 -0.0357,0 -0.0709,-0.001 -0.10594,-0.004 -0.0254,0.008 -0.0522,0.0149 -0.077,0.0243 0.001,1.5e-4 0.002,5.3e-4 0.003,0.001 -0.001,6e-5 -0.006,5.3e-4 -0.004,0 l 0.001,-0.001 c -0.0125,-0.002 -0.0209,-0.002 -0.0279,-0.004 -0.0157,0.0239 -0.0261,0.031 -0.0615,0.031 h -0.15038 -0.0925 -0.092 -0.20825 -0.1695 -0.21394 -0.13798 -0.12247 -0.13797 -0.18759 -0.11576 -0.20205 c -0.0865,-2.6e-4 -0.14169,-0.0327 -0.16537,-0.0734 -0.0286,0 -0.0577,6e-5 -0.0863,0 -0.0483,-1.2e-4 -0.0959,-1.8e-4 -0.14418,5.3e-4 -0.0167,-1.2e-4 -0.0829,0.003 -0.0248,-0.0119 -0.0369,0.0132 -0.0706,0.0208 -0.11007,0.0119 -0.0156,-0.004 -0.0312,-0.009 -0.046,-0.0155 -0.005,-0.001 -0.0164,-0.004 -0.0124,-0.007 0.006,-0.005 0.0137,2.7e-4 0.0217,-5.2e-4 -0.0165,-8e-4 -0.0193,5.2e-4 -0.0341,-0.002 l -5.3e-4,0.001 c -0.002,-1.7e-4 -0.002,2e-4 -0.004,0 -8e-4,0 5.3e-4,-0.001 -0.002,-0.001 -0.007,0.003 -0.0147,-5.3e-4 -0.0217,0.002 -0.0145,0.0192 -0.0293,0.0387 -0.0491,0.0522 -0.0171,0.0121 -0.0665,-0.002 -0.0925,-0.007 0.0629,0.0244 -0.0933,-0.0699 -0.12247,-0.1111 -0.004,-0.006 -0.003,-0.0146 -0.002,-0.0217 2.5e-4,5.3e-4 -0.0192,-0.007 -0.0124,-0.004 -0.0156,-0.0106 -0.049,-0.0118 -0.047,-0.0305 5e-5,-5.3e-4 -4e-5,0.001 0,-0.002 -0.0459,-0.019 -0.10208,-0.0466 -0.13177,-0.0615 l -5.3e-4,5.3e-4 c -0.0952,-0.0476 -0.12205,-0.11495 -0.10904,-0.16795 -0.0341,-0.009 -0.0686,-0.019 -0.10801,-0.0372 -0.004,-5.3e-4 -0.009,10e-4 -0.0119,-0.002 -0.0138,-0.008 -0.0266,-0.0141 -0.0403,-0.0217 0.008,0.002 0.0204,0.003 0.0155,0.003 -0.006,-0.002 -0.012,-0.003 -0.0186,-0.005 -5.3e-4,-2.2e-4 -2.6e-4,1.6e-4 -0.002,-5.3e-4 -0.0112,-0.002 -0.022,-0.004 -0.0336,-0.007 -0.0959,0.007 -0.0982,-0.0107 -0.16691,-0.0615 -0.0279,-0.0207 -0.0575,-0.0413 -0.0858,-0.0615 l -5.2e-4,-10e-4 c -0.0787,-0.0562 -0.10096,-0.12024 -0.0894,-0.1695 -0.0173,-0.004 -0.0305,-0.009 -0.0615,-0.0103 -0.0215,-0.0181 -0.0427,-0.0373 -0.0641,-0.0553 -0.0103,-0.004 -0.021,-0.008 -0.031,-0.0124 -0.0491,0.011 -0.0722,-0.0139 -0.1235,-0.0651 l -0.0615,-0.0615 5.2e-4,-0.001 c -0.0238,-0.0238 -0.0383,-0.0474 -0.0496,-0.0703 -0.0562,-0.0218 -0.0948,-0.0521 -0.10904,-0.0868 -0.1187,-0.0308 -0.15723,-0.11149 -0.12764,-0.17105 7.9e-4,-0.004 -8e-4,-0.008 5.3e-4,-0.0124 -0.01,1.6e-4 -0.0182,-9e-5 -0.0279,0 l 10e-4,0.003 c -0.21074,0.003 -0.236,-0.18169 -0.077,-0.23047 -7.9e-4,-10e-4 -2.6e-4,-0.002 -0.002,-0.003 -0.0103,-0.003 -0.0207,-0.005 -0.031,-0.008 -0.0162,-0.004 -0.0341,-0.006 -0.0491,-0.0145 -0.01,-0.005 -0.0185,-0.0109 -0.0279,-0.0165 -0.007,-10e-4 -0.009,-2.7e-4 -0.0129,-0.002 -0.0301,-0.009 -0.0676,-0.008 -0.0868,-0.0336 -0.0182,-0.0236 -0.0406,-0.0512 -0.0615,-0.0775 z m 0.047,0.0424 -5.3e-4,5.3e-4 v 5.3e-4 c -0.0179,-0.006 0.037,0.031 0.0563,0.0465 0.009,0.002 0.0183,0.005 0.0274,0.007 5.3e-4,-2.2e-4 0.005,5.3e-4 0.006,-0.002 -0.0293,-0.0187 -0.0576,-0.0383 -0.0894,-0.0522 z m 0.0925,0.0568 v 5.3e-4 c 0,1.5e-4 -5.3e-4,-9e-5 0.002,0 -5.3e-4,-2.1e-4 5.3e-4,-5.3e-4 -0.002,-5.3e-4 z m 0.002,5.3e-4 v 0.001 h 5.3e-4 c -2.6e-4,-1.9e-4 -9e-5,-0.001 -5.3e-4,-0.001 z m 0.63872,0.59273 v 5.3e-4 5.3e-4 5.3e-4 c -0.01,0.002 -0.0185,0.003 -0.0274,0.007 -0.015,0.006 -0.0167,0.0555 -0.007,0.0465 0.0218,-0.0143 0.0397,-0.0341 0.0584,-0.0522 -0.008,-8e-4 -0.0167,-0.002 -0.0243,-0.003 z m 3.7729,0.0496 -5.3e-4,5.3e-4 -0.001,5.3e-4 v 5.3e-4 c 0.0165,0.0101 0.0352,0.0197 0.0527,0.0279 h 0.0134 c -7.9e-4,-0.002 -0.001,-0.004 -0.002,-0.005 -0.0153,-0.006 -0.0305,-0.0131 -0.062,-0.0243 z m -3.69021,0.10749 v 5.3e-4 c 0.002,0.002 0.003,0.005 0.005,0.005 5.3e-4,2.2e-4 2.7e-4,4e-5 0.002,5.3e-4 -0.002,-0.002 -0.005,-0.004 -0.007,-0.006 z m 0.65887,0.37724 c 0.001,0.003 0.002,0.005 0.004,0.008 -5.3e-4,-0.003 -0.003,-0.006 -0.003,-0.008 z m 0.005,0.009 0.003,0.006 c -2.5e-4,-0.002 -0.002,-0.004 -0.002,-0.006 z m 0.006,0.0134 c 5.3e-4,0.005 -7e-5,0.0111 0.004,0.0134 0.001,8e-4 0.002,-5.3e-4 0.003,0.002 -0.002,-0.005 -0.004,-0.01 -0.007,-0.0155 z m 0.48008,0.22945 -0.002,0.002 c 0.005,0.004 0.0105,0.008 0.015,0.0119 -7.9e-4,-0.002 -0.002,-0.004 -0.003,-0.007 -0.003,-0.002 -0.006,-0.005 -0.009,-0.007 z m 0.60616,0.0455 c -5e-5,2.6e-4 5e-5,7.9e-4 0,0.001 5.3e-4,-2.5e-4 -0.001,-5.3e-4 0.002,-0.001 -5.2e-4,4e-5 -0.002,0 -0.002,0 z m -0.59738,0.0165 c -0.0121,0.004 -0.0242,0.008 -0.0367,0.0114 0.0143,0.0191 0.0239,0.0279 0.0367,0.0429 0.0158,-0.008 0.0191,-0.0276 0.0155,-0.0522 -0.006,-2.6e-4 -0.0158,2.7e-4 -0.0155,-5.3e-4 z m 2.75487,0.0486 -5.3e-4,5.3e-4 -0.001,0.001 c 0.001,0.0256 0.008,0.0379 0.0217,0.0346 0.005,-0.0119 0.01,-0.0222 0.0212,-0.0248 0.004,-0.001 0.006,0.002 0.006,0.005 0.004,-0.004 0.008,-0.0107 0.0124,-0.015 -0.004,5e-5 -0.008,-1.3e-4 -0.0119,0 -0.0153,0 -0.0313,-0.001 -0.047,-0.001 z m -2.63188,0.0455 c -0.001,5.3e-4 -0.003,-0.001 -0.004,0.002 l -5.3e-4,5.3e-4 c -2e-5,5.3e-4 2.7e-4,0.002 -5.2e-4,0.003 z m -0.69763,0.0739 c -7.9e-4,1.9e-4 -0.002,5.2e-4 -0.003,5.2e-4 5.3e-4,1.4e-4 2.7e-4,-1.4e-4 0.002,5.3e-4 l 5.3e-4,-5.3e-4 z m 0.0558,0.0124 c -8e-4,9e-5 -0.002,0.001 -0.003,0.001 0.005,0.001 0.01,0.002 0.015,0.004 -0.004,-10e-4 -0.008,-0.003 -0.0119,-0.004 z m -0.11782,0.003 v 5.3e-4 5.3e-4 l -0.001,5.3e-4 c -0.003,5.3e-4 -0.005,-8e-4 -0.008,0.002 0.007,0.003 0.0139,0.004 0.0212,0.007 l 10e-4,5.3e-4 c 0.0145,0.002 0.029,0.003 0.0434,0.005 0.003,2.6e-4 0.006,-0.001 0.008,0.002 0.007,-0.002 0.0147,-0.003 0.0217,-0.005 -0.005,-0.004 -0.008,-0.008 -0.01,-0.0124 -0.0185,5.3e-4 -0.0472,-2.6e-4 -0.0765,-0.001 z m -0.67593,0.35657 c 0.005,0.004 0.01,0.007 0.0145,0.0109 0.005,5.3e-4 0.01,0.001 0.0145,0.002 -0.002,-10e-4 -0.003,-0.003 -0.005,-0.004 -0.005,-0.004 -0.008,-0.003 -0.0165,-0.008 -0.003,0 -0.005,0 -0.008,0 z m -0.7121,0.22996 v 0.29714 c 0.0389,-0.006 0.0779,-0.01 0.11678,-0.0155 0.0536,-0.008 0.0906,-0.0155 0.13075,-0.0217 -0.01,-0.006 -0.0185,-0.0123 -0.0279,-0.0186 -0.0179,-0.0115 -0.0717,-0.0441 -0.0708,-0.0558 5.3e-4,-0.008 2.4e-4,-0.0187 5.3e-4,-0.0274 0.0154,0.0104 0.0327,0.02 0.0491,0.031 -0.0147,-0.0248 -0.0308,-0.0473 -0.0465,-0.0713 -7e-5,0.0135 2.6e-4,0.0269 -0.002,0.0398 -0.0103,-0.007 -0.0226,-0.0147 -0.032,-0.0207 -0.0178,-0.0113 -0.0321,-0.053 -0.0357,-0.0796 -0.0297,-0.0233 -0.0565,-0.041 -0.0827,-0.0574 z m 3.78168,0.0537 c -0.0165,0.002 -0.0329,0.006 -0.0491,0.0109 l -0.031,0.006 c 9e-5,5.3e-4 0.001,-5.3e-4 0.001,0.002 0.0295,-0.006 0.0593,-0.01 0.0889,-0.0155 -0.003,-2.3e-4 -0.007,-5.3e-4 -0.009,-5.3e-4 z m -3.6344,0.0568 c 0.002,0.002 0.004,0.004 0.005,0.007 1e-5,-7.9e-4 0,-0.002 0,-0.003 -0.002,-0.002 -0.003,-0.003 -0.005,-0.004 z m -0.11731,0.24185 c -0.004,-0.002 -0.0167,0.002 -0.0274,0.004 v 0.003 c 0.0104,-0.002 0.0201,-0.004 0.0305,-0.006 -7.9e-4,-2.5e-4 -0.002,-5.3e-4 -0.003,-0.001 z m 4.38423,0.0842 c -0.002,5.3e-4 -0.004,-1.8e-4 -0.006,0.002 0.002,-2.5e-4 0.004,-5e-5 0.006,-5.3e-4 z m -0.006,0.002 -0.001,-5.3e-4 c -0.002,5.3e-4 -0.004,-0.001 -0.006,0.002 -0.0163,0.003 -0.0363,0.006 -0.0465,0.008 -1.8e-4,0.001 2e-5,0.004 -5.3e-4,0.005 0.0123,-0.004 0.0291,-0.008 0.046,-0.0124 0.002,-2.3e-4 0.004,-4e-5 0.006,-5.3e-4 z m -4.40594,0.44752 v 5.3e-4 l -0.001,0.001 -0.001,5.2e-4 v 0.3235 c 0.019,-0.008 0.0391,-0.015 0.0584,-0.0217 0.0762,-0.028 0.0866,-0.0301 0.11162,-0.0367 -2.5e-4,-0.003 -5.3e-4,-0.006 -0.001,-0.009 -5.3e-4,-0.0407 -0.003,-0.0454 -0.004,-0.0553 -0.002,-0.004 -0.008,-0.0123 -0.008,-0.0124 0.002,-0.004 0.004,-0.008 0.006,-0.0124 -0.001,-0.004 0.001,-0.007 -5.2e-4,-0.0124 -0.001,-0.006 -0.007,-0.0246 -0.005,-0.0186 0.003,0.0113 0.006,0.0158 0.009,0.0248 0.0104,-0.0228 0.0226,-0.0454 0.0341,-0.0677 -0.081,-0.0308 -0.13457,-0.0593 -0.19792,-0.10387 z m -5.2e-4,1.20716 v 5.3e-4 1.9544 c 0.0356,-0.0188 0.0719,-0.0365 0.10748,-0.0553 0.003,-0.0183 0.004,-0.0341 0.0124,-0.0744 0.004,-0.0188 0.008,-0.0378 0.0155,-0.0553 0.0172,-0.0369 0.0363,-0.0728 0.0594,-0.10646 0.0232,-0.0338 0.0526,-0.0563 0.0832,-0.0806 0.003,-0.024 0.004,-0.0201 0.008,-0.0527 0.008,-0.0635 0.0132,-0.12743 0.0196,-0.1912 -0.014,-0.006 -0.0194,-0.008 -0.0346,-0.0155 -0.0254,-0.0116 -0.0252,-0.0435 -0.0217,-0.0765 -0.0469,-0.0334 -0.0609,-0.13387 -0.12196,-0.40566 -0.007,-0.0331 0.0602,-0.0329 0.0925,-0.0434 0.0145,-0.005 0.04,-0.007 0.0584,-0.0119 0.002,-0.0401 0.004,-0.0808 0.006,-0.12092 0.003,-0.0744 0.005,-0.14835 0.007,-0.22273 7e-5,-0.004 -9e-5,-0.008 0,-0.0124 -0.0318,-0.0391 -0.0637,-0.18516 -0.0708,-0.21446 -0.007,-0.0304 -0.0167,-0.0617 -0.0217,-0.0925 -0.005,-0.0314 -0.007,-0.0635 -0.0114,-0.0951 -0.0435,-0.004 -0.11558,-0.0164 -0.18707,-0.0279 z m 1.09347,0.0408 -5.3e-4,5.3e-4 c -0.002,4e-5 -0.004,5.3e-4 -0.006,5.3e-4 0.002,0.004 0.004,0.007 0.006,0.0103 1.7e-4,-0.003 -7e-5,-0.008 5.3e-4,-0.0114 z m 0.84387,0.42737 c -1.8e-4,0.005 -9e-5,0.0105 -5.3e-4,0.015 0.002,-5.3e-4 0.005,1.9e-4 0.007,-0.002 -0.003,-0.006 -0.004,-0.008 -0.006,-0.0119 z m -1.08623,0.093 -5.3e-4,5.3e-4 c -0.001,0.0114 -0.003,0.0344 -0.004,0.0465 0.007,-5.2e-4 0.0139,1.2e-4 0.0207,-0.002 -0.003,-0.0102 -0.0127,-0.0348 -0.016,-0.045 z m -0.80564,3.42666 -5.3e-4,5.3e-4 c -0.0146,0.002 -0.0288,0.005 -0.0434,0.007 v 0.21704 c 0.003,-0.001 0.007,-0.003 0.0103,-0.004 0.0338,-0.0133 0.0691,-0.0231 0.10387,-0.0336 -2.6e-4,-0.004 -0.002,-0.008 -0.002,-0.0124 -0.004,-0.004 -0.009,-0.006 -0.0119,-0.0119 -0.0254,-0.0511 -0.0427,-0.10615 -0.0558,-0.16278 z m 4.03334,1.98696 -0.001,5.3e-4 c -0.006,0.003 -0.037,0.0191 -0.0455,0.0227 -7.9e-4,0.008 -2.6e-4,0.0148 -0.002,0.0217 0.003,-7.9e-4 0.007,5e-5 0.0119,-0.002 0.0115,-0.0109 0.0233,-0.0228 0.0372,-0.0429 z m -0.0956,0.0548 -5.3e-4,5.3e-4 c -8e-4,7.9e-4 -2.7e-4,0.002 -0.002,0.002 10e-4,-2.2e-4 0.002,3e-5 0.003,-5.3e-4 -1.6e-4,-5.3e-4 -1e-4,-2.6e-4 -5.3e-4,-0.002 z m -3.98167,0.67696 v 5.3e-4 0.0186 c 0.002,-0.007 0.005,-0.013 0.007,-0.0181 -0.003,-5.3e-4 -0.005,-2.7e-4 -0.007,-10e-4 z m 0.003,0.23254 v 0.51211 c 0.0355,-0.004 0.0701,-0.006 0.10387,-0.004 0.0126,-0.0131 0.0295,-0.0369 0.0408,-0.047 9e-5,-0.0202 1e-5,-0.0381 0,-0.078 -4e-5,-0.0174 -0.003,-0.0349 -5.2e-4,-0.0522 0.003,-0.0358 0.008,-0.0723 0.0155,-0.10749 0.0127,-0.0619 0.0302,-0.0873 0.0584,-0.14624 0.009,-0.0153 0.0158,-0.0327 0.0279,-0.046 l 5.3e-4,-5.3e-4 c -0.0169,-0.002 -0.0334,-0.003 -0.0501,-0.005 -0.002,0.009 -2.6e-4,0.0126 -0.002,-10e-4 -0.0528,-0.006 -0.10585,-0.01 -0.15864,-0.0155 -8e-4,-0.003 -2.7e-4,-0.004 -0.002,-0.008 -0.0145,1.8e-4 -0.0222,-7.9e-4 -0.0331,-0.001 z m 0.2527,0.21188 c -0.002,-0.001 0.002,0.0113 0.0124,0.0341 10e-4,-5.3e-4 0.002,-0.002 0.004,-0.002 -0.006,-0.0109 -0.0105,-0.0218 -0.016,-0.0326 z m 5.23689,0.16588 c -0.0319,0.002 -0.0609,0.006 -0.0946,0.006 h -0.13539 -0.0129 c -5e-5,10e-4 -0.003,-8e-4 -0.004,0 h -0.002 -0.015 -0.1602 c 0.0138,0.0686 0.0177,0.13778 0.0176,0.20722 0.15449,0.0289 0.30145,0.13424 0.40669,0.31523 z m -3.85403,1.50378 c -0.005,0.001 -0.009,0.002 -0.0129,0.003 0.006,0.0324 0.0123,0.0647 0.0186,0.0966 0.01,-0.009 0.0182,-0.0136 0.0279,-0.0217 -0.0121,-0.0254 -0.0225,-0.0514 -0.0331,-0.0775 z m 0.11265,0.65888 c 0.004,0.0214 0.008,0.0432 0.0124,0.0646 0.0226,-0.002 0.0431,-0.003 0.0651,-0.005 -1.5e-4,-0.0104 1.7e-4,-0.0129 0,-0.0238 -0.0252,-0.0123 -0.0475,-0.0263 -0.0775,-0.0362 z m 0.15917,2.47271 c -0.01,0.003 -0.0219,0.009 -0.031,0.0104 -0.003,0.0454 -0.008,0.13149 -0.0139,0.23874 0.01,10e-4 0.0196,0.002 0.0289,0.003 0.006,-0.0839 0.0118,-0.16794 0.016,-0.25218 z m 0.70538,4.70462 c 1.1e-4,0.003 1.1e-4,0.005 5.3e-4,0.007 0.001,0.006 0.003,0.0117 0.004,0.0176 h 0.003 c -0.002,-0.008 -0.005,-0.0159 -0.007,-0.0238 z m -2.61328,0.3483 v 0.15658 c 0.006,-0.0153 0.0162,-0.0277 0.0264,-0.0408 -0.008,-0.0377 -0.0182,-0.0899 -0.0243,-0.11576 -5.3e-4,-10e-6 -0.001,-10e-6 -0.002,0 z m 5.49011,0.22583 c -0.0575,0.12997 -0.13465,0.22909 -0.22324,0.29766 0.0748,0.0438 0.0961,0.0871 -0.0465,0.11368 0.0244,0.004 0.0208,0.007 0.0904,0.007 0.0759,7.9e-4 0.13094,-0.005 0.17932,-0.0134 z m -5.48442,0.0832 v 49.72255 h 5.4839 l 5.3e-4,-49.39079 c -0.0767,0.002 -0.15325,0.006 -0.22996,0.006 -0.017,0 -0.0343,-0.005 -0.0501,-0.009 -0.0304,0.005 -0.0641,0.01 -0.10853,0.0134 0.002,0.0212 -0.0273,0.0469 -0.0341,0.0708 -0.005,0.0153 0.0117,-0.0225 0.0207,-0.0434 -0.0373,0.065 -0.10024,0.12526 -0.13849,0.17156 -10e-4,0.003 -0.004,-2.6e-4 -0.006,0.003 -0.006,0.0143 -0.0113,0.0198 -0.0176,0.0367 -0.0235,-0.003 -0.0284,-0.005 -0.0362,-0.006 -0.0105,0.009 -0.0279,0.006 -0.0491,-0.004 -0.10693,0.0209 -0.21599,0.028 -0.32298,0.0501 -0.0493,0.004 -0.0733,0.005 -0.11421,-0.003 -0.0134,0 -0.0275,0.003 -0.0372,0.003 -0.13776,0.003 -0.27514,0 -0.4129,0 -0.0517,10e-5 -0.10384,0 -0.15554,0 -0.12044,-4e-5 -0.24079,0 -0.36122,0 -0.15092,0 -0.30178,-4e-5 -0.45269,0 h -0.29662 c -0.13875,0 -0.27746,0.004 -0.416,-0.006 -0.0205,-0.003 -0.13166,-0.0142 -0.14676,-0.016 -0.0503,-0.003 -0.0997,-0.0152 -0.14986,-0.0181 -0.0102,0 -0.0241,0.003 -0.0346,0.003 -0.0195,0 -0.0389,0.003 -0.0584,0.003 -0.0535,0 -0.0566,0.003 -0.12195,-0.007 -0.0183,-0.003 -0.0366,-0.01 -0.0548,-0.0129 -0.014,-0.003 0.0118,0.005 0.007,0.005 h -0.0289 c -0.0445,0.003 -0.0465,0.004 -0.108,-0.006 -0.0183,-0.003 -0.0344,-0.0106 -0.0527,-0.0134 -0.002,0 0.005,0.007 0.003,0.007 -0.0137,0.004 -0.0288,4e-5 -0.0429,0 0.009,0 0.0369,-0.003 0.0279,-0.003 -0.0278,0 -0.0553,0.004 -0.0832,0.005 -0.0528,0.003 -0.10627,0 -0.15917,0 -0.0379,1.6e-4 -0.0758,0 -0.11369,0 -0.0487,-8e-5 -0.0975,0 -0.14624,0 h -0.24184 -0.17106 c -0.0808,2.1e-4 -0.0967,0.003 -0.12195,-0.016 -0.006,0 -0.013,-2.7e-4 -0.0155,-0.003 -0.0186,-0.018 -0.0288,-0.0306 -0.0439,-0.047 -0.0265,-0.0243 -0.0395,-0.0399 -0.11782,-0.0982 -0.0264,-0.10792 -0.009,-0.0378 0.11782,0.0982 0.0133,0.0124 0.051,0.0432 0.0594,0.0496 0.016,0 0.0372,-0.003 0.0424,-0.003 0.20832,-0.0345 0.10105,-0.11438 -0.0279,-0.19844 -0.0202,0 -0.037,-0.006 -0.0403,-0.0217 -0.001,-0.004 1.9e-4,-0.003 -0.002,-0.008 -0.004,-0.003 -0.008,-0.006 -0.0119,-0.008 -0.0538,1.3e-4 -0.085,-2.6e-4 -0.0863,-0.0217 -0.003,0 -0.007,-0.003 -0.0103,-0.003 -0.0916,-0.0357 -0.0841,-0.0339 -0.14986,-0.0749 h -5.2e-4 c -0.10092,-0.0631 -0.15666,-0.13619 -0.18036,-0.20567 z m 5.09891,0.3023 c -0.008,0.003 -0.0157,0.007 -0.0238,0.009 0.005,0.005 0.0106,0.009 0.015,0.0145 0.002,0.003 8e-5,0.005 0.002,0.007 0.004,-0.0101 0.005,-0.0204 0.007,-0.0305 z m -0.008,0.0315 c -5.3e-4,0 -5.3e-4,0.003 -0.001,0.003 5.3e-4,-7e-5 5.3e-4,-4e-5 0.002,0 -1e-4,0 -9e-5,-0.003 -5.2e-4,-0.003 z m -0.20826,0.22014 c -0.005,0 -0.0104,0.003 -0.0155,0.003 h -5.3e-4 c -0.003,0 -0.006,2.6e-4 -0.009,0.003 0.006,0 0.0174,0.003 0.0222,0.004 0.002,-0.003 0.002,-0.006 0.004,-0.008 z" />
    </clipPath>
    <clipPath
       clipPathUnits="userSpaceOnUse"
       id="clipPath1717-9">
      <path
         id="path1719-5"
         style="fill:#ff0000;fill-opacity:1;fill-rule:nonzero;stroke:none;stroke-width:0.264583"
         d="m 180.1603,161.87383 v 69.11567 c 0.0572,-0.0946 0.15002,-0.18424 0.2775,-0.25993 -0.0405,-0.0104 -0.0786,-0.0203 -0.12609,-0.0362 l -0.001,-0.002 c -0.16492,-0.055 -0.16634,-0.18947 -0.0729,-0.23151 0.009,-0.0329 0.0184,-0.065 0.0377,-0.0925 0.007,-0.0102 0.0195,-0.01 0.0331,-0.009 0.0135,0.002 0.0281,0.006 0.0403,0.006 0.0768,-2e-4 0.15063,0.0128 0.22325,0.0372 0.0661,-0.002 0.13978,-0.0234 0.19998,0.0191 0.0163,-0.002 0.0258,-0.004 0.0548,-0.004 0.0195,2.3e-4 0.0385,2.7e-4 0.0579,0.001 0.0528,8e-4 0.0633,-0.002 0.12144,0.0186 0.01,0.003 0.018,0.01 0.0269,0.0155 0.0137,0.003 0.0222,0.005 0.0553,0.0103 0.009,0.002 0.0171,0.008 0.0253,0.0124 0.003,-0.002 0.009,-0.002 0.0139,-0.003 0.0723,-0.008 0.14547,-0.005 0.21807,-0.003 0.0514,-5.3e-4 0.1026,-5.3e-4 0.154,-5.3e-4 0.0305,1.2e-4 0.061,0 0.0915,0 h 0.16692 0.0186 c 0.0616,0 0.11405,-0.003 0.17415,0.017 0.005,0.002 0.01,0.004 0.0134,0.007 0.0126,0.001 0.0252,0.002 0.0377,0.004 0.0108,-0.002 0.0211,-0.004 0.0336,-0.004 0.0448,0.001 0.0757,0.004 0.11731,0.0238 0.005,7.9e-4 0.0105,0.002 0.015,0.003 h 5.2e-4 c 0.001,2e-4 0.003,8e-4 0.004,0.001 0.0474,0.007 0.0947,0.0165 0.14211,0.0248 0.0413,-0.002 0.0932,-0.004 0.10904,-0.004 0.0223,-0.01 0.10323,0.0289 0.12557,0.0305 l 5.3e-4,5.2e-4 c -0.01,0.003 -0.0299,0.0121 -0.0289,0.0124 0.0104,-0.003 0.0208,-0.007 0.031,-0.0124 h 5.3e-4 c 2.3e-4,0 10e-4,0.001 0.002,0.001 0.006,-0.002 0.0116,-0.004 0.0176,-0.006 0.0333,-0.007 0.076,-2.6e-4 0.11007,5.3e-4 0.0605,-8e-5 0.12141,-5.3e-4 0.1819,-5.3e-4 0.0618,1.3e-4 0.12322,0 0.18501,0 h 0.13125 0.10387 c 0.0457,-0.002 0.0754,0.005 0.12299,0.0186 0.0126,0.004 0.0239,0.0118 0.0367,0.0135 0.01,0.002 0.0204,-5.3e-4 0.0305,-0.001 0.0114,-1.9e-4 0.0227,-0.002 0.0341,-5.3e-4 0.0224,0.002 0.045,0.006 0.0667,0.0124 0.007,0.002 0.0124,0.005 0.0186,0.008 0.004,-5.3e-4 -10e-4,-2.7e-4 0.008,-0.002 0.009,-0.001 0.0182,1.2e-4 0.0274,0 0.0479,-0.002 0.0957,-0.006 0.14366,-0.007 0.10844,0.004 0.21657,0.01 0.32505,0.008 0.13662,-0.004 0.21612,0.004 0.29042,0.046 0.0221,-4e-5 0.0443,-5e-5 0.0661,0 0.0366,8e-5 0.0734,0 0.11008,0 h 0.18396 0.0589 0.0982 0.1018 0.0196 c 0.24021,0 0.24021,0.24238 0,0.24236 h -0.0196 -0.0739 c 0.0118,0.003 0.0239,0.005 0.0357,0.008 0.0339,-0.006 0.0555,-0.008 0.13539,-0.0119 0.41039,-0.0187 0.30748,0.21663 0.12816,0.46716 0.0335,2.5e-4 0.0523,0.002 0.11834,-0.004 0.006,-5.3e-4 0.006,0.0105 0.007,0.0165 0.002,0.006 0.002,0.0124 0.004,0.0186 0.0935,-2.6e-4 0.18708,-8e-4 0.28061,-0.001 v -69.52429 z m 0.24133,68.53742 c 0.008,0.0145 -0.0458,-0.005 -0.032,0.001 0.0225,0.0103 0.0177,0.006 0.0295,0.0104 7.9e-4,-0.004 0.002,-0.007 0.003,-0.0114 z m 0.13798,0.0558 -5.3e-4,5.3e-4 v 5.3e-4 l -5.3e-4,5.3e-4 c -10e-4,7.9e-4 -2.7e-4,0.0103 -10e-4,0.0129 0.0121,0.009 0.0244,0.0179 0.0362,0.0274 0.002,0.002 0.004,0.005 0.006,0.007 h 5.3e-4 c -0.0111,-0.0113 -0.0308,-0.054 -0.0408,-0.0491 z m 0.57826,0.007 v 5.3e-4 c 5.2e-4,0 5.2e-4,5.3e-4 0.002,5.3e-4 z m 0.003,5.3e-4 v 5.3e-4 c 2.6e-4,0 7.9e-4,-1.1e-4 0.001,0 z m 0.001,5.3e-4 v 5.2e-4 h 0.001 z m 0.002,5.2e-4 0.002,0.002 c 0.001,7e-5 0.004,5e-5 0.003,-5.3e-4 -0.002,-5.3e-4 -0.003,-0.001 -0.004,-0.001 z m -0.73795,0.18501 c 0.006,0.011 0.008,0.01 -0.005,0.008 0.0154,0.007 0.0161,0.008 0.0186,0.007 -0.004,-0.004 -0.01,-0.0115 -0.0129,-0.015 z m -0.22789,0.80563 v 5.3e-4 5.3e-4 5.3e-4 5.3e-4 0.53743 c 0.008,-0.0215 0.018,-0.0424 0.0238,-0.0646 0.007,-0.023 0.007,-0.0473 0.0114,-0.0708 0.004,-0.0233 0.008,-0.0474 0.0108,-0.0708 0.001,-0.01 0,-0.0204 0,-0.0305 v -0.0946 l -10e-4,5.3e-4 c 0,-0.0573 0.0146,-0.0999 0.0341,-0.13436 -0.03,-0.0221 -0.0576,-0.0461 -0.0791,-0.0744 z m 4.3279,0.25167 c 5.3e-4,7.9e-4 -0.001,0.002 0.002,0.003 0.005,0.003 0.004,0.005 0.009,0.007 1.8e-4,-7.9e-4 -1.8e-4,-0.002 0,-0.003 -0.003,-0.002 -0.007,-0.005 -0.0104,-0.007 z m -4.08398,0.45836 c -0.004,0.0112 -0.0111,0.0242 -0.0176,0.0429 0.006,0.007 0.0116,0.0135 0.0176,0.0207 -2.1e-4,-0.0226 6e-5,-0.0425 0,-0.0636 z m -0.12713,0.55243 c -0.0241,0.002 -0.0335,0.005 -0.0419,0.0114 0.0244,0.008 0.0594,0.0258 0.0987,0.0512 -0.006,-0.0371 -0.003,-0.0575 -0.0568,-0.0625 z m -0.11679,0.1695 v 0.0217 c 0.008,0.005 0.016,0.0104 0.0238,0.015 -0.007,-0.0138 -0.0166,-0.0233 -0.0238,-0.0367 z m 0.22376,0.0646 c -3e-5,0.001 3e-5,0.003 0,0.004 2.6e-4,-5.3e-4 8e-4,-5.3e-4 0.001,-10e-4 l 5.3e-4,-0.003 z m 0,0.004 c -0.0183,0.0298 -0.034,0.0426 -0.0811,0.0501 -0.0139,0.001 -0.0677,0.005 -0.0754,-0.004 -0.003,-0.003 -0.004,-0.008 -0.006,-0.0124 -0.0214,-0.005 -0.0429,-0.008 -0.0599,-0.0217 -5.3e-4,-2.4e-4 -5.3e-4,-2.6e-4 -0.001,-10e-4 v 3.50056 c 0.002,-0.002 0.003,-0.004 0.005,-0.005 -8e-4,-0.0101 -8e-4,-0.0205 -0.002,-0.0305 0.0191,-0.005 0.0387,-0.01 0.0579,-0.015 -0.002,-0.0375 -0.005,-0.0751 -0.005,-0.11265 -9e-5,-0.007 -0.002,-0.0137 5.3e-4,-0.0196 0.0121,-0.0351 0.0243,-0.0714 0.0434,-0.10335 0.003,-0.005 0.009,-0.008 0.0129,-0.0124 1.9e-4,-2.1e-4 -2.7e-4,-7.9e-4 5.3e-4,-0.001 h 5.3e-4 c 0.009,-0.008 0.0187,-0.017 0.0279,-0.0253 0.008,-0.0142 0.009,-0.0186 0.008,-0.0186 -0.006,0.003 -0.0261,0.0311 -0.031,0.0382 0.01,-0.0146 0.0177,-0.031 0.03,-0.0418 -0.0136,-0.0318 -0.0278,-0.0634 -0.0403,-0.0956 0.004,-0.003 0.008,-0.005 0.0119,-0.007 0.0265,-0.0184 0.0666,-0.0473 0.0879,-0.0584 0.002,-7.9e-4 0.003,-5.3e-4 0.005,-0.002 -5.3e-4,-0.009 -0.002,-0.0167 -0.002,-0.0253 0,-0.0114 0.002,-0.0227 0.002,-0.0341 -0.009,-0.0376 -0.019,-0.075 -0.0222,-0.11317 -0.006,-0.0657 -0.008,-0.10924 -0.0114,-0.17312 -2.5e-4,-0.0426 -5.3e-4,-0.085 -5.3e-4,-0.12764 0,-0.13615 0.002,-0.27209 0.003,-0.40825 2.5e-4,-0.0576 -2.7e-4,-0.0637 5.3e-4,-0.0527 6e-5,0.002 -1.4e-4,-0.0109 0,-0.0103 7.9e-4,4e-5 0.002,-7e-5 0.003,0 0.006,-0.0382 0.0197,-0.0777 0.0398,-0.10852 -0.003,-0.0298 -0.005,-0.0596 -0.008,-0.0894 -0.007,-0.0996 -0.0154,-0.1993 -0.009,-0.29921 -0.004,-0.25264 -0.018,-0.50536 -0.015,-0.75809 l -0.001,-5.3e-4 c 8e-4,-0.0684 0.018,-0.11953 0.0434,-0.15555 -0.007,-5.3e-4 -0.0132,5.3e-4 -0.0196,0 -0.01,-7.9e-4 -2.2e-4,-0.0189 5.3e-4,-0.0279 0.001,-0.0276 0.002,-0.0556 0.003,-0.0832 0.005,-0.12968 0.0168,-0.25937 0.006,-0.38913 7.9e-4,-0.0474 0.001,-0.0948 0.002,-0.14211 z m 3.55017,0.0382 c -0.0102,0.004 -0.0202,0.007 -0.0305,0.0103 0.001,0.003 0.002,0.006 0.002,0.0103 0.0101,-0.007 0.0191,-0.0127 0.0289,-0.0191 z m -2.19211,0.31936 c -0.0115,0.0289 -0.0229,0.0646 -0.0331,0.0904 0.004,-7.9e-4 0.008,-5.3e-4 0.0119,-0.002 0.007,-0.0294 0.0141,-0.0589 0.0212,-0.0884 z m -0.5116,0.0108 c 1e-5,2.6e-4 1e-5,2.7e-4 0,10e-4 8e-4,-2.6e-4 -0.001,2e-4 0.002,-5.3e-4 -7.9e-4,-1.7e-4 10e-4,2.7e-4 -0.002,-5.3e-4 z m 0.77928,0.15296 c -1.2e-4,8e-4 2.7e-4,0.002 -5.3e-4,0.003 2.6e-4,-7.9e-4 8e-4,-0.002 0.001,-0.003 z m -5.3e-4,0.005 c -0.006,0.0175 -0.0109,0.0354 -0.016,0.0532 -5.3e-4,0.002 -0.001,0.005 -0.002,0.007 0.003,1e-4 0.006,5.3e-4 0.0103,5.3e-4 0.003,-0.0206 0.005,-0.0402 0.008,-0.0605 z m 1.05834,0.77825 c -0.003,0.0134 -0.008,0.0261 -0.0119,0.0398 0.003,-0.002 0.004,-0.003 0.007,-0.005 0.001,-0.009 0.004,-0.0249 0.005,-0.0346 z m 0.91105,0.50953 c -0.002,10e-4 -0.004,0.003 -0.007,0.005 -0.001,0.004 -0.002,0.008 -0.003,0.0124 0.005,-0.001 0.0107,-0.002 0.016,-0.003 5.3e-4,-0.004 5.3e-4,-0.009 0.002,-0.0129 -0.003,-7e-5 -0.005,-4e-5 -0.008,0 z m -0.6103,0.62684 c -0.0258,2.6e-4 -0.0517,-2.7e-4 -0.0775,5.3e-4 -0.001,0.004 -0.002,0.008 -0.004,0.0124 0.0215,-0.003 0.0431,-0.006 0.0646,-0.009 0.006,-0.001 0.0116,-0.002 0.0171,-0.003 z m -2.03915,0.25786 v 5.3e-4 c -7.9e-4,0.007 -0.002,0.014 -0.003,0.0212 0.002,0.005 0.004,0.0105 0.007,0.015 0.005,-7.9e-4 0.0113,-2.6e-4 0.0165,-0.002 -0.003,-0.0152 -0.008,-0.0291 -0.0191,-0.0341 -1.4e-4,-8e-5 -5.3e-4,-5.3e-4 -0.001,-5.3e-4 z m -0.97617,0.64337 c -0.002,-0.003 -0.0103,-0.002 -0.0139,5.3e-4 -0.0225,0.0169 -0.0225,0.0159 -0.0367,0.0253 0.006,0.008 0.012,0.0163 0.0212,0.0181 0.008,0.002 0.008,0.002 0.0155,0.003 0.005,-0.0145 0.008,-0.0207 0.0124,-0.0377 -0.009,-9e-5 -0.0173,-0.001 -0.0124,-0.001 0.004,-5e-5 0.008,-0.002 0.0124,-0.002 8e-4,-0.003 -10e-4,-0.003 0.002,-0.006 z m 0.0191,0.003 c -0.005,7.9e-4 -0.0114,0.002 -0.0165,0.003 -2.7e-4,0.001 -8e-4,0.002 -0.001,0.003 0.009,9e-5 0.0177,10e-4 0.0176,-0.006 z m -0.0775,0.0284 c -0.0529,0.0344 -0.066,0.0387 -0.0739,0.0915 0.0341,-0.009 0.0666,-0.018 0.10077,-0.0269 l 5.3e-4,-5.3e-4 c -0.0112,-0.0273 -0.0208,-0.0479 -0.0274,-0.0641 z m -0.13695,0.31213 v 0.0393 l 0.006,-0.006 c 0.005,-0.003 0.0101,-0.006 0.015,-0.009 -0.01,-0.008 -0.0133,-0.0161 -0.0207,-0.0243 z m 1.98283,0.33486 c -0.003,0.002 -0.009,0.003 -0.01,0.007 -0.001,0.003 0.008,8e-4 0.009,-0.003 7.9e-4,-0.001 0.002,-0.003 0.003,-0.004 0,1e-5 -7.9e-4,0 -0.002,0 z m -1.97921,0.13126 -5.3e-4,0.001 v 3.44991 c 0.0425,0.006 0.0842,0.0152 0.12558,0.031 0.0116,-0.0136 0.0289,-0.0222 0.0434,-0.0341 -0.18964,-0.004 -0.22004,-0.22136 0.0181,-0.29352 0.0739,-0.0224 0.14941,-0.0436 0.22583,-0.0553 0.19163,-0.0294 -8e-4,0.003 0.13177,-0.0119 0.0164,-0.001 0.0328,-0.005 0.0491,-0.008 0.0359,-0.009 0.0718,-0.0133 0.10801,-0.0119 0.005,-0.0153 0.002,-0.002 0.0522,-0.0155 0.0301,-0.007 0.062,-0.0115 0.092,-0.0124 l 5.3e-4,0.001 c 0.0305,-8e-4 0.0613,2.6e-4 0.092,0.004 0.11011,0.0195 -0.027,0.003 0.0129,5.2e-4 0.005,-2.3e-4 0.0105,1.7e-4 0.0155,-5.2e-4 0.0308,5.2e-4 0.0617,6e-5 0.0925,0 0.0137,-8e-5 0.0261,-3e-5 0.0398,0 0.0266,-2.6e-4 0.0425,0.004 0.062,0.0119 0.0115,0.003 0.0238,0.008 0.0341,0.009 0.0122,0.002 0.025,0.004 0.0372,0.005 0.0231,0.004 0.0477,-2.7e-4 0.0708,5.3e-4 0.0204,0.001 0.0407,0.004 0.061,0.006 0.0563,0.012 0.11396,0.004 0.17105,0.003 0.0662,8e-4 0.13274,10e-4 0.19896,10e-4 0.0426,0 0.045,0.001 0.0956,0.008 0.0133,0.003 0.0241,0.009 0.0372,0.0114 0.002,0 0.004,-0.003 0.006,-0.003 0.005,-8e-4 0.011,2.6e-4 0.016,-5.3e-4 0.0157,-3e-5 0.0301,-2.7e-4 0.046,-0.001 0.0504,0 0.10206,-0.007 0.15245,-0.002 0.0203,0.002 0.0412,0.005 0.0615,0.008 0.0133,0.003 0.0269,0.006 0.0403,0.007 0.0163,0.002 0.0647,5.3e-4 0.0832,5.3e-4 0.0458,-0.001 0.0916,-0.003 0.13746,-0.004 0.0631,9e-5 0.12537,0.01 0.1881,0.016 0.0106,-2.6e-4 0.0204,2.2e-4 0.031,-5.3e-4 0.0808,-0.005 0.16158,-0.003 0.24236,-0.002 0.0298,0 0.0163,10e-4 0.0708,0.008 0.0119,0.002 0.0221,0.006 0.0341,0.007 0.0361,0.004 0.0794,2.3e-4 0.11472,-5.3e-4 0.0669,-0.003 0.13403,-5.3e-4 0.20102,-5.3e-4 0.0783,-7e-5 0.15632,-7e-5 0.23461,0 0.0588,9e-5 0.11795,0 0.17674,0 0.0325,0 0.0281,-8e-4 0.077,0.0103 0.0109,0.002 0.02,0.008 0.031,0.0103 0.002,0.001 -0.001,-0.004 0,-0.004 0.004,-0.002 0.009,2.7e-4 0.0129,-5.3e-4 0.009,-6e-5 0.0176,-5.2e-4 0.0269,-10e-4 0.0573,-0.004 0.11466,-5.3e-4 0.17208,-5.3e-4 0.0344,0 0.0461,-0.002 0.0863,0.0103 0.0168,0.005 0.0318,0.0162 0.0486,0.0212 0.0105,0.003 -0.0185,-0.008 -0.0274,-0.0155 -0.003,-0.002 0.005,1.4e-4 0.008,-5.3e-4 0.006,-2.2e-4 0.0126,-5.3e-4 0.0186,-0.001 0.065,-0.006 0.13014,8e-4 0.19482,0.006 0.0452,0.008 0.0398,0.007 0.0863,0.0186 0.009,0.002 0.0184,0.006 0.0274,0.007 l -0.003,-0.003 c -0.002,-7.9e-4 -0.006,0.002 -0.006,-5.3e-4 0,-10e-4 0.002,-5.3e-4 0.003,-5.3e-4 0.0362,-0.003 0.0694,-0.004 0.10541,-0.003 0.006,9e-5 0.0116,2.6e-4 0.0176,0.001 0.0196,0.003 0.0389,0.007 0.0584,0.0119 0.011,0.004 0.0221,0.01 0.0336,0.0124 0.007,0.002 -0.0136,-0.005 -0.0186,-0.009 -0.001,-7.9e-4 0.003,-5.3e-4 0.004,-5.3e-4 0.0185,0.002 0.0369,0.004 0.0553,0.006 0.0574,0.007 0.0126,0.005 0.0522,0.006 0.0308,-0.002 0.0616,-0.003 0.0925,-0.003 0.0294,-2.3e-4 0.0553,0.006 0.0832,0.0124 v 5.3e-4 c -0.009,-0.001 -0.018,-2.6e-4 -0.0434,0.005 -0.003,0.001 -0.01,0.004 -0.009,0.003 0.0266,-0.006 0.0401,-0.006 0.0558,-0.008 0.005,0.001 0.01,-0.001 0.015,0.002 0.004,-5e-5 0.006,-0.002 0.0119,-0.002 0.0187,0.001 0.0375,4e-5 0.0563,0 h 0.0176 c 0.28826,0 0.28826,0.29146 0,0.29146 h -0.016 c -0.0143,4e-5 -0.0286,-5.3e-4 -0.0429,-5.3e-4 0.0171,0.0173 0.0308,0.0377 0.0398,0.0646 0.0222,0.003 0.0455,0.003 0.0677,0.006 0.097,0.0203 0.17046,0.0319 0.2067,0.14521 5.3e-4,4e-5 0.002,5.3e-4 0.003,5.3e-4 0.0149,0.002 0.0374,-0.007 0.0434,0.006 0.0247,0.0524 0.0513,0.10546 0.0749,0.15916 0.0202,0.001 0.0403,0.001 0.0605,0.003 l -0.003,-3.47524 c -0.10311,0.0285 -0.21014,0.0214 -0.31161,-0.017 0.003,0.005 0.007,0.007 0.009,0.0124 0.003,-2.6e-4 0.005,-0.002 0.008,-0.002 0.0175,7.9e-4 0.0199,0.0129 0.0155,0.0279 0.0149,0.0164 0.028,0.0277 0.0434,0.0491 0.007,0.01 -0.009,0.0223 -0.0129,0.0336 -0.002,0.007 0.006,-0.0139 0.009,-0.0212 0.001,-0.003 0.006,-0.0149 0.003,-0.0119 -0.0229,0.0239 -0.0441,0.0485 -0.0656,0.0739 -0.0159,0.0456 -0.0575,0.0916 -0.0992,0.10594 -0.009,0.003 -0.0183,0.002 -0.0274,0.004 h 0.0233 0.0584 c 0.24021,0 0.24021,0.24288 0,0.24288 h -0.0584 -0.0703 -0.10025 -0.0739 -0.0186 c -0.0116,0.002 -0.0208,0.002 -0.0424,0.002 h -0.0367 -0.0713 -0.0992 -0.21085 -0.12815 -0.12041 -0.11265 -0.005 -0.22118 -0.11265 -0.077 c -0.0621,3e-5 -0.12394,1.2e-4 -0.18603,0 -0.0821,0 -0.1644,7.9e-4 -0.2465,0 -0.0422,-0.001 -8e-4,2.6e-4 -0.0522,-5.3e-4 -0.003,-9e-5 -0.0104,0.002 -0.0104,-5.3e-4 0.0158,-0.011 0.0675,-0.0329 0.0491,-0.0279 -0.18471,0.0528 0.0318,0.0176 -0.0987,0.0362 -0.0437,-0.002 -0.0914,-0.003 -0.13126,-0.0227 -0.002,-0.001 -2.6e-4,-0.006 -0.003,-0.007 -0.007,-0.003 -0.0157,0.005 -0.0217,0 h -0.093 c -0.0503,-3e-5 -0.10059,1e-5 -0.15089,0 -0.0558,0 -0.11165,-2.1e-4 -0.16743,0 -0.031,0 -0.0621,0.001 -0.093,-0.002 -0.055,2.2e-4 -0.10417,0.0192 -0.15606,-0.0176 0.004,-0.001 0.0155,-0.005 0.0124,-0.006 -0.0338,-0.007 -0.0858,0.005 -0.12196,0 h -0.11937 -0.12816 -0.0739 c -0.0183,0 -0.0383,2e-5 -0.0548,0 -0.0776,3e-5 -0.15499,1.8e-4 -0.23255,0 -0.04,-2.5e-4 -0.08,5.3e-4 -0.11989,5.3e-4 -0.0453,-0.001 -0.0906,-0.005 -0.13591,-0.002 -0.0922,0.0149 -0.17677,-0.01 -0.26768,-0.0217 -0.0127,-0.004 -0.0249,-0.007 -0.0372,-0.0124 -0.001,-0.001 -0.004,-0.002 -0.003,-0.003 0.002,-0.002 0.0135,-0.003 0.009,-0.003 -0.037,-0.006 -0.0844,0.004 -0.1142,-0.0274 0.0226,-0.011 0.002,-0.001 -0.006,-0.005 -0.002,-0.002 0.0184,-0.006 0.008,-0.006 -0.006,0 -0.0126,0.005 -0.0186,0.006 -0.0535,0.012 -0.0392,0.008 -0.0987,-0.003 -0.0108,-0.007 -0.0201,-0.0126 -0.0305,-0.0186 0.008,0.003 0.0457,0.0204 0.0248,-5.3e-4 -0.007,-0.005 -0.0168,0 -0.0248,0 h -0.003 c -5.3e-4,-2.6e-4 -5.3e-4,9e-5 -0.002,-5.3e-4 -5.3e-4,-2.6e-4 -2.7e-4,2.6e-4 -0.002,-5.3e-4 h -0.14676 l -5.3e-4,0.002 c -0.11282,0 -0.17092,-0.0538 -0.17777,-0.11059 -0.15909,0.0125 -0.20054,-0.12849 -0.0982,-0.20257 -0.001,-5.3e-4 -0.006,-0.002 -0.006,-0.002 -0.005,-0.005 -0.008,-0.0105 -0.0124,-0.0155 h 0.001 c 1.2e-4,-1.1e-4 -0.001,-2.7e-4 0.002,-0.002 -0.002,5.3e-4 -0.003,8e-4 -0.005,0.001 v 5.3e-4 c -8e-4,-1e-5 -0.002,0 -0.003,0 -5.3e-4,-7.9e-4 0.001,-0.002 -0.002,-0.003 0.001,9e-5 0.002,5.3e-4 0.004,5.3e-4 -0.003,-0.003 -0.006,-0.007 -0.008,-0.0103 l -5.3e-4,0.001 v 5.3e-4 c 0.001,0.003 0.002,0.005 0.004,0.008 -0.0151,-0.001 -0.0301,-0.002 -0.0408,-0.0119 -0.0317,-0.0285 -0.10612,-0.12712 -0.0698,-0.10749 0.0451,0.0233 0.0724,0.0695 0.10542,0.10904 -0.035,-0.0812 -0.0886,-0.1578 -0.0966,-0.24546 -0.001,-0.0152 0.0231,-0.0229 0.0517,-0.0284 0.001,0.0191 0.003,0.0339 0.007,0.0222 0.002,-0.008 5.3e-4,-0.0161 0.001,-0.0243 0.0187,-0.003 0.0299,-0.002 0.046,-0.003 -0.002,-0.0255 -0.005,-0.051 -0.006,-0.0765 -0.008,-0.005 -0.0161,-0.008 -0.0238,-0.0129 -0.005,0.006 -0.01,0.0113 -0.0134,0.0176 5.3e-4,-0.008 0.002,-0.0151 0.005,-0.0222 -0.0136,-0.008 -0.0265,-0.0136 -0.0403,-0.0212 0.003,-0.0125 0.006,-0.0245 0.008,-0.0372 -0.0552,-5.3e-4 -0.1044,5.2e-4 -0.15658,-0.002 z m 0.18139,0.0873 h 5.2e-4 c -7.9e-4,0.0234 -1.6e-4,0.0474 -0.002,0.0713 -0.003,5.2e-4 -0.005,0.002 -0.008,0.002 -0.001,-0.0148 -0.002,-0.0316 -0.002,-0.0408 -2.3e-4,-0.011 0.006,-0.0208 0.0114,-0.031 z m 3.67471,0.003 c -0.002,0.001 -0.008,0.005 -0.0114,0.007 -1.4e-4,0.002 -0.003,0.01 -0.003,0.0119 0.007,-0.002 0.0145,-0.004 0.0217,-0.006 v -5.3e-4 c -7.9e-4,-0.007 -0.003,-0.0105 -0.007,-0.0119 z m -0.0362,0.11266 v 0.001 c 0.0171,1e-5 0.0351,5.3e-4 0.0522,5.3e-4 v -5.3e-4 c -0.0171,1e-4 -0.0351,-0.001 -0.0522,-0.001 z m -3.58944,0.0403 c -0.005,0.0113 -0.008,0.0205 -0.0124,0.031 0.007,-0.008 0.01,-0.0117 0.0155,-0.0186 -5.2e-4,-0.004 -5.2e-4,-0.008 -10e-4,-0.0124 z m -0.005,0.1943 v 5.3e-4 c 0.002,0.002 0.005,0.003 0.006,0.005 2.6e-4,5.3e-4 0.002,5.3e-4 0.002,0.001 -2.4e-4,1e-4 -7.9e-4,-6e-5 -0.001,0 v 5.3e-4 h 5.3e-4 5.2e-4 c 0.002,-5.3e-4 0.005,-10e-4 0.007,-0.002 -0.01,-0.004 -0.0135,-0.005 -0.015,-0.005 z m 1.86707,0.0548 c -0.004,0.007 -0.008,0.0127 -0.0124,0.0191 h 0.0124 c -5.3e-4,-0.007 2.5e-4,-0.0125 0,-0.0191 z m -0.90589,2.57556 c 0.001,5.2e-4 0.002,-10e-4 0.004,0.002 l -0.002,-0.002 c -2.6e-4,-6e-5 -2.6e-4,9e-5 -0.002,0 z m -0.16846,0.23306 v 5.3e-4 c 0.002,0.003 0.004,0.006 0.007,0.008 0.002,2.6e-4 0.004,-3e-5 0.006,5.3e-4 -0.005,-0.004 -0.009,-0.006 -0.0129,-0.009 z m 0.91984,0.0899 v 5.3e-4 5.3e-4 c 0.006,-2.3e-4 0.0126,-5e-5 0.0186,-5.3e-4 -0.006,2.3e-4 -0.0126,-5.3e-4 -0.0186,-5.3e-4 z m 2.10271,0.5333 c -0.0173,-0.001 -0.0291,0.005 -0.0367,0.0119 0.0166,5e-5 0.0331,-0.001 0.0496,-0.001 5.3e-4,-0.002 2.6e-4,-0.003 0.002,-0.005 -0.005,-7.9e-4 -0.0107,-0.005 -0.015,-0.005 z m -3.33468,0.41548 c -5.3e-4,2.5e-4 -0.001,8e-4 -0.002,10e-4 5.3e-4,-10e-6 0.001,0 0.002,0 z m 0,10e-4 h 0.002 v -10e-4 c -5.3e-4,2.5e-4 -2.7e-4,8e-4 -0.002,10e-4 z m 0.002,0 c 7.9e-4,-10e-6 1.4e-4,0 0.002,0 v -10e-4 c -7.9e-4,2.5e-4 -1e-4,8e-4 -0.002,10e-4 z m 0.002,0 c 8e-4,-2e-5 0.002,4e-5 0.003,0 v -10e-4 c -7.9e-4,1.4e-4 -0.002,8e-4 -0.003,10e-4 z m 0.003,0 c 7.9e-4,-5e-5 0.002,8e-5 0.003,0 v -10e-4 c -8e-4,1.2e-4 -0.002,8e-4 -0.003,10e-4 z m -0.0114,0 c -0.003,9e-5 -0.004,-10e-6 -0.007,5.3e-4 2.6e-4,10e-4 -1.4e-4,0.002 5.3e-4,0.003 0.003,-8e-4 0.004,-0.002 0.006,-0.003 z m 4.63383,0.98185 c 0.002,0.006 0.003,0.008 0.006,0.0134 0.004,5.3e-4 0.007,0.001 0.0108,0.002 -0.005,-0.005 -0.0119,-0.01 -0.0165,-0.0155 z m 0.0832,0.0775 c -0.0106,0.005 -0.0206,0.0108 -0.0315,0.016 -0.003,0.001 -0.006,0.002 -0.009,0.004 0.01,0.0229 0.0184,0.0421 0.0274,0.0625 0.0109,0.008 0.0159,0.0219 0.0176,0.0403 0.0205,0.0458 0.0425,0.0973 0.0589,0.13126 v -0.18965 c -0.0194,-0.0222 -0.0394,-0.0442 -0.063,-0.0646 z m -5.39192,1.84174 v 5.3e-4 c -5.3e-4,0.001 -2.7e-4,0.003 -0.002,0.005 -5.3e-4,8e-4 -7e-5,-0.002 0,-0.004 -0.0179,0.004 -0.0213,0.005 -0.0367,0.009 v 0.0543 c 0.0111,2.6e-4 0.0218,0.001 0.0336,0.002 1e-5,-0.0203 -7.9e-4,-0.0412 0.001,-0.0491 0.002,-0.006 0.004,-0.0121 0.005,-0.0181 -2.3e-4,6e-5 -5.3e-4,-1.3e-4 -0.001,0 z m 0.0248,0.007 c -2.5e-4,0.008 -0.002,0.0122 -0.002,0.0217 0.002,0.006 0.006,0.0105 0.0129,0.0124 0.0111,0.003 0.0225,0.006 0.0336,0.009 z m 0.74518,0.19379 c -0.001,0.003 -0.003,0.005 -0.004,0.007 0.003,3e-5 0.0101,7e-5 0.0124,0 0.0154,-8e-4 0.0312,-0.002 0.0465,-0.003 -1.8e-4,-7.9e-4 -7.9e-4,-2.6e-4 -0.001,-0.002 -0.0179,-7.9e-4 -0.0343,5.3e-4 -0.0522,-0.002 z m 2.56418,0.36328 c -0.008,0.007 -0.0161,0.0122 -0.0238,0.0186 0.002,0.0103 0.005,0.0202 0.007,0.0305 0.009,-5.3e-4 0.0183,-2.7e-4 0.0274,-0.002 -0.003,-0.0162 -0.008,-0.0306 -0.0103,-0.0465 z m 2.08979,0.77515 v 5.3e-4 c 0.0144,0.0149 0.0182,0.0175 0.031,0.0305 v -0.009 c -0.0103,-0.007 -0.0215,-0.0137 -0.031,-0.0217 z m -4.5005,0.68471 v 5.3e-4 c 5.3e-4,-2e-4 2.7e-4,5e-5 0.002,-5.3e-4 -2.6e-4,-3e-5 -2.6e-4,6e-5 -0.002,0 z m -0.95911,0.23254 -0.002,5.3e-4 v 1.55236 c 0.0432,-0.0389 0.10605,-0.063 0.18759,-0.0584 0.0439,0.002 0.0925,0.0136 0.14573,0.0341 0.0201,0.008 0.0412,0.0109 0.062,0.0155 0.0358,-0.043 0.0924,-0.077 0.1726,-0.0889 0.0441,-0.006 0.0944,-0.007 0.15089,0.002 0.0572,0.008 0.0591,0.007 0.12816,0.031 0.0188,0.007 0.0363,0.0173 0.0548,0.0243 0.0125,0.005 0.025,0.008 0.0377,0.0124 0.054,0.0179 0.0273,0.012 0.0713,0.0202 0.007,-0.007 0.0861,0.0192 0.10387,0.0222 0.001,0.001 -0.002,-0.003 -0.004,-0.003 -0.005,-0.002 -0.0174,-0.002 -0.0124,-0.002 l 0.0677,0.006 c 0.0129,0.002 0.0278,0.004 0.0403,0.008 0.0188,0.006 0.0373,0.0132 0.0553,0.0217 0.0394,0.006 0.0649,0.0145 0.11524,0.0491 0.0135,0.009 0.0158,0.0141 0.0212,0.0186 0.01,0.003 0.0183,0.005 0.0279,0.008 0.0271,0.008 0.0434,0.0207 0.0589,0.03 0.008,5.3e-4 0.0142,-5.3e-4 0.0217,0.003 0.01,0.002 0.018,0.005 0.0217,0.008 1.8e-4,0.002 1e-4,0.003 -0.005,0.005 0.003,0.001 0.002,-1.9e-4 0.005,0.002 5.3e-4,5.3e-4 0.002,0.002 0.002,0.003 0.005,-10e-4 0.0103,-0.003 0.0155,-0.004 h 5.3e-4 c -5.3e-4,-0.003 -0.002,-0.007 0.0956,0.031 0.002,7.9e-4 0.003,0.002 0.005,0.003 0.0112,0.002 0.0224,0.002 0.0336,0.004 0.0134,0.002 0.0327,0.006 0.0522,0.009 0.0505,0.004 0.10055,0.008 0.14987,0.0186 0.0514,-0.001 0.10317,10e-4 0.15347,0.0124 0.0361,0.002 0.0455,0.004 0.0651,0.008 -0.006,5.3e-4 -0.0174,5.3e-4 -0.0129,5.3e-4 0.0157,2.5e-4 0.0135,1e-4 0.0186,0 0.004,7.9e-4 0.006,-2.7e-4 0.0103,5.3e-4 h 0.003 c 0.001,1e-5 0.003,5.3e-4 0.005,0.001 5.3e-4,-4e-5 0.002,5e-5 0.003,0 v 5.3e-4 h 5.3e-4 10e-4 c 0.006,-5.3e-4 0.0357,0.003 0.0434,0.006 0.029,1.8e-4 0.0584,0.004 0.0863,0.0124 0.004,1.8e-4 0.008,5.3e-4 0.0119,0.001 0.007,0.002 0.0142,0.003 0.0212,0.006 0.005,0.001 -0.008,-0.004 -0.0124,-0.005 -0.001,-2e-4 -0.002,-3e-5 -0.003,-5.3e-4 0.0168,8e-4 0.0331,0.002 0.0501,0.003 0.021,0.002 0.0422,0.004 0.0636,0.005 0.0154,10e-4 0.0311,0.002 0.0465,0.002 0.0571,0.001 -0.11506,0.005 0.0305,-0.003 0.0133,-7.9e-4 0.027,-2e-5 0.0403,-5.3e-4 0.0234,-0.001 0.0474,-2.6e-4 0.0708,5.3e-4 0.001,3e-5 0.002,0 0.004,0 0.0437,-5.3e-4 0.0881,-7.9e-4 0.13177,-5.3e-4 -0.002,-1e-5 -0.0175,-2.6e-4 -0.0155,5.3e-4 0.0244,0.005 0.0494,0.008 0.0739,0.0124 0.0738,3e-5 0.14783,8e-5 0.2217,0 v -5.3e-4 c 7e-5,-7.9e-4 0.003,-2.6e-4 0.003,-0.002 h 5.3e-4 5.3e-4 0.007 c 0.008,-0.003 0.0194,-0.005 0.0207,0.003 0.004,0 0.008,2e-5 0.0124,0 0.005,0 0.009,2e-5 0.015,0 0.005,0 0.0152,-0.005 0.0155,0 5e-5,7.9e-4 5.3e-4,2.6e-4 5.3e-4,0.002 0.0516,10e-4 0.0453,0.0326 0.0279,0.1235 0.0162,1.4e-4 0.0329,-7e-5 0.0491,0 0.083,-2e-4 0.16505,-5.3e-4 0.24805,-5.3e-4 0.002,0 0.005,0.001 0.007,0 0.002,-0.002 0.002,-0.006 0.004,-0.007 0.0276,-0.01 0.12062,-0.0254 0.13591,-0.0274 0.12433,-0.0195 -0.0121,0.006 0.108,-0.0176 0.0565,-0.0127 0.048,-0.0115 0.12971,-0.0155 0.0195,-0.001 0.0394,5.3e-4 0.0589,5.3e-4 0.0371,-0.001 0.0742,-0.006 0.11111,-0.009 0.027,-0.002 0.0539,-0.007 0.0801,-0.015 0.005,-0.001 0.008,-0.003 0.0124,-0.004 l 0.0739,-0.009 c 0.0215,5.3e-4 0.0302,0.002 0.0408,0.003 0.002,-0.001 0.003,-0.002 0.0119,-0.004 0.0259,-0.005 0.0515,-0.009 0.0775,-0.0134 0.0359,-0.005 0.0726,-0.005 0.10904,-0.006 h 5.3e-4 c 0.0179,-2.5e-4 0.0362,-0.005 0.0543,-0.003 0.0127,0.002 -0.0255,-0.002 -0.0382,-5.3e-4 0.008,-0.002 0.0151,-0.004 0.0227,-0.006 0.0436,-0.005 0.0346,-0.006 0.0796,-0.003 0.007,0 0.0214,0.009 0.0212,0.002 -2.6e-4,-0.007 -0.0251,-0.001 -0.0212,-0.005 0.005,-0.008 0.0175,-0.004 0.0264,-0.005 0.023,-0.003 0.0477,-0.007 0.0708,-0.01 0.0744,-0.0103 0.14846,-0.0216 0.22376,-0.0217 0.007,0 0.0296,-7.9e-4 0.0491,0.003 0.004,-0.001 0.0116,-0.005 0.0114,-0.005 -0.002,0.002 -0.005,0.003 -0.007,0.005 0.009,5.3e-4 0.0173,7.9e-4 0.0217,0.001 0.0476,0.003 -0.005,-7.9e-4 -0.0279,0.003 -0.0323,0.0241 -0.0676,0.0448 -0.10129,0.0672 -10e-4,0.002 -0.006,0.007 -0.004,0.006 0.0618,-0.0325 0.12015,-0.0717 0.18397,-0.10025 0.0204,-0.01 0.0767,0.004 0.1018,0.001 0.005,-0.001 0.009,-0.003 0.015,-0.005 0.0122,-0.002 0.024,-0.004 0.0362,-0.005 0.002,-1.4e-4 0.0185,5.2e-4 0.0269,-0.002 -10e-4,-0.0554 0.002,-0.0744 0.006,-0.0734 l 5.3e-4,-5.3e-4 c 0.005,0.006 0.011,0.031 0.0181,0.0708 -0.009,5.3e-4 -0.0149,-5.3e-4 -0.0212,0.002 1.2e-4,0.005 -7.9e-4,0.004 -5.3e-4,0.009 0.002,0.0914 0.002,0.18301 0.005,0.2744 0.0196,-0.002 0.0392,-0.007 0.0589,-0.007 0.002,0 0.003,5.3e-4 0.005,5.3e-4 -0.0162,-0.10136 -0.0331,-0.21044 -0.046,-0.27854 v -5.3e-4 c 0.0468,-0.004 0.1054,-0.007 0.10749,0.008 0.0148,0.0923 0.0128,0.18582 0.008,0.27957 0.0889,0.0141 0.17505,0.0521 0.2527,0.11627 v -1.14515 c -0.0861,0.0717 -0.18319,0.11122 -0.28216,0.12299 0.004,0.0455 -0.0454,0.0993 -0.0951,0.12299 -0.001,0.0117 -0.005,0.0254 -0.005,0.0372 -0.0355,0.0297 -0.0684,0.0631 -0.10645,0.0894 0.0504,0.0407 0.055,0.10104 0.009,0.14572 5.3e-4,0.0162 -0.001,0.0328 0.002,0.0491 -0.10958,0.0959 -0.0819,0.10997 -0.17208,0.10593 -0.0357,0 -0.0709,-0.001 -0.10594,-0.004 -0.0254,0.008 -0.0522,0.0149 -0.077,0.0243 0.001,1.5e-4 0.002,5.3e-4 0.003,0.001 -0.001,6e-5 -0.006,5.3e-4 -0.004,0 l 0.001,-0.001 c -0.0125,-0.002 -0.0209,-0.002 -0.0279,-0.004 -0.0157,0.0239 -0.0261,0.031 -0.0615,0.031 h -0.15038 -0.0925 -0.092 -0.20825 -0.1695 -0.21394 -0.13798 -0.12247 -0.13797 -0.18759 -0.11576 -0.20205 c -0.0865,-2.6e-4 -0.14169,-0.0327 -0.16537,-0.0734 -0.0286,0 -0.0577,6e-5 -0.0863,0 -0.0483,-1.2e-4 -0.0959,-1.8e-4 -0.14418,5.3e-4 -0.0167,-1.2e-4 -0.0829,0.003 -0.0248,-0.0119 -0.0369,0.0132 -0.0706,0.0208 -0.11007,0.0119 -0.0156,-0.004 -0.0312,-0.009 -0.046,-0.0155 -0.005,-0.001 -0.0164,-0.004 -0.0124,-0.007 0.006,-0.005 0.0137,2.7e-4 0.0217,-5.2e-4 -0.0165,-8e-4 -0.0193,5.2e-4 -0.0341,-0.002 l -5.3e-4,0.001 c -0.002,-1.7e-4 -0.002,2e-4 -0.004,0 -8e-4,0 5.3e-4,-0.001 -0.002,-0.001 -0.007,0.003 -0.0147,-5.3e-4 -0.0217,0.002 -0.0145,0.0192 -0.0293,0.0387 -0.0491,0.0522 -0.0171,0.0121 -0.0665,-0.002 -0.0925,-0.007 0.0629,0.0244 -0.0933,-0.0699 -0.12247,-0.1111 -0.004,-0.006 -0.003,-0.0146 -0.002,-0.0217 2.5e-4,5.3e-4 -0.0192,-0.007 -0.0124,-0.004 -0.0156,-0.0106 -0.049,-0.0118 -0.047,-0.0305 5e-5,-5.3e-4 -4e-5,0.001 0,-0.002 -0.0459,-0.019 -0.10208,-0.0466 -0.13177,-0.0615 l -5.3e-4,5.3e-4 c -0.0952,-0.0476 -0.12205,-0.11495 -0.10904,-0.16795 -0.0341,-0.009 -0.0686,-0.019 -0.10801,-0.0372 -0.004,-5.3e-4 -0.009,10e-4 -0.0119,-0.002 -0.0138,-0.008 -0.0266,-0.0141 -0.0403,-0.0217 0.008,0.002 0.0204,0.003 0.0155,0.003 -0.006,-0.002 -0.012,-0.003 -0.0186,-0.005 -5.3e-4,-2.2e-4 -2.6e-4,1.6e-4 -0.002,-5.3e-4 -0.0112,-0.002 -0.022,-0.004 -0.0336,-0.007 -0.0959,0.007 -0.0982,-0.0107 -0.16691,-0.0615 -0.0279,-0.0207 -0.0575,-0.0413 -0.0858,-0.0615 l -5.2e-4,-10e-4 c -0.0787,-0.0562 -0.10096,-0.12024 -0.0894,-0.1695 -0.0173,-0.004 -0.0305,-0.009 -0.0615,-0.0103 -0.0215,-0.0181 -0.0427,-0.0373 -0.0641,-0.0553 -0.0103,-0.004 -0.021,-0.008 -0.031,-0.0124 -0.0491,0.011 -0.0722,-0.0139 -0.1235,-0.0651 l -0.0615,-0.0615 5.2e-4,-0.001 c -0.0238,-0.0238 -0.0383,-0.0474 -0.0496,-0.0703 -0.0562,-0.0218 -0.0948,-0.0521 -0.10904,-0.0868 -0.1187,-0.0308 -0.15723,-0.11149 -0.12764,-0.17105 7.9e-4,-0.004 -8e-4,-0.008 5.3e-4,-0.0124 -0.01,1.6e-4 -0.0182,-9e-5 -0.0279,0 l 10e-4,0.003 c -0.21074,0.003 -0.236,-0.18169 -0.077,-0.23047 -7.9e-4,-10e-4 -2.6e-4,-0.002 -0.002,-0.003 -0.0103,-0.003 -0.0207,-0.005 -0.031,-0.008 -0.0162,-0.004 -0.0341,-0.006 -0.0491,-0.0145 -0.01,-0.005 -0.0185,-0.0109 -0.0279,-0.0165 -0.007,-10e-4 -0.009,-2.7e-4 -0.0129,-0.002 -0.0301,-0.009 -0.0676,-0.008 -0.0868,-0.0336 -0.0182,-0.0236 -0.0406,-0.0512 -0.0615,-0.0775 z m 0.047,0.0424 -5.3e-4,5.3e-4 v 5.3e-4 c -0.0179,-0.006 0.037,0.031 0.0563,0.0465 0.009,0.002 0.0183,0.005 0.0274,0.007 5.3e-4,-2.2e-4 0.005,5.3e-4 0.006,-0.002 -0.0293,-0.0187 -0.0576,-0.0383 -0.0894,-0.0522 z m 0.0925,0.0568 v 5.3e-4 c 0,1.5e-4 -5.3e-4,-9e-5 0.002,0 -5.3e-4,-2.1e-4 5.3e-4,-5.3e-4 -0.002,-5.3e-4 z m 0.002,5.3e-4 v 0.001 h 5.3e-4 c -2.6e-4,-1.9e-4 -9e-5,-0.001 -5.3e-4,-0.001 z m 0.63872,0.59273 v 5.3e-4 5.3e-4 5.3e-4 c -0.01,0.002 -0.0185,0.003 -0.0274,0.007 -0.015,0.006 -0.0167,0.0555 -0.007,0.0465 0.0218,-0.0143 0.0397,-0.0341 0.0584,-0.0522 -0.008,-8e-4 -0.0167,-0.002 -0.0243,-0.003 z m 3.7729,0.0496 -5.3e-4,5.3e-4 -0.001,5.3e-4 v 5.3e-4 c 0.0165,0.0101 0.0352,0.0197 0.0527,0.0279 h 0.0134 c -7.9e-4,-0.002 -0.001,-0.004 -0.002,-0.005 -0.0153,-0.006 -0.0305,-0.0131 -0.062,-0.0243 z m -3.69021,0.10749 v 5.3e-4 c 0.002,0.002 0.003,0.005 0.005,0.005 5.3e-4,2.2e-4 2.7e-4,4e-5 0.002,5.3e-4 -0.002,-0.002 -0.005,-0.004 -0.007,-0.006 z m 0.65887,0.37724 c 0.001,0.003 0.002,0.005 0.004,0.008 -5.3e-4,-0.003 -0.003,-0.006 -0.003,-0.008 z m 0.005,0.009 0.003,0.006 c -2.5e-4,-0.002 -0.002,-0.004 -0.002,-0.006 z m 0.006,0.0134 c 5.3e-4,0.005 -7e-5,0.0111 0.004,0.0134 0.001,8e-4 0.002,-5.3e-4 0.003,0.002 -0.002,-0.005 -0.004,-0.01 -0.007,-0.0155 z m 0.48008,0.22945 -0.002,0.002 c 0.005,0.004 0.0105,0.008 0.015,0.0119 -7.9e-4,-0.002 -0.002,-0.004 -0.003,-0.007 -0.003,-0.002 -0.006,-0.005 -0.009,-0.007 z m 0.60616,0.0455 c -5e-5,2.6e-4 5e-5,7.9e-4 0,0.001 5.3e-4,-2.5e-4 -0.001,-5.3e-4 0.002,-0.001 -5.2e-4,4e-5 -0.002,0 -0.002,0 z m -0.59738,0.0165 c -0.0121,0.004 -0.0242,0.008 -0.0367,0.0114 0.0143,0.0191 0.0239,0.0279 0.0367,0.0429 0.0158,-0.008 0.0191,-0.0276 0.0155,-0.0522 -0.006,-2.6e-4 -0.0158,2.7e-4 -0.0155,-5.3e-4 z m 2.75487,0.0486 -5.3e-4,5.3e-4 -0.001,0.001 c 0.001,0.0256 0.008,0.0379 0.0217,0.0346 0.005,-0.0119 0.01,-0.0222 0.0212,-0.0248 0.004,-0.001 0.006,0.002 0.006,0.005 0.004,-0.004 0.008,-0.0107 0.0124,-0.015 -0.004,5e-5 -0.008,-1.3e-4 -0.0119,0 -0.0153,0 -0.0313,-0.001 -0.047,-0.001 z m -2.63188,0.0455 c -0.001,5.3e-4 -0.003,-0.001 -0.004,0.002 l -5.3e-4,5.3e-4 c -2e-5,5.3e-4 2.7e-4,0.002 -5.2e-4,0.003 z m -0.69763,0.0739 c -7.9e-4,1.9e-4 -0.002,5.2e-4 -0.003,5.2e-4 5.3e-4,1.4e-4 2.7e-4,-1.4e-4 0.002,5.3e-4 l 5.3e-4,-5.3e-4 z m 0.0558,0.0124 c -8e-4,9e-5 -0.002,0.001 -0.003,0.001 0.005,0.001 0.01,0.002 0.015,0.004 -0.004,-10e-4 -0.008,-0.003 -0.0119,-0.004 z m -0.11782,0.003 v 5.3e-4 5.3e-4 l -0.001,5.3e-4 c -0.003,5.3e-4 -0.005,-8e-4 -0.008,0.002 0.007,0.003 0.0139,0.004 0.0212,0.007 l 10e-4,5.3e-4 c 0.0145,0.002 0.029,0.003 0.0434,0.005 0.003,2.6e-4 0.006,-0.001 0.008,0.002 0.007,-0.002 0.0147,-0.003 0.0217,-0.005 -0.005,-0.004 -0.008,-0.008 -0.01,-0.0124 -0.0185,5.3e-4 -0.0472,-2.6e-4 -0.0765,-0.001 z m -0.67593,0.35657 c 0.005,0.004 0.01,0.007 0.0145,0.0109 0.005,5.3e-4 0.01,0.001 0.0145,0.002 -0.002,-10e-4 -0.003,-0.003 -0.005,-0.004 -0.005,-0.004 -0.008,-0.003 -0.0165,-0.008 -0.003,0 -0.005,0 -0.008,0 z m -0.7121,0.22996 v 0.29714 c 0.0389,-0.006 0.0779,-0.01 0.11678,-0.0155 0.0536,-0.008 0.0906,-0.0155 0.13075,-0.0217 -0.01,-0.006 -0.0185,-0.0123 -0.0279,-0.0186 -0.0179,-0.0115 -0.0717,-0.0441 -0.0708,-0.0558 5.3e-4,-0.008 2.4e-4,-0.0187 5.3e-4,-0.0274 0.0154,0.0104 0.0327,0.02 0.0491,0.031 -0.0147,-0.0248 -0.0308,-0.0473 -0.0465,-0.0713 -7e-5,0.0135 2.6e-4,0.0269 -0.002,0.0398 -0.0103,-0.007 -0.0226,-0.0147 -0.032,-0.0207 -0.0178,-0.0113 -0.0321,-0.053 -0.0357,-0.0796 -0.0297,-0.0233 -0.0565,-0.041 -0.0827,-0.0574 z m 3.78168,0.0537 c -0.0165,0.002 -0.0329,0.006 -0.0491,0.0109 l -0.031,0.006 c 9e-5,5.3e-4 0.001,-5.3e-4 0.001,0.002 0.0295,-0.006 0.0593,-0.01 0.0889,-0.0155 -0.003,-2.3e-4 -0.007,-5.3e-4 -0.009,-5.3e-4 z m -3.6344,0.0568 c 0.002,0.002 0.004,0.004 0.005,0.007 1e-5,-7.9e-4 0,-0.002 0,-0.003 -0.002,-0.002 -0.003,-0.003 -0.005,-0.004 z m -0.11731,0.24185 c -0.004,-0.002 -0.0167,0.002 -0.0274,0.004 v 0.003 c 0.0104,-0.002 0.0201,-0.004 0.0305,-0.006 -7.9e-4,-2.5e-4 -0.002,-5.3e-4 -0.003,-0.001 z m 4.38423,0.0842 c -0.002,5.3e-4 -0.004,-1.8e-4 -0.006,0.002 0.002,-2.5e-4 0.004,-5e-5 0.006,-5.3e-4 z m -0.006,0.002 -0.001,-5.3e-4 c -0.002,5.3e-4 -0.004,-0.001 -0.006,0.002 -0.0163,0.003 -0.0363,0.006 -0.0465,0.008 -1.8e-4,0.001 2e-5,0.004 -5.3e-4,0.005 0.0123,-0.004 0.0291,-0.008 0.046,-0.0124 0.002,-2.3e-4 0.004,-4e-5 0.006,-5.3e-4 z m -4.40594,0.44752 v 5.3e-4 l -0.001,0.001 -0.001,5.2e-4 v 0.3235 c 0.019,-0.008 0.0391,-0.015 0.0584,-0.0217 0.0762,-0.028 0.0866,-0.0301 0.11162,-0.0367 -2.5e-4,-0.003 -5.3e-4,-0.006 -0.001,-0.009 -5.3e-4,-0.0407 -0.003,-0.0454 -0.004,-0.0553 -0.002,-0.004 -0.008,-0.0123 -0.008,-0.0124 0.002,-0.004 0.004,-0.008 0.006,-0.0124 -0.001,-0.004 0.001,-0.007 -5.2e-4,-0.0124 -0.001,-0.006 -0.007,-0.0246 -0.005,-0.0186 0.003,0.0113 0.006,0.0158 0.009,0.0248 0.0104,-0.0228 0.0226,-0.0454 0.0341,-0.0677 -0.081,-0.0308 -0.13457,-0.0593 -0.19792,-0.10387 z m -5.2e-4,1.20716 v 5.3e-4 1.9544 c 0.0356,-0.0188 0.0719,-0.0365 0.10748,-0.0553 0.003,-0.0183 0.004,-0.0341 0.0124,-0.0744 0.004,-0.0188 0.008,-0.0378 0.0155,-0.0553 0.0172,-0.0369 0.0363,-0.0728 0.0594,-0.10646 0.0232,-0.0338 0.0526,-0.0563 0.0832,-0.0806 0.003,-0.024 0.004,-0.0201 0.008,-0.0527 0.008,-0.0635 0.0132,-0.12743 0.0196,-0.1912 -0.014,-0.006 -0.0194,-0.008 -0.0346,-0.0155 -0.0254,-0.0116 -0.0252,-0.0435 -0.0217,-0.0765 -0.0469,-0.0334 -0.0609,-0.13387 -0.12196,-0.40566 -0.007,-0.0331 0.0602,-0.0329 0.0925,-0.0434 0.0145,-0.005 0.04,-0.007 0.0584,-0.0119 0.002,-0.0401 0.004,-0.0808 0.006,-0.12092 0.003,-0.0744 0.005,-0.14835 0.007,-0.22273 7e-5,-0.004 -9e-5,-0.008 0,-0.0124 -0.0318,-0.0391 -0.0637,-0.18516 -0.0708,-0.21446 -0.007,-0.0304 -0.0167,-0.0617 -0.0217,-0.0925 -0.005,-0.0314 -0.007,-0.0635 -0.0114,-0.0951 -0.0435,-0.004 -0.11558,-0.0164 -0.18707,-0.0279 z m 1.09347,0.0408 -5.3e-4,5.3e-4 c -0.002,4e-5 -0.004,5.3e-4 -0.006,5.3e-4 0.002,0.004 0.004,0.007 0.006,0.0103 1.7e-4,-0.003 -7e-5,-0.008 5.3e-4,-0.0114 z m 0.84387,0.42737 c -1.8e-4,0.005 -9e-5,0.0105 -5.3e-4,0.015 0.002,-5.3e-4 0.005,1.9e-4 0.007,-0.002 -0.003,-0.006 -0.004,-0.008 -0.006,-0.0119 z m -1.08623,0.093 -5.3e-4,5.3e-4 c -0.001,0.0114 -0.003,0.0344 -0.004,0.0465 0.007,-5.2e-4 0.0139,1.2e-4 0.0207,-0.002 -0.003,-0.0102 -0.0127,-0.0348 -0.016,-0.045 z m -0.80564,3.42666 -5.3e-4,5.3e-4 c -0.0146,0.002 -0.0288,0.005 -0.0434,0.007 v 0.21704 c 0.003,-0.001 0.007,-0.003 0.0103,-0.004 0.0338,-0.0133 0.0691,-0.0231 0.10387,-0.0336 -2.6e-4,-0.004 -0.002,-0.008 -0.002,-0.0124 -0.004,-0.004 -0.009,-0.006 -0.0119,-0.0119 -0.0254,-0.0511 -0.0427,-0.10615 -0.0558,-0.16278 z m 4.03334,1.98696 -0.001,5.3e-4 c -0.006,0.003 -0.037,0.0191 -0.0455,0.0227 -7.9e-4,0.008 -2.6e-4,0.0148 -0.002,0.0217 0.003,-7.9e-4 0.007,5e-5 0.0119,-0.002 0.0115,-0.0109 0.0233,-0.0228 0.0372,-0.0429 z m -0.0956,0.0548 -5.3e-4,5.3e-4 c -8e-4,7.9e-4 -2.7e-4,0.002 -0.002,0.002 10e-4,-2.2e-4 0.002,3e-5 0.003,-5.3e-4 -1.6e-4,-5.3e-4 -1e-4,-2.6e-4 -5.3e-4,-0.002 z m -3.98167,0.67696 v 5.3e-4 0.0186 c 0.002,-0.007 0.005,-0.013 0.007,-0.0181 -0.003,-5.3e-4 -0.005,-2.7e-4 -0.007,-10e-4 z m 0.003,0.23254 v 0.51211 c 0.0355,-0.004 0.0701,-0.006 0.10387,-0.004 0.0126,-0.0131 0.0295,-0.0369 0.0408,-0.047 9e-5,-0.0202 1e-5,-0.0381 0,-0.078 -4e-5,-0.0174 -0.003,-0.0349 -5.2e-4,-0.0522 0.003,-0.0358 0.008,-0.0723 0.0155,-0.10749 0.0127,-0.0619 0.0302,-0.0873 0.0584,-0.14624 0.009,-0.0153 0.0158,-0.0327 0.0279,-0.046 l 5.3e-4,-5.3e-4 c -0.0169,-0.002 -0.0334,-0.003 -0.0501,-0.005 -0.002,0.009 -2.6e-4,0.0126 -0.002,-10e-4 -0.0528,-0.006 -0.10585,-0.01 -0.15864,-0.0155 -8e-4,-0.003 -2.7e-4,-0.004 -0.002,-0.008 -0.0145,1.8e-4 -0.0222,-7.9e-4 -0.0331,-0.001 z m 0.2527,0.21188 c -0.002,-0.001 0.002,0.0113 0.0124,0.0341 10e-4,-5.3e-4 0.002,-0.002 0.004,-0.002 -0.006,-0.0109 -0.0105,-0.0218 -0.016,-0.0326 z m 5.23689,0.16588 c -0.0319,0.002 -0.0609,0.006 -0.0946,0.006 h -0.13539 -0.0129 c -5e-5,10e-4 -0.003,-8e-4 -0.004,0 h -0.002 -0.015 -0.1602 c 0.0138,0.0686 0.0177,0.13778 0.0176,0.20722 0.15449,0.0289 0.30145,0.13424 0.40669,0.31523 z m -3.85403,1.50378 c -0.005,0.001 -0.009,0.002 -0.0129,0.003 0.006,0.0324 0.0123,0.0647 0.0186,0.0966 0.01,-0.009 0.0182,-0.0136 0.0279,-0.0217 -0.0121,-0.0254 -0.0225,-0.0514 -0.0331,-0.0775 z m 0.11265,0.65888 c 0.004,0.0214 0.008,0.0432 0.0124,0.0646 0.0226,-0.002 0.0431,-0.003 0.0651,-0.005 -1.5e-4,-0.0104 1.7e-4,-0.0129 0,-0.0238 -0.0252,-0.0123 -0.0475,-0.0263 -0.0775,-0.0362 z m 0.15917,2.47271 c -0.01,0.003 -0.0219,0.009 -0.031,0.0104 -0.003,0.0454 -0.008,0.13149 -0.0139,0.23874 0.01,10e-4 0.0196,0.002 0.0289,0.003 0.006,-0.0839 0.0118,-0.16794 0.016,-0.25218 z m 0.70538,4.70462 c 1.1e-4,0.003 1.1e-4,0.005 5.3e-4,0.007 0.001,0.006 0.003,0.0117 0.004,0.0176 h 0.003 c -0.002,-0.008 -0.005,-0.0159 -0.007,-0.0238 z m -2.61328,0.3483 v 0.15658 c 0.006,-0.0153 0.0162,-0.0277 0.0264,-0.0408 -0.008,-0.0377 -0.0182,-0.0899 -0.0243,-0.11576 -5.3e-4,-10e-6 -0.001,-10e-6 -0.002,0 z m 5.49011,0.22583 c -0.0575,0.12997 -0.13465,0.22909 -0.22324,0.29766 0.0748,0.0438 0.0961,0.0871 -0.0465,0.11368 0.0244,0.004 0.0208,0.007 0.0904,0.007 0.0759,7.9e-4 0.13094,-0.005 0.17932,-0.0134 z m -5.48442,0.0832 v 49.72255 h 5.4839 l 5.3e-4,-49.39079 c -0.0767,0.002 -0.15325,0.006 -0.22996,0.006 -0.017,0 -0.0343,-0.005 -0.0501,-0.009 -0.0304,0.005 -0.0641,0.01 -0.10853,0.0134 0.002,0.0212 -0.0273,0.0469 -0.0341,0.0708 -0.005,0.0153 0.0117,-0.0225 0.0207,-0.0434 -0.0373,0.065 -0.10024,0.12526 -0.13849,0.17156 -10e-4,0.003 -0.004,-2.6e-4 -0.006,0.003 -0.006,0.0143 -0.0113,0.0198 -0.0176,0.0367 -0.0235,-0.003 -0.0284,-0.005 -0.0362,-0.006 -0.0105,0.009 -0.0279,0.006 -0.0491,-0.004 -0.10693,0.0209 -0.21599,0.028 -0.32298,0.0501 -0.0493,0.004 -0.0733,0.005 -0.11421,-0.003 -0.0134,0 -0.0275,0.003 -0.0372,0.003 -0.13776,0.003 -0.27514,0 -0.4129,0 -0.0517,10e-5 -0.10384,0 -0.15554,0 -0.12044,-4e-5 -0.24079,0 -0.36122,0 -0.15092,0 -0.30178,-4e-5 -0.45269,0 h -0.29662 c -0.13875,0 -0.27746,0.004 -0.416,-0.006 -0.0205,-0.003 -0.13166,-0.0142 -0.14676,-0.016 -0.0503,-0.003 -0.0997,-0.0152 -0.14986,-0.0181 -0.0102,0 -0.0241,0.003 -0.0346,0.003 -0.0195,0 -0.0389,0.003 -0.0584,0.003 -0.0535,0 -0.0566,0.003 -0.12195,-0.007 -0.0183,-0.003 -0.0366,-0.01 -0.0548,-0.0129 -0.014,-0.003 0.0118,0.005 0.007,0.005 h -0.0289 c -0.0445,0.003 -0.0465,0.004 -0.108,-0.006 -0.0183,-0.003 -0.0344,-0.0106 -0.0527,-0.0134 -0.002,0 0.005,0.007 0.003,0.007 -0.0137,0.004 -0.0288,4e-5 -0.0429,0 0.009,0 0.0369,-0.003 0.0279,-0.003 -0.0278,0 -0.0553,0.004 -0.0832,0.005 -0.0528,0.003 -0.10627,0 -0.15917,0 -0.0379,1.6e-4 -0.0758,0 -0.11369,0 -0.0487,-8e-5 -0.0975,0 -0.14624,0 h -0.24184 -0.17106 c -0.0808,2.1e-4 -0.0967,0.003 -0.12195,-0.016 -0.006,0 -0.013,-2.7e-4 -0.0155,-0.003 -0.0186,-0.018 -0.0288,-0.0306 -0.0439,-0.047 -0.0265,-0.0243 -0.0395,-0.0399 -0.11782,-0.0982 -0.0264,-0.10792 -0.009,-0.0378 0.11782,0.0982 0.0133,0.0124 0.051,0.0432 0.0594,0.0496 0.016,0 0.0372,-0.003 0.0424,-0.003 0.20832,-0.0345 0.10105,-0.11438 -0.0279,-0.19844 -0.0202,0 -0.037,-0.006 -0.0403,-0.0217 -0.001,-0.004 1.9e-4,-0.003 -0.002,-0.008 -0.004,-0.003 -0.008,-0.006 -0.0119,-0.008 -0.0538,1.3e-4 -0.085,-2.6e-4 -0.0863,-0.0217 -0.003,0 -0.007,-0.003 -0.0103,-0.003 -0.0916,-0.0357 -0.0841,-0.0339 -0.14986,-0.0749 h -5.2e-4 c -0.10092,-0.0631 -0.15666,-0.13619 -0.18036,-0.20567 z m 5.09891,0.3023 c -0.008,0.003 -0.0157,0.007 -0.0238,0.009 0.005,0.005 0.0106,0.009 0.015,0.0145 0.002,0.003 8e-5,0.005 0.002,0.007 0.004,-0.0101 0.005,-0.0204 0.007,-0.0305 z m -0.008,0.0315 c -5.3e-4,0 -5.3e-4,0.003 -0.001,0.003 5.3e-4,-7e-5 5.3e-4,-4e-5 0.002,0 -1e-4,0 -9e-5,-0.003 -5.2e-4,-0.003 z m -0.20826,0.22014 c -0.005,0 -0.0104,0.003 -0.0155,0.003 h -5.3e-4 c -0.003,0 -0.006,2.6e-4 -0.009,0.003 0.006,0 0.0174,0.003 0.0222,0.004 0.002,-0.003 0.002,-0.006 0.004,-0.008 z" />
    </clipPath>
  </defs>
  <sodipodi:namedview
     id="base"
     pagecolor="#ffffff"
     bordercolor="#666666"
     borderopacity="1.0"
     inkscape:pageopacity="0.0"
     inkscape:pageshadow="2"
     inkscape:zoom="0.4567468"
     inkscape:cx="1279.8147"
     inkscape:cy="662.56359"
     inkscape:document-units="mm"
     inkscape:current-layer="layer1"
     inkscape:document-rotation="0"
     showgrid="false"
     inkscape:window-width="1920"
     inkscape:window-height="1017"
     inkscape:window-x="-8"
     inkscape:window-y="-8"
     inkscape:window-maximized="1" />
  <metadata
     id="metadata5">
    <rdf:RDF>
      <cc:Work
         rdf:about="">
        <dc:format>image/svg+xml</dc:format>
        <dc:type
           rdf:resource="http://purl.org/dc/dcmitype/StillImage" />
        <dc:title></dc:title>
      </cc:Work>
    </rdf:RDF>
  </metadata>
  <g
     inkscape:label="Layer 1"
     inkscape:groupmode="layer"
     id="layer1">
    <g
       id="g893"
       transform="matrix(1.4016585,0,0,1.4265079,40.175961,-65.961672)">
      <path
         style="fill:#ffccaa;fill-opacity:1;stroke:none;stroke-width:1.1;stroke-linecap:butt;stroke-linejoin:miter;stroke-miterlimit:4;stroke-dasharray:none;stroke-opacity:1"
         d="m 60.175406,135.356 c 0,-0.67942 1.55296,-5.92066 1.84414,-6.89125 0.29118,-0.9706 6.98832,-14.65606 6.98832,-14.65606 l 2.52356,-2.81474 5.28977,-1.9412 h 0.87354 l 0.14559,1.06765 1.16472,4.51329 3.44563,5.43536 6.89126,5.77507 4.95006,1.98974 8.735404,3.00886 10.43395,2.57209 4.56182,0.97059 5.43536,2.32945 0.83363,2.26451 0.61769,3.08842 0.10164,2.99423 v 0 l 2.9118,0.58236 1.55296,3.68827 -0.2426,2.89265 -1.50448,2.15447 2.52356,2.52357 v 3.30003 l -0.9706,5.8236 -2.31332,2.12091 v 1.71579 l 0.96084,1.92169 0.68632,2.53938 c 0,0 0.20589,2.33348 0.20589,2.81391 0,0.48042 -0.0343,1.30399 -0.0343,1.30399 l -0.54906,1.54424 -1.33832,1.02947 c 0,0 -2.02463,0.99515 -2.1619,0.99515 -0.13726,0 -7.51518,-0.0686 -7.51518,-0.0686 l -9.33392,-0.2059 0.27453,1.9217 4.49538,6.34844 0.72063,1.75011 0.27453,3.26001 -0.34316,2.8139 c 0,0 0.0343,3.67181 0.0343,3.94634 0,0.27453 -0.24022,2.19623 -0.24022,2.19623 0,0 0.4118,0.54903 -0.13726,0.75493 -0.54905,0.2059 -6.72591,3.63749 -6.72591,3.63749 l -3.36296,-4.49537 c 0,0 -0.61769,-5.38761 -0.61769,-5.38761 0,0 -0.72063,-0.72064 -0.89221,-1.26968 -0.17158,-0.54906 -7.274974,-11.94194 -7.274974,-11.94194 l -1.16674,-1.78443 -2.09327,-1.23537 c 0,0 -0.82358,-0.85788 -0.96084,-1.44126 -0.13727,-0.58338 -1.40696,-4.90718 -1.40696,-4.90718 l -1.44126,-3.36295 -5.90234,-8.09855 -8.92213,-13.14299 -10.02024,-13.21162 z"
         id="path857" />
      <path
         style="fill:none;stroke:#000000;stroke-width:1.1;stroke-linecap:butt;stroke-linejoin:miter;stroke-miterlimit:4;stroke-dasharray:none;stroke-opacity:1"
         d="m 77.840326,110.1204 c 0,0 -0.9706,0 0.77648,3.49416 1.74708,3.49416 0.77648,2.52356 3.30004,5.62948 2.52356,3.10592 3.30004,3.49416 5.24124,5.04712 1.9412,1.55296 5.24124,2.52356 6.98832,3.68828 1.74708,1.16472 3.8824,1.55296 7.958924,2.71768 4.07652,1.16472 7.37656,1.55296 9.706,2.32944 2.32944,0.77648 6.21184,1.35884 6.21184,1.35884 l 5.43536,2.32944 c 0,0 0.38824,0.77648 0.77648,1.74708 0.38824,0.9706 0.77648,3.8824 0.77648,3.8824 0,0 0.19412,1.16472 -0.38824,2.13532 -0.58236,0.9706 -1.9412,2.52356 -2.9118,3.30004 -0.9706,0.77648 -1.35884,1.74708 -3.10592,2.32944 -1.74708,0.58236 0.38824,0.58236 -5.43536,0.58236 -5.8236,0 -5.8236,-0.38824 -9.31776,-0.77648 -3.49416,-0.38824 -4.658884,-4.27063 -4.658884,-4.27063 0,0 0.58236,-2.52357 1.747084,-2.71769 1.16472,-0.19411 5.62948,0.19412 5.62948,0.19412 l 4.07652,0.19412 1.35884,0.19412 c 0,0 0.38824,-0.77647 0.58236,-1.55296 0.19412,-0.77648 2.32944,-3.10592 2.32944,-3.10592"
         id="path847" />
      <path
         style="fill:none;stroke:#000000;stroke-width:1.1;stroke-linecap:butt;stroke-linejoin:miter;stroke-miterlimit:4;stroke-dasharray:none;stroke-opacity:1"
         d="m 125.01149,145.062 2.9118,0.58236 0.9706,1.74708 0.58236,1.9412 c 0,0 -0.19412,2.13532 -0.58236,2.9118 -0.38824,0.77648 -0.58236,1.55297 -1.9412,2.52356 -1.35884,0.9706 0.19412,0.77648 -4.27064,3.10592 -4.46476,2.32944 -4.07652,2.32944 -5.43536,2.71768 -1.35884,0.38824 -0.9706,0.38824 -2.71768,0.38824 -1.74708,0 -4.65888,0.77648 -6.01772,-0.19412 -1.35884,-0.97059 -1.9412,-1.16471 -3.10592,-1.55296 -1.16472,-0.38824 -6.405964,-1.74708 -6.405964,-1.74708 0,0 -0.38824,-2.71768 0.38824,-3.30004 0.776484,-0.58236 0.38824,-1.16472 4.076524,-1.16472 3.68828,0 7.18244,0.19412 7.18244,0.19412 h 4.853 l 5.24124,-3.10592"
         id="path849" />
      <path
         style="fill:none;stroke:#000000;stroke-width:1.1;stroke-linecap:butt;stroke-linejoin:miter;stroke-miterlimit:4;stroke-dasharray:none;stroke-opacity:1"
         d="m 127.72917,154.37976 2.52356,2.52356 v 3.30004 l -0.9706,5.8236 -6.60008,4.46476 -4.853,1.35884 -11.6472,-1.16472 c 0,0 -2.32944,-0.38824 -4.07652,-0.77648 -1.74708,-0.38824 -2.717684,-0.77648 -2.717684,-2.13532 0,-1.35884 -1.35884,-2.52356 0.19412,-3.30004 1.552964,-0.77648 4.464764,-3.68828 4.464764,-3.68828 l 5.24124,0.19412 9.51188,-0.58236"
         id="path851" />
      <path
         style="fill:none;stroke:#000000;stroke-width:1.1;stroke-linecap:butt;stroke-linejoin:miter;stroke-miterlimit:4;stroke-dasharray:none;stroke-opacity:1"
         d="m 126.96881,168.14786 c 0,0 -0.27453,1.23537 0.13726,2.19622 0.41179,0.96084 0.54905,1.09811 1.09811,2.88253 0.54905,1.78443 0.68632,3.29433 0.68632,3.84338 0,0.54906 -0.27453,2.60802 -0.82359,3.01979 -0.54905,0.4118 -1.92169,2.05896 -5.90233,2.05896 -3.98065,0 -13.72636,-0.54906 -14.54994,-0.82357 -0.82358,-0.27453 -5.35328,-0.41179 -5.76507,-1.23539 -0.41179,-0.82357 -1.09811,-3.43158 -1.09811,-4.52968 0,-1.09811 0.27453,-3.15707 1.23537,-3.43159 0.96085,-0.27453 4.19502,-1.44267 4.19502,-1.44267 v 0"
         id="path853" />
      <path
         style="fill:none;stroke:#000000;stroke-width:1.1;stroke-linecap:butt;stroke-linejoin:miter;stroke-miterlimit:4;stroke-dasharray:none;stroke-opacity:1"
         d="m 62.180396,138.08714 c 0,0 12.21646,15.92258 13.04004,17.43247 0.82358,1.5099 7.82402,11.66741 8.92213,13.04004 1.09811,1.37264 3.15706,4.11791 3.56885,5.49055 0.4118,1.37263 2.05896,4.66695 2.33349,5.76508 0.27452,1.0981 -0.13727,1.92166 1.92169,3.29432 2.05895,1.37264 2.19621,2.74527 3.84337,4.66697 1.64717,1.92167 6.451394,10.70655 6.451394,10.70655 0,0 0.27453,4.1179 0.82358,5.49056 0.54906,1.37263 3.15707,4.39242 3.15707,4.39242 l 6.86317,-4.39242 c 0,0 0,-3.01983 0.13727,-5.49056 0.13726,-2.47073 0.68632,-5.07876 0,-7.00045 -0.68632,-1.92168 -5.07875,-7.82403 -5.07875,-7.82403 l -0.27453,-1.9217"
         id="path855" />
      <path
         style="fill:#ffe6d5;stroke:#000000;stroke-width:1.1;stroke-linecap:butt;stroke-linejoin:miter;stroke-miterlimit:4;stroke-dasharray:none;stroke-opacity:1"
         d="m 105.55096,144.01861 c 0,0 -2.62062,0.21838 -2.79047,0.33971 -0.16986,0.12132 -0.60663,0.53383 -0.63089,0.82501 -0.0243,0.29118 -0.14559,0.16985 0,0.77648 0.14559,0.60662 0.8978,2.3537 1.09192,2.47503 0.19412,0.12132 1.38311,0.58236 1.60149,0.63089 0.21839,0.0485 0.89781,-0.0728 0.89781,-0.0728 l 0.53383,-0.0728 c 0,0 0.24265,-0.75222 0.26691,-1.35884 0.0243,-0.60663 0,-1.65002 0,-1.91694 0,-0.26691 -0.0485,-0.75221 -0.0485,-0.75221 l -0.29118,-0.84928 h -0.94633"
         id="path859" />
      <path
         style="fill:#ffe6d5;stroke:#000000;stroke-width:1.1;stroke-linecap:butt;stroke-linejoin:miter;stroke-miterlimit:4;stroke-dasharray:none;stroke-opacity:1"
         d="m 103.5855,153.82167 c 0,0 -1.74708,0.16985 -2.23238,0.36397 -0.4853,0.19412 -0.53383,0.31545 -0.63089,0.77648 -0.0971,0.46104 -0.50957,0.67942 0.0485,1.26178 0.55809,0.58236 1.98973,1.11619 2.20811,1.21325 0.21839,0.0971 1.55296,0.36398 1.55296,0.36398 0,0 0.14559,0.55809 0.19412,-0.12133 0.0485,-0.67942 0.0728,-0.87354 0.0485,-1.33457 -0.0243,-0.46104 0.0243,-1.06766 0.0243,-1.16472 0,-0.0971 0.0728,-0.63089 -0.0243,-0.72795 -0.0971,-0.0971 -0.38824,-0.38824 -0.38824,-0.38824 z"
         id="path861" />
      <path
         style="fill:#ffe6d5;stroke:#000000;stroke-width:1.1;stroke-linecap:butt;stroke-linejoin:miter;stroke-miterlimit:4;stroke-dasharray:none;stroke-opacity:1"
         d="m 106.15759,162.87251 c -0.38824,0.0728 -2.81474,0.36398 -3.00886,0.4853 -0.19412,0.12133 -0.60663,0.50957 -0.92207,0.87354 -0.31545,0.36398 -0.58236,0.72795 -0.4853,1.23752 0.0971,0.50956 0.0485,1.01913 0.31544,1.55296 0.26692,0.53383 0.19412,0.94633 0.87354,1.18898 0.67942,0.24265 1.28605,0.33971 1.9412,0.38824 0.65516,0.0485 1.72282,0.21839 1.72282,0.21839 0,0 0.38824,-3.08166 0.38824,-3.17872 0,-0.0971 -0.0971,-1.55296 -0.14559,-1.77134 -0.0485,-0.21839 -0.38824,-0.82501 -0.38824,-0.82501 z"
         id="path863" />
      <path
         style="fill:#ffe6d5;stroke:#000000;stroke-width:1.1;stroke-linecap:butt;stroke-linejoin:miter;stroke-miterlimit:4;stroke-dasharray:none;stroke-opacity:1"
         d="m 107.73481,173.40353 c 0,0 -2.30517,0.0728 -2.88753,0.38824 -0.58236,0.31545 -1.06766,0.14559 -1.28605,0.99486 -0.21838,0.84927 -0.4853,1.04339 -0.14559,1.79562 0.33971,0.75222 0.80075,1.84413 1.35884,2.06252 0.5581,0.21839 1.57723,0.75221 1.79561,0.75221 0.21839,0 1.4559,-0.0243 1.4559,-0.0243 0,0 0.43677,-2.37797 0.46104,-2.54782 0.0243,-0.16987 0.0485,-1.81988 -0.0485,-2.25665 -0.0971,-0.43677 -0.21839,-1.26178 -0.21839,-1.26178 l -0.65515,0.19412"
         id="path865" />
      <path
         style="fill:#aa4400;stroke:#000000;stroke-width:1.1;stroke-linecap:butt;stroke-linejoin:miter;stroke-miterlimit:4;stroke-dasharray:none;stroke-opacity:1"
         d="m 180.50159,163.00049 c 0,0 0.75495,-0.82358 1.57853,-0.96084 0.82358,-0.13727 2.74527,0.20589 2.74527,0.20589 l 0.68632,0.54905 -0.82358,146.66614 -0.68632,8.09855 -2.60801,0.34314 c 0,0 -1.16674,-1.0981 -1.09811,-1.7158 0.0686,-0.61767 0.27453,-25.46239 0.27453,-25.46239 z"
         id="path867"
         clip-path="url(#clipPath1717)"
         transform="translate(-73.741304,-87.347676)" />
      <path
         style="fill:none;stroke:#000000;stroke-width:1.1;stroke-linecap:butt;stroke-linejoin:miter;stroke-miterlimit:4;stroke-dasharray:none;stroke-opacity:1"
         d="m 60.369526,162.5328 -6.69714,3.97946 6.50302,6.60008"
         id="path1532" />
      <path
         style="fill:none;stroke:#000000;stroke-width:1.1;stroke-linecap:butt;stroke-linejoin:miter;stroke-miterlimit:4;stroke-dasharray:none;stroke-opacity:1"
         d="m 166.55317,141.37372 c 8.7354,6.98832 8.7354,6.69714 8.7354,6.69714 l -9.02658,3.59122"
         id="path1534" />
      <path
         style="fill:none;stroke:#000000;stroke-width:1.265;stroke-linecap:butt;stroke-linejoin:miter;stroke-miterlimit:4;stroke-dasharray:none;stroke-opacity:1"
         d="m 141.24422,178.03085 c 0.54905,4.52969 -0.4118,50.78751 -0.4118,50.78751"
         id="path1721" />
      <path
         sodipodi:type="star"
         style="fill:#ff0000;fill-opacity:1;stroke:#000000;stroke-width:1.1;stroke-linecap:round;stroke-miterlimit:4;stroke-dasharray:none;stroke-opacity:1;paint-order:markers fill stroke"
         id="path1723"
         sodipodi:sides="3"
         sodipodi:cx="140.83241"
         sodipodi:cy="225.52403"
         sodipodi:r1="3.2943258"
         sodipodi:r2="1.6471628"
         sodipodi:arg1="1.5707963"
         sodipodi:arg2="2.6179939"
         inkscape:flatsided="true"
         inkscape:rounded="0"
         inkscape:randomized="0"
         inkscape:transform-center-x="1.8970474e-06"
         inkscape:transform-center-y="0.82357842"
         d="m 140.83241,228.81836 -2.85297,-4.94149 5.70594,0 z" />
      <text
         xml:space="preserve"
         style="font-size:10.5833px;line-height:1.25;font-family:sans-serif;letter-spacing:0px;word-spacing:0px;stroke-width:0.264583"
         x="147.14655"
         y="200.26756"
         id="text1727"><tspan
           sodipodi:role="line"
           id="tspan1725"
           x="147.14655"
           y="200.26756"
           style="stroke-width:0.264583">direction </tspan><tspan
           sodipodi:role="line"
           x="147.14655"
           y="213.49669"
           style="stroke-width:0.264583"
           id="tspan1729">of </tspan><tspan
           sodipodi:role="line"
           x="147.14655"
           y="226.72581"
           style="stroke-width:0.264583"
           id="tspan1731">current</tspan></text>
      <path
         style="fill:none;stroke:#000000;stroke-width:1.665;stroke-linecap:butt;stroke-linejoin:miter;stroke-miterlimit:4;stroke-dasharray:none;stroke-opacity:1"
         d="m 66.023776,145.22484 c 0,0 -9.33392,0.54906 -13.1773,0.68632 -3.84338,0.13727 4.94149,-0.68632 -13.86362,1.23538 -18.805112,1.92169 -20.315013,2.74527 -22.923018,3.29432 -2.608009,0.54906 -11.530142,4.25517 -11.530142,4.25517 0,0 -2.470743,1.23538 -0.686316,2.88254 1.784426,1.64716 6.039596,4.66696 7.686759,4.80422 1.647164,0.13727 25.531027,2.74528 26.080077,2.88254 0.54906,0.13726 28.00177,2.74527 28.00177,2.74527 0,0 10.56929,0.13726 12.21646,-0.13727 1.64716,-0.27452 28.750474,-0.15479 28.750474,-0.15479 l 30.41012,0.15479 21.68765,-0.82358 30.8843,-2.88253 13.58911,-3.98065 c 0,0 4.52969,-2.47074 4.52969,-3.15706 0,-0.68632 0.6863,-1.78442 -1.78443,-2.47074 -2.47076,-0.68632 -16.74616,-5.07875 -17.56974,-5.07875 -0.82358,0 -23.33481,-3.84338 -25.80555,-3.56886 -2.47074,0.27453 -23.60934,-0.27452 -24.29565,-0.13726 -0.68632,0.13726 -10.30113,-0.12954 -10.30113,-0.12954"
         id="path1530" />
    </g>
  </g>
</svg>
