<?xml version="1.0" encoding="UTF-8" standalone="no"?>
<svg
   xmlns:dc="http://purl.org/dc/elements/1.1/"
   xmlns:cc="http://creativecommons.org/ns#"
   xmlns:rdf="http://www.w3.org/1999/02/22-rdf-syntax-ns#"
   xmlns:svg="http://www.w3.org/2000/svg"
   xmlns="http://www.w3.org/2000/svg"
   width="400mm"
   height="297mm"
   viewBox="0 0 400 297"
   version="1.1"
   id="svg861">
  <defs
     id="defs855">
    <clipPath
       clipPathUnits="userSpaceOnUse"
       id="clipPath1630">
      <path
         id="path1632"
         style="fill:#ff0000;fill-opacity:1;fill-rule:nonzero;stroke:none;stroke-width:0.264584"
         d="m 185.64246,161.87309 -5.48228,7.2e-4 v 69.11563 c 0.0572,-0.0946 0.15014,-0.18405 0.27762,-0.25974 -0.0405,-0.0104 -0.0786,-0.0203 -0.12609,-0.0362 l -0.001,-0.002 c -0.16492,-0.055 -0.16622,-0.18945 -0.0726,-0.23149 0.009,-0.0329 0.0183,-0.0652 0.0376,-0.0927 0.007,-0.0102 0.0196,-0.0104 0.0332,-0.009 0.0135,0.002 0.028,0.006 0.0402,0.006 0.0768,-1.8e-4 0.15043,0.0129 0.22305,0.0373 0.0661,-0.002 0.13999,-0.0233 0.20019,0.0192 0.0163,-0.002 0.0259,-0.004 0.0549,-0.004 0.0195,1.8e-4 0.0385,3.7e-4 0.0579,0.001 0.0528,7.4e-4 0.0632,-0.002 0.12129,0.0185 0.01,0.003 0.018,0.0101 0.0269,0.0156 0.0137,0.003 0.0222,0.005 0.0553,0.0102 0.009,0.002 0.0172,0.008 0.0254,0.0123 9.4e-4,-5.5e-4 0.003,-3.7e-4 0.004,-7.4e-4 0.003,-7.4e-4 0.006,-5.5e-4 0.009,-0.002 0.0723,-0.008 0.14566,-0.005 0.21826,-0.003 0.0514,-5.5e-4 0.10233,-7.4e-4 0.15374,-7.4e-4 0.0305,1.2e-4 0.0613,0 0.0918,0 h 0.16664 0.0188 c 9.5e-4,0 0.002,0 0.003,0 0.18938,-0.69804 0.92068,-1.1643 2.14425,-0.68394 0.0129,0.005 0.0195,0.007 0.0317,0.0116 0.0347,-0.0196 0.0693,-0.0397 0.10397,-0.0594 0.30077,-0.13297 0.59044,-0.20252 0.89811,-0.20178 0.0938,1.9e-4 0.18966,0.008 0.28757,0.0214 0.14524,-0.008 0.27531,0.001 0.39744,0.0185 z m -4.52445,68.60049 v 3.7e-4 c 5.7e-4,0 -5.6e-4,3.7e-4 0.002,3.7e-4 z m 3.03277,-0.71184 c -0.0578,0.008 -0.1141,0.0247 -0.1696,0.0431 0.57925,0.21746 0.24241,-0.0535 0.1696,-0.0431 z m -3.74912,0.64953 c 0.008,0.0145 -0.0459,-0.005 -0.0321,0.001 0.0225,0.0103 0.0177,0.006 0.0295,0.0101 7.6e-4,-0.004 0.002,-0.007 0.003,-0.0112 z m 0.13789,0.0554 v 3.7e-4 l -3.8e-4,3.7e-4 v 7.4e-4 l -7.5e-4,3.7e-4 c -9.5e-4,7.4e-4 9e-5,0.0104 -7.6e-4,0.013 0.0121,0.009 0.0243,0.018 0.0361,0.0275 0.002,0.002 0.004,0.005 0.006,0.007 h 3.8e-4 c -0.0111,-0.0113 -0.0306,-0.0542 -0.0406,-0.0493 z m 0.58141,0.008 v 3.7e-4 c 1.9e-4,0 5.7e-4,-1.1e-4 7.6e-4,0 z m 7.6e-4,3.7e-4 v 7.5e-4 h 10e-4 z m 0.003,7.5e-4 v 3.7e-4 l 0.001,0.001 c 9.5e-4,7e-5 0.004,1.8e-4 0.003,-3.7e-4 -0.002,-5.6e-4 -0.003,-0.001 -0.004,-0.001 z m -0.7381,0.18402 -7.5e-4,3.7e-4 c 0.006,0.011 0.008,0.01 -0.005,0.008 0.0154,0.007 0.0156,0.008 0.0185,0.007 -0.004,-0.004 -0.01,-0.0117 -0.0129,-0.0152 z m 2.08452,9.15572 c 0.10058,0.10418 0.15567,0.16379 0.20351,0.21264 0.0312,0.007 0.0627,0.0129 0.0936,0.0196 -0.0966,-0.0826 -0.19463,-0.16259 -0.29716,-0.23221 z m 0.29716,0.23221 c 0.0737,0.063 0.14716,0.1265 0.22121,0.18873 0.0135,1.9e-4 0.0272,-5.5e-4 0.0405,-3.7e-4 0.0298,0 0.0163,9.3e-4 0.0708,0.008 0.0119,0.002 0.0223,0.006 0.0343,0.007 0.01,9.3e-4 0.0202,-5.6e-4 0.0306,-3.7e-4 -0.0527,-0.0448 -0.10551,-0.09 -0.17955,-0.15686 0.006,9.3e-4 0.0112,0.003 0.017,0.004 -0.0474,-0.0387 -0.0913,-0.0734 -0.14194,-0.11556 0.051,0.0455 0.0828,0.0737 0.12388,0.11085 -0.0723,-0.0154 -0.14454,-0.0302 -0.21679,-0.0456 z m -0.0936,-0.0196 c -0.0885,-0.0187 -0.17688,-0.0381 -0.26545,-0.0565 0.13879,0.099 0.29039,0.19777 0.43357,0.26192 0.004,0.002 0.008,0.002 0.0122,0.004 0.0376,-7.4e-4 0.0752,-9.2e-4 0.11281,-7.4e-4 -0.14315,-0.0824 -0.22072,-0.13474 -0.2931,-0.20866 z m 0.3285,0.0696 c 0.0681,0.0556 0.13133,0.10407 0.19466,0.15287 0.0179,-5.6e-4 0.036,2e-5 0.052,-3.7e-4 0.0669,-0.003 0.13394,-3.7e-4 0.20093,-3.7e-4 0.0783,-7e-5 0.15619,-7e-5 0.23448,0 0.0224,4e-5 0.045,0 0.0675,0 -0.2499,-0.0504 -0.50017,-0.0989 -0.74953,-0.15215 z m -2.84474,0.11266 v 0.35864 c 0.0425,0.006 0.0843,0.015 0.12572,0.0308 0.0116,-0.0136 0.029,-0.0221 0.0435,-0.0341 -0.18965,-0.004 -0.22025,-0.22127 0.0181,-0.29343 0.0572,-0.0173 0.11559,-0.0325 0.17439,-0.0446 -0.12073,-0.006 -0.24296,-0.0103 -0.36168,-0.0174 z m 1.0194,0.20866 v 3.7e-4 c 0.002,0.003 0.004,0.006 0.007,0.008 0.002,1.8e-4 0.004,8e-5 0.006,7.4e-4 -0.005,-0.004 -0.009,-0.006 -0.0129,-0.009 z m 0.91986,0.0898 v 3.7e-4 7.4e-4 c 0.006,-1.8e-4 0.0124,-1.1e-4 0.0184,-7.4e-4 -0.006,1.8e-4 -0.0124,-3.7e-4 -0.0184,-3.7e-4 z m 3.44421,0.41986 v 3.7e-4 c 0.0135,0.0282 0.0273,0.0562 0.0398,0.0848 0.0202,9.2e-4 0.0406,3.7e-4 0.0608,0.003 v -0.0801 c -0.0531,-0.004 -0.0596,-0.005 -0.10065,-0.008 z m -1.34163,0.11339 c -0.0173,-9.3e-4 -0.0293,0.005 -0.0369,0.0119 0.0166,5e-5 0.0333,-0.001 0.0498,-0.001 5.6e-4,-0.002 7.5e-4,-0.003 0.002,-0.005 -0.005,-7.4e-4 -0.0104,-0.005 -0.0147,-0.005 z m -3.33471,0.41551 c -5.7e-4,1.8e-4 -1.9e-4,9.2e-4 -0.002,0.001 5.7e-4,-1e-5 1.9e-4,0 0.002,0 z m 0,0.001 h 0.002 v -0.001 c -5.7e-4,1.8e-4 -7.6e-4,9.2e-4 -0.002,0.001 z m 0.002,0 c 7.5e-4,-1e-5 -1.3e-4,0 0.002,0 v -0.001 c -7.6e-4,1.8e-4 1.1e-4,9.2e-4 -0.002,0.001 z m 0.002,0 c 7.5e-4,-1e-5 0.002,4e-5 0.003,0 v -0.001 c -7.5e-4,1.4e-4 -0.002,9.2e-4 -0.003,0.001 z m 0.003,0 c 7.6e-4,-6e-5 0.002,9e-5 0.003,0 v -0.001 c -7.5e-4,1.3e-4 -0.002,9.2e-4 -0.003,0.001 z m -0.0114,0 c -0.003,9e-5 -0.004,-1.9e-4 -0.007,3.7e-4 1.9e-4,9.3e-4 -3.8e-4,0.002 3.7e-4,0.003 0.003,-7.4e-4 0.004,-0.002 0.006,-0.003 z m 4.63432,0.98136 -3.8e-4,3.7e-4 c 0.002,0.006 0.003,0.008 0.006,0.0134 0.004,5.6e-4 0.007,3.7e-4 0.0107,0.002 -0.005,-0.005 -0.0116,-0.0101 -0.0162,-0.0156 z m 0.083,0.0775 -3.8e-4,3.7e-4 c -0.0106,0.005 -0.0201,0.0107 -0.031,0.0159 -0.003,9.3e-4 -0.006,0.002 -0.009,0.004 0.01,0.0229 0.0183,0.0423 0.0273,0.0627 0.0109,0.008 0.016,0.0218 0.0177,0.0402 0.0205,0.0458 0.0422,0.0972 0.0586,0.13114 v -0.18946 c -0.0194,-0.0222 -0.0394,-0.0444 -0.0631,-0.0648 z m -5.39232,1.84136 v 3.7e-4 3.7e-4 3.7e-4 c -5.7e-4,9.3e-4 3.7e-4,0.003 -0.002,0.005 -5.7e-4,7.5e-4 -7e-5,-0.002 0,-0.004 -0.0179,0.004 -0.0211,0.005 -0.0365,0.009 v 0.0543 c 0.0111,1.8e-4 0.022,9.3e-4 0.0339,0.002 1e-5,-0.0203 -9.5e-4,-0.0414 7.5e-4,-0.0493 0.002,-0.006 0.004,-0.0121 0.005,-0.0181 -1.8e-4,6e-5 -9.5e-4,-1.3e-4 -0.001,0 z m 0.0254,0.007 c -1.8e-4,0.008 -0.002,0.0122 -0.002,0.0217 0.002,0.006 0.006,0.0104 0.0129,0.0123 0.0111,0.003 0.0221,0.006 0.0332,0.009 z m 0.74511,0.19381 c -9.5e-4,0.003 -0.003,0.005 -0.004,0.007 0.003,4e-5 0.0102,7e-5 0.0125,0 0.0154,-7.4e-4 0.0312,-0.002 0.0465,-0.003 -1.8e-4,-7.4e-4 -7.6e-4,5.6e-4 -7.6e-4,-0.002 -0.0179,-7.4e-4 -0.0341,-1.8e-4 -0.052,-0.002 z m 2.56417,0.36334 c -0.008,0.007 -0.0163,0.0121 -0.024,0.0185 0.002,0.0103 0.005,0.0205 0.007,0.0308 0.009,-5.6e-4 0.0186,5.5e-4 0.0276,-0.002 -0.003,-0.0162 -0.008,-0.0308 -0.01,-0.0467 z m -3.37269,5.02163 v 0.19308 c 0.019,-0.008 0.0391,-0.0151 0.0586,-0.0217 0.0762,-0.028 0.0863,-0.03 0.11134,-0.0366 -1.7e-4,-0.003 -9e-5,-0.006 -7.5e-4,-0.009 -5.7e-4,-0.0407 -0.003,-0.0455 -0.004,-0.0554 -0.002,-0.004 -0.008,-0.012 -0.008,-0.012 9.5e-4,-0.003 0.002,-0.005 0.004,-0.008 -0.0537,-0.0162 -0.10751,-0.0321 -0.16074,-0.05 z m 0.002,1.07445 v 7.5e-4 1.95438 c 0.0356,-0.0188 0.0721,-0.0366 0.10765,-0.0554 0.003,-0.0183 0.004,-0.034 0.0125,-0.0743 0.004,-0.0188 0.008,-0.0379 0.0155,-0.0554 0.0172,-0.0369 0.0366,-0.0728 0.0597,-0.1065 0.0232,-0.0338 0.0524,-0.0561 0.083,-0.0804 0.003,-0.024 0.004,-0.0203 0.008,-0.0529 0.008,-0.0635 0.0128,-0.12714 0.0192,-0.19091 -0.014,-0.006 -0.0197,-0.008 -0.0346,-0.0156 -0.0254,-0.0116 -0.0249,-0.0434 -0.0214,-0.0764 -0.0469,-0.0334 -0.061,-0.13393 -0.12203,-0.40573 -0.007,-0.0331 0.0602,-0.033 0.0925,-0.0435 0.0145,-0.005 0.0402,-0.007 0.0586,-0.012 0.002,-0.0401 0.004,-0.0809 0.006,-0.12099 0.003,-0.0744 0.005,-0.14805 0.007,-0.22243 8e-5,-0.004 -8e-5,-0.008 0,-0.0127 -0.0318,-0.0391 -0.0642,-0.18515 -0.0711,-0.21445 -0.007,-0.0304 -0.0169,-0.0616 -0.0218,-0.0924 -0.005,-0.0314 -0.007,-0.0637 -0.0111,-0.0953 -0.0435,-0.004 -0.11542,-0.0164 -0.18692,-0.0279 z m 1.09351,0.0409 -3.8e-4,7.4e-4 c -0.002,4e-5 -0.004,3.7e-4 -0.006,3.7e-4 0.002,0.004 0.004,0.007 0.006,0.0102 1.7e-4,-0.003 -1.9e-4,-0.008 3.8e-4,-0.0112 z m 0.84391,0.42746 c -1.8e-4,0.005 1.2e-4,0.0105 -3.8e-4,0.0149 0.002,-5.6e-4 0.005,1.9e-4 0.007,-0.002 l -0.006,-0.0119 z m -1.08614,0.0931 -7.5e-4,3.7e-4 c -9.5e-4,0.0114 -0.003,0.0343 -0.004,0.0464 0.007,-5.6e-4 0.0137,1.8e-4 0.0207,-0.002 -0.003,-0.0102 -0.0123,-0.0344 -0.0159,-0.0446 z m -0.8052,3.42623 -3.7e-4,3.7e-4 -7.6e-4,3.7e-4 c -0.0146,0.002 -0.0289,0.005 -0.0435,0.007 v 0.21735 c 0.003,-9.3e-4 0.007,-0.003 0.0103,-0.004 0.0338,-0.0133 0.0692,-0.0232 0.10397,-0.0337 -1.9e-4,-0.004 -0.002,-0.008 -0.002,-0.0123 -0.004,-0.004 -0.009,-0.006 -0.0118,-0.0119 -0.0254,-0.0511 -0.0426,-0.10639 -0.0557,-0.16301 z m 4.03263,1.98735 -7.5e-4,3.7e-4 c -0.006,0.003 -0.0372,0.0192 -0.0457,0.0228 -7.5e-4,0.008 -4e-5,0.0148 -0.002,0.0217 0.003,-7.4e-4 0.007,-10e-4 0.0118,-0.002 0.0115,-0.0109 0.0233,-0.0226 0.0372,-0.0428 z m -0.0955,0.0547 -3.8e-4,3.7e-4 c -7.6e-4,7.5e-4 -3.8e-4,0.002 -0.002,0.002 9.4e-4,-1.8e-4 0.002,-7e-5 0.003,-7.4e-4 -1.3e-4,-3.7e-4 -1.8e-4,-10e-5 -3.8e-4,-7.4e-4 z m -3.98139,0.67706 v 3.8e-4 0.0185 c 0.002,-0.007 0.005,-0.013 0.007,-0.0181 -0.003,-5.6e-4 -0.005,9e-5 -0.007,-7.5e-4 z m 0.003,0.23221 v 3.7e-4 0.51187 c 0.0355,-0.004 0.0698,-0.006 0.1036,-0.004 0.0126,-0.0131 0.0293,-0.037 0.0405,-0.0471 9e-5,-0.0202 1e-5,-0.038 0,-0.0779 -4e-5,-0.0174 -0.003,-0.0352 -3.7e-4,-0.0525 0.003,-0.0358 0.008,-0.0724 0.0155,-0.10759 0.0127,-0.0619 0.0304,-0.0871 0.0586,-0.14599 0.009,-0.0153 0.0159,-0.0327 0.028,-0.046 l 3.7e-4,-7.4e-4 c -0.0169,-0.002 -0.0334,-0.003 -0.0501,-0.005 -0.002,0.009 -7.5e-4,0.0129 -0.002,-7.4e-4 -0.0528,-0.006 -0.10612,-0.0101 -0.15891,-0.0156 -7.5e-4,-0.003 3.8e-4,-0.004 -0.002,-0.008 -0.0145,1.8e-4 -0.0223,-9.3e-4 -0.0332,-10e-4 z m 0.25218,0.21192 c -0.002,-9.2e-4 0.002,0.0116 0.0121,0.0344 9.5e-4,-5.6e-4 0.002,-0.002 0.004,-0.002 -0.006,-0.0108 -0.0106,-0.0215 -0.0162,-0.0322 z m 5.2371,0.16592 c -0.0319,0.002 -0.0609,0.006 -0.0948,0.006 h -0.1353 -0.0129 c -5e-5,9.3e-4 -0.003,-7.4e-4 -0.004,0 h -0.002 -0.0147 -0.16038 c 0.0138,0.0686 0.0178,0.13778 0.0177,0.20722 0.1545,0.0289 0.30141,0.13417 0.40665,0.31516 z m -3.85381,1.50373 c -0.005,9.3e-4 -0.009,0.002 -0.0129,0.003 0.006,0.0324 0.0118,0.0645 0.0181,0.0964 0.01,-0.009 0.0183,-0.0136 0.028,-0.0217 -0.0121,-0.0254 -0.0226,-0.0511 -0.0332,-0.0772 z m 0.11244,0.65859 v 3.7e-4 c 0.004,0.0214 0.008,0.0434 0.0122,0.0648 0.0226,-0.002 0.0436,-0.003 0.0656,-0.005 -1.6e-4,-0.0104 1.7e-4,-0.013 0,-0.0239 -0.0252,-0.0123 -0.0478,-0.0263 -0.0778,-0.0362 z m 0.15927,2.47313 c -0.01,0.003 -0.0222,0.009 -0.0313,0.0105 -0.003,0.0454 -0.008,0.13148 -0.014,0.23873 0.01,9.3e-4 0.0198,0.002 0.0291,0.003 0.006,-0.0839 0.0119,-0.16789 0.0162,-0.25213 z m 0.70529,4.70465 c 1.1e-4,0.003 3.8e-4,0.005 7.6e-4,0.007 9.4e-4,0.006 0.003,0.012 0.004,0.0178 h 0.003 c -0.002,-0.008 -0.005,-0.016 -0.007,-0.0239 z m -2.61321,0.3485 v 0.15649 c 0.006,-0.0153 0.0164,-0.0278 0.0266,-0.0409 -0.008,-0.0377 -0.0182,-0.0897 -0.0243,-0.11556 -5.6e-4,-3e-5 -7.5e-4,-3e-5 -0.002,0 z m 5.49002,0.22568 c -0.0575,0.12998 -0.13446,0.2292 -0.22305,0.29778 0.0748,0.0438 0.0958,0.0868 -0.0468,0.11338 0.0244,0.004 0.0207,0.007 0.0903,0.007 0.0759,7.4e-4 0.1308,-0.005 0.17918,-0.0134 z m -5.48338,0.0826 -7.6e-4,7.4e-4 v 49.72212 h 5.48376 l 3.7e-4,-49.39102 c -0.0767,0.002 -0.15297,0.006 -0.22968,0.006 -0.017,0 -0.0342,-0.005 -0.0501,-0.009 -0.0304,0.005 -0.0643,0.01 -0.10876,0.0134 0.002,0.0212 -0.0271,0.0467 -0.0339,0.0706 -0.005,0.0153 0.0116,-0.0222 0.0206,-0.0431 -0.0373,0.065 -0.10037,0.12505 -0.13862,0.17135 -9.4e-4,0.003 -0.004,-7.4e-4 -0.006,0.003 -0.006,0.0143 -0.0114,0.0204 -0.0177,0.0369 -0.0235,-0.003 -0.0283,-0.005 -0.0361,-0.006 -0.0105,0.009 -0.0278,0.006 -0.049,-0.004 -0.10693,0.0209 -0.21598,0.0283 -0.32297,0.0503 -0.0493,0.004 -0.0734,0.005 -0.11429,-0.003 -0.0134,0 -0.0272,0.003 -0.0369,0.003 -0.13776,0.003 -0.27516,0 -0.41292,0 -0.0517,10e-5 -0.10388,0 -0.15558,0 -0.12044,-4e-5 -0.24051,0 -0.36094,0 -0.15093,0 -0.30183,-4e-5 -0.45274,0 h -0.29679 c -0.13875,0 -0.27733,0.004 -0.41587,-0.006 -0.0205,-0.003 -0.13163,-0.0141 -0.14673,-0.0159 -0.0503,-0.003 -0.0999,-0.0148 -0.15006,-0.0177 -0.0102,0 -0.0238,0.003 -0.0343,0.003 -0.0195,0 -0.0391,0.003 -0.0586,0.003 -0.0535,0 -0.0567,0.003 -0.12204,-0.007 -0.0183,-0.003 -0.0364,-0.0102 -0.0546,-0.013 -0.014,-0.003 0.0114,0.005 0.007,0.005 h -0.0288 c -0.0445,0.003 -0.0465,0.004 -0.10802,-0.006 -0.0183,-0.003 -0.0344,-0.0106 -0.0527,-0.0134 -0.002,0 0.005,0.007 0.003,0.007 -0.0137,0.004 -0.029,3e-5 -0.0431,0 0.009,0 0.037,-0.003 0.028,-0.003 -0.0278,0 -0.0554,0.004 -0.0833,0.005 -0.0528,0.003 -0.10602,0 -0.1589,0 -0.0379,1.6e-4 -0.076,0 -0.11393,0 -0.0487,-9e-5 -0.0976,0 -0.14636,0 h -0.24149 -0.17107 c -0.0808,1.8e-4 -0.0968,0.003 -0.12203,-0.0163 -0.006,0 -0.013,3.7e-4 -0.0155,-0.003 -0.0186,-0.018 -0.0288,-0.0314 -0.0439,-0.0478 -0.0265,-0.0243 -0.0396,-0.0402 -0.11798,-0.0985 -0.0264,-0.10792 -0.009,-0.0375 0.11798,0.0985 0.0133,0.0124 0.0513,0.0429 0.0593,0.0493 0.016,0 0.0372,-0.003 0.0424,-0.003 0.20832,-0.0345 0.10083,-0.11446 -0.028,-0.19852 -0.0202,0 -0.0369,-0.006 -0.0402,-0.0214 -9.5e-4,-0.004 -9.5e-4,-0.003 -0.002,-0.008 -0.004,-0.003 -0.008,-0.006 -0.0118,-0.008 -0.0538,1.3e-4 -0.085,-3.7e-4 -0.0863,-0.0217 -0.003,0 -0.007,-0.003 -0.0103,-0.003 -0.0916,-0.0357 -0.0839,-0.034 -0.14968,-0.075 h -7.6e-4 c -0.10077,-0.063 -0.15652,-0.13601 -0.18028,-0.2054 z m 5.09774,0.30284 c -0.008,0.003 -0.016,0.007 -0.024,0.009 0.005,0.005 0.0107,0.009 0.0151,0.0145 0.002,0.003 -5.7e-4,0.005 0.002,0.007 0.004,-0.0101 0.005,-0.0203 0.007,-0.0304 z m -0.008,0.0315 c -5.7e-4,0 -7.6e-4,0.003 -7.6e-4,0.003 5.7e-4,-6e-5 0.001,-3e-5 0.002,0 -1e-4,0 -0.001,-0.003 -0.001,-0.003 z m -0.20831,0.22025 c -0.005,0 -0.0104,0.003 -0.0155,0.003 h -3.7e-4 c -0.003,0 -0.006,-3.7e-4 -0.009,0.003 0.006,0 0.0173,0.003 0.0221,0.004 0.002,-0.003 0.002,-0.006 0.004,-0.008 z" />
    </clipPath>
  </defs>
  <metadata
     id="metadata858">
    <rdf:RDF>
      <cc:Work
         rdf:about="">
        <dc:format>image/svg+xml</dc:format>
        <dc:type
           rdf:resource="http://purl.org/dc/dcmitype/StillImage" />
        <dc:title></dc:title>
      </cc:Work>
    </rdf:RDF>
  </metadata>
  <g
     id="layer1">
    <g
       id="g1670">
      <path
         style="fill:#ffccaa;fill-opacity:1;stroke:none;stroke-width:1.55543;stroke-linecap:butt;stroke-linejoin:miter;stroke-miterlimit:4;stroke-dasharray:none;stroke-opacity:1"
         d="m 237.4981,187.83055 c 0.0208,0.96897 -1.99484,8.49066 -2.37314,9.88367 -0.37831,1.39301 -9.34398,21.11252 -9.34398,21.11252 l -3.45013,4.09029 -7.35327,2.92773 -1.22412,0.0263 -0.23673,-1.51828 -1.77043,-6.4017 -4.995,-7.64808 -9.83388,-8.02884 -6.99766,-2.68872 -12.3334,-4.02821 -14.70026,-3.35419 -6.42238,-1.24691 -7.68813,-3.1586 -1.23756,-3.2045 -0.96021,-4.38605 -0.23416,-4.26724 v 0 l -4.09825,-0.7429 -2.28921,-5.21339 0.25135,-4.13274 2.04227,-3.11795 -3.61367,-3.52309 -0.10109,-4.70644 1.18172,-8.33471 3.17677,-3.09443 -0.0526,-2.44702 -1.40534,-2.71176 -1.03956,-3.60094 c 0,0 -0.36,-3.32177 -0.37472,-4.00695 -0.0147,-0.68516 0.008,-1.86075 0.008,-1.86075 l 0.72212,-2.21889 1.84389,-1.5085 c 0,0 2.80669,-1.48021 2.99906,-1.48434 0.19234,-0.004 10.53339,-0.12834 10.53339,-0.12834 l 13.08625,0.0127 -0.44357,-2.73242 -6.49403,-8.9187 -1.06346,-2.47428 -0.48457,-4.64109 0.39467,-4.02346 c 0,0 -0.16058,-5.235613 -0.16899,-5.627143 -0.008,-0.39153 0.26935,-3.13945 0.26935,-3.13945 0,0 -0.59388,-0.77063 0.16922,-1.08081 0.76309,-0.31017 9.31382,-5.39016 9.31382,-5.39016 l 4.85035,6.30997 c 0,0 1.03064,7.66509 1.03064,7.66509 0,0 1.03193,1.006073 1.28918,1.783943 0.25727,0.77789 10.56053,16.81235 10.56053,16.81235 l 1.68966,2.5098 2.97122,1.69884 c 0,0 1.18039,1.19871 1.39061,2.02657 0.21024,0.82788 2.12196,6.95617 2.12196,6.95617 l 2.12272,4.75278 8.51926,11.37231 12.90554,18.47568 14.44645,18.54051 z"
         id="path857" />
      <path
         style="fill:none;stroke:#000000;stroke-width:1.55543;stroke-linecap:butt;stroke-linejoin:miter;stroke-miterlimit:4;stroke-dasharray:none;stroke-opacity:1"
         d="m 213.51673,224.35278 c 0,0 1.36014,-0.0292 -1.19515,-4.95993 -2.55529,-4.9307 -1.16542,-3.57567 -4.79693,-7.9293 -3.6315,-4.35363 -4.7315,-4.88396 -7.49935,-7.04033 -2.76785,-2.15636 -7.42205,-3.44127 -9.90598,-5.04978 -2.48392,-1.60851 -5.48812,-2.09793 -11.23637,-3.63632 -5.74826,-1.53839 -10.38461,-1.99275 -13.67273,-3.03003 -3.28811,-1.03728 -8.7465,-1.75096 -8.7465,-1.75096 l -7.68813,-3.15859 c 0,0 -0.56784,-1.0957 -1.14163,-2.46827 -0.57379,-1.37256 -1.20705,-5.51363 -1.20705,-5.51363 0,0 -0.3077,-1.65525 0.47864,-3.05703 0.78635,-1.40178 2.64296,-3.65748 3.97931,-4.7941 1.33635,-1.13662 1.85067,-2.53254 4.28107,-3.41569 2.43041,-0.88314 -0.56189,-0.81886 7.59893,-0.99417 8.16081,-0.1753 8.17271,0.3784 13.08109,0.82693 4.90839,0.44852 6.65949,5.95044 6.65949,5.95044 0,0 -0.73877,3.61659 -2.36499,3.9285 -1.62621,0.31189 -7.89474,-0.10739 -7.89474,-0.10739 l -5.71851,-0.15415 -1.91014,-0.23594 c 0,0 -0.52027,1.11907 -0.76851,2.23233 -0.24824,1.11325 -3.16917,4.49972 -3.16917,4.49972"
         id="path847" />
      <path
         style="fill:none;stroke:#000000;stroke-width:1.55543;stroke-linecap:butt;stroke-linejoin:miter;stroke-miterlimit:4;stroke-dasharray:none;stroke-opacity:1"
         d="m 146.34366,175.93975 -4.09825,-0.7429 -1.41366,-2.46243 -0.87555,-2.75097 c 0,0 0.20661,-3.05119 0.72687,-4.17028 0.52027,-1.11908 0.76851,-2.23234 2.64296,-3.65747 1.87446,-1.42516 -0.29581,-1.10157 5.88945,-4.55816 6.18527,-3.4566 5.64121,-3.44491 7.53351,-4.03952 1.89229,-0.59459 1.34824,-0.58291 3.79649,-0.6355 2.44824,-0.0526 6.50486,-1.24764 8.43879,0.0957 1.93392,1.34333 2.75595,1.60266 4.40001,2.12131 1.64406,0.51864 9.03042,2.29881 9.03042,2.29881 0,0 0.62731,3.86422 -0.44296,4.71814 -1.07026,0.85392 -0.50837,1.67279 -5.67689,1.78381 -5.16851,0.11102 -10.07095,-0.0606 -10.07095,-0.0606 l -6.80068,0.14608 -7.24959,4.58736"
         id="path849" />
      <path
         style="fill:none;stroke:#000000;stroke-width:1.55543;stroke-linecap:butt;stroke-linejoin:miter;stroke-miterlimit:4;stroke-dasharray:none;stroke-opacity:1"
         d="m 142.24982,162.73276 -3.61367,-3.52308 -0.10109,-4.70645 1.18172,-8.33471 9.11215,-6.56623 6.75905,-2.08402 16.35732,1.31049 c 0,0 3.27622,0.48358 5.73636,0.98469 2.46014,0.5011 3.83217,1.02559 3.8738,2.96354 0.0416,1.93795 1.9815,3.55814 -0.17093,4.71229 -2.15243,1.15414 -6.14364,5.39455 -6.14364,5.39455 l -7.35068,-0.11908 -13.31149,1.11688"
         id="path851" />
      <path
         style="fill:none;stroke:#000000;stroke-width:1.55543;stroke-linecap:butt;stroke-linejoin:miter;stroke-miterlimit:4;stroke-dasharray:none;stroke-opacity:1"
         d="m 142.89355,143.0741 c 0,0 0.34686,-1.77012 -0.25963,-3.12807 -0.60649,-1.35793 -0.80304,-1.54957 -1.62713,-4.07795 -0.82407,-2.52838 -1.06268,-4.67765 -1.0795,-5.46069 -0.0168,-0.78305 0.3048,-3.72776 1.06161,-4.33154 0.75678,-0.60384 2.62985,-2.9943 8.20806,-3.11413 5.57822,-0.11982 19.25205,0.36987 20.41458,0.73658 1.16251,0.36674 7.51435,0.42614 8.11664,1.58835 0.60228,1.16217 1.64395,4.86099 1.67759,6.42708 0.0336,1.5661 -0.288,4.51081 -1.62605,4.93125 -1.33805,0.42045 -5.83442,2.18378 -5.83442,2.18378 v 0"
         id="path853" />
      <path
         style="fill:none;stroke:#000000;stroke-width:1.55543;stroke-linecap:butt;stroke-linejoin:miter;stroke-miterlimit:4;stroke-dasharray:none;stroke-opacity:1"
         d="m 234.60476,183.99581 c 0,0 -17.60714,-22.34071 -18.80751,-24.46929 -1.20038,-2.1286 -11.32152,-16.40429 -12.90239,-18.32885 -1.58088,-1.92458 -4.55025,-5.77785 -5.16936,-7.72309 -0.61912,-1.94521 -3.02827,-6.59393 -3.44663,-8.15179 -0.41833,-1.55783 0.1335,-2.74476 -2.79385,-4.64044 -2.92732,-1.89565 -3.16173,-3.84914 -5.52882,-6.54024 -2.36711,-2.69107 -9.36857,-15.075263 -9.36857,-15.075263 0,0 -0.51086,-5.8646 -1.32232,-7.80573 -0.81147,-1.94108 -4.55868,-6.16934 -4.55868,-6.16934 l -9.48304,6.47097 c 0,0 0.0925,4.30682 -0.0242,7.83465 -0.11665,3.527843 -0.80617,7.263883 0.21447,9.983903 1.02063,2.72 7.35672,11.00559 7.35672,11.00559 l 0.44358,2.73242"
         id="path855" />
      <path
         style="fill:#ffe6d5;stroke:#000000;stroke-width:1.55543;stroke-linecap:butt;stroke-linejoin:miter;stroke-miterlimit:4;stroke-dasharray:none;stroke-opacity:1"
         d="m 173.64635,176.84202 c 0,0 3.66568,-0.39035 3.89998,-0.56849 0.23431,-0.17814 0.83373,-0.77961 0.85881,-1.19561 0.0252,-0.41601 0.19882,-0.24662 -0.0238,-1.1074 -0.2226,-0.86076 -1.33022,-3.32977 -1.60597,-3.49696 -0.27574,-0.16719 -1.95604,-0.78892 -2.26355,-0.85156 -0.30752,-0.0626 -1.2559,0.13085 -1.2559,0.13085 l -0.74584,0.1199 c 0,0 -0.31699,1.08011 -0.33241,1.94598 -0.0155,0.8659 0.0506,2.35322 0.0587,2.7339 0.008,0.38066 0.091,1.07133 0.091,1.07133 l 0.43406,1.20245 1.32613,-0.0285"
         id="path859" />
      <path
         style="fill:#ffe6d5;stroke:#000000;stroke-width:1.55543;stroke-linecap:butt;stroke-linejoin:miter;stroke-miterlimit:4;stroke-dasharray:none;stroke-opacity:1"
         d="m 176.10029,162.80193 c 0,0 2.44304,-0.29483 3.11717,-0.58628 0.67412,-0.29147 0.73841,-0.46597 0.8603,-1.1264 0.12194,-0.66045 0.69326,-0.98431 -0.10664,-1.79806 -0.79991,-0.81375 -2.82247,-1.53199 -3.13148,-1.66385 -0.309,-0.1319 -2.18735,-0.47235 -2.18735,-0.47235 0,0 -0.22113,-0.79155 -0.26832,0.17888 -0.0472,0.97044 -0.0753,1.24802 -0.0271,1.9048 0.0482,0.65679 -10e-4,1.52341 0.002,1.66184 0.003,0.13847 -0.0827,0.90195 0.0564,1.03744 0.13905,0.13557 0.55595,0.54202 0.55595,0.54202 z"
         id="path861" />
      <path
         style="fill:#ffe6d5;stroke:#000000;stroke-width:1.55543;stroke-linecap:butt;stroke-linejoin:miter;stroke-miterlimit:4;stroke-dasharray:none;stroke-opacity:1"
         d="m 172.21866,149.97124 c 0.54182,-0.11551 3.93325,-0.60383 4.20156,-0.7827 0.26831,-0.17888 0.83447,-0.745 1.26536,-1.27358 0.4309,-0.5286 0.79378,-1.05571 0.64216,-1.77953 -0.15168,-0.7238 -0.0992,-1.45201 -0.48962,-2.20531 -0.39039,-0.7533 -0.30102,-1.34379 -1.26054,-1.6694 -0.95953,-0.32561 -1.8126,-0.44578 -2.73217,-0.49527 -0.91959,-0.0495 -2.42094,-0.2596 -2.42094,-0.2596 0,0 -0.44965,4.40669 -0.44667,4.54511 0.003,0.13848 0.18364,2.21188 0.25829,2.52187 0.0747,0.31 0.56933,1.16492 0.56933,1.16492 z"
         id="path863" />
      <path
         style="fill:#ffe6d5;stroke:#000000;stroke-width:1.55543;stroke-linecap:butt;stroke-linejoin:miter;stroke-miterlimit:4;stroke-dasharray:none;stroke-opacity:1"
         d="m 169.68582,134.99959 c 0,0 3.22809,-0.17322 4.0345,-0.64061 0.80642,-0.46742 1.49169,-0.23978 1.77171,-1.45757 0.28001,-1.21778 0.64811,-1.50266 0.14901,-2.56525 -0.49909,-1.06258 -1.17861,-2.60596 -1.96737,-2.90063 -0.78878,-0.29465 -2.23328,-1.0253 -2.5393,-1.01873 -0.30604,0.007 -2.03946,0.0785 -2.03946,0.0785 0,0 -0.53921,3.40457 -0.56802,3.64753 -0.0289,0.243 -0.0122,2.59693 0.13712,3.21693 0.14945,0.61999 0.34469,1.79295 0.34469,1.79295 l 0.91215,-0.29658"
         id="path865" />
      <path
         style="fill:#aa4400;stroke:#000000;stroke-width:1.1;stroke-linecap:butt;stroke-linejoin:miter;stroke-miterlimit:4;stroke-dasharray:none;stroke-opacity:1"
         d="m 180.50159,163.00049 c 0,0 0.75495,-0.82358 1.57853,-0.96084 0.82358,-0.13727 2.74527,0.20589 2.74527,0.20589 l 0.68632,0.54905 -0.82358,146.66614 -0.68632,8.09855 -2.60801,0.34314 c 0,0 -1.16674,-1.0981 -1.09811,-1.7158 0.0686,-0.61767 0.27453,-25.46239 0.27453,-25.46239 z"
         id="path867"
         clip-path="url(#clipPath1630)"
         transform="matrix(1.4016585,0,0,1.4265079,-98.288019,-205.07606)" />
      <path
         style="fill:none;stroke:#000000;stroke-width:1.78875;stroke-linecap:butt;stroke-linejoin:miter;stroke-miterlimit:4;stroke-dasharray:none;stroke-opacity:1"
         d="m 251.8758,131.82232 c -0.90817,-6.44362 -0.97884,-72.444472 -0.97884,-72.444472"
         id="path1721" />
      <path
         style="fill:#ff0000;fill-opacity:1;stroke:#000000;stroke-width:1.1;stroke-linecap:round;stroke-miterlimit:4;stroke-dasharray:none;stroke-opacity:1;paint-order:markers fill stroke"
         id="path1723"
         d="m 140.83241,228.81836 -2.85297,-4.94149 5.70594,0 z"
         transform="matrix(-1.4016072,0.01198911,-0.01220166,-1.4264557,451.46343,376.92293)" />
      <text
         xml:space="preserve"
         style="font-size:14.9651px;line-height:1.25;font-family:sans-serif;letter-spacing:0px;word-spacing:0px;stroke-width:0.374128"
         x="286.1857"
         y="69.365799"
         id="text1727"
         transform="scale(0.99125188,1.0088253)"><tspan
           id="tspan1725"
           x="286.1857"
           y="69.365799"
           style="stroke-width:0.374128">direction </tspan><tspan
           x="286.1857"
           y="88.072174"
           style="stroke-width:0.374128"
           id="tspan1729">of </tspan><tspan
           x="286.1857"
           y="106.77855"
           style="stroke-width:0.374128"
           id="tspan1731">current</tspan></text>
      <path
         style="fill:none;stroke:#000000;stroke-width:2.35436;stroke-linecap:butt;stroke-linejoin:miter;stroke-miterlimit:4;stroke-dasharray:none;stroke-opacity:1"
         d="m 139.71678,146.16852 c 0,0 -24.45239,1.10152 -29.8395,1.29732 -5.3871,0.19582 6.92628,-0.97904 -19.432062,1.76228 -26.358343,2.74131 -28.474708,3.91615 -32.130241,4.69938 -3.655538,0.78323 -16.161321,6.07003 -16.161321,6.07003 0,0 -3.463138,1.76228 -0.961981,4.11196 2.501156,2.34969 8.465451,6.65746 10.774211,6.85326 2.308762,0.19582 35.785781,3.91617 36.555362,4.11197 0.76959,0.1958 39.248922,3.91615 39.248922,3.91615 0,0 14.81453,0.1958 17.1233,-0.19582 2.30876,-0.3916 40.29835,-0.22081 40.29835,-0.22081 l 42.6246,0.22081 30.39868,-1.17484 43.28924,-4.11195 19.04729,-5.67843 c 0,0 6.34908,-3.52453 6.34908,-4.50357 0,-0.97904 0.96196,-2.54549 -2.50116,-3.52453 -3.46316,-0.97904 -23.4724,-7.24488 -24.62677,-7.24488 -1.15438,0 -32.70744,-5.48261 -36.17057,-5.09101 -3.46314,0.39162 -33.09224,-0.3916 -34.05421,-0.1958 -0.96198,0.1958 -22.15679,-1.3542 -22.15679,-1.3542"
         id="path1530" />
      <path
         style="fill:none;stroke:#000000;stroke-width:1.865;stroke-linecap:butt;stroke-linejoin:miter;stroke-miterlimit:4;stroke-dasharray:none;stroke-opacity:1"
         d="m 121.64155,140.11023 -9.43112,7.24348 11.9637,4.83372"
         id="path1646" />
      <path
         style="fill:none;stroke:#000000;stroke-width:2.265;stroke-linecap:butt;stroke-linejoin:miter;stroke-opacity:1;stroke-miterlimit:4;stroke-dasharray:none"
         d="m 262.29291,166.37243 10.9151,9.92281 -11.57662,8.93052"
         id="path1648" />
    </g>
  </g>
</svg>
