<?xml version="1.0" encoding="UTF-8" standalone="no"?>
<svg
   xmlns:dc="http://purl.org/dc/elements/1.1/"
   xmlns:cc="http://creativecommons.org/ns#"
   xmlns:rdf="http://www.w3.org/1999/02/22-rdf-syntax-ns#"
   xmlns:svg="http://www.w3.org/2000/svg"
   xmlns="http://www.w3.org/2000/svg"
   xmlns:sodipodi="http://sodipodi.sourceforge.net/DTD/sodipodi-0.dtd"
   xmlns:inkscape="http://www.inkscape.org/namespaces/inkscape"
   width="400mm"
   height="297mm"
   viewBox="0 0 400 297"
   version="1.1"
   id="svg8"
   sodipodi:docname="seriesresistors.svg"
   inkscape:version="1.0.2 (e86c870879, 2021-01-15, custom)">
  <sodipodi:namedview
     pagecolor="#ffffff"
     bordercolor="#666666"
     borderopacity="1"
     objecttolerance="10"
     gridtolerance="10"
     guidetolerance="10"
     inkscape:pageopacity="0"
     inkscape:pageshadow="2"
     inkscape:window-width="1920"
     inkscape:window-height="1017"
     id="namedview59"
     showgrid="false"
     inkscape:zoom="0.26064183"
     inkscape:cx="-122.63965"
     inkscape:cy="610.95396"
     inkscape:window-x="-8"
     inkscape:window-y="-8"
     inkscape:window-maximized="1"
     inkscape:current-layer="svg8" />
  <defs
     id="defs2">
    <clipPath
       clipPathUnits="userSpaceOnUse"
       id="clipPath1164">
      <path
         id="path1166"
         style="fill:#ff0000;fill-opacity:1;fill-rule:nonzero;stroke:none;stroke-width:0.264583"
         d="m 46.209582,171.76161 v 116.40168 h 25.167455 v -0.45889 c 0,-2.32169 1.002515,-3.64802 2.150259,-3.98632 0.0096,-0.0485 0.02447,-0.0952 0.04857,-0.13952 0.563304,-1.03589 1.397101,-2.95626 2.94504,-2.90266 0.286655,0.01 0.597901,0.0872 0.936377,0.25061 0.117787,0.0569 0.227409,0.11449 0.333314,0.17262 0.433689,-0.53867 0.874361,-1.07051 1.377693,-1.54255 0.123584,-0.11591 1.834782,-0.16587 1.887223,-0.0966 0.670266,0.88199 1.352389,1.77216 1.925981,2.72077 0.339336,0.15748 0.675532,0.3211 1.008724,0.49144 0.0074,-0.68419 0.01587,-1.3684 0.0217,-2.05259 0.02313,-2.71759 1.407779,-4.06458 2.78071,-4.05246 1.372928,0.0122 2.7339,1.38295 2.709394,4.10051 -0.0058,0.64593 -0.01365,1.29193 -0.02066,1.93786 0.05752,0.0109 0.115068,0.022 0.172599,0.0367 1.451813,-0.27633 3.047902,0.99668 3.128491,3.81629 0.0618,-0.0793 0.145201,-0.11969 0.230476,-0.11728 0.0065,-0.076 0.01207,-0.15209 0.0217,-0.22792 0.01953,-0.15338 0.05839,-0.30334 0.08837,-0.45527 0.04124,0.0283 0.06743,0.0411 0.0863,0.0476 -0.02363,-0.035 -0.0577,-0.0728 -0.02791,-0.0832 0.01386,-0.005 0.0177,-0.006 0.03101,-0.0103 -0.03584,-0.0723 -0.08624,-0.15732 -0.05426,-0.15915 0.184322,-0.009 0.368859,0.003 0.553456,0.005 0.04576,-0.008 0.07922,-0.008 0.09922,0.003 0.01169,-1.1e-4 0.02344,0 0.03514,0 0.0074,-1.9e-4 -0.004,-0.0292 -0.0021,-0.0222 0.05064,0.18645 0.03984,0.12957 0.05271,0.27803 0.03474,0.0844 -0.02426,0.17409 -0.0083,0.25889 0.02228,0.11695 0.06087,0.23 0.09095,0.3452 0.0496,-0.3393 0.08389,-0.66773 0.189135,-0.99684 0.02069,-0.0647 0.06166,-0.12086 0.0925,-0.18137 0.23246,-0.29581 0.231084,-0.32211 0.765328,0.0185 0.05755,0.0368 0.03123,0.13287 0.04392,0.19997 0.07823,0.41367 0.150653,0.82846 0.224792,1.24283 0.02614,-0.004 0.0524,-0.007 0.07855,-0.0119 0.123817,-0.0188 0.245771,-0.0497 0.37052,-0.061 0.02814,-0.003 0.04108,-0.003 0.06718,-0.004 0.01707,-0.0265 0.02999,-0.0538 0.03721,-0.0822 -0.0026,1.6e-4 -0.0041,0 -0.0067,0 -0.01323,0 0.01447,-0.0505 0.01394,-0.0372 -5.29e-4,0.0127 -0.0041,0.0246 -0.0072,0.0367 0.715907,-0.0426 0.590214,-0.29345 0.703315,0.0449 5.29e-4,0.005 6.9e-5,0.01 5.29e-4,0.0151 0.06818,0 0.12137,0.003 0.204637,0.003 0.176173,0.0306 0.659868,0.0506 0.818555,0.20772 0.0072,0.007 0.0088,0.0103 0.0155,0.0164 -0.0026,-0.28179 -0.0079,-0.49708 0.03721,-0.79685 0.0094,-0.0624 0.03412,-0.12121 0.05116,-0.1819 0.05301,-0.0726 0.01879,-0.0275 0.04548,-0.0651 -0.0051,-0.4681 -0.0095,-0.93593 -0.0021,-1.40403 0.18093,-0.42643 0.07452,-0.45448 0.71882,-0.12714 0.04146,0.0212 0.01569,0.0923 0.02429,0.13798 0.07782,0.41331 0.170177,0.82336 0.242879,1.23765 0.01897,0.13618 0.04427,0.27066 0.07234,0.40462 0.08893,0.22487 0.167532,0.4544 0.240297,0.68472 0.0678,-0.006 0.150953,-0.0111 0.217557,-0.0169 -0.0042,-0.18201 -0.01162,-0.36574 -0.0021,-0.54727 0.0042,-0.0793 -0.05431,-0.2068 0.01913,-0.2372 0.177866,-0.0738 0.380376,-0.0777 0.57516,-0.0599 -0.03212,-0.43412 -0.06876,-0.86807 -0.09767,-1.30225 0.0086,-0.0101 0.01535,-0.0222 0.02379,-0.0326 -0.0051,-0.0286 -0.0089,-0.0574 -0.0052,-0.0868 0.0042,-0.0337 0.01775,-8e-5 0.03617,0.045 0.124822,-0.17176 0.223262,-0.37891 0.411852,-0.46611 0.0118,-0.005 0.0231,-0.008 0.0341,-0.007 0.0769,0.006 0.13508,0.15378 0.17673,0.23411 0.0664,0.12798 0.0835,0.27598 0.12196,0.41497 0.10752,0.38806 0.20008,0.77941 0.28474,1.17253 0.0801,-0.068 0.12613,-0.10639 0.16175,-0.12298 -0.0177,-0.103 -0.0285,-0.20373 0.001,-0.25064 0.27232,-0.43339 0.46816,-0.55706 0.76482,-0.15814 0.0716,0.0962 0.0753,0.22788 0.11317,0.34157 0.0423,0.20484 0.0979,0.40736 0.12712,0.61445 0.002,0.0164 0.003,0.0331 0.004,0.0496 0.0346,0.0175 0.0677,0.0431 0.0992,0.0744 0.0523,-0.0201 0.10637,-0.0419 0.15037,-0.0527 0.035,-0.008 0.0668,-0.0135 0.0951,-0.0159 0.0715,-0.006 0.1228,0.01 0.16588,0.047 0.0379,-8e-5 0.078,0 0.10955,0.003 0.0146,0.003 0.0288,0 0.0434,0 2.7e-4,-0.0199 -0.003,-0.0398 -5.3e-4,-0.0594 0.003,-0.0227 0.0307,-0.0781 0.0636,-0.13901 5.3e-4,-0.008 -0.002,-0.0217 -5.3e-4,-0.0274 0.0227,-0.0884 0.0657,-0.17013 0.0987,-0.25527 0.0251,0.003 0.0515,0 0.077,-0.003 0.0121,-0.0148 0.0266,-0.0276 0.0403,-0.0408 -0.002,0.005 -2.7e-4,0.007 0.005,0.005 0.12337,-0.0487 0.22854,-0.1388 0.35398,-0.1819 0.0173,-0.006 0.038,-0.007 0.0574,-0.003 0.0194,0.004 0.0376,0.0132 0.0501,0.0269 0.0574,0.0608 0.0958,0.10559 0.13384,0.15039 0.0535,0.005 0.12914,0.0308 0.21911,0.0703 0.0396,-0.0109 0.0712,-0.0156 0.10128,-0.019 0.13922,-0.14237 0.34161,-0.21132 0.46509,-0.0341 0.0785,0.11258 0.13043,0.26607 0.17208,0.42633 0.0125,0.003 0.0238,0.004 0.0377,0.007 7e-5,-0.0482 -2e-5,-0.0964 0,-0.14467 0.0652,-0.10414 0.0964,-0.24064 0.19585,-0.31266 0.39362,-0.28477 0.51639,0.38272 0.57568,0.57102 0.0309,0.0982 0.002,0.20606 5.2e-4,0.30904 -0.003,0.23794 -0.007,0.29543 -0.0176,0.50125 -0.007,0.33356 0.002,0.6673 0.002,1.00097 0,0.0169 4e-5,0.0341 0,0.0512 h 45.313 c 3e-5,0 -0.001,-0.004 -0.001,-0.004 v -0.0899 c -0.007,-0.006 -0.0142,-0.0111 -0.0212,-0.0161 0.007,0 0.0142,0.003 0.0217,0.004 l -5.3e-4,-0.0169 c -0.0123,0.005 -0.0199,0.006 -0.0284,0.007 0.002,0.003 0.005,0.004 0.007,0.006 -0.006,0 -0.0117,-0.003 -0.0176,-0.004 0.003,-1.4e-4 0.006,5e-5 0.0104,-0.003 -0.0178,-0.0135 -0.036,-0.0268 -0.0537,-0.0403 -0.007,-0.005 -0.0142,-0.0106 -0.0212,-0.0161 -1e-5,-0.0284 3e-5,-0.057 0,-0.0853 -2e-4,-0.0394 -4e-5,-0.0784 0,-0.11782 -4e-5,-0.0753 -5.3e-4,-0.16105 0,-0.23926 0.002,-0.0824 0.005,-0.16537 -0.004,-0.24755 0.002,-0.0266 0.005,-0.0531 0.008,-0.0796 -0.002,-0.003 -0.004,-0.003 -0.006,-0.003 -0.002,-0.003 0.003,-0.11007 0.003,-0.15036 -0.003,-0.0347 -0.006,-0.0756 -0.0243,-0.10647 -0.006,-0.0297 -0.0109,-0.0593 -0.0165,-0.0889 0.002,-0.0567 0.009,-0.11229 0.007,-0.16899 -0.001,-0.0396 -1e-5,-0.0792 0,-0.11885 -0.002,-0.0414 10e-4,-0.07 0.0145,-0.1106 0.009,-0.0288 0.0134,-0.0151 0.01,-0.0259 -0.006,0.0161 -0.003,0.0296 0.003,0.0449 0.0592,0.15918 0.0824,-0.23775 0.15039,-0.0822 0.008,0.0188 0.012,0.0374 0.0124,0.0569 0.009,0.003 0.0207,0.005 0.0341,0.008 0.0325,-0.008 0.0556,-0.0156 0.0672,-0.0185 0.001,-0.0198 0.006,-0.0385 0.0129,-0.0568 5.3e-4,-0.008 0.002,-0.0175 0.001,-0.0259 -0.001,-0.023 -0.009,-0.0457 -0.0114,-0.0687 -0.002,-0.0193 -0.003,-0.0385 -0.004,-0.0579 -0.005,-0.0286 0.002,-0.0561 0.004,-0.0842 0,-0.0103 -0.002,-0.0233 -0.002,-0.0341 -9e-5,0 1e-4,-0.003 0,-0.004 -0.006,-0.0849 0.0338,-0.12983 0.077,-0.13229 0.0432,-0.003 0.089,0.0376 0.0935,0.12248 1.7e-4,0.003 2.1e-4,0.007 5.3e-4,0.01 0.0177,-0.009 0.0327,-0.0143 0.0393,-0.007 0.003,0 0.002,-0.003 0.006,-0.003 0.0124,-0.005 0.0126,0.0238 0.0186,0.0362 0.0303,0.0664 0.054,0.13523 0.0806,0.20307 0.0464,-0.0167 0.0975,0.0196 0.0992,0.11835 2.6e-4,0.0212 1e-5,0.0418 0,0.0625 0.0186,-0.003 0.0383,-0.006 0.0594,-0.008 1.4e-4,-0.003 -2.6e-4,-0.006 0,-0.009 0.003,-0.0352 -0.0165,-0.0891 0.015,-0.1049 0.002,0 0.006,-1.1e-4 0.008,-0.003 5.3e-4,0 -7.9e-4,-0.003 0,-0.003 h 0.007 c -0.005,-0.003 -0.011,-0.003 -0.016,-0.004 -0.0127,-0.006 -0.0119,-0.0419 0.002,-0.0429 0.0113,0 0.0227,0.003 0.0341,0.003 -2.6e-4,0 8e-4,-1.1e-4 5.3e-4,-0.003 -0.008,0 -0.0159,-1e-4 -0.0238,-0.003 0.0278,-0.0569 0.0342,-0.10435 0.14211,-0.10234 0.045,0 0.0561,0.0529 0.061,0.0961 0.02,0.003 0.0414,0.004 0.0734,0.0114 -0.005,-0.0241 -0.007,-0.0487 -0.0119,-0.0729 -0.001,-0.004 -7.9e-4,0.0119 0.003,0.0119 0.0176,1.6e-4 0.0352,-0.003 0.0527,-0.003 0.0236,-0.0185 0.0487,-0.035 0.0739,-0.0506 -0.002,-0.0228 -0.004,-0.0452 -0.007,-0.0677 -0.003,-0.0262 -0.0295,-0.058 -0.0129,-0.0785 2.3e-4,0 7.9e-4,-2.4e-4 0.001,0 -0.002,-0.0135 -0.004,-0.0272 -0.007,-0.0408 -10e-4,-0.005 -0.009,-0.0143 -0.004,-0.014 0.0232,0.003 0.047,0.003 0.0708,0.005 0.0306,-0.0198 0.0634,-0.037 0.0966,-0.0506 0.011,-0.004 0.006,0.0217 0.009,0.0325 0.004,0.0228 0.007,0.0455 0.0109,0.0682 5.3e-4,0.006 0.003,0.0106 0.003,0.0175 0.004,0.0257 0.008,0.0513 0.0124,0.077 0.0255,-0.0101 0.0664,-0.005 0.13746,0.0279 0.009,0.004 0.0134,0.0106 0.0165,0.0185 0.01,-0.0317 0.0208,-0.0592 0.0393,-0.10334 0.0111,-0.0183 0.0212,-0.0374 0.0336,-0.0548 0.003,-0.005 0.008,-0.008 0.0114,-0.0124 0.004,-0.008 0.009,-0.0161 0.0155,-0.0169 h 5.3e-4 c 0.0177,-0.003 0.0428,0.0243 0.0687,0.0496 0.003,-0.0582 0.008,-0.10684 0.0465,-0.0439 0.008,0.0132 0.0251,0.0241 0.0248,0.0398 -5.2e-4,0.0288 5.3e-4,0.0893 -0.0274,0.0822 -8e-4,0 -0.001,0 -0.002,-0.003 0.0126,-0.005 0.0258,-0.0106 0.0207,-0.0156 -0.0192,-0.0193 -0.0412,-0.0377 -0.063,-0.0589 -7.9e-4,0.018 -0.004,0.0286 -0.005,0.0465 0.0126,0.0124 0.0266,0.0222 0.0429,0.0279 -0.0175,0.007 -0.0334,0.0156 -0.009,0.0254 -0.02,0.0455 -0.0339,0.072 -0.045,0.12454 -0.006,0.0257 -0.006,0.0518 -0.009,0.078 -0.009,0.0786 -0.022,0.15682 -0.03,0.23564 -0.002,0.12547 0.0208,0.23749 0.0486,0.35968 0.016,0.0701 0.0311,0.13996 0.0501,0.20928 0.0247,0.0897 0.0681,0.17397 0.0899,0.26459 0.0101,0.0301 0.0229,0.0638 0.0346,0.0982 0.009,0.0124 0.0215,0.0308 0.0248,0.0346 0.0127,0.0148 0.029,0.0262 0.0419,0.0408 0.0611,0.0697 0.0544,0.065 0.0946,0.13745 0.0493,0.0963 0.0959,0.19008 0.12764,0.29403 0.007,0.0228 0.004,0.0504 0.003,0.077 h 1.96268 c 0.006,-0.0209 0.0118,-0.0409 0.0186,-0.0636 0.008,-0.0277 0.0133,-0.0569 0.0253,-0.0832 0.0105,-0.023 0.021,-0.0409 0.0315,-0.062 0.0643,-0.25453 0.12604,-0.5099 0.1726,-0.7679 0.0152,-0.0839 0.0234,-0.16872 0.0346,-0.25323 0.006,-0.0455 0.0116,-0.0909 0.0176,-0.13642 -5e-5,-0.004 0,-0.008 0,-0.0124 0.003,-0.0254 0.006,-0.051 0.0103,-0.0765 0.006,-0.04 0.007,-0.0489 0.009,-0.0636 5.3e-4,-0.0111 0.002,-0.023 0.004,-0.0294 1e-4,-0.003 5.3e-4,-0.003 5.3e-4,-0.003 2.4e-4,-0.003 -0.004,-0.0119 0,-0.0114 0.007,0 0.005,2.6e-4 0.0114,0 0.011,-0.005 0.0561,-0.003 0.0941,0 -8e-4,-0.11785 0.0904,-0.14856 0.14004,-0.0837 5.3e-4,2e-5 0.001,-6e-5 0.002,0 0.003,0 0.006,0 0.009,0 0.0251,-0.003 0.0506,-0.003 0.0749,0 7.9e-4,-0.0451 0.003,-0.0902 0.003,-0.13539 0,-0.0376 -0.003,-0.0746 -0.002,-0.11213 7.9e-4,-0.0236 1.6e-4,-0.0553 0.002,-0.0868 -0.004,-0.0143 -0.003,-0.0259 0.006,-0.0331 0.009,-0.0628 0.0392,-0.1062 0.13953,-0.0449 0.006,-0.0518 0.01,-0.10399 0.0212,-0.15452 0.0398,0.0164 0.0817,0.0291 0.12092,0.0465 0.0163,0 0.0327,-0.003 0.0486,-0.004 -0.002,0.005 -0.002,0.0177 -0.004,0.0259 5.3e-4,0 0.001,1.8e-4 0.002,0 0.0153,0.0114 -0.003,0.0375 -0.003,0.0563 -0.001,0.0931 -0.001,0.18648 -0.002,0.27958 0.002,2.4e-4 0.003,0 0.005,0 0.0149,-0.003 0.0301,-0.005 0.046,-0.006 2.6e-4,-0.007 -7.9e-4,-0.0268 0,-0.0274 0.002,-0.003 0.003,-0.003 0.006,-0.004 -0.006,-0.0295 -0.0116,-0.0588 -0.0165,-0.0884 -0.002,-0.0146 -0.0188,-0.0399 -0.005,-0.0439 0.0451,-0.0138 0.093,-0.009 0.14056,-0.008 0.01,-0.003 0.0186,-0.007 0.0284,-0.009 0.004,0 0.004,0.004 0.004,0.01 8e-4,-2e-5 0.001,3e-5 0.002,0 10e-4,0.008 0.004,0.0154 0.006,0.0233 0.001,-0.003 -7.9e-4,-0.006 0.002,-0.008 0.002,-0.003 0.006,-0.003 0.008,-0.004 -0.001,-0.004 -0.001,-0.006 -0.002,-0.0103 0.008,0 0.0166,0 0.0248,0.003 0.044,-0.019 0.0934,-0.0273 0.13952,-0.0419 0.004,0.0164 0.006,0.0287 0.008,0.0383 0.0193,-0.003 0.0393,0.003 0.0599,0.009 0.0293,-0.008 0.0575,-0.0109 0.0822,0.004 0.0127,0.007 0.0139,0.0212 0.0124,0.0367 0.0319,-0.004 0.0435,0.0138 0.0491,0.0377 0.002,0 0.002,0 0.004,0.003 0.0121,0.007 0.0122,0.0206 0.009,0.0362 0.0445,-0.003 0.0887,-0.006 0.13332,0 0.012,0.005 0.0272,0.006 0.0362,0.0159 0.0201,0.023 0.0295,0.041 0.0357,0.0584 0.004,-0.003 0.008,5e-5 0.0119,0 0.01,-0.039 0.0202,-0.0775 0.0289,-0.11679 0.002,-0.0185 0.004,-0.0372 0.006,-0.0558 0.004,-0.0365 0.005,-0.0569 0.0103,-0.0724 -0.003,-0.008 -0.006,-0.0153 0,-0.0156 0.002,-8e-5 0.005,10e-5 0.008,0 0.0167,-0.0164 0.0551,-0.018 0.15865,-0.0222 0.013,0 0.004,0.0243 0.005,0.0367 0.004,0.0437 0.007,0.0875 0.009,0.13126 0.002,0.0515 0.004,0.10298 0.005,0.15452 0.0418,-0.005 0.0575,0.003 0.0713,0.0625 0.004,0.0217 0.007,0.0435 0.0103,0.0651 0.001,0 0.002,-0.003 0.004,-0.003 0.0198,-0.0143 0.0394,-0.0288 0.0589,-0.0434 0.0403,-0.0303 0.0798,-0.0671 0.13022,-0.0796 0.1218,-0.0228 0.009,0 0.092,-0.0164 0.032,0.0259 0.0608,0.0568 0.0961,0.078 0.004,0.003 0.004,0 0.005,0 0.0116,0.0209 0.0203,0.0432 0.0145,0.0698 -1.5e-4,0.008 -8e-4,0.0164 -0.001,0.0243 -2e-4,0.006 0.006,0.0206 0,0.0185 -0.0152,-0.006 -0.0427,-0.0484 -0.0367,-0.0331 0.027,0.0727 0.0648,0.0241 0.0506,0.11885 0.003,0.12118 0.0428,0.2394 0.0408,0.36121 -10e-6,0.15611 -4e-5,0.31208 0,0.46818 -10e-6,0.04 3e-5,0.08 0,0.11991 0.008,0.0857 0.0205,0.17296 0.008,0.25837 -7.9e-4,0.0111 5.3e-4,0.0283 -0.008,0.0331 3e-5,0.0206 -6e-5,0.0414 0,0.062 0,0.003 -10e-6,0.006 0,0.009 1.1e-4,0.0154 5.3e-4,0.0305 5.3e-4,0.046 0,0 -2e-5,0 0,0 5.3e-4,0.0103 0.004,0.0228 0.003,0.0315 0.003,0.0122 0.009,0.0271 -0.001,0.0279 -0.0244,0.003 -0.0492,0 -0.0739,-0.003 -0.0322,0.005 -0.0649,0.008 -0.0971,0.006 5.2e-4,0.018 0.003,0.0358 0.004,0.0538 -2.6e-4,0.003 5.3e-4,0.006 0.001,0.009 h 110.3123 V 171.76161 Z m 40.520009,111.6309 c -0.0057,0 -0.0043,0.004 0.0078,0.0151 0.05555,0.0522 0.114412,0.10197 0.172083,0.15245 0.05319,0.0198 0.10587,0.0408 0.159681,0.0589 0.108725,0.0365 -0.299638,-0.22146 -0.339513,-0.22635 z m 8.105963,2.09135 c -0.02328,0.0138 -0.03544,0.0249 0.01085,0.0175 -0.0055,-0.0101 -0.0067,-0.0101 -0.01085,-0.0175 z m 4.43022,0.39687 c 7.94e-4,0.0222 -0.01497,0.0595 -0.0011,0.0698 7.94e-4,-0.0262 -1.32e-4,-0.0367 0.0011,-0.0698 z m 52.020076,0.48009 v 0.003 c 0,0 5.3e-4,0 5.3e-4,0 -2.6e-4,-0.003 -2.5e-4,-0.003 -5.3e-4,-0.003 z m 0.045,0.004 h 5.3e-4 c 7.9e-4,8e-5 0.001,-8e-5 0.002,0 -8e-4,-1.6e-4 -0.002,0 -0.003,0 z m 0.003,0 c 0.0165,0.003 0.0324,0.008 0.0486,0.013 0.001,-0.003 0.002,-0.006 0.004,-0.008 -0.0175,-0.003 -0.0352,-0.003 -0.0527,-0.005 z m -48.75465,0.003 h -5.3e-4 c 0.007,0.014 0.0143,0.029 0.0212,0.045 7.9e-4,-0.0119 0.003,-0.0244 0.004,-0.0362 -0.0133,-0.004 -0.0128,-0.005 -0.0248,-0.009 z m 48.64613,0.17105 c -0.0134,0.003 -0.027,0.005 -0.0403,0.009 0.0135,-0.003 0.0268,-0.003 0.0403,-0.005 -2e-5,-0.003 -1e-5,-0.003 0,-0.004 z m -0.67386,0.7157 c -0.0494,0.013 -0.01,0.007 0.001,0.005 -2.6e-4,-0.003 -7.9e-4,-0.003 -0.001,-0.005 z m -47.6033,0.0625 c -0.001,0.005 -0.002,0.006 -0.003,0.0103 -0.0308,0.12004 -0.0396,0.24506 -0.0594,0.36743 -0.019,0.11782 -0.038,0.23556 -0.0568,0.35346 -0.006,0.0382 -0.007,0.0775 -0.0171,0.11472 h 0.25632 c 0.003,-0.0425 0.006,-0.0854 0.0139,-0.12917 -0.0288,-0.24209 -0.0807,-0.47948 -0.13384,-0.71676 z m 53.47891,0.54827 c -1e-5,0.0639 -5.3e-4,0.1183 -5.3e-4,0.25893 0.002,0.0183 0.003,0.027 0.002,0.0336 1.2e-4,2.1e-4 -1.2e-4,0 0,0 h 0.0341 c -2.6e-4,-0.009 -7.9e-4,-0.0175 -0.002,-0.0265 -0.008,-0.003 -0.0162,-0.008 -0.0243,-0.0109 -0.002,-0.0852 -0.007,-0.17055 -0.01,-0.25579 z m -5.30201,0.1323 c -0.0107,0.006 -0.0214,0.0119 -0.032,0.018 -2e-5,0.005 2e-5,0.0109 0,0.0156 0.004,0.0183 0.004,0.0366 -0.002,0.0563 -0.0274,-0.003 -0.0546,-0.007 -0.0822,-0.009 -0.0178,0 -0.0354,0.003 -0.0532,0.003 -2.6e-4,0.0106 0.002,0.0292 0,0.03 -0.0464,0.0227 -0.0777,0.0359 -0.10232,0.0434 h -5.2e-4 c 2e-5,0.003 -0.003,0.003 -0.004,0.006 h 0.51676 c -4e-5,-0.0106 -0.002,-0.0185 0.001,-0.0331 -0.008,-0.0331 -0.0151,-0.0662 -0.0227,-0.0992 h -0.005 c -0.002,0.0217 -0.006,0.0405 -0.0222,0.0429 0.002,0.007 0.009,0.0156 0.003,0.0185 -0.001,0 -0.003,8e-5 -0.004,0.003 0.002,0.008 0.003,0.0159 0.005,0.0238 -0.0276,0 -0.0556,0.003 -0.0832,0.005 -0.0274,0.009 -0.0541,0.0196 -0.0811,0.0295 -0.002,-0.0106 -0.004,-0.0212 -0.006,-0.0315 -10e-4,-1.3e-4 -0.002,1.6e-4 -0.003,0 -0.009,0 -0.005,-0.0177 -0.004,-0.0268 2.6e-4,-0.005 8e-4,-0.003 10e-4,-0.006 -0.006,-0.0292 -0.0126,-0.0585 -0.0181,-0.0878 z m 0.42582,0.0315 c -1.9e-4,0.0161 1.4e-4,0.0324 -5.3e-4,0.0486 -0.001,0.0249 -0.005,0.0497 -0.009,0.0744 -5.3e-4,0.003 0,0.006 0,0.009 h 0.37879 c -0.002,-0.0101 -0.003,-0.019 -0.005,-0.0284 -5.3e-4,0 -0.002,-0.003 -0.003,-0.004 -0.0139,0.0101 -0.0299,0.0201 -0.0543,0.029 -0.0296,0.0109 -0.051,-0.0372 -0.0765,-0.0558 -0.004,-0.0148 -0.0111,-0.0292 -0.0139,-0.0444 -0.002,-0.006 -0.001,-0.0132 -0.003,-0.0196 -0.0164,-0.003 -0.0327,-0.003 -0.0491,-0.004 -0.0149,0 -0.0301,-0.003 -0.045,-0.005 -0.0112,0 -0.0224,3e-5 -0.0336,0 h -0.002 c -0.028,-2e-5 -0.0558,0 -0.0837,0 z m 0.65577,0.004 c 9e-5,0.0225 -5.3e-4,0.0448 0,0.0672 7e-5,0.003 5.3e-4,0.004 5.3e-4,0.006 -0.001,0 0.008,-0.0116 0.0259,-0.0341 -0.003,-0.004 -0.006,-0.008 -0.008,-0.0119 -0.006,-0.009 -0.012,-0.0183 -0.0181,-0.0274 z m 2.90112,0.009 c 0.001,0.0198 -7e-5,0.0381 -5.3e-4,0.0517 0.003,0.0119 0.008,0.0254 -0.001,0.0269 -0.002,0 -0.003,2.6e-4 -0.005,0 -0.0133,0.0243 -0.0521,0.0262 -0.16743,0.005 -0.003,0 -0.002,-0.005 -0.003,-0.008 -0.01,0 -0.0197,0.003 -0.029,-0.003 -0.002,0 -0.002,-0.004 -0.003,-0.005 -0.003,0.003 -0.004,0.006 -0.007,0.008 8e-5,2.6e-4 -9e-5,0 0,0 -0.007,0.0135 -0.0293,0.0265 -0.0506,0.0367 h 0.27906 c 0.003,-0.0381 0.006,-0.0762 0.0103,-0.11422 -0.007,-1.4e-4 -0.0145,-0.003 -0.0217,-0.003 -5.3e-4,-3e-5 -0.001,0 -0.002,0 z m -3.27577,0.0196 h 5.3e-4 c 0.005,-0.003 0.0105,0.005 0.0155,0.007 -0.001,0 -0.002,-0.003 -0.004,-0.003 -0.006,-0.003 -0.015,-0.003 -0.0119,-0.005 z m 3.67006,0.0151 c -0.0111,0 -0.022,0.003 -0.0331,0.004 -2.7e-4,0.0143 2.2e-4,0.029 -5.3e-4,0.0414 -8e-4,0.0103 0.002,0.0233 0.004,0.0357 h 0.0295 c -1e-5,-0.027 -3e-5,-0.0541 0,-0.0811 z m -4.56975,0.007 c 2.6e-4,0 1.3e-4,0.003 5.3e-4,0.003 0.001,0.003 0.006,0.008 0.005,0.006 -0.004,-0.006 -0.003,-0.004 -0.005,-0.008 z m 0.15865,0.006 c 7.9e-4,8e-5 0.001,-8e-5 0.002,0 l -0.003,0.009 c 7.9e-4,-0.003 5.3e-4,-0.005 0.001,-0.009 z m 3.79873,0.009 c -0.007,0 -0.009,0 -0.0202,0.003 -0.007,0.003 0.0105,0.003 0.0227,0 -8e-4,0 -0.002,-0.003 -0.003,-0.004 z m -2.67839,0.007 c 0.001,0 -0.004,0.006 -0.004,0.006 0.001,-0.003 0.004,-0.005 0.004,-0.005 z m -48.43321,0.014 c -0.004,0.003 -0.004,0.003 -0.01,0.004 -2.3e-4,0 -7.9e-4,0.003 -0.001,0.004 0.004,-0.004 0.007,-0.005 0.0109,-0.007 z m 53.02828,0.0305 c -0.0111,0.003 -0.022,0.006 -0.0331,0.008 h 0.032 c 2.6e-4,-0.003 10e-4,-0.006 10e-4,-0.008 z" />
    </clipPath>
  </defs>
  <metadata
     id="metadata5">
    <rdf:RDF>
      <cc:Work
         rdf:about="">
        <dc:format>image/svg+xml</dc:format>
        <dc:type
           rdf:resource="http://purl.org/dc/dcmitype/StillImage" />
        <dc:title></dc:title>
      </cc:Work>
    </rdf:RDF>
  </metadata>
  <g
     id="layer1"
     transform="matrix(1.8700217,0,0,1.969897,4.0598272,-171.6914)">
    <g
       id="g1425"
       transform="matrix(0.90056813,0,0,0.87542846,-36.822392,-42.912611)">
      <g
         id="g1188">
        <path
           style="fill:none;stroke:#000000;stroke-width:1.465;stroke-linecap:butt;stroke-linejoin:miter;stroke-miterlimit:4;stroke-dasharray:none;stroke-opacity:1"
           d="m 99.378824,177.89359 -52.160156,0.27452 -0.274526,109.26181 219.621708,-0.27454 V 177.89359 l -52.93679,0.50269 -1.74708,-3.68828 -3.10592,6.11478 -2.4265,-5.92066 -2.4265,5.72654 -2.9118,-5.8236 -1.74708,5.53242 -2.03826,-6.11478 -1.74708,6.01772 -1.9412,-2.52356 -26.98268,0.19412 -2.32944,3.20298 -3.10592,-6.89126 -2.81474,5.8236 -1.65002,-5.04712 -3.20298,5.8236 -2.71768,-6.60008 -2.4265,5.04712 -2.4265,-5.43536 -1.55296,4.3677 h -17.56786 l -1.9412,2.9118 -1.84414,-6.01772 -2.32944,5.43536 -2.81474,-5.72654 -2.03826,5.24124 -2.4265,-5.3383 -2.13532,5.24124 -2.4265,-5.53242 -3.3971,5.53242 -2.62062,-5.04712 -2.13532,3.10592 z"
           id="path847"
           clip-path="url(#clipPath1164)" />
        <path
           style="fill:none;stroke:#000000;stroke-width:1.165;stroke-linecap:butt;stroke-linejoin:miter;stroke-miterlimit:4;stroke-dasharray:none;stroke-opacity:1"
           d="M 89.10108,178.78452 88.324602,203.826 H 224.59684 l 0.19412,-25.62384"
           id="path849" />
        <path
           style="fill:none;stroke:#000000;stroke-width:1.065;stroke-linecap:butt;stroke-linejoin:miter;stroke-miterlimit:4;stroke-dasharray:none;stroke-opacity:1"
           d="m 151.33308,283.03749 c 0,0 -0.68631,0.61767 -0.89221,1.23536 -0.20589,0.6177 -0.34316,1.5099 -0.48042,2.05897 -0.13726,0.54903 -0.0686,1.57853 0,1.85303 0.0686,0.27453 0.82358,1.7158 0.82358,1.7158 l 0.48042,0.34316"
           id="path851" />
        <path
           style="fill:none;stroke:#000000;stroke-width:1.065;stroke-linecap:butt;stroke-linejoin:miter;stroke-miterlimit:4;stroke-dasharray:none;stroke-opacity:1"
           d="m 155.51962,282.90022 0.75495,0.96084 c 0,0 0.75495,1.16673 0.89222,1.50989 0.13726,0.34317 0.48042,0.8236 0.48042,1.304 0,0.48043 0,1.78443 0,1.78443 l -1.02948,1.78443"
           id="path853" />
        <circle
           style="opacity:1;fill:#0a0000;stroke:#000000;stroke-width:0.920001;stroke-linecap:round;stroke-linejoin:round;stroke-miterlimit:4;stroke-dasharray:none;stroke-dashoffset:0;paint-order:markers fill stroke"
           id="path894"
           cx="153.56363"
           cy="286.91516"
           r="1.0637927" />
        <ellipse
           style="opacity:1;fill:#ffffff;stroke:#000000;stroke-width:0.920001;stroke-linecap:round;stroke-linejoin:round;stroke-miterlimit:4;stroke-dasharray:none;stroke-dashoffset:0;paint-order:markers fill stroke"
           id="path896"
           cx="47.35593"
           cy="207.50819"
           rx="7.1377058"
           ry="7.3779168" />
        <ellipse
           style="opacity:1;fill:#ffffff;stroke:#000000;stroke-width:0.920001;stroke-linecap:round;stroke-linejoin:round;stroke-miterlimit:4;stroke-dasharray:none;stroke-dashoffset:0;paint-order:markers fill stroke"
           id="path898"
           cx="156.20593"
           cy="204.52272"
           rx="8.0985508"
           ry="7.961287" />
        <ellipse
           style="opacity:1;fill:#0a0000;fill-opacity:1;stroke:#000000;stroke-width:0.920001;stroke-linecap:round;stroke-linejoin:round;stroke-miterlimit:4;stroke-dasharray:none;stroke-dashoffset:0;paint-order:markers fill stroke"
           id="path900"
           cx="89.076813"
           cy="178.49333"
           rx="1.55296"
           ry="1.5044299" />
        <ellipse
           style="fill:#0a0000;fill-opacity:1;stroke:#000000;stroke-width:0.920001;stroke-linecap:round;stroke-linejoin:round;stroke-miterlimit:4;stroke-dasharray:none;stroke-dashoffset:0;paint-order:markers fill stroke"
           id="path900-0"
           cx="140.1461"
           cy="178.30539"
           rx="1.55296"
           ry="1.5044299" />
        <ellipse
           style="fill:#0a0000;fill-opacity:1;stroke:#000000;stroke-width:0.920001;stroke-linecap:round;stroke-linejoin:round;stroke-miterlimit:4;stroke-dasharray:none;stroke-dashoffset:0;paint-order:markers fill stroke"
           id="path900-1"
           cx="172.26578"
           cy="178.03085"
           rx="1.55296"
           ry="1.5044299" />
        <ellipse
           style="fill:#0a0000;fill-opacity:1;stroke:#000000;stroke-width:0.920001;stroke-linecap:round;stroke-linejoin:round;stroke-miterlimit:4;stroke-dasharray:none;stroke-dashoffset:0;paint-order:markers fill stroke"
           id="path900-8"
           cx="225.11226"
           cy="178.16812"
           rx="1.55296"
           ry="1.5044299" />
        <path
           style="fill:none;stroke:#000000;stroke-width:1.065;stroke-linecap:butt;stroke-linejoin:miter;stroke-miterlimit:4;stroke-dasharray:none;stroke-opacity:1"
           d="m 71.377055,276.99787 -0.137263,21.82492"
           id="path981" />
        <path
           style="fill:none;stroke:#000000;stroke-width:0.800175;stroke-linecap:butt;stroke-linejoin:miter;stroke-miterlimit:4;stroke-dasharray:none;stroke-opacity:1"
           d="m 77.790597,281.09913 -0.137263,12.32035"
           id="path981-9" />
        <path
           style="fill:none;stroke:#000000;stroke-width:1.065;stroke-linecap:butt;stroke-linejoin:miter;stroke-miterlimit:4;stroke-dasharray:none;stroke-opacity:1"
           d="m 78.034339,287.42992 4.666962,0.0686"
           id="path1003" />
        <path
           style="fill:none;stroke:#000000;stroke-width:1.065;stroke-linecap:butt;stroke-linejoin:miter;stroke-miterlimit:4;stroke-dasharray:none;stroke-opacity:1"
           d="M 82.449073,277.19287 82.31181,299.01779"
           id="path981-8" />
        <path
           style="fill:none;stroke:#000000;stroke-width:0.800175;stroke-linecap:butt;stroke-linejoin:miter;stroke-miterlimit:4;stroke-dasharray:none;stroke-opacity:1"
           d="m 88.862615,281.29413 -0.137263,12.32035"
           id="path981-9-7" />
        <path
           style="fill:none;stroke:#000000;stroke-width:1.065;stroke-linecap:butt;stroke-linejoin:miter;stroke-miterlimit:4;stroke-dasharray:none;stroke-opacity:1"
           d="m 89.106357,287.62492 4.666962,0.0686"
           id="path1003-1" />
        <path
           style="fill:none;stroke:#000000;stroke-width:1.065;stroke-linecap:butt;stroke-linejoin:miter;stroke-miterlimit:4;stroke-dasharray:none;stroke-opacity:1"
           d="m 93.84177,277.13515 -0.137263,21.82492"
           id="path981-4" />
        <path
           style="fill:none;stroke:#000000;stroke-width:0.800175;stroke-linecap:butt;stroke-linejoin:miter;stroke-miterlimit:4;stroke-dasharray:none;stroke-opacity:1"
           d="m 100.25531,281.23641 -0.13726,12.32035"
           id="path981-9-71" />
        <path
           style="fill:#ff6600;stroke:#000800;stroke-width:1.468;stroke-linecap:butt;stroke-linejoin:miter;stroke-miterlimit:4;stroke-dasharray:none;stroke-opacity:1"
           d="m 100.10719,287.32586 5.33509,0.005"
           id="path1003-2" />
      </g>
      <text
         xml:space="preserve"
         style="font-size:10.5833px;line-height:1.25;font-family:sans-serif;letter-spacing:0px;word-spacing:0px;stroke-width:0.264583"
         x="43.48288"
         y="211.20256"
         id="text1192"><tspan
           id="tspan1190"
           x="43.48288"
           y="211.20256"
           style="stroke-width:0.264583">A</tspan></text>
      <text
         xml:space="preserve"
         style="font-size:10.5833px;line-height:1.25;font-family:sans-serif;letter-spacing:0px;word-spacing:0px;stroke-width:0.264583"
         x="152.96657"
         y="208.09663"
         id="text1196"><tspan
           id="tspan1194"
           x="152.96657"
           y="208.09663"
           style="stroke-width:0.264583">V</tspan></text>
      <text
         xml:space="preserve"
         style="font-size:10.5833px;line-height:1.25;font-family:sans-serif;letter-spacing:0px;word-spacing:0px;stroke-width:0.264583"
         x="151.02538"
         y="279.14453"
         id="text1200"><tspan
           id="tspan1198"
           x="151.02538"
           y="279.14453"
           style="stroke-width:0.264583">K</tspan></text>
      <text
         xml:space="preserve"
         style="font-size:10.5833px;line-height:1.25;font-family:sans-serif;letter-spacing:0px;word-spacing:0px;stroke-width:0.264583"
         x="60.1772"
         y="282.25049"
         id="text1204"><tspan
           id="tspan1202"
           x="60.1772"
           y="282.25049"
           style="stroke-width:0.264583">+</tspan></text>
      <text
         xml:space="preserve"
         style="font-size:10.5833px;line-height:1.25;font-family:sans-serif;letter-spacing:0px;word-spacing:0px;stroke-width:0.264583"
         x="103.36891"
         y="279.92102"
         id="text1208"><tspan
           id="tspan1206"
           x="103.36891"
           y="279.92102"
           style="stroke-width:0.264583">-</tspan></text>
      <text
         xml:space="preserve"
         style="font-size:10.5833px;line-height:1.25;font-family:sans-serif;letter-spacing:0px;word-spacing:0px;stroke-width:0.264583"
         x="137.13863"
         y="215.8533"
         id="text1204-0"><tspan
           id="tspan1202-0"
           x="137.13863"
           y="215.8533"
           style="stroke-width:0.264583">+</tspan></text>
      <text
         xml:space="preserve"
         style="font-size:10.5833px;line-height:1.25;font-family:sans-serif;letter-spacing:0px;word-spacing:0px;stroke-width:0.264583"
         x="167.97662"
         y="214.34741"
         id="text1208-5"><tspan
           id="tspan1206-8"
           x="167.97662"
           y="214.34741"
           style="stroke-width:0.264583">-</tspan></text>
      <text
         xml:space="preserve"
         style="font-size:10.5833px;line-height:1.25;font-family:sans-serif;letter-spacing:0px;word-spacing:0px;stroke-width:0.264583"
         x="37.210735"
         y="224.22638"
         id="text1204-0-2"><tspan
           id="tspan1202-0-6"
           x="37.210735"
           y="224.22638"
           style="stroke-width:0.264583">+</tspan></text>
      <text
         xml:space="preserve"
         style="font-size:10.5833px;line-height:1.25;font-family:sans-serif;letter-spacing:0px;word-spacing:0px;stroke-width:0.264583"
         x="38.125275"
         y="198.01305"
         id="text1208-5-8"><tspan
           id="tspan1206-8-1"
           x="38.125275"
           y="198.01305"
           style="stroke-width:0.264583">-</tspan></text>
      <text
         xml:space="preserve"
         style="font-size:10.5833px;line-height:1.25;font-family:sans-serif;letter-spacing:0px;word-spacing:0px;stroke-width:0.264583"
         x="106.242"
         y="166.08893"
         id="text1276"><tspan
           id="tspan1274"
           x="106.242"
           y="166.08893"
           style="stroke-width:0.264583">R1</tspan></text>
      <text
         xml:space="preserve"
         style="font-size:10.5833px;line-height:1.25;font-family:sans-serif;letter-spacing:0px;word-spacing:0px;stroke-width:0.264583"
         x="147.28729"
         y="165.83124"
         id="text1276-0"><tspan
           id="tspan1274-8"
           x="147.28729"
           y="165.83124"
           style="stroke-width:0.264583">R2</tspan></text>
      <text
         xml:space="preserve"
         style="font-size:10.5833px;line-height:1.25;font-family:sans-serif;letter-spacing:0px;word-spacing:0px;stroke-width:0.264583"
         x="193.95689"
         y="167.75291"
         id="text1276-04"><tspan
           id="tspan1274-3"
           x="193.95689"
           y="167.75291"
           style="stroke-width:0.264583">R3</tspan></text>
      <path
         style="fill:none;stroke:#000000;stroke-width:0.865;stroke-linecap:butt;stroke-linejoin:miter;stroke-miterlimit:4;stroke-dasharray:none;stroke-opacity:1"
         d="m 64.239351,174.87379 3.84338,3.56885 -4.117907,3.56885"
         id="path1314" />
      <path
         style="fill:none;stroke:#000000;stroke-width:0.865;stroke-linecap:butt;stroke-linejoin:miter;stroke-miterlimit:4;stroke-dasharray:none;stroke-opacity:1"
         d="m 245.6569,174.86884 3.84338,3.56885 -4.11791,3.56885"
         id="path1314-6" />
      <path
         style="fill:none;stroke:#000000;stroke-width:0.865;stroke-linecap:butt;stroke-linejoin:miter;stroke-miterlimit:4;stroke-dasharray:none;stroke-opacity:1"
         d="m 269.87807,242.0146 -3.33203,4.05042 -3.80929,-3.89656"
         id="path1314-3" />
      <path
         style="fill:none;stroke:#000000;stroke-width:0.865;stroke-linecap:butt;stroke-linejoin:miter;stroke-miterlimit:4;stroke-dasharray:none;stroke-opacity:1"
         d="m 234.84237,290.96039 -3.91961,-3.48496 4.03983,-3.657"
         id="path1314-9" />
      <path
         style="fill:none;stroke:#000000;stroke-width:0.865;stroke-linecap:butt;stroke-linejoin:miter;stroke-miterlimit:4;stroke-dasharray:none;stroke-opacity:1"
         d="m 43.293677,248.73554 3.451952,-3.94871 3.690771,4.009"
         id="path1314-67" />
    </g>
  </g>
</svg>
